<?xml version="1.0" encoding="utf-8"?>
<!-- Generator: Adobe Illustrator 16.0.0, SVG Export Plug-In . SVG Version: 6.00 Build 0)  -->
<!DOCTYPE svg PUBLIC "-//W3C//DTD SVG 1.1//EN" "http://www.w3.org/Graphics/SVG/1.1/DTD/svg11.dtd">
<svg version="1.1" id="Capa_1" xmlns="http://www.w3.org/2000/svg" xmlns:xlink="http://www.w3.org/1999/xlink" x="0px" y="0px"
	 width="100px" height="100px" viewBox="0 0 100 100" enable-background="new 0 0 100 100" xml:space="preserve">
<g id="g1226">
	<path id="_193716144" fill="#FDD1A1" stroke="#000000" stroke-linecap="round" stroke-linejoin="round" d="M66.222,35.343
		c0.964,0,1.746-0.637,1.746-1.438c0-0.799-0.782-1.436-1.746-1.436c-0.308,0-0.599,0.074-0.837,0.184
		c0.2,0.835,0.346,1.708,0.419,2.652C65.931,35.324,66.076,35.343,66.222,35.343z"/>
	<path id="path6" fill="none" stroke="#FFCC99" stroke-linecap="round" stroke-linejoin="round" d="M64.022,40.271
		c-0.184-0.181-4.548,4.928-4.729,4.729c-0.146-0.147,5.492-6.528,5.347-6.676c-0.255-0.253-7.438,7.947-7.691,7.692
		c-0.236-0.236,7.618-8.636,7.456-8.818c-0.311-0.31-8.875,9.383-9.131,9.128c-0.291-0.291,9.312-10.001,9.075-10.256
		c-0.273-0.272-10.384,11.11-10.747,10.747c-0.255-0.255,11.003-11.892,10.765-12.128C64.003,34.325,52.493,47.417,52.057,47
		C51.8,46.747,64.275,34.234,63.948,33.924c-0.417-0.417-12.585,13.404-12.984,12.984c-0.273-0.272,12.93-13.566,12.622-13.876
		c-0.42-0.417-13.623,14.423-14.022,14.022c-0.291-0.291,14.075-14.692,13.784-14.983c-0.437-0.438-14.548,15.456-15.001,15.002
		C48,46.728,63.421,31.596,63.004,31.179c-0.491-0.491-15.022,15.875-15.442,15.439c-0.346-0.346,15.404-15.93,15.096-16.259
		c-0.473-0.473-15.786,16.604-16.187,16.185C46.126,46.2,62.513,30.123,62.076,29.688c-0.455-0.455-16.26,17.421-16.842,16.839
		c-0.363-0.362,17.024-17.495,16.677-17.859C61.403,28.16,44.89,46.51,44.49,46.091c-0.454-0.454,17.221-17.495,16.73-17.984
		C60.693,27.578,44.036,46.2,43.581,45.745c-0.401-0.398,17.367-17.821,17.004-18.186c-0.474-0.473-17.641,18.477-18.059,18.06
		c-0.493-0.491,17.675-18.114,17.258-18.532c-0.473-0.472-17.567,18.659-18.114,18.113c-0.437-0.435,17.968-18.113,17.46-18.621
		c-0.437-0.437-17.532,18.694-18.114,18.112c-0.401-0.4,18.076-18.458,17.677-18.859c-0.475-0.472-17.878,18.933-18.407,18.406
		C39.87,43.817,58.02,26.196,57.53,25.705c-0.582-0.582-17.277,18.131-17.715,17.712c-0.363-0.365,17.386-17.84,16.933-18.294
		c-0.456-0.456-17.224,18.403-17.823,17.822c-0.456-0.454,17.623-18.222,17.241-18.587c-0.511-0.508-17.169,18.079-17.623,17.623
		c-0.419-0.417,17.203-17.459,16.695-17.967c-0.456-0.456-16.895,18.039-17.46,17.457C37.27,40.962,54.437,24.25,54.074,23.885
		c-0.437-0.434-16.094,17.022-16.549,16.55c-0.384-0.382,15.876-16.386,15.476-16.768C52.474,23.141,37.47,40.29,36.924,39.744
		c-0.327-0.327,15.204-15.858,14.858-16.204c-0.527-0.527-14.749,15.586-15.168,15.169c-0.308-0.31,14.641-14.985,14.204-15.422
		s-13.839,14.802-14.331,14.33c-0.382-0.381,13.676-14.077,13.275-14.475C49.346,22.722,36.762,37.07,36.29,36.617
		c-0.291-0.291,12.219-12.841,11.854-13.204c-0.362-0.363-11.692,12.293-12.001,12.002c-0.291-0.291,10.947-11.656,10.656-11.93
		c-0.362-0.363-10.401,11.167-10.783,10.785c-0.236-0.236,9.076-9.984,8.82-10.237c-0.291-0.291-8.384,8.982-8.693,8.691
		c-0.217-0.219,7.203-8.021,7.021-8.203c-0.203-0.198-6.53,6.912-6.712,6.709c-0.109-0.107,4.473-5.636,4.365-5.765
		c-0.165-0.162-3.546,3.837-3.692,3.694"/>
	<path id="path9" fill="none" stroke="#FF4C80" stroke-linecap="round" stroke-linejoin="round" d="M63.295,51.983
		c-0.146-0.146-3.511,3.799-3.656,3.653c-0.091-0.09,2.929-4,2.854-4.09c-0.126-0.129-3.182,3.473-3.327,3.327
		c-0.091-0.091,2.801-3.927,2.729-4.019c-0.164-0.164-2.838,3.146-2.983,2.981c-0.071-0.071,2.765-3.762,2.674-3.854
		c-0.146-0.145-3.11,3.418-3.274,3.273c-0.072-0.072,2.874-3.963,2.783-4.054c-0.146-0.146-3.001,3.309-3.146,3.145
		c-0.091-0.091,2.801-3.782,2.69-3.873c-0.146-0.146-2.726,3.054-2.891,2.891c-0.091-0.091,2.946-3.964,2.855-4.055
		c-0.146-0.146-3.383,3.655-3.528,3.527c-0.071-0.073,2.765-3.947,2.69-4.019c-0.146-0.146-2.926,3.237-3.071,3.075
		c-0.074-0.074,2.709-3.766,2.636-3.838c-0.108-0.109-2.908,3.163-3.037,3.037c-0.035-0.036,0.274-1.51,0.256-1.546
		c-0.074-0.074-1.093,1.238-1.164,1.164"/>
	<path id="path12" fill="none" stroke="#FF4C80" stroke-linecap="round" stroke-linejoin="round" d="M40.6,56.109
		C40.544,56.057,40.652,56.184,40.6,56.109c-0.055-0.036,1.526-2.817,1.472-2.872c-0.091-0.091-1.801,2.019-1.911,1.908
		c-0.09-0.091,3.294-4.472,3.22-4.545c-0.183-0.182-4,4.328-4.164,4.163c-0.146-0.145,4.4-5.546,4.293-5.656
		c-0.147-0.144-4.438,4.857-4.656,4.657c-0.093-0.091,3.344-4.528,3.234-4.636c-0.181-0.183-4.217,4.617-4.417,4.416
		c-0.109-0.107,3.928-4.945,3.802-5.072c-0.202-0.2-3.821,4.2-4.019,4.018c-0.093-0.091,2.745-3.999,2.671-4.073
		c-0.107-0.11-2.145,2.437-2.292,2.291"/>
	<path id="path15" fill="none" stroke="#FF4C80" stroke-linecap="round" stroke-linejoin="round" d="M63.477,69.223
		c-0.056-0.055,0,0.146-0.074,0.071c-0.017-0.017-0.491-0.873-0.527-0.89c-0.107-0.109-1.035,1.235-1.145,1.146
		c-0.036-0.036,1.019-2.292,0.982-2.328c-0.129-0.127-2.273,2.528-2.401,2.399c-0.072-0.071,1.583-2.855,1.545-2.908
		c-0.162-0.164-2.836,3.072-2.964,2.963c-0.091-0.091,2.729-3.854,2.656-3.928c-0.184-0.182-3.928,4.293-4.111,4.111
		c-0.091-0.093,3.637-4.675,3.529-4.784c-0.184-0.182-4.384,4.729-4.546,4.546c-0.129-0.127,4.508-5.49,4.362-5.636
		c-0.253-0.256-5.872,6.311-6.091,6.091c-0.163-0.164,5.438-6.602,5.311-6.729c-0.219-0.219-6.329,6.819-6.565,6.564
		c-0.165-0.162,6.456-7.272,6.274-7.456c-0.237-0.236-7.202,7.747-7.475,7.475c-0.2-0.2,6.946-7.911,6.765-8.109
		c-0.236-0.238-8.13,8.637-8.384,8.382c-0.254-0.253,8.42-9.328,8.202-9.564c-0.31-0.31-9.057,9.729-9.384,9.383
		c-0.201-0.2,9.184-9.894,8.912-10.165c-0.291-0.291-10.021,10.602-10.313,10.311c-0.255-0.255,10.202-10.983,9.931-11.255
		c-0.401-0.401-10.949,11.655-11.312,11.31c-0.257-0.255,10.782-11.565,10.51-11.839c-0.362-0.363-11.802,12.621-12.222,12.221
		c-0.291-0.291,12.167-12.803,11.86-13.111c-0.365-0.364-12.767,13.531-13.15,13.147c-0.291-0.291,13.076-13.729,12.75-14.039
		c-0.365-0.362-13.804,14.549-14.167,14.168c-0.329-0.327,13.965-14.404,13.565-14.805c-0.382-0.382-14.402,15.205-14.803,14.805
		c-0.346-0.347,14.586-15.058,14.166-15.478c-0.398-0.398-15.02,15.878-15.438,15.441c-0.365-0.365,15.421-15.895,15.039-16.276
		c-0.51-0.51-15.64,16.658-16.148,16.147c-0.419-0.417,16.11-16.421,15.621-16.894c-0.564-0.563-16.895,17.967-17.422,17.421
		c-0.438-0.437,17.675-18.058,17.203-18.514c-0.602-0.599-17.713,18.659-18.186,18.187c-0.365-0.362,18.331-18.477,17.822-18.985
		c-0.491-0.49-16.877,17.803-17.333,17.33C35.796,68.622,53.729,51.418,53.311,51c-0.419-0.417-15.84,16.658-16.258,16.258
		c-0.346-0.347,15.894-16.202,15.457-16.639c-0.473-0.472-14.057,14.838-14.458,14.457c-0.363-0.363,14.367-15.166,14.057-15.474
		c-0.345-0.346-12.803,13.728-13.275,13.274c-0.272-0.274,13.203-13.658,12.838-14.038c-0.327-0.329-11.419,11.982-11.693,11.691
		c-0.236-0.236,10.166-10.928,9.894-11.183c-0.273-0.272-8.875,9.437-9.166,9.165c-0.255-0.255,8.092-8.838,7.856-9.074
		c-0.217-0.219-6.438,6.982-6.711,6.71c-0.163-0.165,5.583-6.565,5.419-6.728c-0.198-0.202-3.909,4.235-4.074,4.07
		c-0.089-0.09,2.983-4.144,2.91-4.235c-0.107-0.109-1.489,1.691-1.598,1.6"/>
	<path id="path18" fill="none" stroke="#00B26B" stroke-linecap="round" stroke-linejoin="round" d="M44.327,81.296
		c-0.109-0.107-1.383,1.584-1.474,1.477"/>
	<path id="path20" fill="none" stroke="#00B26B" stroke-linecap="round" stroke-linejoin="round" d="M62.694,78.587
		c-0.146-0.146-2.183,2.473-2.328,2.33c-0.072-0.074,1.872-3.094,1.819-3.148c-0.109-0.107-2.729,3.038-2.893,2.893
		c-0.072-0.073,2.201-3.42,2.127-3.511c-0.162-0.164-2.636,2.948-2.8,2.801c-0.071-0.072,2.201-3.327,2.128-3.401
		c-0.163-0.162-3.272,3.565-3.418,3.42c-0.091-0.091,2.836-4.019,2.745-4.109c-0.146-0.146-3.056,3.401-3.236,3.236
		c-0.11-0.109,3.182-4.238,3.091-4.329c-0.165-0.162-3.818,4.165-3.983,3.983c-0.107-0.109,3.492-4.546,3.401-4.655
		c-0.182-0.182-4.091,4.474-4.291,4.293c-0.109-0.11,3.582-4.694,3.473-4.802c-0.2-0.2-4.529,4.837-4.691,4.691
		c-0.129-0.128,4.109-5.237,3.983-5.363c-0.165-0.165-4.784,5.218-5.002,4.999c-0.109-0.107,4.691-5.71,4.546-5.855
		c-0.2-0.2-5.056,5.438-5.256,5.257c-0.127-0.129,3.947-4.947,3.82-5.075c-0.164-0.163-4.747,5.075-4.912,4.91
		c-0.09-0.091,3.384-4.455,3.273-4.564c-0.146-0.146-3.891,4.202-4.055,4.057c-0.09-0.093,2.619-3.873,2.547-3.947
		c-0.183-0.182-3.001,3.347-3.166,3.165c-0.073-0.074,2.019-3.165,1.946-3.256c-0.346-0.346-9.674,10.294-9.983,9.984
		c-0.236-0.236,9.001-9.803,8.765-10.021c-0.364-0.364-9.038,9.766-9.402,9.402c-0.217-0.219,8.093-8.984,7.912-9.148
		c-0.328-0.327-8.567,9.258-8.911,8.912c-0.165-0.164,7.747-8.693,7.584-8.857c-0.291-0.291-8.422,9.077-8.749,8.748
		c-0.163-0.164,7.53-8.384,7.365-8.548c-0.255-0.255-8.438,8.984-8.713,8.712c-0.198-0.202,7.785-8.676,7.584-8.894
		c-0.31-0.31-8.219,8.784-8.491,8.493c-0.203-0.2,7.091-7.984,6.929-8.13c-0.236-0.236-7.294,7.801-7.549,7.548
		c-0.181-0.181,6.439-7.348,6.275-7.511c-0.181-0.183-4.639,4.982-4.82,4.818c-0.11-0.109,3.82-4.892,3.692-5.019
		c-0.128-0.128-1.71,1.908-1.82,1.817"/>
	<path id="_193716384" fill="none" stroke="#000000" stroke-linecap="round" stroke-linejoin="round" d="M62.202,80.188
		l14.695,11.021l5.181-7.455"/>
	<path id="_193704936" fill="none" stroke="#000000" stroke-linecap="round" stroke-linejoin="round" d="M36.762,82.898
		l-9.803,15.256l-8.512-3.945"/>
	<path id="_193716336" fill="none" stroke="#000000" stroke-linecap="round" stroke-linejoin="round" d="M37.907,49.982
		L25.194,36.016l-3.182-1.529"/>
	<path id="_193715712" fill="none" stroke="#000000" stroke-linecap="round" stroke-linejoin="round" d="M61.53,46.146
		l12.965-14.167l3.201-2.564"/>
	<path id="_193716240" fill="none" stroke="#AA4400" stroke-linecap="round" stroke-linejoin="round" d="M53.092,19.668
		l-0.055,2.163"/>
	<path id="_193714272" fill="none" stroke="#AA4400" stroke-linecap="round" stroke-linejoin="round" d="M50.727,19.54l0.055,2.092"
		/>
	<path id="_193705920" fill="none" stroke="#AA4400" stroke-linecap="round" stroke-linejoin="round" d="M47.819,19.85l0.363,2.254"
		/>
	<path id="_193716216" fill="none" stroke="#AA4400" stroke-linecap="round" stroke-linejoin="round" d="M44.745,20.358l0.563,2.401
		"/>
	<path id="_193716192" fill="none" stroke="#AA4400" stroke-linecap="round" stroke-linejoin="round" d="M42,21.157l0.799,2.402"/>
	<path id="_193713936" fill="#FDD1A1" stroke="#000000" stroke-linecap="round" stroke-linejoin="round" d="M34.615,39.834
		c0.272,0,0.544-0.055,0.78-0.146c-0.236-0.926-0.379-1.836-0.472-2.692c-0.11-0.017-0.198-0.017-0.308-0.017
		c-0.963,0-1.746,0.637-1.746,1.438C32.87,39.217,33.649,39.834,34.615,39.834z"/>
	<path id="path1190" fill="#FF4C80" stroke="#000000" stroke-linecap="round" stroke-linejoin="round" d="M34.305,72.368
		L34.305,72.368h-0.181H34.305z"/>
	<path id="path1194" fill="none" stroke="#000000" stroke-linecap="round" stroke-linejoin="round" d="M40.38,46.253l-4.837,7.33
		l4.766,4.346l4.909-9.93C43.455,47.636,41.816,47.071,40.38,46.253z"/>
	<path id="path1188" fill="none" stroke="#000000" stroke-linecap="round" stroke-linejoin="round" d="M40.309,57.929L34.324,72.35
		l31.934-1.946l-7.729-13.528l-5.419-9.093c-2.638,0.527-5.384,0.601-7.91,0.146L40.309,57.929z"/>
	<path id="_193716048" fill="none" stroke="#000000" stroke-linecap="round" stroke-linejoin="round" d="M60.712,44.727l3.637,6.22
		l-5.819,5.928l-5.419-9.093C55.892,47.235,58.549,46.2,60.712,44.727z"/>
	<path id="_193715856" fill="none" stroke="#000000" stroke-linecap="round" stroke-linejoin="round" d="M27.887,30.996
		l-2.692,5.021l-4.71,2.747"/>
	<path id="_193704912" fill="none" stroke="#000000" stroke-linecap="round" stroke-linejoin="round" d="M20.72,36.326l4.475-0.31
		l-0.489-4.165"/>
	<path id="_193714944" fill="none" stroke="#000000" stroke-linecap="round" stroke-linejoin="round" d="M71.204,28.124l3.311,3.854
		l3.854,1.892"/>
	<path id="_193712712" fill="none" stroke="#000000" stroke-linecap="round" stroke-linejoin="round" d="M79.097,31.923
		l-4.582,0.055l0.126-3.728"/>
	<path id="_193716120" fill="none" stroke="#000000" stroke-linecap="round" stroke-linejoin="round" d="M35.469,39.999
		c-5.564-20.75,29.116-25.189,30.352-4.348C66.604,48.8,39.161,53.801,35.469,39.999z"/>
	<path id="_193715544" stroke="#000000" stroke-linecap="round" d="M50.527,29.051c0-0.546,0.364-0.982,0.801-0.982
		c0.437,0,0.8,0.437,0.8,0.982c0,0.544-0.363,0.983-0.8,0.983C50.872,30.015,50.527,29.579,50.527,29.051z"/>
	<path id="_193715520" stroke="#000000" stroke-linecap="round" d="M46.491,29.469c0-0.544,0.363-0.982,0.799-0.982
		c0.436,0,0.799,0.438,0.799,0.982c0,0.546-0.363,0.983-0.799,0.983C46.836,30.452,46.491,30.015,46.491,29.469z"/>
	<path id="_193707168" fill="none" stroke="#000000" stroke-linecap="round" stroke-linejoin="round" d="M58.966,32.469
		c-1.436,14.676-17.04,14.549-18.731,0.491"/>
	<path id="_193715688" fill="#00A859" stroke="#000000" stroke-linecap="round" stroke-linejoin="round" d="M62.584,25.378
		l2.946-3.728l-4.11-0.274c-0.017,0.346-0.146,0.654-0.362,0.911L62.584,25.378z M54.928,21.832l3.311-0.637
		c0.036-0.565,0.363-1.054,0.837-1.31l-1.51-2.819L54.928,21.832z"/>
	<path id="_193715736" fill="#00A859" stroke="#000000" stroke-linecap="round" stroke-linejoin="round" d="M34.796,30.287
		l-0.219-3.745c-0.181-0.074-0.346-0.181-0.472-0.31l-4.2,2.001L34.796,30.287z M36.905,24.413l4.074-1.381l-4.892-2.819
		l0.182,3.492C36.542,23.885,36.779,24.122,36.905,24.413z"/>
	<path id="_193711272" fill="none" stroke="#AA4400" stroke-linecap="round" stroke-linejoin="round" d="M60.148,3.154
		c3.183,5.237,3.345,10.875,0.673,17.167c3.654-3.692,4.947-9.056,4.036-15.877"/>
	<path id="_193715592" fill="none" stroke="#AA4400" stroke-linecap="round" stroke-linejoin="round" d="M67.24,6.956
		c0.219,7.42-1.908,11.966-6.419,13.366c0.308-5.803-0.982-10.403-4.475-13.929"/>
	<path id="_193714968" fill="none" stroke="#AA4400" stroke-linecap="round" stroke-linejoin="round" d="M19.847,15.886
		c4.364,2.964,9.075,5.727,14.114,8.2c-3.656-3.382-6.929-6.929-9.948-11.184"/>
	<path id="_193716552" fill="none" stroke="#AA4400" stroke-linecap="round" stroke-linejoin="round" d="M18.304,20.467
		c5.345-0.109,10.492,1.164,15.658,3.619c-3.565-4.801-5.094-10.22-4.331-16.458"/>
	<path id="_193711296" fill="none" stroke="#000000" stroke-linecap="round" stroke-linejoin="round" d="M64.404,77.678
		l-4.401,5.021L47.528,77.06l-4.766,7.22l-8.384-1.963l5.746-10.222l18.404-1.217l5.691,6.69L64.404,77.678z"/>
	<path id="_192825200" fill="#00A859" stroke="#000000" stroke-linecap="round" stroke-linejoin="round" d="M58.238,21.267
		c0-0.873,0.709-1.582,1.582-1.582s1.583,0.708,1.583,1.582s-0.71,1.583-1.583,1.583C58.947,22.869,58.238,22.159,58.238,21.267z"/>
	<path id="_193171656" fill="#00A859" stroke="#000000" stroke-linecap="round" stroke-linejoin="round" d="M33.578,25.087
		c0-0.892,0.783-1.62,1.746-1.62c0.966,0,1.746,0.728,1.746,1.62c0,0.89-0.78,1.617-1.746,1.617
		C34.36,26.705,33.578,25.977,33.578,25.087z"/>
</g>
</svg>
