<?xml version="1.0" encoding="utf-8"?>
<!-- Generator: Adobe Illustrator 16.0.0, SVG Export Plug-In . SVG Version: 6.00 Build 0)  -->
<!DOCTYPE svg PUBLIC "-//W3C//DTD SVG 1.1//EN" "http://www.w3.org/Graphics/SVG/1.1/DTD/svg11.dtd">
<svg version="1.1" id="Capa_1" xmlns="http://www.w3.org/2000/svg" xmlns:xlink="http://www.w3.org/1999/xlink" x="0px" y="0px"
	 width="100px" height="100px" viewBox="0 0 100 100" enable-background="new 0 0 100 100" xml:space="preserve">
<g id="g1411">
	<g id="_193714512_1_">
		<path id="path55" fill="none" stroke="#804C80" stroke-linecap="round" stroke-linejoin="round" d="M36.853,70.606
			c0.075,0.074,0.603-0.811,0.697-0.697c0.037,0.037-0.642,1.924-0.604,1.979c0.113,0.113,1.979-2.206,2.093-2.092
			c0.056,0.057-1.698,2.92-1.659,2.96c0.112,0.113,2.281-2.488,2.375-2.377c0.094,0.094-2.658,3.828-2.602,3.885
			c0.169,0.171,3.507-3.771,3.639-3.638c0.094,0.092-3.168,4.298-3.092,4.372c0.169,0.171,4.11-4.485,4.299-4.298
			c0.094,0.095-4.431,5.468-4.299,5.602c0.169,0.168,5.316-5.676,5.486-5.487c0.132,0.131-5.467,6.504-5.298,6.654
			c0.189,0.188,5.921-6.353,6.147-6.147c0.169,0.171-5.62,6.733-5.469,6.882c0.246,0.245,5.318-5.807,5.563-5.562
			c0.113,0.114-4.224,5.337-4.11,5.431c0.151,0.15,3.902-4.241,4.072-4.073c0.095,0.095-2.715,3.885-2.64,3.942
			c0.151,0.15,2.47-2.679,2.564-2.564c0.057,0.055-1.602,2.752-1.564,2.789c0.094,0.094,1.696-1.904,1.81-1.808
			c0.019,0.018-0.302,1.486-0.283,1.506c0.076,0.077-0.038-0.111,0.037-0.037"/>
		<path id="path57" fill="none" stroke="#804C80" stroke-linecap="round" stroke-linejoin="round" d="M28.067,68.759
			c0.094,0.092,0.32-0.528,0.414-0.415c0.038,0.037-1.018,2.169-0.962,2.226c0.114,0.111,2.093-2.321,2.206-2.208
			c0.095,0.096-2.96,4.11-2.865,4.224c0.151,0.153,4.072-4.372,4.223-4.224c0.132,0.134-4.6,5.562-4.449,5.715
			c0.188,0.188,4.977-5.374,5.166-5.168c0.169,0.17-5.316,6.469-5.166,6.619c0.245,0.245,6.505-6.921,6.711-6.711
			c0.132,0.131-5.958,6.917-5.788,7.087c0.264,0.265,6.656-7.221,6.939-6.938c0.188,0.188-5.94,6.825-5.789,6.995
			c0.265,0.265,6.467-6.919,6.694-6.693c0.188,0.188-5.958,6.882-5.827,7.035c0.189,0.188,6.486-6.902,6.694-6.694
			c0.169,0.168-5.204,6.373-5.09,6.484c0.226,0.228,5.957-6.428,6.184-6.183c0.132,0.131-5.411,6.598-5.279,6.711
			c0.113,0.114,1.187-1.338,1.263-1.263"/>
	</g>
	<g id="path1371_1_">
		<path id="path60" fill="none" stroke="#A4CC52" stroke-linecap="round" stroke-linejoin="round" d="M38.021,43.588
			c0.075,0.074,0.679-0.831,0.754-0.756c0.151,0.153-4.619,5.601-4.487,5.732c0.208,0.21,4.864-5.334,5.109-5.107
			c0.246,0.245-8.24,9.011-8.013,9.239c0.283,0.282,8.712-9.335,9.013-9.014c0.339,0.339-13.01,13.67-12.614,14.065
			c0.339,0.339,13.142-13.857,13.5-13.499c0.358,0.358-17.063,17.327-16.573,17.817c0.566,0.563,17.309-18.139,17.723-17.726
			c0.434,0.435-18.779,19.12-18.232,19.667c0.434,0.433,18.705-19.855,19.288-19.289c0.509,0.509-18.967,19.345-18.514,19.797
			c0.622,0.623,19.042-20.193,19.627-19.627c0.509,0.509-18.817,19.175-18.345,19.646c0.528,0.527,18.93-19.929,19.439-19.439
			c0.565,0.564-18.95,19.232-18.421,19.758C27.916,65.497,45.847,45.096,46.43,45.7c0.472,0.472-18.571,18.853-18.024,19.4
			c0.452,0.455,17.798-18.91,18.365-18.364c0.528,0.529-17.535,18.119-17.102,18.551c0.49,0.492,16.705-17.664,17.195-17.194
			c0.415,0.414-16.347,17.006-15.97,17.365c0.471,0.473,15.819-16.875,16.347-16.348c0.434,0.435-15.348,15.876-14.914,16.292
			c0.528,0.529,14.518-15.592,15.064-15.063c0.377,0.376-14.461,15.102-14.16,15.403c0.377,0.376,14.217-15.159,14.688-14.688
			c0.377,0.378-14.179,14.593-13.783,14.99c0.49,0.489,13.632-14.556,14.103-14.105c0.377,0.379-13.442,14.105-13.085,14.464
			c0.434,0.433,12.576-13.351,12.973-12.973c0.357,0.358-11.709,12.369-11.389,12.671c0.358,0.358,11.69-12.426,12.067-12.067
			c0.282,0.282-11.54,12.426-11.256,12.688c0.283,0.284,11.161-11.897,11.52-11.521c0.32,0.322-10.672,11.313-10.389,11.596
			c0.283,0.284,10.162-10.747,10.445-10.445c0.283,0.284-9.71,10.428-9.465,10.673c0.263,0.265,9.314-9.879,9.597-9.598
			c0.263,0.265-8.843,9.58-8.58,9.843c0.32,0.321,8.56-9.143,8.843-8.844c0.208,0.208-7.995,9.014-7.787,9.22
			c0.245,0.247,8.052-8.559,8.297-8.295c0.151,0.151-7.033,8.015-6.825,8.221c0.226,0.227,6.844-7.354,7.108-7.109
			c0.188,0.189-6.127,7.092-5.939,7.279c0.245,0.245,6.015-6.353,6.185-6.185c0.151,0.151-5.28,6.222-5.147,6.355
			c0.169,0.168,4.713-5.148,4.94-4.94c0.094,0.094-3.809,4.901-3.677,5.032c0.208,0.21,3.791-4.128,3.96-3.957
			c0.094,0.092-3.337,4.503-3.225,4.617c0.169,0.171,3.375-3.694,3.526-3.524c0.076,0.074-2.226,3.318-2.15,3.376
			c0.151,0.148,2.263-2.547,2.413-2.414c0.058,0.057-1.659,2.75-1.602,2.808c0.094,0.096,1.999-2.261,2.129-2.13
			c0.039,0.037-0.866,2.206-0.829,2.243c0.095,0.097,0.982-1.188,1.095-1.093c0.018,0.018-0.153,1.357-0.134,1.377
			c0.058,0.057,0.058-0.171,0.114-0.113"/>
	</g>
	<g id="_193712592_1_">
		<path id="path63" fill="none" stroke="#804C80" stroke-linecap="round" stroke-linejoin="round" d="M42.131,62.611
			c0.057,0.058,0-0.113,0.057-0.057c0.019,0.018,0.679,0.621,0.679,0.621c0.076,0.076,0.585-0.791,0.698-0.695
			c0.038,0.037-0.453,1.696-0.415,1.733c0.094,0.095,2.037-2.245,2.13-2.131c0.039,0.039-1.49,2.602-1.433,2.641
			c0.114,0.113,1.623-1.85,1.735-1.736c0.057,0.058-1.339,2.453-1.301,2.51c0.094,0.092,1.131-1.303,1.226-1.226"/>
	</g>
	<g id="_193709880_1_">
		<path id="path66" fill="none" stroke="#A4CC52" stroke-linecap="round" stroke-linejoin="round" d="M49.541,45.981
			c0.076,0.077,0.359-0.47,0.416-0.413c0.019,0.018,0.076,1.15,0.094,1.167c0.094,0.094,1.094-1.281,1.188-1.189
			c0.037,0.039-1.075,2.188-1.038,2.245c0.132,0.133,2.262-2.49,2.376-2.376c0.055,0.057-2.207,3.281-2.132,3.358
			c0.17,0.168,3.188-3.489,3.338-3.338c0.112,0.112-3.149,4.243-3.055,4.335c0.132,0.133,3.525-3.846,3.678-3.675
			c0.075,0.075-3.282,4.318-3.168,4.432c0.15,0.148,3.186-3.526,3.356-3.358c0.092,0.096-3.433,4.656-3.338,4.732
			c0.169,0.171,3.885-4.243,4.055-4.053c0.092,0.094-3.113,4.147-2.999,4.243c0.17,0.169,3.244-3.489,3.375-3.375
			c0.057,0.057-2.018,3.185-1.941,3.242c0.132,0.133,2.187-2.49,2.337-2.337c0.058,0.057-1.169,2.431-1.112,2.488
			c0.113,0.113,1.753-1.961,1.867-1.867c0.018,0.02-0.473,1.639-0.434,1.659c0.075,0.077,0.416-0.565,0.49-0.489"/>
	</g>
	<g id="path1367_1_">
		<path id="path69" fill="none" stroke="#A4CC52" stroke-linecap="round" stroke-linejoin="round" d="M28.839,44.379
			c0.094,0.094,0.905-1.056,0.98-0.979c0.037,0.035-0.962,2.28-0.925,2.317c0.151,0.151,2.527-2.79,2.66-2.659
			c0.075,0.075-1.979,3.319-1.924,3.375c0.151,0.151,3.318-3.62,3.469-3.469c0.114,0.114-3.225,4.392-3.129,4.468
			c0.169,0.171,3.582-3.922,3.751-3.751c0.076,0.077-2.62,3.885-2.544,3.959c0.151,0.151,3.694-3.979,3.845-3.848
			c0.095,0.096-2.979,3.999-2.865,4.11c0.131,0.133,3.79-4.127,3.959-3.957c0.113,0.114-3.149,4.412-3.054,4.506
			c0.131,0.131,2.62-2.923,2.771-2.772"/>
	</g>
	<g id="_193713648_1_">
		<path id="path72" fill="none" stroke="#FFCC99" stroke-linecap="round" stroke-linejoin="round" d="M37.21,20.13
			c0.057,0.057,0.226-0.356,0.283-0.28c0.094,0.092-2.733,3.808-2.64,3.9c0.227,0.228,5.487-5.843,5.675-5.675
			c0.132,0.133-5.977,6.901-5.788,7.092c0.245,0.245,7.221-7.676,7.447-7.451c0.227,0.228-8.013,8.882-7.767,9.127
			c0.339,0.339,9.465-10.05,9.767-9.766c0.302,0.302-10.408,10.972-10.088,11.293c0.283,0.282,10.786-11.407,11.087-11.088
			c0.263,0.265-11.049,11.86-10.804,12.107c0.396,0.394,11.501-12.389,11.936-11.937c0.32,0.319-12.331,12.859-11.954,13.235
			c0.357,0.358,13.161-13.875,13.518-13.519c0.321,0.321-13.537,14.105-13.122,14.5c0.434,0.435,13.745-14.5,14.123-14.122
			c0.339,0.339-14.424,14.99-14.066,15.349c0.357,0.358,14.555-15.406,14.971-14.971c0.302,0.302-14.838,15.611-14.5,15.95
			c0.414,0.416,15.215-16.252,15.725-15.725c0.414,0.416-15.801,16.403-15.405,16.801c0.509,0.507,15.971-16.877,16.421-16.422
			c0.454,0.45-16.458,17.043-16.044,17.458c0.491,0.49,16.214-17.12,16.667-16.667c0.358,0.358-15.95,16.593-15.536,17.006
			c0.416,0.416,16.103-17.214,16.666-16.667c0.398,0.396-16.854,17.139-16.364,17.648c0.453,0.451,16.421-17.572,16.989-16.988
			c0.337,0.339-16.933,17.421-16.461,17.894c0.453,0.45,17.12-18.252,17.686-17.686c0.489,0.49-16.989,17.743-16.63,18.082
			c0.471,0.47,16.517-17.629,17.082-17.083c0.359,0.358-16.498,16.969-16.063,17.404c0.565,0.564,16.63-17.46,17.046-17.045
			c0.433,0.433-16.764,17.157-16.33,17.592c0.565,0.564,16.33-17.461,16.894-16.895c0.415,0.415-16.61,17.253-16.271,17.589
			c0.509,0.512,16.536-17.646,17.083-17.08c0.435,0.433-16.687,16.988-16.178,17.478c0.453,0.453,16.612-17.478,17.045-17.045
			c0.416,0.416-16.668,17.271-16.252,17.686c0.546,0.546,16.122-17.176,16.649-16.647c0.396,0.394-16.272,16.554-15.801,17.026
			c0.528,0.527,15.932-16.764,16.347-16.348c0.321,0.319-15.536,16.195-15.159,16.573C45.47,42.193,60.646,25.335,61.1,25.806
			c0.435,0.435-15.367,15.858-14.99,16.234c0.415,0.416,14.97-15.95,15.459-15.46c0.415,0.416-14.931,15.613-14.592,15.95
			c0.528,0.529,15.007-15.95,15.48-15.478c0.376,0.376-14.801,15.423-14.443,15.78c0.396,0.398,14.084-14.818,14.46-14.459
			c0.358,0.359-13.272,13.745-12.876,14.14c0.358,0.358,12.933-13.725,13.332-13.331c0.396,0.398-12.728,13.371-12.427,13.672
			c0.396,0.393,12.182-13.086,12.632-12.634c0.267,0.264-11.294,12.142-11.01,12.443c0.302,0.302,11.144-11.803,11.481-11.484
			c0.228,0.228-10.764,11.521-10.445,11.842c0.319,0.321,9.917-10.614,10.258-10.257c0.228,0.225-8.899,9.597-8.636,9.879
			c0.319,0.321,8.221-8.841,8.542-8.539c0.225,0.225-6.845,7.822-6.638,8.032c0.208,0.206,6.543-7.109,6.825-6.825
			c0.114,0.111-5.108,6.202-4.958,6.353c0.168,0.17,3.996-4.337,4.167-4.167"/>
	</g>
	<path id="_193714704" fill="none" stroke="#000000" stroke-linecap="round" stroke-linejoin="round" d="M29.027,77.543
		l-0.641,9.563l16.253-5.809l0.565,4.882"/>
	<path id="_193714608" fill="none" stroke="#000000" stroke-linecap="round" stroke-linejoin="round" d="M40.869,79.297
		l0.471,10.391l16.119-6.299v6.769"/>
	<path id="_193714512" fill="none" stroke="#000000" stroke-linecap="round" stroke-linejoin="round" d="M27.84,66.363
		l-3.055,10.616l8.635,1.132l1.904-6.091l1.698,7.429l8.276-0.358l0.34-9.335L27.84,66.363z"/>
	<path id="path1367" fill="none" stroke="#000000" stroke-linecap="round" stroke-linejoin="round" d="M38.003,43.247
		c-2.903-1.884-6.053-1.884-9.484,0c-2.187,4.281-0.66,6.375,4.6,6.298L38.003,43.247z"/>
	<path id="path1371" fill="none" stroke="#000000" stroke-linecap="round" stroke-linejoin="round" d="M47.449,44.003
		c-0.773-0.114-1.565-0.267-2.376-0.455c-2.281-0.66-4.242-1.508-5.882-2.505l-1.188,2.224l-4.884,6.298L22.033,65.253l31.675,6.088
		c0.151-0.245,0.131-0.188,0.208-0.489l-3.959-17.743L47.449,44.003z"/>
	<path id="_193714320" fill="#FFCC99" stroke="#000000" stroke-linecap="round" stroke-linejoin="round" d="M34.458,21.696
		c-1.301,0-2.357,0.643-2.357,1.417c0,0.658,0.754,1.224,1.772,1.375c0.548-0.942,1.113-1.83,1.716-2.621
		C35.25,21.752,34.872,21.696,34.458,21.696z"/>
	<path id="_193713528" fill="#FFCC99" stroke="#000000" stroke-linecap="round" stroke-linejoin="round" d="M64.87,32.935
		c-0.037,0-0.057,0-0.094,0c-0.076,0.849-0.208,1.716-0.415,2.602c-0.02,0.057-0.055,0.112-0.077,0.151
		c0.171,0.074,0.379,0.131,0.569,0.131c0.771,0,1.412-0.641,1.412-1.452C66.266,33.558,65.662,32.935,64.87,32.935z"/>
	<path id="_193713648" fill="none" stroke="#000000" stroke-linecap="round" stroke-linejoin="round" d="M63.814,26.354
		c1.15,2.846,1.34,5.9,0.566,9.182c-3.563,7.485-9.995,10.144-19.308,7.995c-10.162-2.98-13.971-9.221-11.388-18.742
		c3.922-7.072,9.408-9.975,16.479-8.692C55.649,17.888,60.194,21.302,63.814,26.354L63.814,26.354z"/>
	<path id="_193713720" fill="none" stroke="#000000" stroke-linecap="round" stroke-linejoin="round" d="M57.517,47.829
		l21.948-4.976"/>
	<path id="_193713792" fill="none" stroke="#000000" stroke-linecap="round" stroke-linejoin="round" d="M78.862,39.458
		l-2.266,4.073l-0.034,4.94"/>
	<path id="_193713912" fill="none" stroke="#000000" stroke-linecap="round" stroke-linejoin="round" d="M80.803,46.076
		l-4.206-2.544l1.906,4.6"/>
	<path id="_193714056" fill="none" stroke="#000000" stroke-linecap="round" stroke-linejoin="round" d="M30.762,42.285
		l-6.411-15.779"/>
	<path id="_193714152" fill="none" stroke="#000000" stroke-linecap="round" stroke-linejoin="round" d="M30.234,28.541
		l-4.224,2.018l-4.563-2.921"/>
	<path id="_193714248" fill="none" stroke="#000000" stroke-linecap="round" stroke-linejoin="round" d="M21.109,30.803l4.921-0.282
		l1.093-4.449"/>
	<path id="_193710048" fill="none" stroke="#000000" stroke-linecap="round" stroke-linejoin="round" d="M62.759,24.826
		c4.676,2.339,9.483,3.828,14.385,4.451"/>
	<path id="_193713360" fill="none" stroke="#000000" stroke-linecap="round" stroke-linejoin="round" d="M64.342,27.786
		c4.451,1.961,8.635,3.358,12.521,4.167"/>
	<path id="_193713384" fill="none" stroke="#000000" stroke-linecap="round" stroke-linejoin="round" d="M64.796,30.672
		c4.11,2.073,7.805,3.47,11.105,4.167"/>
	<path id="_189529488" fill="none" stroke="#000000" stroke-linecap="round" stroke-linejoin="round" d="M66.134,35.083
		c3.638,1.64,7.222,3.054,10.708,4.261"/>
	<path id="_193712040" fill="none" stroke="#000000" stroke-linecap="round" stroke-linejoin="round" d="M33.571,24.431
		c-5.392,0.942-10.389-0.321-14.989-3.751"/>
	<path id="_193711416" fill="none" stroke="#000000" stroke-linecap="round" stroke-linejoin="round" d="M36.325,20.944
		c-7.542-0.02-13.293-2.624-17.252-7.787"/>
	<path id="_193708968" fill="none" stroke="#000000" stroke-linecap="round" stroke-linejoin="round" d="M38.455,18.849
		c-5.732-1.32-10.634-3.412-14.707-6.296"/>
	<path id="_193712400" fill="none" stroke="#000000" stroke-linecap="round" stroke-linejoin="round" d="M28.519,12.212
		c5.694,2.544,10.389,3.979,14.065,4.32"/>
	<path id="_193708584" fill="none" stroke="#000000" stroke-linecap="round" stroke-linejoin="round" d="M39.285,23.96
		c-0.528,12.199,18.231,14.837,21.703,5.374"/>
	<path id="_193711152" fill="none" stroke="#000000" stroke-linecap="round" stroke-linejoin="round" d="M54.482,22.677
		c-0.888-1.81-1.85-2.055-2.903-0.697"/>
	<path id="_193708128" fill="none" stroke="#000000" stroke-linecap="round" stroke-linejoin="round" d="M49.184,20.773
		c-0.83-0.999-1.905-0.944-3.262,0.151"/>
	<path id="_193711800" fill="none" stroke="#000000" stroke-linecap="round" stroke-linejoin="round" d="M45.205,15.929
		c2.281-2.245,3.808-4.167,4.619-5.771"/>
	<path id="_193712496" fill="none" stroke="#000000" stroke-linecap="round" stroke-linejoin="round" d="M48.43,15.872
		c1.564-1.264,2.922-2.567,4.091-3.885"/>
	<path id="_193711872" fill="none" stroke="#000000" stroke-linecap="round" stroke-linejoin="round" d="M51.408,16.549
		c0.812-1.207,1.435-2.339,1.904-3.393"/>
	<path id="_193707840" fill="none" stroke="#000000" stroke-linecap="round" stroke-linejoin="round" d="M55.199,18.342
		c-0.284-1.565-0.643-3.037-1.059-4.377"/>
	<path id="_193709664" fill="none" stroke="#000000" stroke-linecap="round" stroke-linejoin="round" d="M58.421,20.565
		c-0.752-1.017-1.11-2.092-1.054-3.185"/>
	<path id="_193711632" fill="none" stroke="#000000" stroke-linecap="round" stroke-linejoin="round" d="M60.988,22.885
		c-0.455-0.773-0.66-1.602-0.644-2.47"/>
	<path id="_193712592" fill="none" stroke="#000000" d="M43.168,67.154c5.694-3.979,4.337-8.257,0.416-5.373
		C40.944,59.143,38.757,61.499,43.168,67.154z"/>
	<path id="_193709880" fill="none" stroke="#000000" stroke-linecap="round" stroke-linejoin="round" d="M47.468,44.003
		c2.602,0.393,4.977,0.358,7.071-0.114c2.584,2.602,3.714,4.77,3.393,6.523c-0.697,2.508-3.375,3.412-7.994,2.676L47.468,44.003z"/>
	<path id="_193712376" fill="none" stroke="#000000" stroke-linecap="round" stroke-linejoin="round" d="M33.119,49.545l4.884-6.298
		"/>
</g>
</svg>
