<?xml version="1.0" encoding="utf-8"?>
<!-- Generator: Adobe Illustrator 16.0.0, SVG Export Plug-In . SVG Version: 6.00 Build 0)  -->
<!DOCTYPE svg PUBLIC "-//W3C//DTD SVG 1.1//EN" "http://www.w3.org/Graphics/SVG/1.1/DTD/svg11.dtd">
<svg version="1.1" id="Capa_1" xmlns="http://www.w3.org/2000/svg" xmlns:xlink="http://www.w3.org/1999/xlink" x="0px" y="0px"
	 width="100px" height="100px" viewBox="0 0 100 100" enable-background="new 0 0 100 100" xml:space="preserve">
<g id="g1317">
	<g id="_193717272_1_">
		<g id="g159">
			<path id="path157" fill="none" stroke="#FF4D4D" stroke-linecap="round" stroke-linejoin="round" d="M57.749,43.047
				c0.093,0.089,0.253-0.379,0.326-0.325c0.017,0.018-0.019,1.208,0.017,1.225c0.09,0.09,0.756-0.955,0.865-0.865
				c0.054,0.054-1.028,2.144-0.974,2.18c0.092,0.09,2.001-2.197,2.109-2.107c0.071,0.072-1.604,2.918-1.568,2.955
				c0.161,0.162,2.773-3.027,2.901-2.9c0.071,0.072-2.505,3.675-2.434,3.747c0.163,0.162,3.135-3.441,3.298-3.297
				c0.071,0.072-3.263,4.234-3.153,4.324c0.144,0.144,3.891-4.287,4.089-4.09c0.109,0.108-3.927,4.972-3.782,5.116
				c0.18,0.181,4.631-5.044,4.846-4.846c0.128,0.126-4.756,5.693-4.593,5.837c0.142,0.144,3.655-4.018,3.835-3.837
				c0.092,0.09-3.693,4.684-3.584,4.791c0.125,0.127,2.667-2.917,2.792-2.792c0.073,0.072-2.467,3.568-2.412,3.621
				c0.106,0.108,1.817-2.053,1.944-1.945c0.055,0.053-0.919,2.108-0.884,2.143c0.073,0.071,0.397-0.56,0.487-0.486"/>
		</g>
	</g>
	<g id="path1107_1_">
		<path id="path162" fill="none" stroke="#FF4D4D" stroke-linecap="round" stroke-linejoin="round" d="M41.825,43.191
			c0.072,0.072,0.756-0.865,0.811-0.812c0.054,0.054-2.036,3.207-1.981,3.26c0.126,0.126,2.756-3.008,2.882-2.881
			c0.144,0.144-4.666,5.584-4.54,5.71c0.216,0.216,5.351-5.765,5.566-5.566c0.18,0.18-6.99,7.764-6.791,7.962
			c0.234,0.234,7.259-7.71,7.475-7.477c0.199,0.198-9.223,9.963-9.006,10.178c0.378,0.379,9.674-10.412,10.052-10.051
			c0.343,0.342-11.637,12.322-11.367,12.591c0.36,0.361,12.465-13.204,12.827-12.825c0.43,0.432-14.7,15.365-14.376,15.689
			c0.487,0.488,15.329-16.23,15.78-15.779c0.522,0.522-17.815,18.085-17.348,18.571c0.595,0.596,18.123-19.329,18.734-18.734
			c0.505,0.504-21.004,21.113-20.445,21.671c0.522,0.522,20.951-22.373,21.653-21.652c0.522,0.522-23.491,23.381-22.86,24.012
			c0.667,0.666,23.365-24.896,24.138-24.139c0.595,0.594-26.264,25.975-25.525,26.714c0.703,0.702,26.101-27.705,26.912-26.913
			c0.631,0.631-27.092,27.004-26.425,27.669c0.846,0.848,25.958-27.183,26.572-26.571c0.664,0.667-25.779,25.869-25.221,26.428
			c0.667,0.664,24.895-26.374,25.634-25.635c0.56,0.559-24.877,24.913-24.193,25.598c0.811,0.811,23.726-25.31,24.518-24.518
			c0.523,0.522-23.941,23.979-23.347,24.555c0.577,0.577,22.555-23.924,23.24-23.24c0.63,0.631-22.826,22.952-22.249,23.528
			c0.576,0.577,21.906-23.257,22.57-22.572c0.598,0.594-21.381,21.85-20.931,22.301c0.54,0.541,21.004-21.995,21.507-21.508
			c0.435,0.432-20.985,21.095-20.463,21.617c0.596,0.593,20.104-21.348,20.734-20.735c0.522,0.504-19.887,20.033-19.347,20.572
			c0.667,0.668,18.879-20.104,19.492-19.491c0.416,0.413-19.041,19.203-18.5,19.743c0.522,0.522,18.123-19.021,18.574-18.572
			c0.468,0.468-17.331,17.781-16.971,18.141C40.114,70.537,56.292,52.449,56.74,52.9c0.416,0.414-16.608,16.772-16.104,17.275
			c0.433,0.433,16.193-17.15,16.681-16.682c0.415,0.415-16.123,16.663-15.763,17.006c0.504,0.505,15.583-16.321,15.961-15.96
			c0.413,0.414-15.006,15.546-14.627,15.924c0.522,0.522,14.79-15.491,15.133-15.132c0.358,0.361-14.143,14.646-13.764,15.005
			c0.341,0.343,13.402-14.157,13.78-13.779c0.396,0.395-12.898,13.491-12.61,13.779c0.343,0.343,12.647-13.455,13.061-13.059
			c0.25,0.251-11.927,12.716-11.674,12.971c0.361,0.359,11.654-12.395,12.032-12.035c0.326,0.326-11.078,11.674-10.752,11.998
			c0.288,0.288,10.644-11.329,10.986-10.989c0.217,0.216-9.545,10.432-9.312,10.684c0.359,0.359,9.115-9.729,9.42-9.422
			c0.218,0.216-8.43,9.313-8.179,9.564c0.325,0.326,8.377-8.898,8.646-8.646c0.218,0.216-7.582,8.503-7.421,8.664
			c0.234,0.236,7.747-8.215,7.981-7.98c0.196,0.2-6.901,7.819-6.722,7.999c0.236,0.234,6.596-7.007,6.812-6.809
			c0.144,0.142-5.676,6.575-5.531,6.717c0.198,0.201,5.387-5.816,5.604-5.602c0.106,0.108-4.758,5.819-4.649,5.928
			c0.199,0.198,4.702-5.134,4.917-4.917c0.108,0.106-3.367,4.431-3.277,4.521c0.182,0.179,3.565-3.927,3.747-3.748
			c0.09,0.093-2.449,3.622-2.379,3.712c0.146,0.145,2.722-2.991,2.847-2.847c0.073,0.073-1.944,3.045-1.873,3.116
			c0.125,0.125,2.143-2.396,2.271-2.269c0.035,0.036-0.811,2.035-0.775,2.072c0.09,0.088,0.811-0.974,0.882-0.884
			c0.021,0.02,0.127,1.188,0.163,1.205c0.054,0.055,0.361-0.468,0.413-0.413"/>
	</g>
	<g id="_193718184_1_">
		<g id="g167">
			<path id="path165" fill="none" stroke="#FF4D4D" stroke-linecap="round" stroke-linejoin="round" d="M31.809,44.902
				c0.072,0.072,0.307-0.45,0.379-0.378c0.018,0.018-0.235,1.477-0.198,1.496c0.126,0.125,1.819-2.09,1.945-1.946
				c0.055,0.054-1.513,2.558-1.441,2.63c0.144,0.144,3.044-3.333,3.188-3.188c0.072,0.072-2.721,3.874-2.648,3.945
				c0.144,0.144,4.594-4.954,4.773-4.773c0.109,0.107-4.178,5.259-4.071,5.368c0.253,0.252,5.999-6.449,6.215-6.215
				c0.162,0.162-5.981,7.062-5.818,7.206c0.288,0.288,6.827-7.314,7.061-7.062c0.199,0.199-7.097,7.926-6.863,8.143
				c0.235,0.234,5.531-5.891,5.71-5.71c0.163,0.162-5.169,6.106-5.025,6.25c0.144,0.145,3.621-3.927,3.765-3.765
				c0.09,0.09-3.422,4.557-3.297,4.667c0.109,0.108,1.478-1.694,1.585-1.586c0.072,0.071-1.639,2.685-1.585,2.738
				c0.055,0.055,0.36-0.468,0.415-0.413"/>
		</g>
	</g>
	<g id="_193717896_1_">
		<path id="path170" fill="none" stroke="#FFCC99" stroke-linecap="round" stroke-linejoin="round" d="M46.563,12.279
			c0.073,0.072,0.505-0.649,0.577-0.577"/>
		<path id="path172" fill="none" stroke="#FFCC99" stroke-linecap="round" stroke-linejoin="round" d="M35.287,18.908
			c0.144,0.144,2.324-2.594,2.468-2.469c0.09,0.091-3.009,4.107-2.937,4.198c0.216,0.216,4.99-5.459,5.224-5.225
			c0.144,0.144-6.052,7.025-5.89,7.169c0.252,0.253,6.809-7.294,7.043-7.043c0.216,0.216-7.295,8.143-7.133,8.305
			c0.306,0.306,7.98-8.466,8.231-8.232c0.217,0.216-8.303,9.151-8.124,9.331c0.306,0.306,9.403-10.087,9.746-9.746
			c0.216,0.216-9.998,10.719-9.764,10.935c0.433,0.433,14.178-15.024,14.608-14.61c0.435,0.433-15.203,15.69-14.789,16.105
			c0.541,0.541,15.403-16.285,15.854-15.852c0.449,0.45-15.71,16.302-15.313,16.699c0.577,0.577,16.662-17.492,17.076-17.077
			c0.488,0.486-17.598,18.032-17.203,18.429c0.469,0.468,17.708-18.933,18.322-18.321c0.468,0.469-18.16,18.482-17.745,18.897
			c0.487,0.54,18.086-19.221,18.644-18.664c0.435,0.432-19.13,19.348-18.626,19.834c0.559,0.559,18.826-19.906,19.365-19.365
			c0.56,0.559-19.149,19.564-18.752,19.959c0.576,0.594,19.563-20.481,20.03-20.014c0.468,0.469-20.391,20.699-19.869,21.221
			c0.631,0.629,19.907-21.167,20.538-20.536c0.43,0.432-20.717,20.788-20.087,21.401c0.577,0.576,19.761-20.663,20.212-20.212
			c0.468,0.469-19.815,20.356-19.402,20.77c0.541,0.541,19.51-20.536,20.014-20.013c0.576,0.575-19.707,20.031-19.275,20.445
			c0.684,0.685,20.194-21.202,20.697-20.698c0.506,0.504-20.644,21.022-20.211,21.455c0.504,0.504,20.499-21.798,21.148-21.149
			c0.541,0.541-20.95,21.383-20.481,21.852C39.52,37.3,59.623,14.62,60.289,15.305c0.647,0.648-21.454,21.689-20.932,22.229
			c0.612,0.613,21.041-22.301,21.671-21.67c0.577,0.577-21.148,21.203-20.572,21.797C40.997,38.2,61.1,15.611,61.802,16.314
			c0.56,0.558-20.967,21.401-20.499,21.869c0.594,0.594,20.878-22.211,21.544-21.545c0.612,0.613-21.256,21.582-20.824,22.032
			c0.629,0.63,20.59-21.671,21.131-21.13C63.64,18.024,42.168,38.975,42.6,39.426c0.577,0.576,21.148-22.158,21.654-21.653
			c0.521,0.522-21.096,21.292-20.52,21.869c0.469,0.469,20.302-21.238,20.77-20.77c0.506,0.504-20.246,20.32-19.634,20.933
			c0.594,0.594,19.346-20.501,19.923-19.924c0.521,0.522-19.689,19.959-19.203,20.429c0.594,0.594,19.275-20.446,19.871-19.87
			c0.484,0.486-19.187,19.51-18.665,20.032c0.489,0.487,18.719-19.798,19.257-19.258c0.561,0.559-18.752,18.916-18.213,19.456
			c0.451,0.45,17.547-18.789,18.178-18.177c0.486,0.487-17.384,17.942-17.006,18.321c0.47,0.468,16.971-17.799,17.384-17.384
			c0.487,0.487-16.267,16.808-15.853,17.221c0.468,0.469,15.745-16.771,16.267-16.267c0.435,0.432-15.87,16.141-15.402,16.609
			c0.414,0.415,15.293-16.068,15.69-15.69c0.361,0.36-14.016,14.753-13.689,15.096c0.431,0.432,13.077-13.834,13.455-13.457
			c0.326,0.324-12.645,13.294-12.267,13.655c0.288,0.288,11.925-12.683,12.305-12.305c0.288,0.289-10.845,11.368-10.523,11.691
			c0.271,0.271,10.252-11.006,10.63-10.628c0.198,0.198-9.025,9.818-8.772,10.07c0.307,0.306,8.358-8.846,8.611-8.611
			c0.196,0.198-6.539,7.476-6.379,7.638c0.234,0.234,5.387-5.873,5.623-5.621c0.071,0.072-2.54,3.657-2.452,3.747
			c0.092,0.09,0.488-0.667,0.576-0.577"/>
	</g>
	<path id="path1349" fill="none" stroke="#FFB200" stroke-linecap="round" stroke-linejoin="round" d="M63.209,3.596
		c-3.01-0.613-5.079,4.846-2.251,3.422c2.828-1.423-2.001-3.494-3.981-1.64c-1.984,1.856,0.053,5.946,1.403,3.694
		c1.352-2.233-4.198-1.532-4.468,1.405"/>
	<path id="path1353" fill="none" stroke="#FFB200" stroke-linecap="round" stroke-linejoin="round" d="M50.347,10.315
		C49.608,7.289,44.527,7.145,46.6,9c2.072,1.854,3.098-2.541,1.044-3.64C45.59,4.262,40.6,7.378,42.924,7.938
		c2.324,0.559,4.073-6.468-3.638-1.424"/>
	<path id="_193718184" fill="none" stroke="#000000" stroke-linecap="round" stroke-linejoin="round" d="M42.582,40.958
		c-0.342-0.126-0.702-0.253-1.027-0.397l-12.069,4.053l5.549,10.141L42.582,40.958z"/>
	<path id="path1351" fill="none" stroke="#FFB200" stroke-linecap="round" stroke-linejoin="round" d="M32.981,22.222
		c-3.441-1.621-4.36,2.594-2.433,1.604c1.928-0.991-1.496-2.522-2.918-1.063c-1.423,1.459-1.171,6.323,0.324,4.09
		c1.496-2.234-4.376-2.504-3.098,2.017"/>
	<path id="path1363" fill="none" stroke="#FFB200" stroke-linecap="round" stroke-linejoin="round" d="M34.89,18.385
		c-3.909-2.341-5.71,2.45-3.621,1.946c2.09-0.522-1.009-2.936-2.721-2.414c-1.71,0.504-3.152,4.017-0.648,3.315
		c2.522-0.703-0.306-2.415-2.521-1.856c-2.216,0.559-3.441,4.54-0.685,3.854c2.774-0.684-2.432-4.305-3.657-1.747"/>
	<path id="path1361" fill="none" stroke="#FFB200" stroke-linecap="round" stroke-linejoin="round" d="M33.413,12.927
		c-2.775-2.415-5.044,1.081-2.937,1.567c2.107,0.468,0.721-3.55-1.044-3.855c-1.766-0.306-4.9,2.342-2.342,2.847
		c2.559,0.486,0.991-2.973-1.225-3.459c-2.234-0.486-5.025,3.044-2.252,3.675c2.774,0.63-0.054-5.621-3.837-1.009"/>
	<path id="path1345" fill="none" stroke="#FFB200" stroke-linecap="round" stroke-linejoin="round" d="M73.098,24.222
		c0.63-2.341-4.053-2.756-2.791-0.756c1.26,1.981,2.521-0.865,1.17-2.631c-1.35-1.765-4.017-0.972-2.738,0.469
		c1.28,1.441,2.882-2.738-2.521-3.784"/>
	<path id="_193717368" fill="none" stroke="#000000" stroke-linecap="round" stroke-linejoin="round" d="M42.24,71.49l-3.063,25.905
		l-7.007,1.151"/>
	<path id="_193717464" fill="none" stroke="#000000" stroke-linecap="round" stroke-linejoin="round" d="M51.571,71.402
		l-1.819,25.597l7.78,0.503"/>
	<path id="_193719624" fill="none" stroke="#000000" stroke-linecap="round" stroke-linejoin="round" d="M29.323,51.622
		l-4.882,6.269l-1.099,3.766"/>
	<path id="_193719528" fill="none" stroke="#000000" stroke-linecap="round" stroke-linejoin="round" d="M18.461,55.854l5.981,2.019
		l3.872,4.649"/>
	<path id="_193719432" fill="none" stroke="#000000" stroke-linecap="round" stroke-linejoin="round" d="M25.594,62.718
		l-1.153-4.827l-4.466,1.297"/>
	<path id="_193719288" fill="none" stroke="#000000" stroke-linecap="round" stroke-linejoin="round" d="M68.937,48.289l9.169,2.234
		l4.504,0.469"/>
	<path id="_193719192" fill="none" stroke="#000000" stroke-linecap="round" stroke-linejoin="round" d="M77.366,56.106l0.739-5.584
		l2.432-4.089"/>
	<path id="_193719096" fill="none" stroke="#000000" stroke-linecap="round" stroke-linejoin="round" d="M82.411,47.802l-4.306,2.72
		l2.36,3.405"/>
	<path id="_193718952" fill="#FFFFFF" stroke="#000000" stroke-linecap="round" stroke-linejoin="round" d="M29.468,44.596
		l5.548,10.143c-3.135,2.269-4.666,0.071-3.207-2.594c-2.341,0.919-3.584-1.423-2.468-3.315
		C26.406,48.595,25.829,45.731,29.468,44.596L29.468,44.596z"/>
	<path id="_193718856" fill="#FFFFFF" stroke="#000000" stroke-linecap="round" stroke-linejoin="round" d="M62.163,52.937
		l3.404-10.304c4.506,0.793,4.919,3.909,0.974,3.495c3.711,1.026,2.918,3.837-0.846,3.404c3.494,1.208,3.097,4.055-0.74,2.575
		C68.792,54.396,64.417,56.844,62.163,52.937L62.163,52.937z"/>
	<path id="_193718568" fill="none" stroke="#FFB200" stroke-linecap="round" stroke-linejoin="round" d="M78.954,26.348
		c0-2.775-5.188-1.532-3.298-0.487c1.89,1.044,2.972-0.919,2.216-2.775c-0.775-1.874-4.395-1.477-3.802-0.18
		c0.614,1.297,3.73-0.594,2.703-2.666c-1.045-2.09-4.721-2.27-3.766-0.342c0.954,1.928,2.937-1.261,1.802-3.099
		c-1.136-1.837-5.981-1.134-3.423,0.216c2.559,1.352,2.251-2.809-2.179-3.584"/>
	<path id="path1107" fill="none" stroke="#000000" stroke-linecap="round" stroke-linejoin="round" d="M55.552,41.174
		c-4.269,1.206-8.971,1.188-12.97-0.216l-7.565,13.797l-9.187,16.917l38.566-0.416L58.831,53.46L55.552,41.174z"/>
	<path id="_193715376" fill="#FEFEFE" stroke="#000000" d="M40.186,45.334c0.307,0.271,0.667,0.396,1.1,0.396
		c0.973,0,1.783-0.812,1.765-1.82c0-0.792-0.487-1.477-1.153-1.728L40.186,45.334z"/>
	<path id="_193718088" fill="#FDD1A1" stroke="#000000" stroke-linecap="round" stroke-linejoin="round" d="M32.151,24.456
		c-1.099,0-1.999,0.74-1.999,1.658c0,0.919,0.9,1.657,1.999,1.657c0.216,0,0.433-0.036,0.631-0.09
		c-0.072-1.081-0.054-2.125,0.054-3.116C32.621,24.492,32.385,24.456,32.151,24.456z"/>
	<path id="_193717992" fill="#FDD1A1" stroke="#000000" stroke-linecap="round" stroke-linejoin="round" d="M68.792,24.348
		c-0.233,0-0.448,0.036-0.666,0.09c0.055,0.541,0.09,1.081,0.108,1.64c0.017,0.504,0,1.009-0.037,1.496
		c0.2,0.053,0.396,0.071,0.595,0.071c1.099,0,1.999-0.738,1.999-1.656C70.791,25.086,69.891,24.348,68.792,24.348L68.792,24.348z"/>
	<path id="_193717896" fill="none" stroke="#000000" stroke-linecap="round" stroke-linejoin="round" d="M51.065,10.297
		c-1.98,0.018-3.981,0.306-5.89,0.846l0.432,3.026l-4.827-0.107c-0.235,0.684-0.865,1.225-1.676,1.315
		c-0.486,0.054-0.937-0.072-1.297-0.307c-3.981,3.495-6.178,8.863-4.503,15.835c4.197,17.599,35.308,13.078,34.93-4.828
		c-0.108-4.865-1.838-8.539-4.468-11.115c-0.235,0.072-0.486,0.108-0.758,0.09c-0.898-0.072-1.602-0.738-1.729-1.566l-4.035-0.126
		l1.299-1.711C56.219,10.729,53.66,10.279,51.065,10.297L51.065,10.297z"/>
	<path id="_193717680" stroke="#000000" d="M52.436,18.313c0,0.631-0.413,1.117-0.919,1.117c-0.505,0-0.919-0.504-0.919-1.117
		c0-0.63,0.414-1.117,0.919-1.117C52.022,17.196,52.436,17.701,52.436,18.313z"/>
	<path id="_193717656" stroke="#000000" d="M47.789,18.817c0,0.631-0.416,1.117-0.919,1.117s-0.919-0.504-0.919-1.117
		c0-0.63,0.416-1.117,0.919-1.117C47.373,17.683,47.789,18.188,47.789,18.817z"/>
	<path id="_193717560" fill="none" stroke="#000000" stroke-linecap="round" stroke-linejoin="round" d="M60.309,22.258
		c-1.657,16.88-19.6,16.717-21.527,0.559"/>
	<path id="_193717272" fill="none" stroke="#000000" stroke-linecap="round" stroke-linejoin="round" d="M58.831,53.439l3.332-0.503
		l3.404-10.304l-9.275-1.694c-0.234,0.072-0.489,0.144-0.723,0.216L58.831,53.439z"/>
	<path id="path1321" fill="#ED3237" stroke="#000000" stroke-linecap="round" stroke-linejoin="round" d="M60.937,8.514
		l-3.692,4.846l4.019,0.126c-0.017-0.144-0.038-0.307-0.017-0.451c0.052-0.648,0.468-1.188,1.025-1.477L60.937,8.514z"/>
	<path id="_193717752" fill="#ED3237" stroke="#000000" stroke-linecap="round" stroke-linejoin="round" d="M69.529,12.045
		l-4.465,0.865c0.017,0.144,0.035,0.306,0.017,0.468c-0.055,0.559-0.343,1.026-0.773,1.333l2.701,2.647L69.529,12.045z"/>
	<path id="_193716816" fill="#ED3237" stroke="#000000" stroke-linecap="round" stroke-linejoin="round" d="M65.081,13.377
		c-0.09,1.026-1.025,1.766-2.089,1.675c-1.063-0.09-1.838-1.009-1.746-2.018c0.088-1.026,1.025-1.765,2.089-1.675
		C64.396,11.449,65.173,12.351,65.081,13.377z"/>
	<path id="_193712232" fill="#FEFEFE" stroke="#000000" d="M44.293,53.566c0,1.08-0.9,1.964-2.035,1.964
		c-1.117,0-2.036-0.884-2.036-1.964c0-1.079,0.9-1.963,2.036-1.963S44.293,52.487,44.293,53.566z"/>
	<path id="_193711392" fill="#FEFEFE" stroke="#000000" d="M53.083,46.884c0,1.188-0.899,2.162-2.034,2.162
		c-1.136,0-2.036-0.973-2.036-2.162c0-1.19,0.9-2.162,2.036-2.162C52.184,44.722,53.083,45.677,53.083,46.884z"/>
	<path id="_193712760" fill="#FEFEFE" stroke="#000000" d="M62.666,45.299c0,1.17-0.917,2.125-2.051,2.125
		c-1.137,0-2.056-0.955-2.056-2.125c0-1.171,0.919-2.126,2.056-2.126C61.749,43.155,62.666,44.109,62.666,45.299z"/>
	<path id="_193716888" fill="#FEFEFE" stroke="#000000" d="M36.458,46.343c0,1.009-0.775,1.819-1.729,1.819s-1.729-0.81-1.729-1.819
		s0.775-1.819,1.729-1.819C35.683,44.506,36.458,45.334,36.458,46.343z"/>
	<path id="_193713408" fill="#FEFEFE" stroke="#000000" d="M58.075,55.837c0,1.135-0.902,2.054-2.036,2.054
		c-1.117,0-2.037-0.919-2.037-2.054c0-1.136,0.902-2.055,2.037-2.055C57.173,53.766,58.075,54.685,58.075,55.837z"/>
	<path id="_193706712" fill="#FEFEFE" stroke="#000000" d="M47.878,60.988c0,1.117-1.009,2.036-2.271,2.036
		c-1.243,0-2.27-0.9-2.27-2.036c0-1.115,1.009-2.035,2.27-2.035C46.87,58.953,47.878,59.873,47.878,60.988z"/>
	<path id="_193716456" fill="#FEFEFE" stroke="#000000" d="M60.776,62.88c0,1.045-0.792,1.893-1.784,1.893
		c-0.99,0-1.781-0.848-1.781-1.893c0-1.044,0.791-1.892,1.781-1.892C59.984,60.988,60.776,61.836,60.776,62.88z"/>
	<path id="_193711944" fill="#FEFEFE" stroke="#000000" d="M37.196,64.681c0,1.027-0.991,1.857-2.234,1.857s-2.216-0.83-2.216-1.857
		c0-1.025,0.991-1.854,2.234-1.854C36.224,62.826,37.196,63.655,37.196,64.681z"/>
	<path id="_193715040" fill="#FEFEFE" stroke="#000000" d="M53.967,69.167c1.243-0.017,2.271,0.974,2.287,2.181
		c-1.691,0-2.918,0-4.52,0.036C51.696,70.157,52.707,69.167,53.967,69.167L53.967,69.167z"/>
	<path id="path1330" fill="#ED3237" stroke="#000000" stroke-linecap="round" stroke-linejoin="round" d="M44.906,9.27l-4.485,3.063
		c0.251,0.27,0.414,0.612,0.45,1.009c0.018,0.251,0,0.504-0.072,0.738l4.828,0.107L44.906,9.27z"/>
	<path id="_193710720" fill="#ED3237" stroke="#000000" stroke-linecap="round" stroke-linejoin="round" d="M33.395,11.18
		l0.613,5.512l3.224-2.197c-0.145-0.216-0.234-0.486-0.27-0.757c-0.037-0.289,0.018-0.577,0.107-0.828L33.395,11.18z"/>
	<path id="_193717008" fill="#ED3237" stroke="#000000" stroke-linecap="round" stroke-linejoin="round" d="M40.853,13.342
		c0.107,1.026-0.685,1.946-1.748,2.053c-1.081,0.107-2.036-0.631-2.143-1.64c-0.109-1.027,0.684-1.946,1.747-2.053
		C39.79,11.576,40.745,12.314,40.853,13.342z"/>
</g>
</svg>
