<?xml version="1.0" encoding="utf-8"?>
<!-- Generator: Adobe Illustrator 16.0.0, SVG Export Plug-In . SVG Version: 6.00 Build 0)  -->
<!DOCTYPE svg PUBLIC "-//W3C//DTD SVG 1.1//EN" "http://www.w3.org/Graphics/SVG/1.1/DTD/svg11.dtd">
<svg version="1.1" id="Capa_1" xmlns="http://www.w3.org/2000/svg" xmlns:xlink="http://www.w3.org/1999/xlink" x="0px" y="0px"
	 width="100px" height="100px" viewBox="0 0 100 100" enable-background="new 0 0 100 100" xml:space="preserve">
<g id="g1285">
	<g id="_193719384_1_">
		<path id="path218" fill="none" stroke="#7B8FCC" stroke-linecap="round" stroke-linejoin="round" d="M53.854,75.247
			c0.295,0.297,7.517-8.009,7.771-7.773c0.196,0.198-7.319,8.362-7.162,8.522c0.256,0.255,7.124-7.694,7.399-7.4
			c0.176,0.176-7.459,8.5-7.263,8.678c0.217,0.217,7.067-7.537,7.302-7.302c0.217,0.219-7.085,8.068-6.889,8.267
			c0.276,0.276,7.225-7.676,7.438-7.438c0.137,0.138-5.647,6.711-5.472,6.889c0.237,0.235,5.513-5.923,5.728-5.727
			c0.101,0.096-4.13,5.272-4.034,5.371c0.16,0.157,3.938-4.29,4.114-4.112c0.098,0.096-2.499,3.738-2.421,3.817
			c0.118,0.116,2.696-3.032,2.875-2.872c0.036,0.038-1.479,2.674-1.42,2.733c0.119,0.118,1.438-1.671,1.557-1.554
			c0.019,0.021,0.118,1.339,0.137,1.378c0.078,0.077,0.434-0.55,0.493-0.493"/>
		<path id="path220" fill="none" stroke="#7B8FCC" stroke-linecap="round" stroke-linejoin="round" d="M41.18,64.66
			c0.079,0.077,0.925-1.123,1.023-1.022c0.04,0.036-0.846,2.026-0.807,2.065c0.119,0.116,2.185-2.4,2.283-2.284
			c0.098,0.1-2.539,3.838-2.459,3.917c0.196,0.196,3.641-3.936,3.798-3.799c0.118,0.119-3.464,4.566-3.366,4.685
			c0.158,0.157,4.37-4.782,4.585-4.584c0.138,0.137-4.821,5.764-4.664,5.924c0.197,0.196,5.923-6.298,6.121-6.122
			c0.158,0.157-6.514,7.519-6.357,7.696c0.276,0.273,7.557-8.169,7.853-7.854c0.196,0.196-8.285,9.171-8.03,9.406
			c0.275,0.278,9.505-10.035,9.761-9.76c0.255,0.256-9.663,10.469-9.368,10.764c0.295,0.296,10.646-11.354,11-10.998
			c0.297,0.294-11.236,12.103-10.98,12.376c0.374,0.374,12.163-12.91,12.537-12.536c0.333,0.336-13.225,14.033-12.91,14.348
			c0.393,0.393,13.892-14.642,14.266-14.268c0.297,0.294-14.306,14.838-13.912,15.23c0.511,0.512,15.055-15.86,15.468-15.466
			c0.393,0.393-15.645,16.313-15.271,16.707c0.551,0.55,16.038-17.141,16.591-16.591c0.434,0.434-15.744,16.256-15.351,16.65
			c0.472,0.47,16.688-17.711,17.198-17.2c0.493,0.493-16.47,16.963-16.037,17.415c0.551,0.552,15.722-16.826,16.274-16.273
			c0.334,0.333-15.015,15.782-14.661,16.136c0.473,0.473,14.739-15.527,15.134-15.132c0.354,0.354-14.13,14.66-13.736,15.055
			c0.374,0.374,13.145-13.816,13.48-13.48c0.256,0.256-11.925,12.791-11.65,13.086c0.453,0.454,11.886-12.477,12.183-12.183
			c0.333,0.336-10.825,11.71-10.549,11.966c0.079,0.077,0.256-0.393,0.334-0.333"/>
	</g>
	<g id="_193712856_1_">
		<path id="path223" fill="none" stroke="#FFCC33" stroke-linecap="round" stroke-linejoin="round" d="M59.481,37.366
			c0.06,0.059,0.217-0.356,0.276-0.276c0.021,0.021,0.176,1.061,0.196,1.082c0.098,0.098,0.314-0.49,0.413-0.413
			c0.021,0.019-0.06,1.319-0.019,1.358c0.116,0.119,1.277-1.515,1.396-1.396c0.039,0.039-1.123,2.362-1.063,2.421
			c0.137,0.137,2.187-2.441,2.323-2.323c0.059,0.059-2.067,3.386-2.008,3.443c0.137,0.139,2.638-2.932,2.795-2.795
			c0.08,0.08-2.204,3.543-2.106,3.624c0.157,0.155,3.286-3.564,3.423-3.425c0.119,0.116-3.345,4.565-3.245,4.643
			c0.215,0.217,4.525-4.88,4.703-4.703c0.116,0.116-4.055,5.196-3.954,5.314c0.176,0.175,4.053-4.409,4.23-4.233
			c0.098,0.098-3.601,4.644-3.484,4.762c0.198,0.196,3.229-3.523,3.384-3.384c0.08,0.08-2.241,3.484-2.184,3.543
			c0.098,0.096,1.595-1.889,1.731-1.734c0.041,0.041-0.434,1.83-0.393,1.851c0.078,0.08,0.354-0.472,0.413-0.413"/>
	</g>
	<g id="_193713000_1_">
		<path id="path226" fill="none" stroke="#FFCC33" stroke-linecap="round" stroke-linejoin="round" d="M46.395,36.54
			c0.099,0.096,1.221-1.399,1.299-1.301c0.079,0.078-1.712,3.03-1.653,3.09c0.157,0.157,2.913-3.167,3.03-3.03
			c0.138,0.137-3.975,5.018-3.857,5.136c0.178,0.176,4.645-4.979,4.802-4.803c0.119,0.119-5.274,6.357-5.155,6.476
			c0.255,0.256,6.396-6.868,6.632-6.631c0.157,0.155-6.947,7.95-6.79,8.107c0.334,0.335,7.97-8.6,8.285-8.285
			c0.217,0.217-9.072,10.017-8.835,10.272c0.314,0.315,9.858-10.549,10.214-10.213c0.333,0.333-11.572,12.495-11.297,12.771
			c0.334,0.335,12.575-13.223,12.89-12.89C56.294,35.572,42.026,49.92,42.4,50.312c0.354,0.356,13.029-13.832,13.421-13.421
			c0.434,0.434-14.248,14.917-13.874,15.292c0.473,0.472,13.893-14.722,14.308-14.307C56.666,38.29,41.2,53.521,41.573,53.895
			c0.434,0.434,14.801-15.625,15.211-15.21c0.454,0.452-16.471,17.001-16.018,17.455c0.472,0.471,15.922-16.905,16.413-16.415
			c0.431,0.433-17.633,18.144-17.122,18.637c0.453,0.452,16.747-17.592,17.18-17.182c0.512,0.513-18.204,18.658-17.672,19.189
			c0.413,0.413,17.752-18.735,18.242-18.245c0.454,0.454-18.597,19.052-18.065,19.582c0.492,0.493,17.671-18.833,18.262-18.263
			c0.375,0.374-16.785,17.318-16.412,17.711C42.164,61.728,57.967,43.919,58.4,44.35c0.354,0.354-16,16.531-15.606,16.944
			c0.394,0.396,15.684-16.451,16.058-16.056c0.374,0.372-14.877,15.506-14.464,15.899c0.532,0.532,14.601-15.644,15.112-15.114
			c0.314,0.315-13.853,14.544-13.439,14.957c0.433,0.434,13.439-14.09,13.754-13.757c0.297,0.297-12.258,13.127-12.003,13.383
			c0.355,0.354,11.827-12.438,12.122-12.123c0.314,0.315-11.02,11.787-10.686,12.144c0.315,0.314,10.706-11.455,11.08-11.081
			c0.217,0.217-9.584,10.608-9.348,10.864c0.315,0.314,9.309-9.979,9.642-9.643c0.179,0.176-8.342,9.209-8.127,9.426
			c0.335,0.333,8.187-8.835,8.52-8.521c0.179,0.176-7.005,8.146-6.809,8.343c0.297,0.296,6.809-7.3,7.066-7.064
			c0.158,0.157-5.727,6.77-5.569,6.927c0.217,0.217,5.531-5.982,5.745-5.745c0.101,0.099-4.524,5.764-4.408,5.883
			c0.198,0.196,4.664-5.018,4.842-4.84c0.101,0.098-3.208,4.369-3.107,4.447c0.155,0.157,3.522-3.797,3.66-3.66
			c0.077,0.077-2.48,3.737-2.4,3.797c0.116,0.118,2.519-2.733,2.635-2.638c0.039,0.041-1.12,2.402-1.081,2.46
			c0.098,0.1,1.339-1.533,1.435-1.436c0.021,0.021-0.018,1.398,0,1.436c0.06,0.059,0.356-0.512,0.434-0.432"/>
	</g>
	<g id="_193057120_1_">
		<path id="path229" fill="none" stroke="#FFCC33" stroke-linecap="round" stroke-linejoin="round" d="M35.945,37.11
			c0.059,0.06,0.236-0.415,0.315-0.315c0.039,0.037-0.355,1.771-0.315,1.789c0.098,0.101,1.712-1.908,1.811-1.81
			c0.079,0.08-1.968,3.188-1.889,3.265c0.157,0.16,3.07-3.345,3.208-3.208c0.098,0.101-3.149,4.45-3.031,4.548
			c0.157,0.157,4.428-4.822,4.625-4.625c0.138,0.137-4.94,6.102-4.763,6.279c0.197,0.196,6.042-6.476,6.259-6.259
			c0.196,0.196-6.357,7.478-6.199,7.655c0.236,0.235,7.596-8.205,7.911-7.913c0.197,0.199-6.435,7.578-6.238,7.776
			c0.257,0.255,5.885-6.398,6.14-6.143c0.119,0.119-4.349,5.609-4.251,5.728c0.158,0.157,3.583-3.975,3.779-3.779
			c0.079,0.08-2.696,3.936-2.617,3.995c0.138,0.139,2.381-2.576,2.479-2.48c0.04,0.041-0.767,2.166-0.728,2.204
			c0.079,0.08-0.019-0.078,0.04-0.039"/>
	</g>
	<g id="_193716984_1_">
		<path id="path232" fill="none" stroke="#FFCC99" stroke-linecap="round" stroke-linejoin="round" d="M35.315,15.481
			c0.079,0.08,0.256-0.395,0.315-0.315c0.039,0.039-0.472,1.889-0.434,1.928c0.119,0.119,1.87-2.085,1.968-1.967
			c0.059,0.06-2.026,3.327-1.968,3.384c0.178,0.178,3.248-3.58,3.425-3.425c0.118,0.119-3.089,4.311-2.972,4.429
			c0.197,0.196,4.468-4.822,4.645-4.644c0.119,0.119-4.9,5.903-4.743,6.061c0.236,0.237,5.707-6.102,5.904-5.905
			c0.158,0.16-5.432,6.476-5.274,6.633c0.236,0.235,6.474-6.868,6.67-6.669c0.178,0.176-7.025,8.027-6.848,8.205
			c0.256,0.256,7.694-8.324,8.009-8.009c0.236,0.235-7.379,8.283-7.164,8.52c0.315,0.315,8.502-9.054,8.778-8.776
			c0.255,0.256-8.896,9.798-8.699,9.997c0.355,0.354,9.604-10.136,9.88-9.88c0.236,0.235-9.781,10.587-9.506,10.863
			c0.315,0.315,10.667-11.276,10.981-10.98c0.256,0.256-10.232,10.962-9.958,11.217c0.394,0.393,11.276-11.927,11.591-11.591
			c0.295,0.294-11.434,12.28-11.178,12.554c0.453,0.452,12.083-12.91,12.497-12.495c0.295,0.294-12.221,13.106-11.965,13.362
			c0.394,0.393,12.968-13.795,13.383-13.383c0.274,0.276-13.009,13.793-12.734,14.072c0.375,0.374,13.716-14.484,14.09-14.092
			c0.374,0.375-13.381,14.013-13.047,14.348c0.532,0.53,14.563-15.429,14.996-14.996c0.392,0.393-14.976,15.721-14.661,16.036
			c0.413,0.416,15.332-16.196,15.762-15.762c0.315,0.315-15.015,15.744-14.7,16.059c0.394,0.393,16.295-17.123,16.708-16.707
			c0.491,0.493-16.452,16.924-16.019,17.378c0.571,0.57,17.181-18.028,17.593-17.595c0.432,0.431-16.668,17.239-16.295,17.595
			c0.61,0.607,17.142-18.304,17.712-17.713c0.393,0.395-17.397,18.046-17.003,18.439c0.63,0.629,18.4-19.482,18.953-18.95
			c0.55,0.55-18.185,18.558-17.712,19.03c0.63,0.63,18.812-19.895,19.346-19.345c0.529,0.532-18.991,19.345-18.461,19.856
			c0.532,0.532,18.146-19.167,18.657-18.656c0.529,0.532-17.83,18.302-17.299,18.834c0.493,0.49,17.573-18.459,18.006-18.008
			c0.493,0.493-17.179,17.494-16.668,17.987c0.433,0.433,16.531-17.613,17.063-17.063c0.393,0.395-16.452,17.044-15.98,17.515
			c0.453,0.454,15.782-16.844,16.316-16.314c0.451,0.454-15.51,16.118-15.097,16.533c0.493,0.491,14.366-15.155,14.761-14.76
			c0.336,0.335-13.305,13.971-12.931,14.327c0.434,0.433,12.714-13.638,13.166-13.166c0.335,0.333-11.729,12.673-11.454,12.97
			c0.374,0.372,10.51-11.276,10.904-10.902c0.196,0.196-9.485,10.389-9.212,10.645c0.336,0.335,8.562-9.093,8.817-8.814
			c0.217,0.214-7.339,8.422-7.143,8.598c0.256,0.255,5.668-6.001,5.844-5.844c0.08,0.08-2.658,3.916-2.558,4.014
			c0.06,0.059,0-0.119,0.06-0.06"/>
	</g>
	<g id="path1221_1_">
		<path id="path235" fill="none" stroke="#7A8FCC" stroke-linecap="round" stroke-linejoin="round" d="M32.895,18.315
			c0.06,0.059,0-0.098,0.04-0.039"/>
		<path id="path237" fill="none" stroke="#7A8FCC" stroke-linecap="round" stroke-linejoin="round" d="M25.711,20.992
			c0.158,0.157,3.385-3.719,3.542-3.542c0.119,0.117-4.211,5.353-4.093,5.449c0.178,0.178,5.708-6.159,5.944-5.942
			c0.177,0.178-5.885,6.966-5.687,7.142c0.215,0.219,7.556-8.027,7.792-7.792c0.178,0.178-6.73,7.813-6.513,8.011
			c0.236,0.235,5.726-6.179,5.962-5.964c0.158,0.157-4.958,6.22-4.86,6.316c0.118,0.119,1.594-1.81,1.711-1.711
			c0.04,0.041-0.688,1.889-0.649,1.931c0.119,0.116,0.985-1.182,1.083-1.084c0.019,0.021,0.354,0.944,0.374,0.965
			c0.098,0.098,0.53-0.689,0.609-0.612c0.021,0.021,0.689,0.709,0.708,0.73c0.099,0.096,0.335-0.493,0.414-0.416
			c0.019,0.021,0.964,0.297,0.983,0.315c0.079,0.08,0.355-0.491,0.413-0.411"/>
	</g>
	<g id="path1215_1_">
		<path id="path240" fill="none" stroke="#7A8FCC" stroke-linecap="round" stroke-linejoin="round" d="M38.464,8.848
			c0.059,0.06,0.177-0.274,0.236-0.235c0.059,0.059-2.421,3.603-2.342,3.68c0.236,0.235,5.176-5.531,5.353-5.353
			c0.119,0.119-4.251,5.431-4.153,5.531c0.276,0.274,6.102-6.654,6.376-6.377c0.119,0.119-4.919,5.923-4.782,6.063
			c0.196,0.196,6.297-6.832,6.553-6.553c0.158,0.155-5.57,6.631-5.451,6.768c0.275,0.276,6.966-7.379,7.183-7.183
			c0.196,0.196-5.865,7.046-5.727,7.183c0.295,0.297,7.458-7.89,7.674-7.676c0.177,0.178-6.159,7.224-6.021,7.381
			c0.217,0.217,7.143-7.696,7.419-7.418c0.196,0.196-6.455,7.379-6.278,7.558c0.217,0.214,7.261-7.697,7.478-7.48
			c0.138,0.137-6.179,7.201-6.021,7.361c0.275,0.273,7.124-7.735,7.417-7.42c0.179,0.178-6.65,7.557-6.454,7.753
			c0.276,0.276,7.558-8.068,7.814-7.813c0.137,0.137-6.142,7.32-6.003,7.459c0.217,0.217,6.669-7.144,6.907-6.907
			c0.178,0.178-5.923,7.046-5.745,7.222c0.215,0.217,7.142-7.578,7.36-7.358c0.155,0.155-5.707,6.708-5.53,6.886
			c0.255,0.255,6.08-6.651,6.375-6.375c0.159,0.155-4.899,5.982-4.741,6.138c0.196,0.196,5.412-5.903,5.646-5.647
			c0.119,0.119-4.584,5.629-4.446,5.766c0.237,0.237,5.686-6.12,5.902-5.903c0.157,0.157-4.821,5.766-4.664,5.923
			c0.235,0.235,4.783-5.255,5.018-5.018c0.101,0.096-3.404,4.76-3.324,4.84c0.157,0.157,4.15-4.566,4.369-4.37
			c0.078,0.08-2.619,3.858-2.539,3.938c0.176,0.176,3.621-3.879,3.739-3.74c0.06,0.057-2.4,3.542-2.341,3.601
			c0.137,0.139,2.812-3.089,2.95-2.95c0.06,0.057-1.318,2.615-1.279,2.674c0.1,0.101,1.752-1.949,1.85-1.848
			c0.039,0.039-0.275,1.495-0.234,1.515c0.077,0.078,0.609-0.808,0.707-0.71c0.021,0.021,0.671,0.728,0.689,0.749
			c0.059,0.06,0.255-0.395,0.314-0.315"/>
	</g>
	<g id="_191680448_1_">
		<path id="path243" fill="none" stroke="#FFCC99" stroke-linecap="round" stroke-linejoin="round" d="M50.764,10.149
			c0.118,0.119,1.653-1.871,1.751-1.752c0.021,0.018-0.395,1.732-0.354,1.771c0.098,0.101,1.378-1.554,1.474-1.474
			c0.041,0.037-0.55,1.83-0.511,1.869c0.118,0.116,1.318-1.518,1.417-1.417c0.021,0.018,0.198,1.182,0.217,1.218
			c0.059,0.06,0.355-0.511,0.433-0.431"/>
	</g>
	<path id="path1221" fill="none" stroke="#000000" stroke-linecap="round" stroke-linejoin="round" d="M34.469,14.813
		c-7.163,1.83-10.647,5.273-10.489,10.332c2.833,1.908,6.691,1.771,10.942-0.452c0.02-0.023,0.02-0.023,0.04-0.041
		c-0.276-0.728-0.472-1.497-0.63-2.303C34.175,22.822,33.19,23,32.796,23c-1.22,0-2.224-0.826-2.224-1.851
		c0-1.024,0.983-1.85,2.224-1.85c0.453,0,0.885,0.119,1.24,0.314h0.02c-0.02-1.004,0.019-2.067,0.157-3.167
		c0.158-0.534,0.334-1.024,0.532-1.515C34.647,14.89,34.568,14.852,34.469,14.813z"/>
	<path id="_193720296" fill="none" stroke="#000000" stroke-linecap="round" stroke-linejoin="round" d="M54.247,97.17l7.971-3.838
		l-1.929-15.014"/>
	<path id="_193720176" fill="none" stroke="#000000" stroke-linecap="round" stroke-linejoin="round" d="M45.529,80.345
		l-0.688,14.72l-9.879,3.247"/>
	<path id="_193719384" fill="none" stroke="#000000" stroke-linecap="round" stroke-linejoin="round" d="M61.389,60.744
		L39.94,62.729l0.137,18.204L51,79.754l1.477-3.247l1.18,3.107l12.26-2.359L61.389,60.744z"/>
	<path id="_193720104_1_" fill="none" stroke="#000000" stroke-linecap="round" stroke-linejoin="round" d="M64.086,70.583
		l-6.298,1.063l-0.963-10.469"/>
	<path id="_193719840" fill="none" stroke="#000000" stroke-linecap="round" stroke-linejoin="round" d="M45.156,62.26l0.236,11
		l-5.372,0.157l0,0"/>
	<path id="_193719864" fill="none" stroke="#000000" stroke-linecap="round" stroke-linejoin="round" d="M66.646,40.631
		l18.201,3.995"/>
	<path id="_193716432" fill="none" stroke="#000000" stroke-linecap="round" stroke-linejoin="round" d="M83.903,40.2l-4.37,3.265
		l3.624,4.408"/>
	<path id="_193712808" fill="none" stroke="#000000" stroke-linecap="round" stroke-linejoin="round" d="M80.656,39.154
		l-1.123,4.311l-0.647,6.021"/>
	<path id="_191679848" fill="none" stroke="#000000" stroke-linecap="round" stroke-linejoin="round" d="M35.354,37.975
		L16.62,36.302"/>
	<path id="_193711824" fill="none" stroke="#000000" stroke-linecap="round" stroke-linejoin="round" d="M15.735,33.409l5.628,3.148
		l-3.128,3.345h0.137"/>
	<path id="_189534168" fill="none" stroke="#000000" stroke-linecap="round" stroke-linejoin="round" d="M22.071,32.072
		l-1.043,8.401"/>
	<path id="_193713000" fill="none" stroke="#000000" stroke-linecap="round" stroke-linejoin="round" d="M57.2,35.18l-0.08-1.693
		c-3.01,0.944-6.613,1.004-10.804,0.119l-0.63,1.731l-2.519,9.741l-5.313,17.87l27.019-2.519l0.454,0.155l-4.289-14.622L57.2,35.18z
		"/>
	<path id="_193057120" fill="none" stroke="#000000" stroke-linecap="round" stroke-linejoin="round" d="M45.686,35.316
		l-11.06,0.297l0.157,10.035l8.404-0.589L45.686,35.316z"/>
	<path id="_193712856" fill="none" stroke="#000000" stroke-linecap="round" stroke-linejoin="round" d="M57.2,35.18l11.217,2.361
		l-1.34,9.013l-6.063-0.591L57.2,35.18z"/>
	<path id="_193175736" fill="none" stroke="#000000" stroke-linecap="round" stroke-linejoin="round" d="M54.64,45.788
		c3.601-0.039,4.349-2.264,2.204-6.633l-5.471,0.452C51.373,43.818,52.456,45.886,54.64,45.788z"/>
	<path id="_193720344" fill="#FFCC99" stroke="#000000" stroke-linecap="round" stroke-linejoin="round" d="M69.597,17.765
		c-0.395,0-0.746,0.078-1.043,0.215c-0.06,0.748-0.196,1.536-0.393,2.323c0.374,0.255,0.886,0.413,1.436,0.413
		c1.144,0,2.064-0.669,2.064-1.477S70.74,17.765,69.597,17.765z"/>
	<path id="_193716984" fill="none" stroke="#000000" stroke-linecap="round" stroke-linejoin="round" d="M66.902,11.212
		c-8.208,1.75-16.985,2.556-26.372,2.419c-2.696-0.214-4.546,0.021-5.53,0.671c-0.315,0.689-0.57,1.396-0.787,2.145
		c-0.925,7.792,2.066,13.244,8.974,16.351c10.097,2.953,17.18,1.28,21.255-5.015C68.967,21.384,69.795,15.855,66.902,11.212
		L66.902,11.212z"/>
	<path id="_193715064" fill="none" stroke="#000000" stroke-linecap="round" stroke-linejoin="round" d="M40.216,18.788
		c2.736,11.571,19.462,11.119,20.959,0.452"/>
	<path id="_191680928" stroke="#000000" d="M54.01,16.287c0.119,0.65-0.155,1.223-0.589,1.301s-0.885-0.375-1.004-1.022
		c-0.118-0.652,0.158-1.223,0.589-1.3C53.439,15.187,53.892,15.657,54.01,16.287z"/>
	<path id="_193711560" stroke="#000000" d="M48.717,16.583c-0.119,0.648,0.158,1.218,0.59,1.298c0.434,0.08,0.885-0.372,1.004-1.025
		c0.118-0.648-0.157-1.218-0.591-1.296C49.288,15.481,48.835,15.954,48.717,16.583z"/>
	<path id="_191679824" fill="none" stroke="#000000" stroke-linecap="round" stroke-linejoin="round" d="M60.643,12.353
		c1.34,1.613,2.262,2.733,2.736,3.404"/>
	<path id="_191679800" fill="none" stroke="#000000" stroke-linecap="round" stroke-linejoin="round" d="M63.614,12.116
		c0.787,1.123,2.046,2.341,3.758,3.621"/>
	<path id="_193716744" fill="none" stroke="#000000" stroke-linecap="round" stroke-linejoin="round" d="M65.996,11.408
		c1.771,1.729,3.915,2.775,6.414,3.167"/>
	<path id="_193720152" fill="none" stroke="#000000" stroke-linecap="round" stroke-linejoin="round" d="M67.963,10.975
		c3.562,0.788,6.122,1.2,7.715,1.242"/>
	<path id="_193716096" fill="none" stroke="#000000" stroke-linecap="round" stroke-linejoin="round" d="M40.393,13.612
		c-1.26,1.575-1.771,3.049-1.554,4.427"/>
	<path id="_193707768" fill="none" stroke="#000000" stroke-linecap="round" stroke-linejoin="round" d="M38.346,13.553
		c-0.767,1.337-1.122,2.519-1.023,3.541"/>
	<path id="_193716768" fill="none" stroke="#000000" stroke-linecap="round" stroke-linejoin="round" d="M36.811,13.69
		c-1.338,2.047-1.731,4.45-1.221,7.124"/>
	<path id="path1215" fill="none" stroke="#000000" stroke-linecap="round" stroke-linejoin="round" d="M40.511,13.631L40.511,13.631
		c9.8,0.157,18.952-0.728,27.452-2.656c-1.75-4.093-6.199-8.246-16.53-7.596C43.049,3.97,37.382,7.787,34.469,14.813
		C35.197,13.768,37.224,13.375,40.511,13.631z"/>
	<path id="_191680448" fill="none" stroke="#000000" stroke-linecap="round" stroke-linejoin="round" d="M57.494,11.112
		c-2.932,0.885-5.785,0.986-8.561,0.296c1.004-2.145,2.382-3.564,4.132-4.271c1.515-0.552,2.756,0.098,3.701,1.931
		C57.238,10.423,57.494,11.112,57.494,11.112L57.494,11.112z"/>
	<path id="_193174392" fill="#FFCC99" stroke="#000000" stroke-linecap="round" stroke-linejoin="round" d="M32.796,19.319
		c-1.22,0-2.224,0.826-2.224,1.851c0,1.022,0.983,1.848,2.224,1.848c0.57,0,1.083-0.178,1.477-0.473
		c0.039-0.021,0.059-0.039,0.079-0.057c-0.177-0.908-0.276-1.853-0.295-2.833h-0.02C33.663,19.436,33.25,19.319,32.796,19.319z"/>
	<path id="_193716720" fill="none" stroke="#000000" stroke-linecap="round" stroke-linejoin="round" d="M34.469,14.813
		c-2.539,2.264-4.271,4.053-5.471,5.588"/>
</g>
</svg>
