<?xml version="1.0" encoding="utf-8"?>
<!-- Generator: Adobe Illustrator 16.0.0, SVG Export Plug-In . SVG Version: 6.00 Build 0)  -->
<!DOCTYPE svg PUBLIC "-//W3C//DTD SVG 1.1//EN" "http://www.w3.org/Graphics/SVG/1.1/DTD/svg11.dtd">
<svg version="1.1" id="Capa_1" xmlns="http://www.w3.org/2000/svg" xmlns:xlink="http://www.w3.org/1999/xlink" x="0px" y="0px"
	 width="100px" height="100px" viewBox="0 0 100 100" enable-background="new 0 0 100 100" xml:space="preserve">
<g id="g1149">
	<g id="_194179816_1_">
		<path id="path110" fill="none" stroke="#7A8FCC" stroke-linecap="round" stroke-linejoin="round" d="M50.136,74.716
			c0.23,0.23,8.659-9.238,8.948-8.95c0.25,0.252-8.797,9.721-8.564,9.952c0.326,0.327,8.353-9.008,8.681-8.681
			c0.25,0.251-8.257,9.198-8.048,9.432c0.273,0.267,7.99-8.623,8.315-8.315c0.212,0.213-8.024,8.911-7.813,9.122
			c0.229,0.232,7.795-8.257,8.027-8.023c0.191,0.19-8.123,8.987-7.914,9.218c0.291,0.288,7.699-8.198,7.949-7.949
			c0.156,0.154-6.293,7.197-6.118,7.371c0.249,0.251,6.024-6.563,6.292-6.293c0.154,0.154-5.137,6.159-4.985,6.313
			c0.213,0.212,5.37-5.852,5.621-5.621c0.097,0.099-3.925,5.081-3.791,5.197c0.192,0.191,3.829-4.216,4.021-4.023
			c0.098,0.098-2.615,3.811-2.521,3.887c0.098,0.099,2.233-2.52,2.367-2.365c0.038,0.038-0.691,1.964-0.653,2.002
			c0.096,0.096,0.674-0.868,0.77-0.771"/>
		<path id="path112" fill="none" stroke="#7A8FCC" stroke-linecap="round" stroke-linejoin="round" d="M39.029,64.054
			c0.078,0.079,0.596-0.752,0.674-0.674c0.038,0.038-0.788,2.118-0.752,2.156c0.136,0.136,2.35-2.618,2.484-2.484
			c0.096,0.099-2.926,4.062-2.828,4.16c0.192,0.191,3.771-4.14,3.963-3.966c0.116,0.113-3.908,5.004-3.812,5.1
			c0.212,0.211,5.467-5.91,5.677-5.677c0.156,0.153-6.003,6.928-5.829,7.12c0.25,0.252,6.753-7.295,7.025-7.025
			c0.23,0.23-7.623,8.661-7.391,8.873c0.326,0.329,9.006-9.566,9.294-9.295c0.229,0.23-9.585,10.314-9.294,10.605
			c0.288,0.287,10.314-10.971,10.642-10.646c0.328,0.329-11.106,11.935-10.836,12.203c0.386,0.384,12.088-12.721,12.415-12.412
			c0.29,0.285-12.493,13.144-12.203,13.435c0.404,0.4,13.05-13.858,13.452-13.457c0.406,0.406-14.068,14.647-13.664,15.071
			c0.366,0.366,14.57-15.379,14.974-14.973c0.424,0.424-15.512,15.936-15.088,16.379c0.5,0.5,16.281-17.361,16.821-16.821
			c0.479,0.48-15.879,16.3-15.456,16.724c0.404,0.405,16.244-17.11,16.688-16.688c0.459,0.464-15.918,16.361-15.497,16.804
			c0.482,0.481,16.284-17.361,16.821-16.822c0.387,0.385-15.876,16.302-15.473,16.706c0.5,0.499,15.128-16.09,15.609-15.608
			c0.328,0.326-14.802,15.242-14.357,15.687c0.364,0.363,14.491-15.36,14.915-14.918c0.346,0.348-13.857,14.514-13.529,14.84
			c0.442,0.441,13.434-14.376,13.916-13.916c0.288,0.289-12.838,13.59-12.493,13.936c0.404,0.404,12.568-13.492,13.03-13.03
			c0.289,0.291-12.51,13.28-12.24,13.551c0.058,0.058,0.21-0.349,0.288-0.291"/>
	</g>
	<g id="_193488256_1_">
		<path id="path115" fill="none" stroke="#FF4D33" stroke-linecap="round" stroke-linejoin="round" d="M56.121,37.61
			c0.076,0.077,0-0.135,0.076-0.077c0.02,0.019,0.133,1.078,0.153,1.097c0.078,0.077,0.811-0.942,0.887-0.886
			c0.037,0.039-0.463,1.848-0.425,1.887c0.116,0.115,1.29-1.502,1.386-1.386c0.038,0.038-0.808,2.079-0.771,2.098
			c0.135,0.135,1.925-2.193,2.061-2.06c0.078,0.077-2.02,3.369-1.962,3.446c0.135,0.135,2.865-3.175,3.021-3.021
			c0.076,0.077-2.658,3.733-2.562,3.83c0.174,0.174,3.85-4.177,4.003-4.002c0.134,0.134-3.713,4.849-3.597,4.965
			c0.172,0.172,4.367-4.811,4.578-4.581c0.154,0.154-4.828,6.043-4.694,6.178c0.191,0.192,4.849-5.274,5.062-5.063
			c0.133,0.135-4.119,5.177-3.985,5.313c0.136,0.135,3.753-4.042,3.889-3.889c0.079,0.077-2.386,3.581-2.292,3.658
			c0.137,0.135,1.54-1.829,1.677-1.675c0.056,0.058-1.021,2.195-0.962,2.251c0.076,0.077,0.865-1.039,0.941-0.943"/>
	</g>
	<g id="path1105_1_">
		<path id="path118" fill="none" stroke="#FF4D33" stroke-linecap="round" stroke-linejoin="round" d="M45.726,36.955
			c0.058,0.058,0.25-0.385,0.308-0.308c0.078,0.077-1.964,3.252-1.886,3.33c0.136,0.135,2.521-2.81,2.658-2.656
			c0.114,0.115-3.832,4.984-3.695,5.1c0.192,0.192,4.829-5.312,5.061-5.062c0.21,0.212-6.409,7.391-6.235,7.583
			c0.25,0.25,7.563-8.18,7.871-7.872c0.192,0.192-8.584,9.391-8.373,9.623c0.25,0.251,9.008-9.757,9.393-9.392
			c0.325,0.327-10.662,11.509-10.337,11.836c0.308,0.308,11.529-12.395,11.972-11.971c0.288,0.289-13.184,13.856-12.838,14.204
			c0.348,0.346,13.204-13.858,13.531-13.53c0.385,0.385-14.665,15.3-14.263,15.722c0.464,0.464,13.858-14.856,14.358-14.356
			c0.425,0.424-15.683,16.012-15.224,16.477c0.522,0.518,15.321-16.092,15.705-15.707c0.521,0.52-16.917,17.418-16.455,17.88
			c0.482,0.481,15.879-17.014,16.438-16.437c0.425,0.423-17.823,18.151-17.321,18.651c0.596,0.596,17.244-18.093,17.668-17.669
			c0.421,0.423-17.688,18.169-17.266,18.572c0.54,0.538,17.304-18.264,17.786-17.783c0.5,0.5-17.246,17.57-16.784,18.033
			c0.386,0.386,16.302-17.457,16.88-16.878c0.386,0.385-15.628,16.071-15.225,16.492c0.48,0.482,15.302-16.319,15.802-15.799
			c0.384,0.385-14.916,15.491-14.59,15.821c0.52,0.518,14.203-15.013,14.607-14.61c0.309,0.308-13.375,14.087-13.028,14.436
			c0.402,0.404,12.796-13.473,13.144-13.146c0.269,0.27-11.798,12.453-11.47,12.78c0.442,0.441,11.566-12.299,11.932-11.933
			c0.23,0.231-10.912,11.799-10.662,12.049c0.404,0.401,10.912-11.646,11.278-11.279c0.288,0.289-9.643,10.49-9.353,10.757
			c0.288,0.29,9.623-10.199,9.911-9.91c0.194,0.193-8.527,9.527-8.277,9.758c0.29,0.288,8.297-8.795,8.546-8.546
			c0.21,0.213-7.431,8.372-7.274,8.525c0.268,0.271,7.177-7.756,7.467-7.466c0.134,0.134-6.467,7.389-6.313,7.544
			c0.253,0.251,6.447-6.872,6.661-6.658c0.172,0.172-5.408,6.447-5.234,6.639c0.25,0.25,5.637-6.005,5.828-5.831
			c0.099,0.096-4.138,5.157-4.001,5.293c0.172,0.172,4.273-4.619,4.445-4.447c0.116,0.116-3.407,4.6-3.309,4.697
			c0.134,0.135,3.213-3.543,3.366-3.37c0.059,0.059-1.539,2.889-1.481,2.965c0.134,0.135,1.924-2.136,2.02-2.02
			c0.04,0.037-0.346,1.769-0.308,1.81c0.099,0.116,0.464-0.657,0.558-0.559c0.021,0.018,0.599,0.808,0.616,0.826
			c0.058,0.058,0.25-0.366,0.308-0.309"/>
	</g>
	<g id="_192543752_1_">
		<path id="path121" fill="none" stroke="#FF4D33" stroke-linecap="round" stroke-linejoin="round" d="M36.144,38.861
			c0.056,0.058,0.308-0.443,0.384-0.385c0.018,0.019,0.288,0.943,0.308,0.962c0.116,0.116,1.54-1.75,1.655-1.655
			c0.059,0.058-1.423,2.599-1.388,2.637c0.156,0.154,3.523-3.869,3.695-3.696c0.116,0.116-3.58,4.736-3.463,4.85
			c0.212,0.212,5.235-5.697,5.467-5.466c0.134,0.135-5.177,6.178-5.043,6.313c0.25,0.25,5.639-6.12,5.869-5.87
			c0.174,0.173-5.793,6.832-5.619,7.006c0.192,0.191,5.561-6.063,5.811-5.813c0.194,0.193-6.101,7.141-5.927,7.314
			c0.212,0.212,4.753-5.138,4.945-4.946c0.099,0.096-3.077,4.138-2.999,4.234c0.114,0.115,1.77-1.964,1.866-1.867"/>
	</g>
	<g id="_192541688_1_">
		<path id="path124" fill="none" stroke="#CB7A47" stroke-linecap="round" stroke-linejoin="round" d="M38.701,12.07
			c0.058,0.058,0.098-0.231,0.174-0.173c0.096,0.096-2.29,3.56-2.214,3.637c0.174,0.173,5.677-6.063,5.869-5.87
			c0.214,0.212-6.581,7.524-6.427,7.679c0.29,0.289,7.659-8.315,7.989-7.986c0.172,0.172-8.623,9.449-8.393,9.661
			c0.328,0.327,10.026-10.701,10.375-10.373c0.308,0.308-10.76,11.586-10.49,11.855c0.444,0.443,11.51-12.279,11.894-11.894
			c0.366,0.366-12.24,12.818-11.875,13.203c0.462,0.462,12.894-13.665,13.28-13.28c0.308,0.308-13.164,13.992-12.856,14.299
			c0.5,0.501,13.55-14.491,14.01-14.01c0.348,0.346-14.184,14.896-13.876,15.205c0.424,0.423,14.917-15.725,15.32-15.321
			C51.867,9.086,35.72,24.888,36.18,25.35c0.558,0.558,15.995-16.879,16.438-16.436c0.424,0.422-16.551,16.879-16.072,17.36
			c0.5,0.5,16.592-17.687,17.149-17.148c0.347,0.346-16.725,17.437-16.341,17.802c0.54,0.539,16.629-17.688,17.149-17.149
			c0.444,0.443-17.301,17.65-16.819,18.13c0.558,0.558,17.243-18.438,17.839-17.841c0.5,0.5-17.571,18.245-17.167,18.63
			c0.538,0.539,17.861-19.111,18.497-18.495c0.441,0.442-18.477,18.996-18.093,19.381c0.464,0.462,17.977-19.112,18.535-18.534
			c0.463,0.462-17.898,18.591-17.513,18.976c0.459,0.462,17.976-19.034,18.495-18.495c0.558,0.558-18.323,18.861-17.861,19.342
			c0.54,0.539,18.091-19.15,18.629-18.63c0.386,0.385-18.129,18.476-17.667,18.938c0.636,0.636,17.842-18.938,18.382-18.38
			c0.537,0.539-18.17,18.534-17.63,19.073c0.634,0.636,18.111-19.13,18.611-18.611c0.479,0.482-18.209,18.534-17.67,19.073
			c0.5,0.501,18.149-19.227,18.688-18.688c0.54,0.539-18.281,18.669-17.839,19.131c0.518,0.52,17.938-18.823,18.379-18.38
			c0.406,0.404-18.169,18.515-17.688,18.977c0.424,0.423,17.455-18.361,17.898-17.899c0.425,0.423-17.185,17.515-16.742,17.958
			c0.482,0.48,16.896-17.727,17.321-17.322c0.424,0.424-16.589,17.322-16.224,17.707c0.576,0.577,16.415-17.476,16.955-16.956
			c0.48,0.48-16.304,16.917-15.897,17.302c0.442,0.443,15.956-16.994,16.474-16.475c0.406,0.404-15.648,16.148-15.262,16.513
			c0.538,0.54,15.087-16.012,15.552-15.55c0.403,0.404-14.878,15.455-14.436,15.897c0.444,0.443,14.454-15.224,14.839-14.838
			c0.386,0.384-13.762,14.396-13.355,14.799c0.402,0.405,13.685-14.454,14.067-14.069c0.288,0.289-12.894,13.55-12.492,13.935
			c0.424,0.423,12.051-12.895,12.473-12.472c0.27,0.27-11.316,12.01-11.026,12.298c0.402,0.405,11.046-11.855,11.45-11.451
			c0.309,0.308-9.988,10.932-9.738,11.182c0.346,0.347,9.276-9.834,9.566-9.565c0.21,0.212-7.913,8.969-7.699,9.181
			c0.25,0.25,7.427-8.045,7.734-7.737c0.156,0.154-6.252,7.275-6.081,7.468c0.233,0.231,5.602-6.024,5.813-5.813
			c0.097,0.097-3.713,4.813-3.599,4.927c0.136,0.135,2.06-2.329,2.193-2.193"/>
	</g>
	<path id="_193488256" fill="none" stroke="#000000" stroke-linecap="round" stroke-linejoin="round" d="M54.062,35.569
		c0.229-0.019,0.462-0.058,0.693-0.096l10.198,2.368l-1.655,9.391l-6.215-0.943L54.062,35.569z"/>
	<path id="_192543752" fill="none" stroke="#000000" stroke-linecap="round" stroke-linejoin="round" d="M45.824,35.301
		c-0.772-0.154-1.521-0.366-2.254-0.616l-8.853,4.004l2.02,7.505l4.178-0.732L45.824,35.301z"/>
	<path id="_194178280" fill="none" stroke="#000000" stroke-linecap="round" stroke-linejoin="round" d="M62.065,97.234
		l-8.814-1.443L53.001,79.2"/>
	<path id="_194181976" fill="none" stroke="#000000" stroke-linecap="round" stroke-linejoin="round" d="M42.187,80.048
		l-0.752,15.014l-7.795,2.597"/>
	<path id="_194179816" fill="none" stroke="#000000" stroke-linecap="round" stroke-linejoin="round" d="M58.334,60.301
		l-20.307,1.886l-1.654,17.785l10.683,0.134l1.731-4.178l1.598,3.679l12.49-2.022l-3.022-15.377L58.334,60.301z"/>
	<path id="_194177728" fill="none" stroke="#000000" stroke-linecap="round" stroke-linejoin="round" d="M35.508,41.612l-6.775,4.37
		l7.929,7.506l0.578,2.06"/>
	<path id="_194177752" fill="none" stroke="#000000" stroke-linecap="round" stroke-linejoin="round" d="M60.7,54.854l10.183-7.371
		l-6.756-4.984"/>
	<path id="_194180104" fill="none" stroke="#000000" stroke-linecap="round" stroke-linejoin="round" d="M43.727,61.669
		c1.29,5.965-1.119,8.294-6.467,8.988"/>
	<path id="_194178952" fill="none" stroke="#000000" stroke-linecap="round" stroke-linejoin="round" d="M54.599,60.646
		c-0.25,8.047,2.368,9.952,6.409,8.834"/>
	<path id="path1105" fill="none" stroke="#000000" stroke-linecap="round" stroke-linejoin="round" d="M54.062,35.569
		c-2.618,0.327-5.506,0.308-8.237-0.269l-4.889,10.181l-6.217,17.033l27.85-2.598l-5.484-13.646L54.062,35.569z"/>
	<path id="path1110" fill="#804080" stroke="#000000" d="M42.225,42.768l-2.078-6.235l-1.598,0.731l2.385,8.219L42.225,42.768z"/>
	<path id="path1114" fill="#804080" stroke="#000000" d="M57.103,46.271l3.539-9.181l-2.385-0.558l-2.04,6.563L57.103,46.271z"/>
	<path id="_193488328" fill="#804080" stroke="#000000" d="M56.197,43.114l-13.972-0.327l-1.29,2.713l16.167,0.789L56.197,43.114z"
		/>
	<path id="_193488184" fill="#CB7A47" stroke="#000000" stroke-linecap="round" stroke-linejoin="round" d="M68.016,21.001
		c-0.079,0-0.175,0-0.251,0.019c-0.156,0.019-0.327,0.038-0.481,0.077c0.154,1.058,0.191,2.117,0.075,3.157
		c0.214,0.019,0.424,0.019,0.657,0.019c1.327-0.096,2.347-0.905,2.289-1.81C70.229,21.617,69.227,21.001,68.016,21.001z"/>
	<path id="_193488592" fill="#CB7A47" stroke="#000000" stroke-linecap="round" stroke-linejoin="round" d="M34.198,20.096
		c-0.23,0-0.46,0.019-0.712,0.077c-1.288,0.269-2.212,1.212-2.06,2.117c0.156,0.905,1.347,1.425,2.637,1.155
		c0.058-0.019,0.116-0.019,0.174-0.038c-0.116-1.078-0.099-2.194,0.076-3.292C34.296,20.096,34.256,20.096,34.198,20.096z"/>
	<path id="_192541688" fill="none" stroke="#000000" stroke-linecap="round" stroke-linejoin="round" d="M36.894,29.97
		c6.061,8.333,20.9,6.197,25.328,2.886c5.735-4.292,6.619-10.97,3.253-16.898C62.838,11.3,57.986,7.99,51.983,7.374
		c-6.717-0.712-12.396,2.291-15.667,7.583C33.064,20.173,33.716,25.6,36.894,29.97L36.894,29.97z"/>
	<path id="_192543848" fill="none" stroke="#000000" stroke-linecap="round" stroke-linejoin="round" d="M66.185,56.163l-5.406-1.31
		l3.809,3.793"/>
	<path id="_192542480" fill="none" stroke="#000000" stroke-linecap="round" stroke-linejoin="round" d="M34.064,57.396l2.598-3.907
		 M36.662,53.488l-3.713,2.347"/>
	<path id="_192540824" fill="none" stroke="#000000" stroke-linecap="round" stroke-linejoin="round" d="M41.321,9.779l-1.232-4.253
		"/>
	<path id="_193484920" fill="none" stroke="#000000" stroke-linecap="round" stroke-linejoin="round" d="M43.957,8.414l-0.444-3.619
		"/>
	<path id="_193487944" fill="none" stroke="#000000" stroke-linecap="round" stroke-linejoin="round" d="M47.306,7.49l-0.078-4.831"
		/>
	<path id="_192540944" fill="none" stroke="#000000" stroke-linecap="round" stroke-linejoin="round" d="M50.501,7.278l0.076-3.964"
		/>
	<path id="_192538688" fill="none" stroke="#000000" stroke-linecap="round" stroke-linejoin="round" d="M54.081,7.701l0.5-4.118"/>
	<path id="_193490704" fill="none" stroke="#000000" stroke-linecap="round" stroke-linejoin="round" d="M56.813,8.529l1.444-3.6"/>
	<path id="_193491184" fill="none" stroke="#000000" stroke-linecap="round" stroke-linejoin="round" d="M59.315,9.741l0.788-4.042"
		/>
	<path id="_193491448" fill="none" stroke="#000000" stroke-linecap="round" stroke-linejoin="round" d="M61.278,11.088l1.078-3.041
		"/>
	<path id="_193487680" stroke="#000000" d="M51.04,17.362c0,0.655-0.404,1.194-0.904,1.194c-0.502,0-0.906-0.539-0.906-1.194
		c0-0.654,0.404-1.193,0.906-1.193C50.636,16.169,51.04,16.708,51.04,17.362z"/>
	<path id="_193486744" stroke="#000000" d="M54.831,17.478c0,0.654-0.404,1.193-0.906,1.193c-0.5,0-0.903-0.539-0.903-1.193
		c0-0.655,0.403-1.192,0.903-1.192C54.427,16.286,54.831,16.823,54.831,17.478z"/>
	<path id="_192543056" fill="none" stroke="#000000" stroke-linecap="round" stroke-linejoin="round" d="M41.647,19.865
		c2.001,11.509,20.382,11.894,20.941,1.809"/>
</g>
</svg>
