<?xml version="1.0" encoding="utf-8"?>
<!-- Generator: Adobe Illustrator 16.0.0, SVG Export Plug-In . SVG Version: 6.00 Build 0)  -->
<!DOCTYPE svg PUBLIC "-//W3C//DTD SVG 1.1//EN" "http://www.w3.org/Graphics/SVG/1.1/DTD/svg11.dtd">
<svg version="1.1" id="Capa_1" xmlns="http://www.w3.org/2000/svg" xmlns:xlink="http://www.w3.org/1999/xlink" x="0px" y="0px"
	 width="100px" height="100px" viewBox="0 0 100 100" enable-background="new 0 0 100 100" xml:space="preserve">
<g>
	<path fill="#B3744F" d="M49.589,16.057c1.173-0.157,0.732-0.685,1.904-0.842c-0.016-3.888,2.329-7.68,8.774-10.639
		c-1.07-1.046-2.141-2.085-3.211-3.132C51.588,3.293,50.439,9.376,49.589,16.057z"/>
	<path fill="#994517" d="M51.848,14.121c-7.507,0.221-5.902,6.343-5.713,11.269c3.643,0,7.294,0,10.938,0
		C56.561,21.069,58.631,14.38,51.848,14.121z"/>
	<path fill="#B3744F" d="M51.029,99.444c-8.333-0.048-24.779-24.387-25.677-53.32c16.462,0,32.916,0,49.37,0
		C72.448,72.934,61.715,99.491,51.029,99.444z"/>
	<path fill="#D1BD83" d="M60.196,14.239c-7.515,0.229-5.909,6.343-5.721,11.276c3.651,0,7.295,0,10.946,0
		C64.91,21.187,66.972,14.499,60.196,14.239z"/>
	<path fill="#994517" d="M65.099,18.149c-7.515,0.229-5.909,6.343-5.721,11.276c3.651,0,7.295,0,10.946,0
		C69.813,25.098,71.882,18.409,65.099,18.149z"/>
	<path fill="#400505" d="M57.033,17.654c-7.507,0.228-5.909,6.35-5.721,11.276c3.651,0,7.295,0,10.945,0
		C61.747,24.61,63.816,17.922,57.033,17.654z"/>
	<path fill="#D1BD83" d="M43.129,14.121c-7.515,0.221-5.91,6.343-5.721,11.269c3.651,0,7.294,0,10.945,0
		C47.842,21.069,49.912,14.38,43.129,14.121z"/>
	<path fill="#3C0C0C" d="M48.472,19.133c-7.515,0.228-5.91,6.35-5.721,11.276c3.651,0,7.294,0,10.946,0
		C53.186,26.089,55.255,19.401,48.472,19.133z"/>
	<path fill="#994517" d="M37.943,18.724c-7.515,0.228-5.909,6.342-5.721,11.276c3.651,0,7.303,0,10.946,0
		C42.657,25.672,44.726,18.992,37.943,18.724z"/>
	<path fill="#461717" d="M36.715,22.124c-7.515,0.22-5.909,6.342-5.721,11.269c3.644,0,7.295,0,10.946,0
		C41.429,29.072,43.491,22.383,36.715,22.124z"/>
	<path fill="#D1BD83" d="M32.104,28.104c-7.515,0.228-5.91,6.35-5.721,11.276c3.651,0,7.294,0,10.946,0
		C36.818,35.06,38.879,28.372,32.104,28.104z"/>
	<path fill="#994517" d="M30.208,35.343c-7.507,0.229-5.91,6.351-5.721,11.276c3.651,0,7.302,0,10.945,0
		C34.921,42.3,36.991,35.611,30.208,35.343z"/>
	<path fill="#D1BD83" d="M44.86,23.005c-7.515,0.229-5.91,6.342-5.721,11.276c3.643,0,7.294,0,10.946,0
		C49.573,29.953,51.635,23.265,44.86,23.005z"/>
	<path fill="#3C0C0C" d="M68.317,22.509c-7.515,0.228-5.91,6.342-5.721,11.276c3.651,0,7.294,0,10.945,0
		C73.031,29.465,75.101,22.777,68.317,22.509z"/>
	<path fill="#D1BD83" d="M61.778,22.627c-7.515,0.229-5.91,6.343-5.721,11.276c3.644,0,7.294,0,10.945,0
		C66.492,29.583,68.553,22.895,61.778,22.627z"/>
	<path fill="#994517" d="M54.113,23.005c-7.506,0.229-5.901,6.342-5.712,11.276c3.643,0,7.294,0,10.938,0
		C58.835,29.953,60.896,23.265,54.113,23.005z"/>
	<path fill="#D1BD83" d="M70.631,27.364c-7.507,0.22-5.902,6.342-5.713,11.268c3.643,0,7.294,0,10.938,0
		C75.344,34.313,77.414,27.624,70.631,27.364z"/>
	<path fill="#994517" d="M61.251,27.647c-7.515,0.22-5.909,6.343-5.721,11.269c3.644,0,7.295,0,10.945,0
		C65.965,34.596,68.026,27.907,61.251,27.647z"/>
	<path fill="#400505" d="M51.518,27.451c-7.508,0.221-5.902,6.342-5.713,11.269c3.643,0,7.294,0,10.946,0
		C56.238,34.399,58.3,27.71,51.518,27.451z"/>
	<path fill="#994517" d="M41.705,29.213c-7.515,0.221-5.91,6.343-5.721,11.269c3.651,0,7.302,0,10.945,0
		C46.418,36.162,48.487,29.473,41.705,29.213z"/>
	<path fill="#994517" d="M70.938,35.343c-7.507,0.229-5.909,6.351-5.713,11.276c3.644,0,7.295,0,10.938,0
		C75.659,42.3,77.721,35.611,70.938,35.343z"/>
	<path fill="#D1BD83" d="M61.069,35.343c-7.515,0.229-5.909,6.351-5.72,11.276c3.644,0,7.294,0,10.938,0
		C65.783,42.3,67.845,35.611,61.069,35.343z"/>
	<path fill="#994517" d="M51.037,35.343c-7.507,0.229-5.902,6.351-5.713,11.276c3.643,0,7.295,0,10.938,0
		C55.75,42.3,57.82,35.611,51.037,35.343z"/>
	<path fill="#D1BD83" d="M40.611,35.343c-7.515,0.229-5.91,6.351-5.721,11.276c3.651,0,7.294,0,10.945,0
		C45.324,42.3,47.394,35.611,40.611,35.343z"/>
	<path fill="#905E40" d="M59.189,3.521c-1.142,0.496-2.211,1.031-3.108,1.676c-1.401,1.015-2.36,2.306-3.085,3.557
		c-0.731,1.244-1.22,2.455-1.645,3.919c-0.142,0.48-0.275,0.984-0.393,1.503c0.188-0.024,0.385-0.032,0.598-0.048
		c0.401-3.501,2.872-6.869,8.711-9.553L59.189,3.521z"/>
	<path fill="#905E40" d="M25.565,49.924l48.788-0.079c0.126-1.07,0.236-2.148,0.331-3.226h-8.396h-1.063h-8.963H55.35h-9.514h-0.511
		h-9.892H34.89h-9.514C25.416,47.729,25.479,48.831,25.565,49.924z"/>
</g>
</svg>
