<?xml version="1.0" encoding="utf-8"?>
<!-- Generator: Adobe Illustrator 16.0.0, SVG Export Plug-In . SVG Version: 6.00 Build 0)  -->
<!DOCTYPE svg PUBLIC "-//W3C//DTD SVG 1.1//EN" "http://www.w3.org/Graphics/SVG/1.1/DTD/svg11.dtd">
<svg version="1.1" id="Capa_1" xmlns="http://www.w3.org/2000/svg" xmlns:xlink="http://www.w3.org/1999/xlink" x="0px" y="0px"
	 width="100px" height="100px" viewBox="0 0 100 100" enable-background="new 0 0 100 100" xml:space="preserve">
<g id="_566187200">
	<path fill="#FF0000" d="M71.359,96.791c9.388,0,17.042-7.365,17.042-16.4c0-9.023-7.654-16.402-17.042-16.402
		c-9.389,0-17.042,7.379-17.042,16.402C54.317,89.426,61.971,96.791,71.359,96.791z"/>
	<path fill="#FF0000" d="M19.856,98.928c9.388,0,17.042-7.365,17.042-16.401c0-9.035-7.654-16.401-17.042-16.401
		c-9.375,0-17.042,7.366-17.042,16.401C2.814,91.563,10.481,98.928,19.856,98.928z"/>
	<path fill="#3B6620" d="M19.329,73.001c-0.39-10.885-0.239-21.429,3.38-32.175c3.62-10.746,10.683-21.616,24.105-33.129
		l2.136-1.848l-0.679,2.752c-4.801,19.48,6.208,32.086,15.043,42.204c6.41,7.339,11.727,13.422,9.539,20.134l-1.722-0.566
		c1.86-5.73-3.142-11.461-9.175-18.373c-8.709-9.967-19.455-22.283-16.023-41.135c-11.802,10.607-18.173,20.649-21.504,30.54
		c-3.532,10.47-3.682,20.825-3.293,31.533L19.329,73.001z"/>
	<path fill="#BED573" d="M67.061,38.689c-12.756-2.941-19.065-13.924-13.321-26.141c3.569-7.591,10.544-8.42,17.167-7.691
		c11.098,1.232,6.85,14.792,26.908,21.277c-2.979,3.016-6.259,5.995-9.903,8.346C81.979,38.326,75.117,40.55,67.061,38.689z"/>
	<path fill="#C21B1B" d="M72.453,71.856c-3.004-0.176-4.776-1.483-6.397-2.752c4.097,1.294,8.006,1.596,11.65,0.503
		C76.286,70.751,74.828,71.994,72.453,71.856z"/>
	<path fill="#C21B1B" d="M20.962,73.98c-3.004-0.164-4.789-1.471-6.41-2.752c4.097,1.307,8.006,1.608,11.663,0.515
		C24.795,72.875,23.325,74.131,20.962,73.98z"/>
	<g>
		<path fill="#3B6620" d="M47.065,10.362c-0.251,0-0.465-0.201-0.465-0.453c-0.012-0.251,0.189-0.452,0.44-0.452
			c3.444-0.075,5.907,2.25,9.062,5.24c3.933,3.72,8.973,8.496,18.374,10.746c3.971,0.943,7.452,1.395,10.758,1.471
			c3.305,0.087,6.46-0.177,9.765-0.654c0.252-0.025,0.478,0.139,0.516,0.39c0.038,0.252-0.139,0.477-0.377,0.515
			c-3.355,0.478-6.548,0.742-9.929,0.654c-3.368-0.089-6.912-0.528-10.934-1.497c-9.64-2.312-14.793-7.176-18.802-10.971
			C52.47,12.511,50.132,10.3,47.065,10.362z"/>
		<path fill="#3B6620" d="M66.785,23.244c-0.101,0.125-0.302,0.15-0.428,0.05c-0.139-0.101-0.164-0.289-0.063-0.415
			c1.03-1.357,2.148-2.501,3.418-3.356c1.27-0.867,2.664-1.432,4.223-1.671c0.176-0.013,0.327,0.101,0.353,0.264
			c0.024,0.164-0.089,0.314-0.265,0.339c-1.47,0.214-2.79,0.755-3.972,1.572C68.846,20.843,67.765,21.938,66.785,23.244z"/>
		<path fill="#3B6620" d="M59.747,18.77c0.037-0.163,0.188-0.264,0.352-0.239c0.163,0.038,0.276,0.188,0.238,0.353
			c-0.314,1.57-0.352,3.079-0.101,4.524c0.252,1.446,0.792,2.815,1.635,4.135c0.087,0.139,0.05,0.327-0.088,0.415
			c-0.139,0.087-0.327,0.05-0.415-0.088c-0.893-1.382-1.471-2.84-1.734-4.361C59.369,21.987,59.42,20.417,59.747,18.77z"/>
		<path fill="#3B6620" d="M74.074,25.871c0-0.164,0.138-0.289,0.314-0.289c0.162,0,0.288,0.138,0.288,0.314
			c-0.05,1.545,0.139,2.89,0.528,4.034c0.39,1.143,0.968,2.099,1.747,2.878c0.126,0.113,0.113,0.314,0,0.427s-0.314,0.113-0.428,0
			c-0.842-0.854-1.482-1.885-1.897-3.117C74.225,28.913,74.023,27.492,74.074,25.871z"/>
	</g>
</g>
</svg>
