<?xml version="1.0" encoding="utf-8"?>
<!-- Generator: Adobe Illustrator 16.0.0, SVG Export Plug-In . SVG Version: 6.00 Build 0)  -->
<!DOCTYPE svg PUBLIC "-//W3C//DTD SVG 1.1//EN" "http://www.w3.org/Graphics/SVG/1.1/DTD/svg11.dtd">
<svg version="1.1" id="Capa_1" xmlns="http://www.w3.org/2000/svg" xmlns:xlink="http://www.w3.org/1999/xlink" x="0px" y="0px"
	 width="100px" height="100px" viewBox="0 0 100 100" enable-background="new 0 0 100 100" xml:space="preserve">
<g id="_105946472">
	<path fill="#813CA6" d="M66.587,36.387c-4.578-7.077-10.41-13.415-21.99-14.594c-9.876-1.002-18.442,2.387-23.469,9.511
		c-9.989,14.164-9.586,29.283-6.769,43.137c2.097,10.307,7.33,17.337,14.8,20.941c9.651,4.643,19.902,4.867,29.61-1.695
		c6.412-4.343,10.409-10.475,12.263-19.246C73.842,61.157,74.441,48.492,66.587,36.387z"/>
	<path fill="#599029" d="M60.567,22.851c-2.321-1.217-4.456-3.248-4.493-5.336c-0.075-3.482,2.321-6.384,4.756-9.258
		c3.801-4.475,8.565-5.841,13.583-3.061c5.981,3.305,11.205,6.927,16.813,7.452c-3.397,4.503-7.788,8.378-13.218,10.943
		C72.119,26.371,66.344,25.875,60.567,22.851z"/>
	<path fill="#BED573" d="M48.829,16.719c-0.449-0.159,0.262-1.245,0.739-1.217c2.696,0.149,5.411,2.171,7.901,1.376
		c4.138-1.32,7.677-3.492,11.206-3.305c1.47-1.985,2.958-3.455,4.839-4.737c-1.395,1.601-2.48,3.183-2.957,4.708
		c4.971-0.122,9.913,0.075,14.884-0.056c-2.733,0.59-5.438,0.852-8.172,1.433c-0.038,1.095,0.43,2.181,1.16,3.276
		c-1.441-0.618-2.358-1.732-2.742-3.333c-4.915-0.515-9.418-0.44-11.421,0.739c0.486,1.76,1.628,2.771,2.958,3.548
		c-1.535-0.122-3.211-1.132-4.466-3.014c-1.741,0.131-3.146,1.966-5.261,2.163C54.576,18.582,51.6,17.692,48.829,16.719z"/>
	<path fill="#A55325" d="M50.944,9.951c-5.561,5.13-8.482,12.123-11.786,18.657c1.339,0.711,1.563,0.515,2.902,1.217
		c2.921-6.356,6.459-12.179,12.479-15.858C53.341,12.628,52.143,11.29,50.944,9.951z"/>
	<path fill="#652985" d="M64.621,58.171c-1.629-13.461-11.823-22.486-21.644-30.265c-0.252,0.497-0.487,1.002-0.73,1.517
		c10.869,7.985,16.551,17.534,19.837,27.803c3.866,12.066,0.337,25.248-8.416,39.28c0.412-0.178,0.824-0.365,1.236-0.571
		C61.363,87.388,66.877,76.828,64.621,58.171z"/>
	<path fill="#446F1C" d="M91.217,12.656l-6.216,0.843c0.14,0,0.29,0,0.439-0.01c-2.733,0.59-5.438,0.852-8.172,1.433
		c-0.038,1.095,0.43,2.181,1.16,3.276c-1.441-0.618-2.358-1.732-2.742-3.333c-4.915-0.515-9.418-0.44-11.421,0.739
		c0.486,1.76,1.628,2.771,2.958,3.548c-1.535-0.122-3.211-1.132-4.466-3.014c-1.741,0.131-3.146,1.966-5.261,2.163
		c-0.431,0.047-0.861,0.056-1.302,0.056c0.496,1.779,2.359,3.445,4.372,4.493c5.776,3.024,11.552,3.52,17.44,0.74
		C83.438,21.035,87.818,17.15,91.217,12.656z"/>
	<path fill="#783D1B" d="M54.539,13.967l-1.461-1.629c-0.749,0.365-1.488,0.768-2.218,1.264c-1.264,0.861-2.48,1.985-3.511,3.398
		c-1.011,1.367-1.844,2.996-2.733,4.793c-0.028,0.056-0.056,0.112-0.084,0.168c-0.927,1.854-1.919,3.885-2.546,5.561
		c-0.262,0.711-0.459,1.367-0.609,1.976c0.197,0.084,0.421,0.187,0.684,0.327c0.065-0.131,0.131-0.271,0.187-0.402
		c0.244-0.515,0.478-1.02,0.73-1.517c1.011-2.06,2.106-4.044,3.361-5.888c1.179-1.732,2.49-3.342,3.988-4.793
		c0.468-0.44,0.945-0.871,1.441-1.283C52.629,15.23,53.547,14.575,54.539,13.967z"/>
</g>
</svg>
