<?xml version="1.0" encoding="utf-8"?>
<!-- Generator: Adobe Illustrator 16.0.0, SVG Export Plug-In . SVG Version: 6.00 Build 0)  -->
<!DOCTYPE svg PUBLIC "-//W3C//DTD SVG 1.1//EN" "http://www.w3.org/Graphics/SVG/1.1/DTD/svg11.dtd">
<svg version="1.1" id="Capa_1" xmlns="http://www.w3.org/2000/svg" xmlns:xlink="http://www.w3.org/1999/xlink" x="0px" y="0px"
	 width="100px" height="100px" viewBox="0 0 100 100" enable-background="new 0 0 100 100" xml:space="preserve">
<g id="_566188592">
	<path fill="#3B6620" d="M40.911,27.78c-3.39-2.953-6.6-4.386-10.806-5.023c2.651-1.577,5.548-2.292,8.871-1.42
		c-1.555-3.792-3.848-7.025-7.036-9.586c4.195,0.189,7.428,1.398,9.184,4.183c1.253-5.616,3.77-9.9,7.752-12.652
		c-1.13,4.296-1.03,8.423-0.112,12.44c5.347-4.386,10.885-7.194,16.635-8.469c-1.601,2.114-2.63,4.43-2.048,7.35
		c5.471-2.327,10.828-3.244,16.02-2.036c-2.965,1.969-4.408,4.217-4.386,6.723c5.84,0.481,9.117,3.3,11.422,7.048
		c-5.18-1.287-6.857-0.626-7.138,0.816c4.263,0.57,6.925,2.439,8.469,5.202c-5.348-0.716-11.052,0.055-16.937,1.521L40.911,27.78z"
		/>
	<path fill="#599029" d="M51.314,28.641c-1.667-0.134-3.334-0.269-5-0.414c-2.875-4.519-4.262-8.759-2.237-12.338
		C45.822,20.285,48.294,24.514,51.314,28.641z"/>
	<path fill="#8BBC4E" d="M58.765,29.357c-1.298,0.068-2.584,0.135-3.882,0.202c-1.813-6.22-0.895-11.085,3.681-14.173
		C57.769,20.04,57.78,24.692,58.765,29.357z"/>
	<path fill="#599029" d="M68.352,32.825c-2.383-0.883-4.766-1.768-7.138-2.651c1.634-6.454,4.374-11.164,9.273-12.451
		c-0.95,1.835-1.454,3.68-0.917,5.515c3.211-0.167,5.258,0.19,6.019,1.119C72.188,26.046,69.85,28.955,68.352,32.825z"/>
	<path fill="#F51B1B" d="M22.073,38.228c3.345-5.783,8.367-11.097,19.173-11.623c12.496-0.615,22.943,2.595,31.613,7.137
		c10.861,5.671,12.305,12.55,11.019,19.99C80.869,71.139,69.995,81.631,56.55,91.264c-6.253,4.474-12.059,7.573-18.973,6.936
		c-8.412-0.762-12.115-6.802-14.285-14.477C17.845,64.472,16.077,48.576,22.073,38.228z"/>
	<path fill="#F0A6A6" d="M70.443,42.121c-1.298-0.179-1.152,4.542,1.331,1.465C72.501,42.691,70.466,42.121,70.443,42.121z"/>
	<path fill="#F0A6A6" d="M53.462,36.618c-1.297-0.179-1.152,4.541,1.343,1.465C55.531,37.188,53.496,36.618,53.462,36.618z"/>
	<path fill="#F0A6A6" d="M43.506,48.889c-1.298-0.179-1.164,4.542,1.331,1.465C45.564,49.459,43.528,48.889,43.506,48.889z"/>
	<path fill="#F0A6A6" d="M60.129,57.973c1.298-0.112,0.135-4.688-1.622-1.141C57.992,57.86,60.096,57.973,60.129,57.973z"/>
	<path fill="#F0A6A6" d="M64.179,76.251c1.309-0.112,0.134-4.676-1.622-1.141C62.042,76.15,64.156,76.262,64.179,76.251z"/>
	<path fill="#F0A6A6" d="M31.794,72c1.309-0.111,0.134-4.676-1.622-1.141C29.658,71.899,31.772,72.011,31.794,72z"/>
	<path fill="#F0A6A6" d="M61.773,37.937c-3.681,1.633,0.761,5.717,1.119,0.47C62.938,37.724,62.21,37.747,61.773,37.937z"/>
	<path fill="#F0A6A6" d="M51.807,50.209c-3.681,1.622,0.761,5.717,1.118,0.458C52.97,49.996,52.243,50.007,51.807,50.209z"/>
	<path fill="#F0A6A6" d="M44.792,32.434c-3.669,1.633,0.772,5.728,1.13,0.47C45.967,32.222,45.229,32.243,44.792,32.434z"/>
	<path fill="#F0A6A6" d="M34.837,44.705c-3.68,1.633,0.761,5.716,1.119,0.47C36,44.492,35.273,44.515,34.837,44.705z"/>
	<path fill="#F0A6A6" d="M53.663,73.477c-3.68,1.634,0.761,5.728,1.119,0.47C54.827,73.275,54.1,73.286,53.663,73.477z"/>
	<path fill="#F0A6A6" d="M32.756,33.048c-3.669,1.622,0.772,5.717,1.13,0.47C33.931,32.836,33.192,32.858,32.756,33.048z"/>
	<path fill="#F0A6A6" d="M69.503,60.165c3.233-2.395-2.002-5.426-1.196-0.213C68.407,60.623,69.112,60.444,69.503,60.165z"/>
	<path fill="#F0A6A6" d="M48.719,72.57c3.222-2.394-2.003-5.426-1.197-0.213C47.623,73.018,48.328,72.851,48.719,72.57z"/>
	<path fill="#F0A6A6" d="M42.6,74.383c3.233-2.395-1.991-5.414-1.197-0.213C41.504,74.842,42.22,74.674,42.6,74.383z"/>
	<path fill="#F0A6A6" d="M63.765,45.23c-4.731,2.081,0.939,5.381,0.771,0.716C64.525,45.701,63.888,45.175,63.765,45.23z"/>
	<path fill="#F0A6A6" d="M35.43,59.27c-4.721,2.07,0.951,5.381,0.772,0.717C36.19,59.739,35.553,59.214,35.43,59.27z"/>
	<path fill="#F0A6A6" d="M53.798,57.502c-4.721,2.07,0.939,5.381,0.771,0.717C54.559,57.973,53.921,57.447,53.798,57.502z"/>
	<path fill="#F0A6A6" d="M63.552,61.026c-4.731,2.08,0.94,5.38,0.772,0.716C64.313,61.496,63.675,60.971,63.552,61.026z"/>
	<path fill="#F0A6A6" d="M35.217,75.064c-4.72,2.069,0.951,5.382,0.772,0.716C35.978,75.535,35.34,75.009,35.217,75.064z"/>
	<path fill="#F0A6A6" d="M46.784,39.727c-4.72,2.081,0.951,5.392,0.772,0.727C47.544,40.197,46.907,39.671,46.784,39.727z"/>
	<path fill="#F0A6A6" d="M36.817,51.999c-4.721,2.08,0.951,5.38,0.783,0.716C37.589,52.469,36.939,51.943,36.817,51.999z"/>
	<path fill="#F0A6A6" d="M51.684,84.854c-4.721,2.069,0.95,5.38,0.771,0.716C52.444,85.323,51.807,84.797,51.684,84.854z"/>
	<path fill="#F0A6A6" d="M65.969,53.476c4.161-3.054-2.104-5.045-0.917-0.537C65.118,53.185,65.856,53.554,65.969,53.476z"/>
	<path fill="#F0A6A6" d="M37.633,67.515c4.162-3.054-2.092-5.057-0.906-0.537C36.783,67.224,37.533,67.593,37.633,67.515z"/>
	<path fill="#F0A6A6" d="M55.096,44.358c-4.095,2.214,1.241,5.268,1.376,0.984C56.482,44.75,55.42,44.191,55.096,44.358z"/>
	<path fill="#F0A6A6" d="M45.128,56.63c-4.094,2.203,1.242,5.269,1.375,0.974C46.516,57.021,45.453,56.451,45.128,56.63z"/>
	<path fill="#F0A6A6" d="M59.581,68.118c-4.094,2.204,1.241,5.27,1.376,0.974C60.968,68.51,59.905,67.939,59.581,68.118z"/>
	<path fill="#F0A6A6" d="M52.254,64.281c-4.083,2.203,1.253,5.269,1.376,0.974C53.652,64.662,52.59,64.103,52.254,64.281z"/>
	<path fill="#F0A6A6" d="M58.183,77.951c-4.094,2.204,1.242,5.269,1.376,0.973C59.569,78.331,58.507,77.771,58.183,77.951z"/>
	<path fill="#F0A6A6" d="M68.687,66.731c-4.094,2.203,1.241,5.269,1.376,0.973C70.085,67.112,69.011,66.553,68.687,66.731z"/>
	<path fill="#F0A6A6" d="M40.352,80.759c-4.083,2.216,1.252,5.28,1.375,0.984C41.75,81.15,40.676,80.591,40.352,80.759z"/>
	<path fill="#F0A6A6" d="M31.492,84.965c-4.083,2.204,1.252,5.269,1.387,0.974C32.89,85.356,31.828,84.785,31.492,84.965z"/>
	<path fill="#F0A6A6" d="M38.114,38.866c-4.083,2.204,1.253,5.269,1.376,0.973C39.513,39.247,38.439,38.687,38.114,38.866z"/>
	<path fill="#F0A6A6" d="M28.147,51.126c-4.083,2.215,1.253,5.269,1.376,0.984C29.545,51.518,28.483,50.958,28.147,51.126z"/>
	<path fill="#F0A6A6" d="M49.301,77.638c-4.083,2.215,1.253,5.269,1.387,0.984C50.699,78.029,49.637,77.471,49.301,77.638z"/>
	<path fill="#F0A6A6" d="M27.991,61.015c-4.094,2.204,1.242,5.27,1.376,0.984C29.389,61.406,28.315,60.836,27.991,61.015z"/>
	<path fill="#F0A6A6" d="M27.577,41.942c-4.083,2.203,1.253,5.268,1.376,0.973C28.975,42.333,27.913,41.763,27.577,41.942z"/>
	<path fill="#F0A6A6" d="M41.045,89.988c-4.094,2.203,1.253,5.268,1.376,0.973C42.443,90.368,41.37,89.809,41.045,89.988z"/>
	<path fill="#F0A6A6" d="M74.615,52.435c3.513-3.042-2.36-4.877-1.555-0.659C73.172,52.356,74.336,52.682,74.615,52.435z"/>
	<path fill="#F0A6A6" d="M46.292,66.463c3.501-3.043-2.372-4.866-1.566-0.648C44.837,66.396,46,66.709,46.292,66.463z"/>
</g>
</svg>
