<?xml version="1.0" encoding="utf-8"?>
<!-- Generator: Adobe Illustrator 16.0.0, SVG Export Plug-In . SVG Version: 6.00 Build 0)  -->
<!DOCTYPE svg PUBLIC "-//W3C//DTD SVG 1.1//EN" "http://www.w3.org/Graphics/SVG/1.1/DTD/svg11.dtd">
<svg version="1.1" id="Capa_1" xmlns="http://www.w3.org/2000/svg" xmlns:xlink="http://www.w3.org/1999/xlink" x="0px" y="0px"
	 width="100px" height="100px" viewBox="0 0 100 100" enable-background="new 0 0 100 100" xml:space="preserve">
<g id="_699422560">
	<path fill="#F1E30E" d="M2.699,77.874c-1.843-3.675-0.318-6.8,2.849-8.081C4.012,57.53-0.139,41.369,13.458,27.856
		C23.699,17.679,37.573,10.308,51.753,7.608c13.619-2.605,26.063,5.358,34.979,10.918c2.403-1.769,3.695-1.271,6.015,1.578
		c2.31,2.849,2.404,4.903,0.625,7.286c4.205,13.524,6.757,29.059-4.903,41.938c-7.37,8.133-16.521,15.397-26.899,18.987
		c-19.719,6.81-36.366-1.504-50.96-8.229C7.041,81.962,4.542,81.549,2.699,77.874z"/>
	<path fill="#D9CC1A" d="M95.956,37.525c-2.774,5.369-5.549,10.389-8.303,14.403c-4.268,6.217-8.493,10.019-13.714,14.138
		c-5.221,4.109-11.448,8.536-17.411,11.49c-5.962,2.955-11.659,4.438-19.623,5.909c-4.045,0.752-8.673,1.504-13.587,2.256
		c11.406,4.554,24.029,7.509,38.251,2.595c10.379-3.59,19.529-10.854,26.899-18.987C97.301,59.574,97.979,48.295,95.956,37.525z"/>
	<path fill="#F1EC9D" d="M51.636,19.892c-0.751,0.159-1.493,0.244-1.292,1.546C53.553,23.091,52.018,19.808,51.636,19.892z"/>
	<path fill="#F1EC9D" d="M36.09,41.518c-0.752,0.159-1.493,0.244-1.303,1.546C38.006,44.716,36.471,41.433,36.09,41.518z"/>
	<path fill="#F1EC9D" d="M65.594,14.513c-2.626-0.53-1.758,4.215,0.403,1.737C66.389,15.805,65.87,14.565,65.594,14.513z"/>
	<path fill="#F1EC9D" d="M40.887,32.813c-2.626-0.53-1.758,4.215,0.403,1.737C41.671,34.104,41.163,32.865,40.887,32.813z"/>
	<path fill="#F1EC9D" d="M53.553,27.708c-1.313-0.063-2.298,3.04-0.688,3.04c2.807,0,2.489-2.923,0.88-2.997L53.553,27.708z"/>
	<path fill="#F1EC9D" d="M44.848,34.507c-1.302-0.053-2.287,3.05-0.688,3.05c2.807,0,2.489-2.934,0.879-3.008L44.848,34.507z"/>
	<path fill="#F1EC9D" d="M56.899,19.892c-2.478-0.402-1.652,6.037,0.752,3.114C58.393,22.106,57.577,19.998,56.899,19.892z"/>
	<path fill="#F1EC9D" d="M64.165,20.803c-2.479-0.402-1.642,6.047,0.762,3.124C65.668,23.027,64.843,20.919,64.165,20.803z"/>
	<path fill="#F1EC9D" d="M45.78,27.094c-0.54,0.148-2.149,0.36-1.694,1.779c0.159,0.477,3.167,2.128,2.849-1.303
		C46.902,27.189,46.055,27.02,45.78,27.094z"/>
	<path fill="#F1EC9D" d="M44.075,40.458c-0.551,0.148-2.16,0.36-1.694,1.779c0.148,0.487,3.156,2.139,2.849-1.303
		C45.187,40.554,44.339,40.384,44.075,40.458z"/>
	<path fill="#F1EC9D" d="M43.016,23.25c-2.795-0.296-1.927,4.226,0.435,2.288c0.011-0.011,0.858-2.203-0.233-2.245L43.016,23.25z"/>
	<path fill="#F1EC9D" d="M36.058,33.882c-2.785-0.307-1.928,4.215,0.445,2.277c0.011-0.01,0.858-2.203-0.244-2.245L36.058,33.882z"
		/>
	<path fill="#F1EC9D" d="M56.878,32.442c-0.243,0.73-1.662,3.24,1.25,2.859C58.891,35.206,59.844,31.51,56.878,32.442z"/>
	<path fill="#F1EC9D" d="M37.805,27.825c-0.243,0.73-1.663,3.24,1.25,2.859C39.817,30.588,40.771,26.882,37.805,27.825z"/>
	<path fill="#F1EC9D" d="M59.356,26.299c-3.601,0.858-1.281,3.453,0.868,2.001C60.395,28.185,61.114,25.886,59.356,26.299z"/>
	<path fill="#F1EC9D" d="M52.398,36.921c-3.6,0.858-1.281,3.453,0.88,2.001C53.447,38.807,54.167,36.508,52.398,36.921z"/>
</g>
</svg>
