<?xml version="1.0" encoding="utf-8"?>
<!-- Generator: Adobe Illustrator 16.0.0, SVG Export Plug-In . SVG Version: 6.00 Build 0)  -->
<!DOCTYPE svg PUBLIC "-//W3C//DTD SVG 1.1//EN" "http://www.w3.org/Graphics/SVG/1.1/DTD/svg11.dtd">
<svg version="1.1" id="Capa_1" xmlns="http://www.w3.org/2000/svg" xmlns:xlink="http://www.w3.org/1999/xlink" x="0px" y="0px"
	 width="100px" height="100px" viewBox="0 0 100 100" enable-background="new 0 0 100 100" xml:space="preserve">
<g id="_560359584">
	<polygon fill="#6F3412" points="52.563,91.012 48.394,91.668 45.36,97.977 47.914,95.984 48.3,98.121 49.812,95.703 50.051,97.215 
		51.188,95.652 52.188,98.361 53.085,95.984 54.42,97.643 	"/>
	<path fill="#599029" d="M44.932,23.038c6.704-1.053,11.312-4.89,14.054-11.76c-1.22-3.951-4.849-8.799-12.25-7.778
		c-12.26,1.7-20.684,10.708-29.691,17.64C24.134,23.163,33.423,24.862,44.932,23.038z"/>
	<path fill="#31571A" d="M64.324,11.466c0.146-0.313,0.291-0.626,0.427-0.949c-6.693,0.199-13.49,1.116-20.434,1.877
		c-0.292-1.23-1.992-2.272-4.181-2.867c1.438,0.959,2.971,2.137,2.71,3.107c-7.6,2.543-15.106,4.973-22.706,7.516
		c6.338-1.783,12.708-3.669,19.047-5.452c-0.615,1.439-1.72,2.388-2.846,3.315c2.168-0.865,3.941-2.189,5.224-4.077
		c2.033-0.417,4.024-0.521,6.067-0.928c-0.344,2.231-1.564,2.971-2.794,4.056c2.231-1.283,3.743-2.742,4.452-4.411
		C54.462,11.914,59.476,11.507,64.324,11.466z"/>
	<path fill="#40781C" d="M20.141,20.15c7.6-2.543,15.106-4.973,22.706-7.516c0.261-0.97-1.272-2.148-2.71-3.107
		c2.189,0.595,3.889,1.637,4.181,2.867c4.91-0.542,9.748-1.158,14.533-1.543C57.506,6.994,53.877,2.51,46.736,3.5
		c-12.239,1.7-20.663,10.676-29.65,17.609L20.141,20.15z"/>
	<path fill="#994517" d="M50.051,38.739l1.418,0.292c3.711-11.823,9.194-21.101,18.213-25.334c-1.262-1.261-2.523-2.523-3.795-3.795
		C55.191,14.813,51.136,25.488,50.051,38.739z"/>
	<path fill="#743411" d="M68.129,12.133c-1.032,0.688-2.054,1.397-3.075,2.22c-1.46,1.178-2.909,2.565-3.941,3.628
		c-1.021,1.053-1.626,1.783-2.355,2.794s-1.574,2.304-2.263,3.492c-0.678,1.188-1.178,2.262-1.689,3.357
		c-0.5,1.084-1.011,2.189-1.511,3.316c-0.511,1.125-1.021,2.262-1.585,3.972c-0.209,0.625-0.428,1.334-0.656,2.095
		c-0.167,0.584-0.345,1.199-0.522,1.824l0.939,0.199c0.302-0.949,0.604-1.877,0.928-2.794c3.68-10.477,8.986-18.651,17.285-22.54
		L68.129,12.133z"/>
	<path fill="#8BBC4E" d="M80.306,37.321c-9.528-7.673-19.85-6.015-29.775,0c-11.458-6.87-20.673-5.828-28.461-0.385
		c-8.455,5.911-13.23,16.41-12.146,29.023c1.585,18.256,10.551,27.711,21.82,29.41c5.203,0.783,11.218,0.012,18.975-3.408
		c5.567,2.971,11.218,4.316,16.69,2.459c12.636-4.283,19.037-15.24,21.435-29.023C91.013,52.959,87.708,43.274,80.306,37.321z"/>
	<path fill="#4D230A" d="M47.654,93.201l-0.5,1.043c0.448-0.115,0.865-0.24,1.251-0.375c0.646-0.24,1.157-0.512,1.532-0.656
		c0.375-0.148,0.615-0.148,0.896-0.033c0.282,0.127,0.595,0.377,1.21,0.721c0.406,0.229,0.938,0.49,1.542,0.781l-0.417-1.533
		c-0.823-0.354-1.637-0.76-2.449-1.188C49.666,92.42,48.644,92.836,47.654,93.201z"/>
</g>
</svg>
