<?xml version="1.0" encoding="utf-8"?>
<!-- Generator: Adobe Illustrator 16.0.0, SVG Export Plug-In . SVG Version: 6.00 Build 0)  -->
<!DOCTYPE svg PUBLIC "-//W3C//DTD SVG 1.1//EN" "http://www.w3.org/Graphics/SVG/1.1/DTD/svg11.dtd">
<svg version="1.1" id="Capa_1" xmlns="http://www.w3.org/2000/svg" xmlns:xlink="http://www.w3.org/1999/xlink" x="0px" y="0px"
	 width="100px" height="100px" viewBox="0 0 100 100" enable-background="new 0 0 100 100" xml:space="preserve">
<g id="_560360760">
	<polygon fill="#6F3412" points="52.924,90.147 48.752,90.806 45.724,97.114 48.276,95.13 48.661,97.257 50.18,94.846 
		50.413,96.355 51.557,94.796 52.55,97.5 53.451,95.13 54.777,96.79 	"/>
	<path fill="#E3910A" d="M45.289,22.185c6.714-1.063,11.322-4.892,14.066-11.778c-1.226-3.939-4.851-8.79-12.263-7.768
		c-12.254,1.702-20.68,10.714-29.693,17.642C24.498,22.296,33.784,23.998,45.289,22.185z"/>
	<path fill="#A55325" d="M64.691,10.609c0.143-0.314,0.284-0.638,0.426-0.952c-6.694,0.192-13.499,1.114-20.447,1.874
		c-0.283-1.226-1.984-2.279-4.172-2.866c1.438,0.962,2.967,2.137,2.714,3.109c-7.605,2.542-15.109,4.973-22.715,7.514
		c6.34-1.782,12.72-3.666,19.059-5.458c-0.618,1.438-1.722,2.39-2.845,3.322c2.167-0.871,3.929-2.197,5.215-4.081
		c2.035-0.405,4.021-0.517,6.066-0.932c-0.345,2.248-1.56,2.977-2.795,4.061c2.228-1.276,3.747-2.745,4.456-4.405
		C54.828,11.055,59.841,10.65,64.691,10.609z"/>
	<path fill="#DD6F11" d="M20.497,19.288c7.606-2.542,15.11-4.972,22.715-7.514c0.253-0.972-1.276-2.147-2.714-3.109
		c2.188,0.587,3.889,1.641,4.172,2.866c4.922-0.537,9.763-1.155,14.542-1.54c-1.347-3.858-4.973-8.345-12.122-7.353
		C34.857,4.341,26.442,13.313,17.449,20.25L20.497,19.288z"/>
	<path fill="#994517" d="M50.413,37.881l1.428,0.284c3.706-11.818,9.185-21.095,18.208-25.328c-1.266-1.266-2.531-2.532-3.798-3.798
		C55.557,13.951,51.496,24.625,50.413,37.881z"/>
	<path fill="#743411" d="M68.489,11.278c-1.022,0.679-2.056,1.397-3.078,2.218c-1.448,1.165-2.907,2.562-3.93,3.615
		c-1.033,1.063-1.631,1.792-2.359,2.805c-0.729,1.013-1.58,2.309-2.259,3.494c-0.678,1.185-1.185,2.259-1.69,3.352
		c-0.507,1.084-1.014,2.198-1.52,3.312c-0.507,1.124-1.013,2.268-1.58,3.97c-0.212,0.638-0.436,1.336-0.657,2.096
		c-0.173,0.587-0.346,1.205-0.527,1.833l0.952,0.192c0.293-0.942,0.598-1.874,0.922-2.785c3.686-10.491,8.992-18.654,17.286-22.542
		L68.489,11.278z"/>
	<path fill="#9E2024" d="M80.672,36.454c-9.529-7.666-19.859-6.005-29.783,0c-11.454-6.866-20.659-5.823-28.457-0.375
		c-8.456,5.904-13.236,16.405-12.143,29.024c1.58,18.249,10.542,27.707,21.814,29.408c5.205,0.78,11.221,0.011,18.978-3.423
		c5.56,2.988,11.221,4.335,16.689,2.472c12.639-4.284,19.049-15.252,21.438-29.024C91.376,52.09,88.075,42.408,80.672,36.454z"/>
	<path fill="#4D230A" d="M48.013,92.345l-0.497,1.043c0.446-0.121,0.871-0.243,1.246-0.385c0.648-0.232,1.154-0.506,1.529-0.647
		c0.385-0.143,0.628-0.152,0.912-0.031c0.272,0.122,0.587,0.375,1.204,0.719c0.405,0.224,0.933,0.486,1.54,0.771l-0.426-1.52
		c-0.81-0.364-1.63-0.759-2.44-1.205C50.028,91.555,49.005,91.97,48.013,92.345z"/>
	<path fill="#801A1B" d="M80.136,79.727c-1.844,2.815-3.96,4.83-6.351,6.704c-2.39,1.863-5.043,3.574-7.402,4.709
		c-2.35,1.135-4.405,1.712-6.208,2.117c-0.881,0.202-1.691,0.364-2.48,0.506c3.382,0.871,6.765,0.922,10.076-0.202
		c12.639-4.284,19.049-15.252,21.438-29.024c0.82-4.72,0.861-9.033,0.183-12.902c-0.638,2.521-1.367,5.52-1.984,8.112
		c-0.932,3.949-1.591,6.947-2.715,10.259C83.568,73.306,81.989,76.911,80.136,79.727z"/>
</g>
</svg>
