<?xml version="1.0" encoding="utf-8"?>
<!-- Generator: Adobe Illustrator 16.0.0, SVG Export Plug-In . SVG Version: 6.00 Build 0)  -->
<!DOCTYPE svg PUBLIC "-//W3C//DTD SVG 1.1//EN" "http://www.w3.org/Graphics/SVG/1.1/DTD/svg11.dtd">
<svg version="1.1" id="Capa_1" xmlns="http://www.w3.org/2000/svg" xmlns:xlink="http://www.w3.org/1999/xlink" x="0px" y="0px"
	 width="100px" height="100px" viewBox="0 0 100 100" enable-background="new 0 0 100 100" xml:space="preserve">
<g id="_109042824">
	<path fill="#F17D23" d="M96.938,38.617C95.76,17.119,74.283,3.755,49.434,4.084C35.158,4.275,20.787,14.436,12.812,26.272
		C5.101,37.684,4.677,54.908,8.834,69.385c3.118,10.903,12.917,21.266,23.853,24.276c14.7,4.042,33.843,4.679,45.415-5.238
		C91.581,76.884,97.902,56.34,96.938,38.617z"/>
	<path fill="#599029" d="M59.266,17.533c-0.043-0.562-0.372-2.439-0.626-3.924c-1.124-1.538-3.373-2.121-6.597-1.103
		c-2.62,0.838-4.381,2.683-6.12,5.547C50.632,20.301,55.118,20.471,59.266,17.533z"/>
	<path fill="#599029" d="M62.299,18.052c0.042-0.562,0.371-2.429,0.625-3.924c-0.021-0.753,3.946-1.56,5.919-0.892
		c2.927,0.998,3.479,2.09,5.705,4.72C69.839,20.195,66.456,21,62.299,18.052z"/>
	<path fill="#599029" d="M58.862,16.875c0.435-0.042,1.846-0.339,2.979-0.573c1.146-0.89,1.75-2.736,1.082-5.228
		c-0.721-2.662-2.778-4.295-5.006-5.557C56.316,9.154,56.529,13.778,58.862,16.875z"/>
	<path fill="#599029" d="M64.918,1.423c-3.563,4.581-5.44,9.969-6.904,15.537l5.536,0.138c0.127-4.794,1.252-9.588,3.606-14.382
		L64.918,1.423z"/>
	<path fill="#599029" d="M61.387,15.634c2.322,0.149,3.245,0.859,3.171,4.243c-0.074,3.605-1.973,5.038-4.412,7.328
		C56.868,22.953,54.482,14.998,61.387,15.634z"/>
	<path fill="#456F20" d="M58.269,15.984c-0.637-1.103-1.05-2.333-1.241-3.626c-0.403-0.16-0.859-0.276-1.347-0.33
		c-0.17,0.393-0.297,0.806-0.329,1.273c-0.043,0.668,0.127,1.463,0.255,2.121c0.127,0.657,0.223,1.188-0.032,1.973
		c-0.212,0.604-0.626,1.379-1.092,2.185c0.826-0.148,1.654-0.392,2.46-0.731c0.074-1.103,0.445-2.026,1.263-2.599
		C58.226,16.165,58.247,16.069,58.269,15.984z"/>
	<path fill="#456F20" d="M56.922,11.424c0.021,0.318,0.053,0.625,0.105,0.934c0.191,1.293,0.604,2.523,1.241,3.626
		c0.158-0.572,0.318-1.135,0.487-1.697c0.51-1.729,1.082-3.426,1.761-5.07c-0.997,0.552-1.951,1.083-2.609,1.506
		C57.473,10.999,57.165,11.222,56.922,11.424z"/>
	<path fill="#456F20" d="M56.942,18.848c0,0.137-0.011,0.286,0,0.445c0.382,0.212,0.785,0.403,1.23,0.563
		c0.891,0.318,1.93,0.477,2.885,0.509c0.954,0.042,1.835-0.042,2.715-0.307c0.266-0.085,0.53-0.18,0.785-0.287
		c0.011-0.148,0.011-0.297,0-0.446c-0.021-1.633-0.329-2.545-0.976-3.065c-0.255-0.212-0.573-0.35-0.944-0.445
		c-0.074-0.021-0.159-0.042-0.243-0.063c-0.308-0.063-0.637-0.096-1.008-0.117c-0.955-0.095-1.739-0.011-2.365,0.202
		c-0.244,0.084-0.456,0.18-0.658,0.307c-0.053,0.032-0.105,0.064-0.158,0.106C57.388,16.822,57.017,17.745,56.942,18.848z"/>
	<path fill="#456F20" d="M64.653,13.248c-0.297,0.063-0.573,0.139-0.817,0.223c-0.116,0.934-0.201,1.856-0.254,2.789
		c0.646,0.52,0.954,1.432,0.976,3.065c0.19,0.074,0.371,0.148,0.552,0.202c0.286-0.128,0.562-0.265,0.848-0.404
		c-0.138-0.403-0.275-0.774-0.382-1.103c-0.254-0.731-0.402-1.24-0.466-1.866c-0.074-0.625-0.064-1.379-0.191-2.036
		C64.854,13.81,64.759,13.523,64.653,13.248z"/>
	<path fill="#456F20" d="M67.156,2.716l-0.604-0.36c-0.244,0.296-0.499,0.646-0.774,1.103c-0.371,0.604-0.785,1.399-1.156,2.206
		c-0.297,0.626-0.563,1.273-0.774,1.867c-0.498,1.357-0.71,2.45-0.773,3.319c-0.011,0.287-0.021,0.542-0.021,0.785
		c0.011,0.541,0.031,1.05-0.021,1.729c-0.021,0.201-0.042,0.414-0.074,0.646c-0.043,0.329-0.096,0.689-0.159,1.061
		c-0.042,0.244-0.085,0.498-0.127,0.742c0.36,0.106,0.657,0.244,0.912,0.445c0.053-0.933,0.138-1.855,0.254-2.789
		c0.34-2.503,0.966-5.017,1.92-7.53C66.159,4.869,66.625,3.788,67.156,2.716z"/>
	<path fill="#F0DA2F" d="M25.369,36.74c-1.23-0.997-3.065,1.4-0.53,1.538C25.4,38.299,25.337,36.708,25.369,36.74z"/>
	<path fill="#F0DA2F" d="M30.831,25.837c-1.22-0.987-3.065,1.41-0.53,1.549C30.873,27.407,30.799,25.816,30.831,25.837z"/>
	<path fill="#F0DA2F" d="M23.375,29.083c0.965-1.241-1.463-3.043-1.548-0.509C21.805,29.146,23.396,29.05,23.375,29.083z"/>
	<path fill="#F0DA2F" d="M36.961,38.967c-0.7,0.254-2.195-0.286-1.687,1.74C35.487,41.555,38.637,42.403,36.961,38.967z"/>
	<path fill="#F0DA2F" d="M31.934,29.454c-0.71,0.244-2.195-0.287-1.686,1.739C30.459,32.041,33.609,32.88,31.934,29.454z"/>
	<path fill="#F0DA2F" d="M43.854,20.513c-0.254-0.7,0.255-2.195-1.76-1.654C41.256,19.081,40.45,22.242,43.854,20.513z"/>
	<path fill="#F0DA2F" d="M33.885,18.72c-0.986-0.254-2.344,1.931-0.137,1.612C33.949,20.301,34.161,18.794,33.885,18.72z"/>
	<path fill="#F0DA2F" d="M37.269,28.542c-0.987-0.255-2.344,1.931-0.148,1.612C37.332,30.122,37.534,28.615,37.269,28.542z"/>
	<path fill="#F0DA2F" d="M20.776,35.563c0.244-0.986-1.962-2.312-1.623-0.117C19.185,35.647,20.702,35.828,20.776,35.563z"/>
	<path fill="#F0DA2F" d="M27.914,28.785c-1.177-0.891-2.238,2.153-0.138,1.644C28.232,30.313,28.508,29.231,27.914,28.785z"/>
	<path fill="#F0DA2F" d="M34.437,24.84c-1.167-0.88-2.238,2.152-0.127,1.644C34.766,26.378,35.042,25.285,34.437,24.84z"/>
	<path fill="#F0DA2F" d="M24.436,32.678c0.859-1.188-2.196-2.216-1.655-0.117C22.897,33.017,23.99,33.283,24.436,32.678z"/>
	<path fill="#F0DA2F" d="M45.085,11.021c-3.012-0.255,0.085,3.584,0.637,1.612C46.029,11.562,45.88,11.084,45.085,11.021z"/>
	<path fill="#F0DA2F" d="M28.678,33.367c-3.012-0.254,0.095,3.585,0.647,1.612C29.622,33.908,29.473,33.431,28.678,33.367z"/>
	<path fill="#F0DA2F" d="M19.727,51.09c0.212-3.012-3.585,0.148-1.602,0.669C19.196,52.044,19.673,51.896,19.727,51.09z"/>
	<path fill="#F0DA2F" d="M31.212,21.552c-1.251-0.499-1.548,2.694,0.371,1.962c0.042-0.011,0.785-1.146-0.286-1.855L31.212,21.552z"
		/>
	<path fill="#F0DA2F" d="M34.596,31.362c-1.251-0.487-1.548,2.705,0.371,1.973c0.032-0.011,0.785-1.145-0.286-1.856L34.596,31.362z"
		/>
	<path fill="#F0DA2F" d="M17.902,32.933c0.478-1.262-2.726-1.506-1.962,0.403c0.021,0.032,1.167,0.763,1.856-0.318L17.902,32.933z"
		/>
	<path fill="#F0DA2F" d="M35.137,21.075c-0.944,0.488-1.867,2.482,0.456,2.333c1.23-0.085,0.658-1.421-0.35-2.174L35.137,21.075z"/>
	<path fill="#F0DA2F" d="M38.52,30.896c-0.944,0.487-1.867,2.471,0.456,2.333c1.23-0.085,0.658-1.421-0.35-2.174L38.52,30.896z"/>
	<path fill="#F0DA2F" d="M17.308,42.127c-0.499-0.944-2.503-1.834-2.322,0.488c0.095,1.23,1.431,0.636,2.163-0.382L17.308,42.127z"
		/>
	<path fill="#F0DA2F" d="M40.938,14.489c-0.955-0.488-0.668,0.784-1.146,1.103c0.053,0.116-0.509,1.251,1.336,1.251
		C41.617,16.196,41.564,14.818,40.938,14.489z"/>
	<path fill="#F0DA2F" d="M38.711,24.904c-0.955-0.499-0.679,0.774-1.156,1.092c0.053,0.117-0.509,1.262,1.347,1.262
		C39.379,26.601,39.326,25.222,38.711,24.904z"/>
	<path fill="#F0DA2F" d="M25.528,42.425c0.477-0.955-0.795-0.657-1.114-1.135c-0.117,0.063-1.272-0.487-1.241,1.368
		C23.831,43.125,25.21,43.051,25.528,42.425z"/>
	<path fill="#F0DA2F" d="M37.905,18.657c-1.952-0.222-1.326,2.259-0.085,1.538C37.968,20.11,37.926,18.657,37.905,18.657z"/>
	<path fill="#F0DA2F" d="M41.288,28.478c-1.952-0.223-1.326,2.259-0.085,1.538C41.352,29.92,41.31,28.478,41.288,28.478z"/>
	<path fill="#F0DA2F" d="M20.893,39.571c0.202-1.951-2.269-1.283-1.527-0.053C19.451,39.667,20.893,39.593,20.893,39.571z"/>
	<path fill="#F0DA2F" d="M26.981,24.691c-2.471-1.474-1.018,3.14-0.021,1.029C26.992,25.667,27.14,24.787,26.981,24.691z"/>
	<path fill="#F0DA2F" d="M31.457,38.32c-2.471-1.464-1.018,3.139-0.021,1.04C31.457,39.306,31.616,38.416,31.457,38.32z"/>
	<path fill="#F0DA2F" d="M43.028,24.797c1.421-2.503-3.161-0.976-1.04,0C42.042,24.819,42.932,24.957,43.028,24.797z"/>
	<path fill="#D56D17" d="M70.571,78.898c-4.73,3.648-9.503,6.151-14.774,7.743c-5.271,1.59-11.051,2.269-18.708,2.513
		c-4.104,0.139-8.739,0.148-13.629,0.106c2.885,1.994,6.003,3.511,9.228,4.4c14.7,4.042,33.843,4.679,45.415-5.238
		c12.26-10.5,18.603-28.445,18.921-44.938c-4.084,7.223-8.082,14.032-11.805,19.43C79.989,70.488,75.302,75.261,70.571,78.898z"/>
	<path fill="#D56D17" d="M74.028,18.19c-3.362,1.559-6.066,2.301-8.919,1.337c-0.181-0.054-0.361-0.128-0.552-0.202
		c0.011,0.148,0.011,0.297,0,0.446c0,0.031,0,0.074,0,0.106c-0.074,3.394-1.75,4.857-3.988,6.936
		c0.318-0.053,0.637-0.116,0.923-0.212c0.796-0.233,1.496-0.615,2.005-1.22c0.509-0.615,0.849-1.442,1.156-2.1
		c0.317-0.658,0.614-1.146,1.76-1.527c1.156-0.372,3.161-0.637,4.497-1.093c1.348-0.466,2.016-1.124,2.577-1.782
		C73.679,18.646,73.858,18.424,74.028,18.19z"/>
</g>
</svg>
