<?xml version="1.0" encoding="utf-8"?>
<!-- Generator: Adobe Illustrator 16.0.0, SVG Export Plug-In . SVG Version: 6.00 Build 0)  -->
<!DOCTYPE svg PUBLIC "-//W3C//DTD SVG 1.1//EN" "http://www.w3.org/Graphics/SVG/1.1/DTD/svg11.dtd">
<svg version="1.1" id="Capa_1" xmlns="http://www.w3.org/2000/svg" xmlns:xlink="http://www.w3.org/1999/xlink" x="0px" y="0px"
	 width="100px" height="100px" viewBox="0 0 100 100" enable-background="new 0 0 100 100" xml:space="preserve">
<g id="_255613040">
	<path fill="#8BBC4E" d="M55.053,21.757c-1.561-3.893-5.89-5.427-11.179-5.221c-5.684,0.034-9.559,5.109-10.587,12.679
		c-1.895,13.93-4.432,24.071-9.096,31.161c-6.738,10.228-7.424,21.209,0.746,30.715c4.201,4.904,10.784,6.704,19.974,6.867
		c12.147,0.206,21.466-3.695,25.949-14.024c4.963-11.428,1.646-23.317-6.258-35.336C59.981,41.576,58.327,29.892,55.053,21.757z"/>
	<path fill="#599029" d="M65.193,8.109h1.415c1.011,1.5,1.628,3.206,2.092,4.998l-1.046,0.523
		C67.054,11.744,66.291,9.892,65.193,8.109z"/>
	<path fill="#994517" d="M44.242,21.757c1.098,0.051,2.187,0.103,3.284,0.146c4.621-7.664,9.884-14.428,21.097-12.893
		c-0.798-2.015-1.586-4.029-2.384-6.043C54.443,3.917,48.674,12.044,44.242,21.757z"/>
	<path fill="#599029" d="M64.259,13.218c1.544-1.14,2.341-0.694,3.507-1.046c1.791-0.789,2.503-1.92,5.375-2.383
		c4.595-0.523,6.301,1.158,7.749,5.298c2.863,8.17-1.097,18.894,0.077,26.687c-13.287-3.566-20.051-8.538-20.359-19.459
		C60.496,18.293,61.533,15.241,64.259,13.218z"/>
	<path fill="#739C40" d="M45.863,22.931c-2.478-0.189-3.755-1.612-4.921-3.206c3.343,1.929,7.055,2.263,11.187,0.832
		C50.749,21.791,49.42,23.06,45.863,22.931z"/>
	<polygon fill="#BED573" points="68.451,14.727 69.634,14.384 71.332,18.285 77.307,19.262 71.966,19.459 73.895,24.26 
		79.099,24.997 74.546,26 76.106,31.907 72.995,26.806 69.935,29.018 72.335,25.297 70.269,20.188 65.948,23.402 69.822,18.799 	"/>
	<path fill="#446F1C" d="M69.935,29.018l2.4-3.721l-2.066-5.109l-4.32,3.215l3.874-4.604l-1.371-4.072l0.411-0.12l-0.557-1.303
		l-0.489-1.148c-0.017,0.009-0.034,0.009-0.051,0.017c-0.197,0.06-0.386,0.095-0.566,0.12c-0.892,0.128-1.663-0.017-2.94,0.926
		c-2.726,2.023-3.763,5.075-3.651,9.096c0.309,10.887,7.029,15.868,20.231,19.425L75.986,31.46l0.12,0.446l-3.111-5.101
		L69.935,29.018z"/>
	<path fill="#793712" d="M67.928,7.234c-1.525-0.137-3.017-0.231-4.38-0.146C61.747,7.2,60.153,7.621,58.824,8.16
		c-1.329,0.532-2.4,1.175-3.446,1.921c-1.037,0.746-2.058,1.594-3.146,2.751c-0.986,1.046-2.015,2.349-3.181,4.167
		c-0.137,0.206-0.266,0.42-0.395,0.634c-0.686,1.114-1.415,2.409-2.169,3.789c0.437,0.026,0.883,0.026,1.329,0.008
		c0.84-1.38,1.706-2.726,2.624-3.995c3.583-4.921,8.023-8.667,15.156-8.65c0.479,0,0.969,0.026,1.466,0.061
		c0.506,0.034,1.028,0.085,1.561,0.163L67.928,7.234z"/>
	<path fill="#739C40" d="M63.822,47.329c0.325,2.597,0.634,5.349,0.883,8.539c0.386,4.868,0.643,10.758,0.197,15.91
		c-0.446,5.152-1.604,9.566-3.232,12.576c-1.637,3.009-3.746,4.604-6.531,5.82c-2.787,1.218-6.242,2.049-12.191,2.752
		c-3.952,0.472-9.01,0.883-14.427,1.277c4.055,2.589,9.49,3.635,16.391,3.755c12.147,0.206,21.466-3.695,25.949-14.024
		c4.963-11.428,1.646-23.317-6.258-35.336C64.328,48.186,64.07,47.766,63.822,47.329z"/>
</g>
</svg>
