<?xml version="1.0" encoding="utf-8"?>
<!-- Generator: Adobe Illustrator 16.0.0, SVG Export Plug-In . SVG Version: 6.00 Build 0)  -->
<!DOCTYPE svg PUBLIC "-//W3C//DTD SVG 1.1//EN" "http://www.w3.org/Graphics/SVG/1.1/DTD/svg11.dtd">
<svg version="1.1" id="Capa_1" xmlns="http://www.w3.org/2000/svg" xmlns:xlink="http://www.w3.org/1999/xlink" x="0px" y="0px"
	 width="100px" height="100px" viewBox="0 0 100 100" enable-background="new 0 0 100 100" xml:space="preserve">
<g id="_105945128">
	<path fill="#D9AA2B" d="M44.896,22.417c1.558-3.885,5.89-5.417,11.183-5.219c5.683,0.042,9.559,5.111,10.586,12.673
		c1.896,13.941,4.432,24.079,9.095,31.17c6.734,10.222,7.422,21.213-0.745,30.723c-4.199,4.896-10.785,6.701-19.979,6.858
		c-12.143,0.207-21.461-3.694-25.951-14.016c-4.961-11.431-1.64-23.325,6.262-35.344C39.967,42.239,41.624,30.56,44.896,22.417z"/>
	<path fill="#F17D23" d="M34.749,8.775h-1.417c-1.002,1.491-1.624,3.206-2.087,4.995l1.043,0.522
		C32.894,12.411,33.655,10.556,34.749,8.775z"/>
	<path fill="#994517" d="M55.705,22.417c-1.093,0.05-2.187,0.099-3.279,0.149C47.803,14.904,42.535,8.137,31.32,9.669
		c0.795-2.013,1.59-4.025,2.386-6.039C45.509,4.583,51.273,12.701,55.705,22.417z"/>
	<path fill="#F17D23" d="M35.685,13.886c-1.541-1.143-2.335-0.696-3.503-1.044c-1.789-0.803-2.501-1.93-5.368-2.385
		c-4.605-0.53-6.312,1.151-7.761,5.293c-2.858,8.167,1.102,18.894-0.075,26.688c13.287-3.562,20.054-8.54,20.36-19.458
		C39.454,18.955,38.41,15.907,35.685,13.886z"/>
	<path fill="#BD9125" d="M54.082,23.594c2.485-0.183,3.752-1.615,4.92-3.214c-3.338,1.938-7.058,2.278-11.182,0.845
		C49.203,22.451,50.528,23.718,54.082,23.594z"/>
	<polygon fill="#BED573" points="31.502,15.393 30.309,15.054 28.611,18.947 22.639,19.933 27.981,20.123 26.052,24.927 
		20.85,25.656 25.397,26.667 23.84,32.573 26.955,27.47 30.011,29.682 27.609,25.954 29.68,20.852 34.003,24.066 30.119,19.46 	"/>
	<path fill="#CF6D1C" d="M30.011,29.682l-2.402-3.728l2.071-5.102l4.324,3.214l-3.885-4.605l1.383-4.067l-0.423-0.124l0.563-1.301
		l0.489-1.151c0.017,0.008,0.033,0.017,0.05,0.025c0.199,0.058,0.381,0.091,0.563,0.116c0.895,0.124,1.665-0.025,2.94,0.928
		c2.726,2.021,3.769,5.069,3.653,9.095c-0.307,10.884-7.032,15.863-20.228,19.424l4.846-10.279l-0.116,0.447l3.115-5.103
		L30.011,29.682z"/>
	<path fill="#793712" d="M32.024,7.897c1.516-0.141,3.007-0.232,4.374-0.149c1.806,0.116,3.396,0.538,4.729,1.068
		c1.326,0.538,2.394,1.185,3.438,1.93c1.044,0.746,2.063,1.591,3.156,2.75c0.977,1.044,2.012,2.344,3.18,4.167
		c0.125,0.207,0.257,0.414,0.398,0.629c0.679,1.118,1.408,2.41,2.162,3.793c-0.439,0.025-0.878,0.025-1.326,0.008
		c-0.844-1.383-1.706-2.725-2.625-3.993c-3.587-4.928-8.026-8.664-15.159-8.647c-0.48,0-0.969,0.017-1.474,0.05
		c-0.505,0.042-1.027,0.091-1.557,0.166L32.024,7.897z"/>
	<path fill="#BD9125" d="M36.124,47.996c-0.323,2.601-0.638,5.351-0.886,8.54c-0.381,4.862-0.638,10.752-0.191,15.904
		c0.447,5.151,1.599,9.574,3.231,12.581c1.631,3.007,3.744,4.605,6.527,5.823s6.245,2.047,12.193,2.75
		c3.959,0.473,9.012,0.878,14.429,1.275c-4.059,2.585-9.492,3.637-16.393,3.753c-12.143,0.207-21.461-3.694-25.951-14.016
		c-4.961-11.431-1.64-23.325,6.262-35.344C35.619,48.857,35.875,48.435,36.124,47.996z"/>
</g>
</svg>
