<?xml version="1.0" encoding="utf-8"?>
<!-- Generator: Adobe Illustrator 16.0.0, SVG Export Plug-In . SVG Version: 6.00 Build 0)  -->
<!DOCTYPE svg PUBLIC "-//W3C//DTD SVG 1.1//EN" "http://www.w3.org/Graphics/SVG/1.1/DTD/svg11.dtd">
<svg version="1.1" id="Capa_1" xmlns="http://www.w3.org/2000/svg" xmlns:xlink="http://www.w3.org/1999/xlink" x="0px" y="0px"
	 width="100px" height="100px" viewBox="0 0 100 100" enable-background="new 0 0 100 100" xml:space="preserve">
<g id="_691514400">
	<path fill="#599029" d="M43.247,34.318c3.98,0.028,7.959,0.057,11.932,0.085c4.3-6.744,8.599-11.065,12.898-11.491
		c-2.487-2.331-5.806-3.227-10.177-2.281c2.58-5.287,5.849-8.606,9.829-9.914c-3.021-2.267-8.209-0.931-14.036,1.492
		c-2.381-4.896-8.265-7.576-15.095-9.658c2.921,2.822,5.266,5.579,5.614,8.166c-5.259-2.281-9.978-0.647-14.298,3.859
		c6.616,0.604,11.982,2.324,14.384,6.666c-4.058-1.18-7.81,0.277-11.406,3.07C41.74,26.245,45.166,29.585,43.247,34.318z"/>
	<path fill="#8BBC4E" d="M48.505,32.669c1.315-0.071,2.629-0.135,3.952-0.206c1.904-4.115,5.536-8.784,9.16-10.219
		c-0.611-1.372-4.953-0.76-7.824-0.426c1.03-3.276,3.561-6.624,7.05-8.386c-1.592-0.938-5.877,0.981-8.813,2.537
		c-0.554-3.07-3.511-5.742-6.694-7.121c1.023,1.997,2.736,4.612,2.253,6.979c-3.219-2.338-6.005-2.196-8.67-1.336
		c4.278,1.265,7.803,4.79,10.013,7.753c-2.331,0.654-5.849,0.042-8.179,0.704C44.49,24.781,47.404,28.206,48.505,32.669z"/>
	<path fill="#DB7C0C" d="M70.117,45.241c-3.205-7.434-12.444-13.424-20.531-12.984c-8.749,0.477-17.816,7.271-21.405,15.265
		c-4.698,10.468-5.174,23.765-0.881,34.397c3.269,8.108,12.323,15.308,21.057,15.62c9.075,0.32,19.855-5.657,23.346-14.043
		C76.605,71.713,75.177,56.96,70.117,45.241z"/>
	<path fill="#994517" d="M61.142,94.334l-35.1-16.055c0.362,1.237,0.782,2.459,1.258,3.64c0.192,0.482,0.405,0.959,0.64,1.428
		l28.433,13.006C58.008,95.833,59.613,95.151,61.142,94.334z"/>
	<path fill="#994517" d="M24.442,62.979L71.29,84.405c0.148-0.298,0.284-0.597,0.412-0.909c0.341-0.811,0.646-1.642,0.924-2.487
		l-47.779-21.86C24.663,60.421,24.528,61.7,24.442,62.979z"/>
	<path fill="#994517" d="M27.591,48.894l47.039,21.52c0.1-1.514,0.12-3.042,0.078-4.569L29.431,45.134
		c-0.469,0.781-0.888,1.578-1.25,2.388C27.974,47.977,27.782,48.432,27.591,48.894z"/>
	<path fill="#994517" d="M37.405,36.749l35.384,16.189c-0.434-1.628-0.938-3.227-1.507-4.783L41.335,34.46
		C39.978,35.107,38.656,35.874,37.405,36.749z"/>
	<path fill="#994517" d="M25.494,55.646l38.944-17.817c-0.846-0.718-1.748-1.386-2.693-1.99L26.489,51.964
		C26.105,53.172,25.778,54.395,25.494,55.646z"/>
	<path fill="#994517" d="M71.104,47.679L24.449,69.02c0.085,1.372,0.235,2.743,0.448,4.094l47.458-21.711
		C71.979,50.138,71.56,48.894,71.104,47.679z"/>
	<path fill="#994517" d="M74.487,62.247l-46.47,21.256c0.568,1.138,1.25,2.246,2.025,3.312l44.679-20.438
		C74.693,65.005,74.615,63.618,74.487,62.247z"/>
	<path fill="#994517" d="M72.355,81.798L41.435,95.939c1.293,0.541,2.608,0.96,3.937,1.23l25.271-11.557
		c0.398-0.688,0.754-1.392,1.06-2.117C71.937,82.941,72.149,82.373,72.355,81.798z"/>
</g>
</svg>
