<?xml version="1.0" encoding="utf-8"?>
<!-- Generator: Adobe Illustrator 16.0.0, SVG Export Plug-In . SVG Version: 6.00 Build 0)  -->
<!DOCTYPE svg PUBLIC "-//W3C//DTD SVG 1.1//EN" "http://www.w3.org/Graphics/SVG/1.1/DTD/svg11.dtd">
<svg version="1.1" id="Capa_1" xmlns="http://www.w3.org/2000/svg" xmlns:xlink="http://www.w3.org/1999/xlink" x="0px" y="0px"
	 width="100px" height="100px" viewBox="0 0 100 100" enable-background="new 0 0 100 100" xml:space="preserve">
<g>
	<path fill="#46210C" d="M48.408,99.091c-4.842-0.182-5.527-2.984-4.464-10.512c3.165,0,6.331,0,9.503,0
		C53.928,95.374,53.258,99.043,48.408,99.091z"/>
	<path fill="#994517" d="M44.463,94.186c-4.834-0.182-5.519-2.984-4.464-10.511c3.165,0,6.338,0,9.503,0
		C49.983,90.469,49.313,94.138,44.463,94.186z"/>
	<path fill="#994517" d="M40.787,88.052c-4.842-0.181-5.527-2.983-4.464-10.511c3.165,0,6.33,0,9.503,0
		C46.306,84.336,45.637,88.005,40.787,88.052z"/>
	<path fill="#793813" d="M55.59,98.477c-4.835-0.182-5.521-2.984-4.465-10.511c3.164,0,6.338,0,9.502,0
		C61.107,94.76,60.439,98.429,55.59,98.477z"/>
	<path fill="#994517" d="M59.447,93.571c-4.842-0.182-5.527-2.984-4.465-10.511c3.164,0,6.33,0,9.504,0
		C64.967,89.854,64.297,93.523,59.447,93.571z"/>
	<path fill="#6E3717" d="M51.652,94.271c-4.843-0.181-5.528-2.983-4.473-10.511c3.173,0,6.338,0,9.504,0
		C57.172,90.556,56.494,94.225,51.652,94.271z"/>
	<path fill="#793813" d="M47.778,87.902c-4.842-0.181-5.527-2.984-4.464-10.511c3.165,0,6.33,0,9.502,0
		C53.297,84.187,52.629,87.855,47.778,87.902z"/>
	<path fill="#994517" d="M54.258,87.619c-4.842-0.182-5.527-2.984-4.472-10.511c3.173,0,6.337,0,9.503,0
		C59.777,83.902,59.1,87.571,54.258,87.619z"/>
	<path fill="#58311A" d="M61.928,86.902c-4.844-0.181-5.527-2.984-4.473-10.511c3.172,0,6.338,0,9.502,0
		C67.438,83.187,66.77,86.855,61.928,86.902z"/>
	<path fill="#994517" d="M64.061,81.509c-4.834-0.181-5.52-2.976-4.465-10.511c3.166,0,6.338,0,9.504,0
		C69.58,77.793,68.91,81.462,64.061,81.509z"/>
	<path fill="#46210C" d="M56.471,80.698c-4.842-0.173-5.52-2.977-4.465-10.511c3.166,0,6.338,0,9.504,0
		C61.99,76.989,61.32,80.659,56.471,80.698z"/>
	<path fill="#994517" d="M55.557,74.62c-4.842-0.174-5.519-2.977-4.463-10.511c3.164,0,6.338,0,9.502,0
		C61.076,70.912,60.406,74.581,55.557,74.62z"/>
	<path fill="#58311A" d="M64.674,74.762c-4.842-0.173-5.52-2.977-4.463-10.511c3.164,0,6.338,0,9.502,0
		C70.193,71.053,69.525,74.723,64.674,74.762z"/>
	<path fill="#58311A" d="M48.069,80.564c-4.842-0.181-5.527-2.977-4.464-10.511c3.165,0,6.33,0,9.504,0
		C53.59,76.856,52.92,80.518,48.069,80.564z"/>
	<path fill="#52260D" d="M39.299,81.107c-4.842-0.181-5.527-2.983-4.472-10.519c3.165,0,6.338,0,9.503,0
		C44.81,77.392,44.141,81.061,39.299,81.107z"/>
	<path fill="#52260D" d="M39.299,81.107c-4.842-0.181-5.527-2.983-4.472-10.519c3.165,0,6.338,0,9.503,0
		C44.81,77.392,44.141,81.061,39.299,81.107z"/>
	<path fill="#793813" d="M39.299,81.107c-4.842-0.181-5.527-2.983-4.472-10.519c3.165,0,6.338,0,9.503,0
		C44.81,77.392,44.141,81.061,39.299,81.107z"/>
	<path fill="#58311A" d="M38.503,75.171c-5.204-0.181-5.944-2.984-4.803-10.511c3.409,0,6.818,0,10.228,0
		C44.44,71.455,43.724,75.124,38.503,75.171z"/>
	<path fill="#994517" d="M48.613,75.163c-5.33-0.181-6.079-2.984-4.913-10.519c3.488,0,6.976,0,10.464,0
		C54.691,71.447,53.951,75.116,48.613,75.163z"/>
	<path fill="#994517" d="M66.658,68.133c-4.842-0.182-5.527-2.984-4.473-10.512c3.174,0,6.34,0,9.504,0
		C72.17,64.416,71.502,68.085,66.658,68.133z"/>
	<path fill="#A55325" d="M60.162,67.699c-4.842-0.181-5.525-2.977-4.463-10.511c3.166,0,6.33,0,9.504,0
		C65.682,63.991,65.014,67.652,60.162,67.699z"/>
	<path fill="#46210C" d="M52.865,67.282c-4.843-0.182-5.528-2.984-4.473-10.512c3.172,0,6.338,0,9.512,0
		C58.383,63.565,57.715,67.234,52.865,67.282z"/>
	<path fill="#A55325" d="M45.172,67.4c-4.842-0.182-5.527-2.984-4.472-10.512c3.173,0,6.338,0,9.503,0
		C50.691,63.684,50.014,67.353,45.172,67.4z"/>
	<path fill="#A55325" d="M35.976,68.463c-4.842-0.181-5.527-2.976-4.472-10.511c3.173,0,6.338,0,9.511,0
		C41.495,64.747,40.826,68.416,35.976,68.463z"/>
	<path fill="#46210C" d="M66.729,61.314c-4.834-0.174-5.518-2.977-4.463-10.512c3.164,0,6.338,0,9.502,0
		C72.248,57.605,71.58,61.274,66.729,61.314z"/>
	<path fill="#994517" d="M59.092,61.338c-4.834-0.182-5.518-2.984-4.463-10.519c3.164,0,6.338,0,9.502,0
		C64.611,57.621,63.943,61.29,59.092,61.338z"/>
	<path fill="#A55325" d="M49.951,60.526c-4.842-0.181-5.527-2.976-4.464-10.511c3.166,0,6.337,0,9.503,0
		C55.471,56.818,54.801,60.487,49.951,60.526z"/>
	<path fill="#994517" d="M41.07,61.842c-4.842-0.182-5.527-2.977-4.472-10.511c3.173,0,6.338,0,9.503,0
		C46.582,58.125,45.913,61.794,41.07,61.842z"/>
	<path fill="#A55325" d="M33.646,62.598c-4.842-0.182-5.527-2.984-4.464-10.52c3.166,0,6.33,0,9.503,0
		C39.165,58.881,38.496,62.55,33.646,62.598z"/>
	<path fill="#A55325" d="M68.461,54.739c-4.795,0.646-5.943-1.991-6.188-9.597c3.117-0.535,6.236-1.079,9.361-1.622
		C73.271,50.134,73.232,53.866,68.461,54.739z"/>
	<path fill="#A55325" d="M59.328,55.582c-4.834-0.181-5.52-2.984-4.465-10.511c3.166,0,6.34,0,9.504,0
		C64.848,51.866,64.18,55.535,59.328,55.582z"/>
	<path fill="#46210C" d="M50.085,55.275c-4.834-0.182-5.519-2.984-4.464-10.511c3.165,0,6.338,0,9.504,0
		C55.605,51.559,54.936,55.228,50.085,55.275z"/>
	<path fill="#994517" d="M41.551,55.055c-4.842-0.181-5.527-2.977-4.464-10.511c3.165,0,6.33,0,9.503,0
		C47.069,51.339,46.4,55.008,41.551,55.055z"/>
	<path fill="#8F522E" d="M32.567,54.394c-4.842-0.174-5.527-2.977-4.464-10.511c3.165,0,6.338,0,9.503,0
		C38.086,50.685,37.417,54.354,32.567,54.394z"/>
	<path fill="#783F1D" d="M66.729,48.827c-4.842-0.182-5.525-2.977-4.471-10.511c3.172,0,6.338,0,9.502,0
		C72.248,45.119,71.572,48.78,66.729,48.827z"/>
	<path fill="#994517" d="M58.982,48.307c-4.842-0.173-5.527-2.976-4.465-10.511c3.166,0,6.33,0,9.504,0
		C64.502,44.599,63.832,48.268,58.982,48.307z"/>
	<path fill="#52280F" d="M50.132,48.307c-4.842-0.173-5.519-2.976-4.464-10.511c3.165,0,6.337,0,9.503,0
		C55.652,44.599,54.982,48.268,50.132,48.307z"/>
	<path fill="#46210C" d="M41.109,47.52c-4.842-0.173-5.52-2.976-4.464-10.511c3.165,0,6.338,0,9.503,0
		C46.629,43.812,45.959,47.48,41.109,47.52z"/>
	<path fill="#8F4E28" d="M41.023,39.993c-4.842-0.181-5.52-2.984-4.464-10.519c3.165,0,6.338,0,9.503,0
		C46.542,36.277,45.873,39.946,41.023,39.993z"/>
	<path fill="#A55325" d="M31.567,47.425c-4.795-0.701-5.172-3.559-3.307-10.936c3.15,0.338,6.299,0.685,9.449,1.023
		C37.448,44.323,36.394,47.898,31.567,47.425z"/>
	<path fill="#623318" d="M69.809,40.717c-4.158,2.488-6.26,0.52-9.488-6.37c2.654-1.732,5.307-3.457,7.961-5.188
		C72.398,34.592,73.84,38.024,69.809,40.717z"/>
	<path fill="#5C2B11" d="M58.502,41.686c-4.842-0.181-5.527-2.984-4.473-10.511c3.174,0,6.338,0,9.504,0
		C64.021,37.97,63.344,41.639,58.502,41.686z"/>
	<path fill="#994517" d="M50.132,40.867c-4.842-0.182-5.519-2.984-4.464-10.511c3.165,0,6.337,0,9.503,0
		C55.652,37.151,54.982,40.82,50.132,40.867z"/>
	<path fill="#994517" d="M50.92,33.332c-4.834-0.181-5.52-2.984-4.464-10.511c3.165,0,6.337,0,9.503,0
		C56.439,29.616,55.77,33.285,50.92,33.332z"/>
	<path fill="#994517" d="M31.504,39.891c-4.575-1.606-4.393-4.488-1.157-11.361c3.023,0.937,6.055,1.874,9.078,2.811
		C37.874,37.978,36.149,41.276,31.504,39.891z"/>
	<path fill="#A55325" d="M32.378,31.553c-4.212-2.386-3.535-5.188,0.866-11.385c2.819,1.457,5.629,2.913,8.44,4.37
		C38.984,30.789,36.708,33.741,32.378,31.553z"/>
	<path fill="#6E3C20" d="M42.456,33.277c-4.818-0.52-5.299-3.362-3.708-10.802c3.157,0.228,6.322,0.448,9.479,0.677
		C48.227,29.97,47.298,33.576,42.456,33.277z"/>
	<path fill="#994517" d="M35.787,26.057c-5.771-2.346-3.22-6.645,1.158-10.881c3.637,1.37,6.33,2,9.967,3.37
		C44.275,23.656,41.826,28.38,35.787,26.057z"/>
	<path fill="#8F4E28" d="M47.715,26.545c-5.331-0.134-6.464-3.023-4.945-10.385c3.921,0,7.85,0,11.778,0
		C54.896,23.341,52.156,26.144,47.715,26.545z"/>
	<path fill="#A55325" d="M67.689,35.348c-4.52,2.031-6.416-0.228-8.865-7.606c2.906-1.433,5.811-2.874,8.709-4.307
		C71.061,29.443,72.107,33.104,67.689,35.348z"/>
	<path fill="#8F4E28" d="M65.17,28.836c-4.281,2.275-6.273,0.197-9.148-6.842c2.74-1.591,5.48-3.181,8.221-4.779
		C68.076,22.853,69.336,26.364,65.17,28.836z"/>
	<path fill="#46210C" d="M59.762,32.427c-4.709,1.244-6.125-1.528-7.133-9.857c3.055-0.945,6.102-1.882,9.156-2.827
		C64.076,26.829,64.422,30.931,59.762,32.427z"/>
	<path fill="#994517" d="M59.336,25.797c5.441-1.04,6.086-4.086,3.229-11.078c-4.023,0.677-8.047,1.346-12.07,2.015
		C51.416,23.868,54.715,26.16,59.336,25.797z"/>
	<path fill="#A55325" d="M50.487,2.091c-1.543-0.04-2.212,4.685-2.629,9.022c1.433,0,2.865,0,4.291,0
		C52.021,7.657,51.998,2.193,50.487,2.091z"/>
	<path fill="#3B261B" d="M64.697,18.082c-0.676-3.653-5.551-7.677-9.723-7.803c-3.652,0-7.299,0-10.952,0
		c-3.794,0.055-8.81,5.669-10.424,8.503c3.889,0.614,7.771,0.622,11.652-2.283c2.874,2.527,6.298,2.614,10.339,0
		C59.518,19.065,62.406,19.254,64.697,18.082z"/>
</g>
</svg>
