<?xml version="1.0" encoding="utf-8"?>
<!-- Generator: Adobe Illustrator 16.0.0, SVG Export Plug-In . SVG Version: 6.00 Build 0)  -->
<!DOCTYPE svg PUBLIC "-//W3C//DTD SVG 1.1//EN" "http://www.w3.org/Graphics/SVG/1.1/DTD/svg11.dtd">
<svg version="1.1" id="Capa_1" xmlns="http://www.w3.org/2000/svg" xmlns:xlink="http://www.w3.org/1999/xlink" x="0px" y="0px"
	 width="100px" height="100px" viewBox="0 0 100 100" enable-background="new 0 0 100 100" xml:space="preserve">
<g id="_699426040">
	<g>
		<path fill="#F5DF3F" d="M50.751,4.019c1.481,2.158,8.611,8.983,8.564,11.648c0.23,43.8-19.604,62.761-44.179,73.138
			c-2.022,0.398-3.849,0.168-6.074,0.182c0.365,1.854,0.561,3.775,0.927,5.629c2.983,0.25,4.356,0.365,6.446,0.066
			C77.383,108.076,91.9,36.163,65.376,13.09c-0.514-1.989-7.792-9.863-9.483-11.757C54.1,1.279,51.929,3.011,50.751,4.019z"/>
		<path fill="#A55325" d="M10.591,89.555L9.157,89.5c0.305,1.691,0.501,3.438,0.833,5.115c2.347,0.195,3.693,0.311,5.181,0.203
			c-0.047-0.467-0.095-0.914-0.135-1.307c-0.108-1.055-0.196-1.766-0.379-2.326c-0.183-0.555-0.46-0.953-0.792-1.191
			c-0.338-0.236-0.724-0.297-1.278-0.344C12.032,89.602,11.301,89.582,10.591,89.555z"/>
		<path fill="#E7CC00" d="M61.94,61.686c8.706-13.718,6.473-31.042,3.132-48.454l-5.933,1.563c0.115,0.325,0.176,0.615,0.176,0.873
			c0.23,43.8-19.604,62.761-44.179,73.138c-2.022,0.398-3.849,0.168-6.074,0.182c0.033,0.17,0.067,0.338,0.094,0.514l1.435,0.055
			c0.71,0.027,1.44,0.047,1.995,0.096c0.555,0.047,0.94,0.107,1.278,0.344c0.332,0.238,0.609,0.637,0.792,1.191
			c0.108,0.346,0.189,0.736,0.257,1.238C32.927,86.234,50.765,79.279,61.94,61.686z"/>
	</g>
	<path fill="#E7CC00" d="M62.285,13.962L52.132,2.916c-0.528,0.386-1.008,0.778-1.38,1.103c1.339,1.955,7.299,7.718,8.388,10.776
		L62.285,13.962z"/>
</g>
</svg>
