<?xml version="1.0" encoding="utf-8"?>
<!-- Generator: Adobe Illustrator 16.0.0, SVG Export Plug-In . SVG Version: 6.00 Build 0)  -->
<!DOCTYPE svg PUBLIC "-//W3C//DTD SVG 1.1//EN" "http://www.w3.org/Graphics/SVG/1.1/DTD/svg11.dtd">
<svg version="1.1" id="Capa_1" xmlns="http://www.w3.org/2000/svg" xmlns:xlink="http://www.w3.org/1999/xlink" x="0px" y="0px"
	 width="100px" height="100px" viewBox="0 0 100 100" enable-background="new 0 0 100 100" xml:space="preserve">
<g id="_691516248">
	<path fill="#B57DAF" stroke="#000000" stroke-width="22.5436" d="M54.816,57.834c1.129-2.914-0.858-7.397-3.746-8.587
		c-2.65-1.102-6.667,1.177-7.708,3.854c-1.068,2.759,0.244,7.235,2.976,8.371C49.177,62.642,53.707,60.701,54.816,57.834z"/>
	<path fill="#B350A6" d="M63.369,61.56c6.025,0,10.94-5.064,10.94-11.271s-4.915-11.271-10.94-11.271
		c-6.024,0-10.933,5.064-10.933,11.271S57.345,61.56,63.369,61.56z"/>
	<path fill="#B350A6" d="M45.519,53.148c5.592,0,10.156-4.436,10.156-9.879s-4.563-9.879-10.156-9.879
		c-5.592,0-10.156,4.436-10.156,9.879S39.927,53.148,45.519,53.148z"/>
	<path fill="#9A79AF" d="M67.616,44.554c6.214,0,11.278-5.565,11.278-12.387c0-6.829-5.064-12.394-11.278-12.394
		c-6.207,0-11.271,5.565-11.271,12.394C56.345,38.989,61.409,44.554,67.616,44.554z"/>
	<path fill="#994517" d="M49.536,20.72c-0.947-0.203-1.9-0.406-2.847-0.608c1.217-6.749,2.826-12.976,7.032-15.687
		c1.542,1.062,3.09,2.123,4.632,3.185C52.497,9.151,50.475,14.411,49.536,20.72z"/>
	<path fill="#6F3311" d="M56.216,6.142c-0.98,0.764-1.927,1.521-2.759,2.265c-1.203,1.075-2.17,2.117-2.995,3.516
		c-0.818,1.393-1.487,3.144-2.063,5.544c-0.067,0.271-0.128,0.548-0.189,0.832c-0.142,0.649-0.284,1.332-0.413,2.049l1.738,0.372
		c0.135-0.893,0.291-1.771,0.473-2.617c1.122-5.112,3.32-9.176,8.344-10.494L56.216,6.142z"/>
	<path fill="#B57DAF" d="M50.151,37.299c5.253,0,9.541-4.313,9.541-9.601s-4.287-9.595-9.541-9.595
		c-5.254,0-9.541,4.307-9.541,9.595S44.897,37.299,50.151,37.299z"/>
	<path fill="#B57DAF" d="M55.621,45.778c3.841,0,6.978-3.232,6.978-7.194c0-3.969-3.137-7.201-6.978-7.201s-6.978,3.232-6.978,7.201
		C48.643,42.546,51.78,45.778,55.621,45.778z"/>
	<path fill="#9A79AF" d="M33.24,41.092c6.146,0,11.163-4.76,11.163-10.602c0-5.842-5.017-10.603-11.163-10.603
		c-6.146,0-11.157,4.76-11.157,10.603C22.083,36.332,27.094,41.092,33.24,41.092z"/>
	<path fill="#B57DAF" d="M32.49,55.305c3.996,0,7.255-3.739,7.255-8.316c0-4.584-3.259-8.316-7.255-8.316s-7.255,3.732-7.255,8.316
		C25.234,51.565,28.494,55.305,32.49,55.305z"/>
	<path fill="#9A79AF" d="M38.318,68.436c4.395,0,7.979-4.232,7.979-9.425c0-5.2-3.584-9.433-7.979-9.433
		c-4.396,0-7.979,4.232-7.979,9.433C30.339,64.203,33.923,68.436,38.318,68.436z"/>
	<path fill="#9A79AF" d="M54.113,75.691c5.781,0,10.494-4.308,10.494-9.595c0-5.288-4.713-9.602-10.494-9.602
		s-10.494,4.313-10.494,9.602C43.619,71.384,48.332,75.691,54.113,75.691z"/>
	<path fill="#B57DAF" d="M39.934,82.561c6.552,0,11.894-4.665,11.894-10.385c0-5.714-5.342-10.38-11.894-10.38
		c-6.545,0-11.887,4.666-11.887,10.38C28.047,77.896,33.389,82.561,39.934,82.561z"/>
	<path fill="#B350A6" d="M51.057,90.77c4.855,0,8.817-4.463,8.817-9.933c0-5.471-3.962-9.933-8.817-9.933
		c-4.854,0-8.817,4.462-8.817,9.933C42.24,86.307,46.202,90.77,51.057,90.77z"/>
	<path fill="#9A79AF" d="M40.002,96.327c3.996,0,7.255-4.489,7.255-9.993c0-5.497-3.259-9.987-7.255-9.987
		c-3.997,0-7.255,4.49-7.255,9.987C32.747,91.838,36.005,96.327,40.002,96.327z"/>
	<path fill="#B57DAF" d="M46.939,99.424c3.198,0,5.801-2.771,5.801-6.166c0-3.401-2.603-6.167-5.801-6.167s-5.808,2.766-5.808,6.167
		C41.131,96.652,43.741,99.424,46.939,99.424z"/>
	<path fill="#3B6620" d="M68.434,7.643c-3.556-3.563-8.966-1.501-13.435,0.643c-0.474,4.53-0.758,10.859,4.077,13.841
		c5.125,3.158,11.866,2.001,17.797,3.009C74.06,19.3,73.005,12.22,68.434,7.643z"/>
	<path fill="#8BBC4E" d="M55.073,8.251l21.597,16.85c-5.883-0.947-12.529,0.149-17.594-2.975c-4.835-2.982-4.551-9.311-4.077-13.841
		C55.02,8.271,55.046,8.265,55.073,8.251z"/>
	<path fill="#87669C" d="M60.266,22.775c-0.446,0.419-0.865,0.879-1.243,1.373c0.067,0.182,0.135,0.365,0.195,0.554
		c1.055,0.521,2.083,0.98,3.077,1.318c2.42,0.839,4.611,1.008,6.403,1.089c1.784,0.088,3.157,0.088,5.537,0.209
		c1.103,0.054,2.421,0.135,3.848,0.23c-0.338-0.926-0.777-1.799-1.298-2.596c0.026,0.061,0.061,0.122,0.088,0.182
		c-0.068-0.013-0.136-0.027-0.203-0.034C71.233,24.229,65.148,25.094,60.266,22.775z"/>
	<path fill="#9D4691" d="M43.734,38.489c0.838-0.298,1.772-0.108,2.347,0.507s0.798,1.657,1.088,3.002
		c0.291,1.352,0.642,3.002,1.576,4.023c0.933,1.014,2.448,1.393,3.198,1.603c0.467,0.128,0.636,0.196,0.777,0.095
		c0.089-0.061,0.156-0.189,0.277-0.406c0.203-0.352,0.528-0.954,0.974-1.738c-0.162-0.034-0.317-0.081-0.479-0.135
		c-2.813-0.926-4.848-3.645-4.848-6.856c0-0.473,0.047-0.939,0.128-1.386c-2.022-0.291-3.841-1.224-5.24-2.59
		c-1.21,2.725-3.583,4.868-6.525,5.869c1.67,1.521,2.738,3.875,2.738,6.511c0,0.933-0.135,1.833-0.378,2.671
		c0.629,0.095,1.23,0.277,1.805,0.534c0.237-1.298,0.399-2.569,0.297-3.766c-0.148-1.758-0.858-3.361-0.96-4.348
		c-0.102-0.98,0.399-1.353,1.021-1.934C42.152,39.571,42.902,38.787,43.734,38.489z"/>
	<path fill="#9D4691" d="M62.159,44.967c0.568-0.075,1.184,0.277,2.002,0.649c0.817,0.372,1.846,0.764,3.002,0.899
		c1.163,0.142,2.468,0.034,4.029-0.284c0.684-0.142,1.42-0.318,2.185-0.514c-0.338-0.785-0.758-1.515-1.251-2.191
		c-1.379,0.663-2.907,1.028-4.51,1.028c-2.272,0-4.396-0.744-6.167-2.015c-1.129,1.772-3.002,2.996-5.159,3.212
		c0.703,0.23,1.359,0.419,1.907,0.507c1.014,0.155,1.684-0.027,2.278-0.372C61.077,45.542,61.592,45.041,62.159,44.967z"/>
	<path fill="#9C6994" d="M52.612,52.33c-0.102-0.595-0.162-1.203-0.176-1.826c-1.813,1.636-4.247,2.644-6.917,2.644
		c-0.331,0-0.656-0.014-0.974-0.048c1.096,1.616,1.751,3.672,1.751,5.91c0,0.236-0.007,0.467-0.021,0.703
		c0.413-0.426,0.866-0.812,1.353-1.163c-0.149-0.939-0.284-1.813-0.365-2.435c-0.108-0.858-0.108-1.237,0.128-1.487
		c0.23-0.25,0.696-0.372,1.406-0.608c0.703-0.23,1.657-0.575,2.522-0.994C51.767,52.811,52.199,52.573,52.612,52.33z"/>
	<path fill="#87669C" d="M55.492,71.208c-0.974-0.365-1.94-0.602-2.556-1.169c-0.615-0.568-0.872-1.461-1.21-2.185
		c-0.332-0.73-0.744-1.284-1.69-1.866c-0.305-0.183-0.67-0.372-1.068-0.555c1.494,1.515,2.488,3.408,2.772,5.497
		c2.63,0.23,4.942,1.759,6.423,4.023c0.399-0.155,0.784-0.331,1.156-0.521c-0.311-0.615-0.669-1.197-1.156-1.684
		C57.453,72.054,56.473,71.573,55.492,71.208z"/>
	<path fill="#9D4691" d="M46.148,81.033c0.703,1.534,1.109,3.354,1.109,5.301c0,0.257-0.007,0.514-0.021,0.764
		c2.211,0.115,4.098,1.556,4.977,3.591c0.582-0.088,1.149-0.237,1.69-0.446c-0.047-0.081-0.088-0.155-0.128-0.224
		c-0.615-1.074-0.987-1.629-1.583-2.17c-0.595-0.541-1.413-1.062-2.103-1.406c-0.689-0.345-1.244-0.508-1.555-0.967
		c-0.304-0.453-0.358-1.197-0.568-2.076c-0.203-0.832-0.541-1.785-1.217-2.711c-0.034-0.055-0.074-0.102-0.108-0.149
		c-0.696-0.898-1.711-1.771-2.759-2.644C44.796,78.693,45.573,79.769,46.148,81.033z"/>
</g>
</svg>
