<?xml version="1.0" encoding="utf-8"?>
<!-- Generator: Adobe Illustrator 16.0.0, SVG Export Plug-In . SVG Version: 6.00 Build 0)  -->
<!DOCTYPE svg PUBLIC "-//W3C//DTD SVG 1.1//EN" "http://www.w3.org/Graphics/SVG/1.1/DTD/svg11.dtd">
<svg version="1.1" id="Capa_1" xmlns="http://www.w3.org/2000/svg" xmlns:xlink="http://www.w3.org/1999/xlink" x="0px" y="0px"
	 width="100px" height="100px" viewBox="0 0 100 100" enable-background="new 0 0 100 100" xml:space="preserve">
<g id="_689839496">
	<path fill="#599029" d="M98.304,26.999c-0.137,26.123-21.347,47.258-47.5,47.258S3.43,53.121,3.304,26.999H98.304z"/>
	<path fill="#8BBC4E" d="M89.069,26.999c-0.127,21.031-17.214,38.035-38.266,38.035c-21.062,0-38.149-17.004-38.276-38.035H89.069z"
		/>
	<path fill="#E31D1C" d="M16.48,26.999c0.264,2.088,0.58,4.185,1.096,6.272c0.728,2.889,1.834,5.766,3.669,8.645
		c1.834,2.878,4.385,5.756,6.936,8.149c2.551,2.382,5.102,4.28,8.18,5.65c3.068,1.381,6.673,2.225,9.877,2.688
		c3.205,0.453,6.02,0.526,8.771,0.357c2.741-0.157,5.429-0.558,8.696-1.865c3.269-1.307,7.137-3.531,10.531-6.831
		c3.405-3.31,6.356-7.696,7.886-10.995c1.539-3.31,1.676-5.535,1.834-8.307l0.221-3.764H16.48z"/>
	<path fill="#4B7924" d="M66.458,67.099c-2.035,0.59-4.059,1.055-6.452,1.603c-2.382,0.559-5.133,1.212-9.223,1.939
		c-3.479,0.611-7.948,1.266-12.544,1.94c3.995,1.096,8.212,1.676,12.565,1.676c26.153,0,47.363-21.136,47.5-47.258h-0.548
		c-0.812,1.792-1.624,3.679-2.414,5.851c-1.075,2.973-2.13,6.515-3.437,9.583c-1.308,3.078-2.878,5.693-4.344,8.054
		c-1.476,2.351-2.846,4.448-4.554,6.251c-1.697,1.792-3.731,3.3-5.523,4.639c-1.803,1.339-3.374,2.52-5.176,3.468
		C70.517,65.792,68.481,66.519,66.458,67.099z"/>
	<path d="M36.91,43.485c-3.468,1.54-1.961,4.459-0.843,3.269C36.72,46.058,37.837,45.509,36.91,43.485z"/>
	<path d="M30.048,38.816c-3.479,1.539-1.961,4.459-0.844,3.268C29.847,41.388,30.965,40.839,30.048,38.816z"/>
	<path d="M49.265,45.647c-2.414,2.941,0.243,4.87,0.707,3.299C50.245,48.04,51.004,47.048,49.265,45.647z"/>
	<path d="M63.706,44.592c-0.832,3.71,2.404,4.249,2.119,2.646C65.656,46.3,65.889,45.077,63.706,44.592z"/>
	<path d="M40.6,43.823c-3.605,3.848,2.477,5.524,1.064,2.319C41.496,45.784,40.6,43.812,40.6,43.823z"/>
	<path d="M52.712,44.298c-1.497,5.06,4.69,3.836,1.992,1.602C54.398,45.647,52.712,44.287,52.712,44.298z"/>
	<path d="M72.382,37.867c-1.497,5.061,4.691,3.827,1.992,1.592C74.068,39.206,72.382,37.856,72.382,37.867z"/>
	<path d="M66.194,41.852c0.917,5.187,5.903,1.318,2.487,0.538C68.292,42.294,66.184,41.841,66.194,41.852z"/>
	<path d="M34.38,40.481c-1.212,0.348-2.499,0.328-2.277,2.604c0.063,0.675,2.056,1.191,2.14-2.108L34.38,40.481z"/>
	<path d="M45.649,44.097c-0.928,0.854-2.087,1.412-0.864,3.342c0.358,0.58,2.372,0.158,0.97-2.836L45.649,44.097z"/>
	<path d="M59.785,44.835c-0.442,1.17-1.233,2.192,0.728,3.374c0.579,0.347,2.192-0.928-0.4-2.973L59.785,44.835z"/>
</g>
</svg>
