<?xml version="1.0" encoding="utf-8"?>
<!-- Generator: Adobe Illustrator 16.0.0, SVG Export Plug-In . SVG Version: 6.00 Build 0)  -->
<!DOCTYPE svg PUBLIC "-//W3C//DTD SVG 1.1//EN" "http://www.w3.org/Graphics/SVG/1.1/DTD/svg11.dtd">
<svg version="1.1" id="Capa_1" xmlns="http://www.w3.org/2000/svg" xmlns:xlink="http://www.w3.org/1999/xlink" x="0px" y="0px"
	 width="100px" height="100px" viewBox="0 0 100 100" enable-background="new 0 0 100 100" xml:space="preserve">
<g>
	<g>
		
			<radialGradient id="SVGID_1_" cx="1252.1895" cy="47.0166" r="36.1916" gradientTransform="matrix(-1.0129 0 0 1 1318.6807 0)" gradientUnits="userSpaceOnUse">
			<stop  offset="0" style="stop-color:#FFBF00"/>
			<stop  offset="0.4299" style="stop-color:#FFBD00"/>
			<stop  offset="0.6621" style="stop-color:#FFB500"/>
			<stop  offset="0.8469" style="stop-color:#FFA700"/>
			<stop  offset="0.8587" style="stop-color:#FFA600"/>
			<stop  offset="0.9837" style="stop-color:#FFA100"/>
		</radialGradient>
		<path fill="url(#SVGID_1_)" d="M2.839,56.893c0-2.704,4.094-11.449,11.912-12.365l6.952-13.641
			c1.225-2.406,4.466-4.378,7.205-4.378h63.965c2.727,0.007,4.966,2.217,4.966,4.91v36.106H84.492
			c0.191-0.77,0.346-1.563,0.346-2.394c0-5.252-4.329-9.514-9.648-9.514c-5.294,0-9.624,4.269-9.624,9.514
			c0,0.83,0.148,1.624,0.354,2.394H34.766c0.197-0.77,0.346-1.563,0.346-2.394c0-5.252-4.311-9.514-9.629-9.514
			c-5.313,0-9.63,4.269-9.63,9.514c0,0.83,0.136,1.624,0.346,2.394H2.839V56.893z"/>
		
			<linearGradient id="SVGID_2_" gradientUnits="userSpaceOnUse" x1="1294.084" y1="55.9707" x2="1298.8047" y2="55.9707" gradientTransform="matrix(-1.0129 0 0 1 1318.6807 0)">
			<stop  offset="0.0054" style="stop-color:#8C8C8C"/>
			<stop  offset="0.062" style="stop-color:#707070"/>
			<stop  offset="0.1433" style="stop-color:#4F4F4F"/>
			<stop  offset="0.2311" style="stop-color:#343434"/>
			<stop  offset="0.3262" style="stop-color:#1F1F1F"/>
			<stop  offset="0.4321" style="stop-color:#101010"/>
			<stop  offset="0.5573" style="stop-color:#080808"/>
			<stop  offset="0.7513" style="stop-color:#050505"/>
		</linearGradient>
		<polygon fill="url(#SVGID_2_)" points="3.122,57.467 7.903,57.467 7.903,54.474 3.125,54.474 3.122,57.467 		"/>
		
			<linearGradient id="SVGID_3_" gradientUnits="userSpaceOnUse" x1="1219.9854" y1="65.1367" x2="1235.3047" y2="65.1367" gradientTransform="matrix(-1.0129 0 0 1 1318.6807 0)">
			<stop  offset="0.0054" style="stop-color:#8C8C8C"/>
			<stop  offset="0.062" style="stop-color:#707070"/>
			<stop  offset="0.1433" style="stop-color:#4F4F4F"/>
			<stop  offset="0.2311" style="stop-color:#343434"/>
			<stop  offset="0.3262" style="stop-color:#1F1F1F"/>
			<stop  offset="0.4321" style="stop-color:#101010"/>
			<stop  offset="0.5573" style="stop-color:#080808"/>
			<stop  offset="0.7513" style="stop-color:#050505"/>
		</linearGradient>
		<path fill="url(#SVGID_3_)" d="M67.44,65.143c0-4.262,3.463-7.676,7.743-7.676c4.323,0,7.774,3.414,7.774,7.676
			c0,4.226-3.451,7.663-7.774,7.663C70.903,72.8,67.44,69.368,67.44,65.143z"/>
		
			<linearGradient id="SVGID_4_" gradientUnits="userSpaceOnUse" x1="1269.0537" y1="65.1367" x2="1284.4043" y2="65.1367" gradientTransform="matrix(-1.0129 0 0 1 1318.6807 0)">
			<stop  offset="0.0054" style="stop-color:#8C8C8C"/>
			<stop  offset="0.062" style="stop-color:#707070"/>
			<stop  offset="0.1433" style="stop-color:#4F4F4F"/>
			<stop  offset="0.2311" style="stop-color:#343434"/>
			<stop  offset="0.3262" style="stop-color:#1F1F1F"/>
			<stop  offset="0.4321" style="stop-color:#101010"/>
			<stop  offset="0.5573" style="stop-color:#080808"/>
			<stop  offset="0.7513" style="stop-color:#050505"/>
		</linearGradient>
		<path fill="url(#SVGID_4_)" d="M17.708,65.143c0-4.262,3.488-7.676,7.768-7.676c4.299,0,7.781,3.414,7.781,7.676
			c0,4.226-3.482,7.663-7.781,7.663C21.183,72.8,17.708,69.368,17.708,65.143z"/>
		
			<linearGradient id="SVGID_5_" gradientUnits="userSpaceOnUse" x1="1209.043" y1="37.3438" x2="1225.3027" y2="37.3438" gradientTransform="matrix(-1.0129 0 0 1 1318.6807 0)">
			<stop  offset="0" style="stop-color:#FFFFFF"/>
			<stop  offset="0.074" style="stop-color:#ECECEF"/>
			<stop  offset="0.1757" style="stop-color:#D8D8DF"/>
			<stop  offset="0.2446" style="stop-color:#D1D1D9"/>
			<stop  offset="0.5537" style="stop-color:#E1E1E6"/>
			<stop  offset="1" style="stop-color:#F5F5F5"/>
		</linearGradient>
		<rect x="77.571" y="30.147" fill="url(#SVGID_5_)" width="16.47" height="14.393"/>
		
			<linearGradient id="SVGID_6_" gradientUnits="userSpaceOnUse" x1="1267.4424" y1="37.3438" x2="1282.6641" y2="37.3438" gradientTransform="matrix(-1.0129 0 0 1 1318.6807 0)">
			<stop  offset="0" style="stop-color:#FFFFFF"/>
			<stop  offset="0.074" style="stop-color:#ECECEF"/>
			<stop  offset="0.1757" style="stop-color:#D8D8DF"/>
			<stop  offset="0.2446" style="stop-color:#D1D1D9"/>
			<stop  offset="0.5537" style="stop-color:#E1E1E6"/>
			<stop  offset="1" style="stop-color:#F5F5F5"/>
		</linearGradient>
		<path fill="url(#SVGID_6_)" d="M29.972,30.147h4.917V44.54H19.47l5.919-11.602C26.168,31.406,28.228,30.147,29.972,30.147z"/>
		
			<linearGradient id="SVGID_7_" gradientUnits="userSpaceOnUse" x1="1227.8008" y1="37.3438" x2="1244.0557" y2="37.3438" gradientTransform="matrix(-1.0129 0 0 1 1318.6807 0)">
			<stop  offset="0" style="stop-color:#FFFFFF"/>
			<stop  offset="0.074" style="stop-color:#ECECEF"/>
			<stop  offset="0.1757" style="stop-color:#D8D8DF"/>
			<stop  offset="0.2446" style="stop-color:#D1D1D9"/>
			<stop  offset="0.5537" style="stop-color:#E1E1E6"/>
			<stop  offset="1" style="stop-color:#F5F5F5"/>
		</linearGradient>
		<rect x="58.577" y="30.147" fill="url(#SVGID_7_)" width="16.464" height="14.393"/>
		
			<linearGradient id="SVGID_8_" gradientUnits="userSpaceOnUse" x1="1246.5469" y1="37.3438" x2="1262.8008" y2="37.3438" gradientTransform="matrix(-1.0129 0 0 1 1318.6807 0)">
			<stop  offset="0" style="stop-color:#FFFFFF"/>
			<stop  offset="0.074" style="stop-color:#ECECEF"/>
			<stop  offset="0.1757" style="stop-color:#D8D8DF"/>
			<stop  offset="0.2446" style="stop-color:#D1D1D9"/>
			<stop  offset="0.5537" style="stop-color:#E1E1E6"/>
			<stop  offset="1" style="stop-color:#F5F5F5"/>
		</linearGradient>
		<rect x="39.589" y="30.147" fill="url(#SVGID_8_)" width="16.464" height="14.393"/>
		
			<linearGradient id="SVGID_9_" gradientUnits="userSpaceOnUse" x1="1223.8086" y1="65.1309" x2="1231.4775" y2="65.1309" gradientTransform="matrix(-1.0129 0 0 1 1318.6807 0)">
			<stop  offset="0" style="stop-color:#FFFFFF"/>
			<stop  offset="0.074" style="stop-color:#ECECEF"/>
			<stop  offset="0.1757" style="stop-color:#D8D8DF"/>
			<stop  offset="0.2446" style="stop-color:#D1D1D9"/>
			<stop  offset="0.5537" style="stop-color:#E1E1E6"/>
			<stop  offset="1" style="stop-color:#F5F5F5"/>
		</linearGradient>
		<path fill="url(#SVGID_9_)" d="M71.317,65.131c0,2.125,1.726,3.834,3.878,3.834c2.135,0,3.891-1.709,3.891-3.834
			c0-2.113-1.756-3.835-3.891-3.835C73.05,61.284,71.317,63.018,71.317,65.131z"/>
		
			<linearGradient id="SVGID_10_" gradientUnits="userSpaceOnUse" x1="1272.9014" y1="65.1211" x2="1280.5703" y2="65.1211" gradientTransform="matrix(-1.0129 0 0 1 1318.6807 0)">
			<stop  offset="0" style="stop-color:#FFFFFF"/>
			<stop  offset="0.074" style="stop-color:#ECECEF"/>
			<stop  offset="0.1757" style="stop-color:#D8D8DF"/>
			<stop  offset="0.2446" style="stop-color:#D1D1D9"/>
			<stop  offset="0.5537" style="stop-color:#E1E1E6"/>
			<stop  offset="1" style="stop-color:#F5F5F5"/>
		</linearGradient>
		<path fill="url(#SVGID_10_)" d="M25.463,61.284c2.159,0,3.896,1.728,3.896,3.847c0,2.112-1.737,3.828-3.896,3.828
			c-2.127,0-3.872-1.716-3.872-3.828C21.591,63.018,23.335,61.284,25.463,61.284z"/>
	</g>
	<g>
		<path fill="#7A7877" d="M3.125,54.423h84.81c2.045,0,9.317,0.058,9.317,0.13c0,0.071-7.272,0.13-9.317,0.13H3.125V54.423z"/>
		<path fill="#7A7877" d="M36.474,54.484c0.017,0,0.032-0.004,0.049-0.004v9.26c0,0.256-0.079,0.461-0.173,0.461
			s-0.172-0.205-0.172-0.461v-9.256H36.474z"/>
		<path fill="#7A7877" d="M48.559,54.484c0.016,0,0.031-0.004,0.048-0.004v9.26c0,0.256-0.077,0.461-0.173,0.461
			c-0.095,0-0.173-0.205-0.173-0.461v-9.256H48.559z"/>
		<path fill="#7A7877" d="M64.514,54.484c0.018,0,0.033-0.004,0.048-0.004v9.26c0,0.256-0.077,0.461-0.172,0.461
			s-0.172-0.205-0.172-0.461v-9.256H64.514z"/>
		<path fill="#7A7877" d="M86.621,54.484c0.018,0,0.032-0.004,0.048-0.004v9.26c0,0.256-0.076,0.461-0.172,0.461
			c-0.095,0-0.173-0.205-0.173-0.461v-9.256H86.621z"/>
	</g>
</g>
</svg>
