<?xml version="1.0" encoding="utf-8"?>
<!-- Generator: Adobe Illustrator 16.0.0, SVG Export Plug-In . SVG Version: 6.00 Build 0)  -->
<!DOCTYPE svg PUBLIC "-//W3C//DTD SVG 1.1//EN" "http://www.w3.org/Graphics/SVG/1.1/DTD/svg11.dtd">
<svg version="1.1" id="Capa_1" xmlns="http://www.w3.org/2000/svg" xmlns:xlink="http://www.w3.org/1999/xlink" x="0px" y="0px"
	 width="100px" height="100px" viewBox="0 0 100 100" enable-background="new 0 0 100 100" xml:space="preserve">
<g>
	
		<linearGradient id="SVGID_1_" gradientUnits="userSpaceOnUse" x1="64.7412" y1="60.165" x2="64.7412" y2="41.1245" gradientTransform="matrix(-1 0 0 1 132 0)">
		<stop  offset="0" style="stop-color:#3F3F3F"/>
		<stop  offset="0.0222" style="stop-color:#5C5C5C"/>
		<stop  offset="0.0537" style="stop-color:#7F7F7F"/>
		<stop  offset="0.0707" style="stop-color:#8C8C8C"/>
		<stop  offset="0.0953" style="stop-color:#7B7B7B"/>
		<stop  offset="0.15" style="stop-color:#5C5C5C"/>
		<stop  offset="0.212" style="stop-color:#404040"/>
		<stop  offset="0.2819" style="stop-color:#2A2A2A"/>
		<stop  offset="0.3636" style="stop-color:#191919"/>
		<stop  offset="0.4647" style="stop-color:#0E0E0E"/>
		<stop  offset="0.6065" style="stop-color:#070707"/>
		<stop  offset="1" style="stop-color:#050505"/>
	</linearGradient>
	<path fill="url(#SVGID_1_)" d="M39.372,58.821c0,0.742,0.529,1.343,1.18,1.343h53.415c0.651,0,1.18-0.601,1.18-1.343V42.464
		c0-0.739-0.528-1.339-1.18-1.339L60.399,46.35H40.551c-0.651,0-1.18,0.601-1.18,1.342V58.821z"/>
	<linearGradient id="SVGID_2_" gradientUnits="userSpaceOnUse" x1="2.4902" y1="42.5518" x2="69.0752" y2="42.5518">
		<stop  offset="0.0152" style="stop-color:#4D4D4D"/>
		<stop  offset="0.5178" style="stop-color:#858585"/>
		<stop  offset="0.6406" style="stop-color:#7D7D7D"/>
		<stop  offset="0.8358" style="stop-color:#656565"/>
		<stop  offset="1" style="stop-color:#4D4D4D"/>
	</linearGradient>
	<path fill="url(#SVGID_2_)" d="M2.49,46.506v17.962h8.698c0-0.255,0.043-0.506,0.056-0.747c0.088-1.485,0.502-2.885,1.156-4.13
		c1.803-3.491,5.447-5.89,9.679-5.89c6.003,0,10.881,4.822,10.881,10.767c0,0,6.229,0.009,16.189,0c9.031,0,17.729,0,17.729,0
		c0-2.438,0.809-4.65,2.197-6.455H46.044c0.464-1.794,0.954-3.438,1.375-4.757c2.288,1.416-5.589-5.41-3.305-2.823
		c-0.572,1.711-1.428,4.453-2.197,7.58h-5.285V20.631H18.446v4.312l-5.789,17.25L2.49,46.506z"/>
	<linearGradient id="SVGID_3_" gradientUnits="userSpaceOnUse" x1="19.2358" y1="33.7349" x2="29.2813" y2="33.7349">
		<stop  offset="0" style="stop-color:#FFFFFF"/>
		<stop  offset="0.0865" style="stop-color:#FBFBFC"/>
		<stop  offset="0.6312" style="stop-color:#E7E7EA"/>
		<stop  offset="1" style="stop-color:#E0E0E3"/>
	</linearGradient>
	<polygon fill="url(#SVGID_3_)" points="19.236,38.215 22.24,29.255 29.281,29.255 29.281,38.215 	"/>
	<g>
		
			<linearGradient id="SVGID_4_" gradientUnits="userSpaceOnUse" x1="92.5879" y1="67.2236" x2="125.8496" y2="67.2236" gradientTransform="matrix(-1 0 0 1 132 0)">
			<stop  offset="0.0054" style="stop-color:#8C8C8C"/>
			<stop  offset="0.0809" style="stop-color:#707070"/>
			<stop  offset="0.1893" style="stop-color:#4F4F4F"/>
			<stop  offset="0.3064" style="stop-color:#343434"/>
			<stop  offset="0.4331" style="stop-color:#1F1F1F"/>
			<stop  offset="0.5743" style="stop-color:#101010"/>
			<stop  offset="0.7414" style="stop-color:#080808"/>
			<stop  offset="1" style="stop-color:#050505"/>
		</linearGradient>
		<path fill="url(#SVGID_4_)" d="M6.836,63.285h0.065l0.562,0.257c0.282-1.178,0.696-2.304,1.225-3.36l-0.193-0.272
			c-0.27-0.209-0.342-0.608-0.153-0.937l1.634-2.831c0.204-0.354,0.638-0.489,0.965-0.301l0.057,0.032l0.361,0.504
			c0.822-0.864,1.74-1.638,2.739-2.3l-0.033-0.332c-0.128-0.315,0.009-0.698,0.336-0.888l2.83-1.635
			c0.355-0.205,0.798-0.104,0.987,0.223l0.033,0.057l0.059,0.613c1.128-0.333,2.306-0.543,3.522-0.616l0.14-0.306
			c0.045-0.338,0.355-0.6,0.735-0.6h3.268c0.41,0,0.744,0.306,0.744,0.685v0.063l-0.256,0.563c1.177,0.281,2.303,0.695,3.361,1.225
			l0.271-0.193c0.208-0.271,0.609-0.344,0.936-0.153l2.831,1.635c0.18,0.103,0.313,0.273,0.364,0.466
			c0.047,0.172,0.024,0.35-0.062,0.5l-0.032,0.056l-0.506,0.36c0.867,0.822,1.639,1.74,2.301,2.739l0.329-0.031
			c0.132-0.056,0.28-0.067,0.424-0.029c0.192,0.052,0.362,0.185,0.465,0.365l1.635,2.831c0.205,0.354,0.106,0.798-0.223,0.986
			l-0.056,0.033l-0.612,0.058c0.333,1.128,0.543,2.306,0.615,3.523l0.306,0.138c0.338,0.049,0.6,0.356,0.6,0.736v3.268
			c0,0.208-0.08,0.408-0.22,0.546c-0.127,0.13-0.292,0.2-0.465,0.2h-0.064l-0.56-0.256c-0.283,1.177-0.696,2.304-1.227,3.36
			c0.134,0.187,0.214,0.299,0.215,0.299c0.098,0.086,0.179,0.19,0.215,0.324c0.016,0.062,0.024,0.123,0.024,0.189
			c0,0.135-0.038,0.273-0.107,0.396l-1.634,2.831c-0.104,0.177-0.273,0.311-0.466,0.361c-0.173,0.048-0.351,0.024-0.5-0.063
			l-0.057-0.031l-0.36-0.506c-0.822,0.865-1.74,1.639-2.739,2.302l0.033,0.328c0.054,0.134,0.066,0.281,0.028,0.425
			c-0.052,0.193-0.185,0.363-0.365,0.467l-2.83,1.634c-0.181,0.103-0.394,0.133-0.586,0.082c-0.173-0.047-0.316-0.154-0.403-0.305
			l-0.033-0.056l-0.058-0.611c-1.127,0.331-2.307,0.542-3.522,0.615l-0.14,0.305c-0.045,0.338-0.355,0.601-0.735,0.601h-3.269
			c-0.409,0-0.744-0.308-0.744-0.686v-0.065l0.256-0.561c-1.178-0.282-2.303-0.696-3.361-1.227c-0.187,0.135-0.299,0.213-0.3,0.215
			c-0.084,0.098-0.191,0.179-0.324,0.216c-0.192,0.052-0.405,0.021-0.585-0.084l-2.83-1.632c-0.18-0.105-0.312-0.273-0.365-0.467
			c-0.045-0.172-0.023-0.352,0.063-0.501l0.033-0.055l0.506-0.361c-0.867-0.824-1.639-1.739-2.301-2.739l-0.33,0.033
			c-0.133,0.054-0.281,0.065-0.426,0.025c-0.191-0.052-0.361-0.185-0.465-0.365l-1.633-2.827C6.679,72.594,6.648,72.38,6.7,72.189
			c0.046-0.174,0.154-0.316,0.304-0.404l0.057-0.031l0.612-0.06c-0.333-1.128-0.544-2.307-0.617-3.522l-0.305-0.139
			c-0.338-0.047-0.601-0.356-0.601-0.735v-3.269C6.15,63.621,6.458,63.286,6.836,63.285z"/>
		
			<linearGradient id="SVGID_5_" gradientUnits="userSpaceOnUse" x1="109.2178" y1="73.8633" x2="109.2178" y2="57.6631" gradientTransform="matrix(-1 0 0 1 132 0)">
			<stop  offset="0" style="stop-color:#BFBFBF"/>
			<stop  offset="0.0606" style="stop-color:#A9A9A9"/>
			<stop  offset="0.1701" style="stop-color:#898989"/>
			<stop  offset="0.2885" style="stop-color:#6E6E6E"/>
			<stop  offset="0.4169" style="stop-color:#595959"/>
			<stop  offset="0.5605" style="stop-color:#4A4A4A"/>
			<stop  offset="0.7313" style="stop-color:#424242"/>
			<stop  offset="1" style="stop-color:#3F3F3F"/>
		</linearGradient>
		<circle fill="url(#SVGID_5_)" cx="22.782" cy="67.224" r="8.29"/>
		
			<linearGradient id="SVGID_6_" gradientUnits="userSpaceOnUse" x1="101.9063" y1="67.2227" x2="116.5293" y2="67.2227" gradientTransform="matrix(-1 0 0 1 132 0)">
			<stop  offset="0" style="stop-color:#FFFFFF"/>
			<stop  offset="0.074" style="stop-color:#ECECEF"/>
			<stop  offset="0.1757" style="stop-color:#D8D8DF"/>
			<stop  offset="0.2446" style="stop-color:#D1D1D9"/>
			<stop  offset="0.5537" style="stop-color:#E1E1E6"/>
			<stop  offset="1" style="stop-color:#F5F5F5"/>
		</linearGradient>
		<circle fill="url(#SVGID_6_)" cx="22.782" cy="67.224" r="7.312"/>
	</g>
	<g>
		
			<linearGradient id="SVGID_7_" gradientUnits="userSpaceOnUse" x1="34.5098" y1="66.2783" x2="67.7715" y2="66.2783" gradientTransform="matrix(-1 0 0 1 132 0)">
			<stop  offset="0.0054" style="stop-color:#8C8C8C"/>
			<stop  offset="0.0809" style="stop-color:#707070"/>
			<stop  offset="0.1893" style="stop-color:#4F4F4F"/>
			<stop  offset="0.3064" style="stop-color:#343434"/>
			<stop  offset="0.4331" style="stop-color:#1F1F1F"/>
			<stop  offset="0.5743" style="stop-color:#101010"/>
			<stop  offset="0.7414" style="stop-color:#080808"/>
			<stop  offset="1" style="stop-color:#050505"/>
		</linearGradient>
		<path fill="url(#SVGID_7_)" d="M64.915,62.341h0.064l0.562,0.255c0.281-1.177,0.696-2.302,1.226-3.358l-0.193-0.274
			c-0.27-0.209-0.342-0.607-0.154-0.936l1.636-2.832c0.202-0.354,0.638-0.489,0.966-0.3l0.056,0.032l0.361,0.504
			c0.821-0.864,1.741-1.637,2.738-2.298L72.145,52.8c-0.129-0.314,0.009-0.698,0.336-0.889l2.83-1.634
			c0.355-0.204,0.797-0.104,0.987,0.223l0.033,0.055l0.06,0.614c1.127-0.333,2.306-0.543,3.521-0.616l0.141-0.305
			c0.045-0.339,0.354-0.601,0.733-0.601h3.267c0.412,0,0.745,0.307,0.745,0.687v0.063l-0.256,0.563
			c1.178,0.283,2.303,0.695,3.362,1.226l0.271-0.194c0.208-0.271,0.608-0.344,0.937-0.153l2.831,1.634
			c0.178,0.103,0.313,0.274,0.363,0.466c0.047,0.174,0.023,0.351-0.062,0.501l-0.034,0.057l-0.504,0.36
			c0.866,0.822,1.638,1.738,2.299,2.739l0.33-0.032c0.132-0.056,0.281-0.068,0.426-0.028c0.192,0.051,0.362,0.183,0.465,0.365
			l1.634,2.829c0.206,0.354,0.106,0.798-0.222,0.988l-0.056,0.032l-0.612,0.059c0.333,1.128,0.543,2.307,0.615,3.522l0.306,0.139
			c0.337,0.047,0.6,0.355,0.6,0.734v3.269c0,0.207-0.079,0.407-0.22,0.547c-0.128,0.13-0.292,0.198-0.466,0.198h-0.063l-0.561-0.257
			c-0.282,1.177-0.696,2.304-1.226,3.362c0.134,0.186,0.212,0.298,0.213,0.299c0.1,0.087,0.18,0.19,0.217,0.323
			c0.015,0.062,0.023,0.125,0.023,0.19c0,0.135-0.037,0.272-0.107,0.396l-1.633,2.829c-0.105,0.18-0.275,0.313-0.468,0.362
			c-0.174,0.048-0.352,0.025-0.499-0.062l-0.057-0.031l-0.36-0.505c-0.821,0.865-1.74,1.639-2.74,2.301l0.033,0.328
			c0.053,0.133,0.066,0.281,0.026,0.426c-0.052,0.192-0.184,0.36-0.364,0.466l-2.828,1.633c-0.181,0.104-0.393,0.135-0.585,0.083
			c-0.173-0.048-0.317-0.155-0.404-0.306L85.39,82l-0.059-0.613c-1.127,0.332-2.306,0.545-3.522,0.617l-0.139,0.305
			c-0.047,0.338-0.355,0.601-0.735,0.601h-3.268c-0.409,0-0.745-0.308-0.745-0.687v-0.063l0.257-0.563
			c-1.178-0.282-2.304-0.694-3.361-1.226c-0.187,0.134-0.299,0.213-0.3,0.215c-0.085,0.099-0.191,0.179-0.324,0.214
			c-0.191,0.053-0.405,0.023-0.584-0.083l-2.83-1.631c-0.181-0.105-0.313-0.274-0.365-0.467c-0.045-0.172-0.023-0.352,0.064-0.5
			l0.03-0.057l0.506-0.36c-0.865-0.823-1.64-1.74-2.3-2.739l-0.33,0.031c-0.133,0.056-0.279,0.067-0.426,0.028
			c-0.191-0.053-0.361-0.185-0.465-0.365l-1.633-2.83c-0.104-0.178-0.136-0.393-0.084-0.583c0.048-0.174,0.156-0.318,0.306-0.404
			l0.056-0.03l0.613-0.061c-0.333-1.127-0.545-2.307-0.617-3.521l-0.306-0.14c-0.337-0.047-0.601-0.357-0.601-0.736v-3.267
			C64.229,62.675,64.538,62.342,64.915,62.341z"/>
		
			<linearGradient id="SVGID_8_" gradientUnits="userSpaceOnUse" x1="51.1387" y1="72.916" x2="51.1387" y2="56.7187" gradientTransform="matrix(-1 0 0 1 132 0)">
			<stop  offset="0" style="stop-color:#BFBFBF"/>
			<stop  offset="0.0606" style="stop-color:#A9A9A9"/>
			<stop  offset="0.1701" style="stop-color:#898989"/>
			<stop  offset="0.2885" style="stop-color:#6E6E6E"/>
			<stop  offset="0.4169" style="stop-color:#595959"/>
			<stop  offset="0.5605" style="stop-color:#4A4A4A"/>
			<stop  offset="0.7313" style="stop-color:#424242"/>
			<stop  offset="1" style="stop-color:#3F3F3F"/>
		</linearGradient>
		<circle fill="url(#SVGID_8_)" cx="80.861" cy="66.278" r="8.291"/>
		
			<linearGradient id="SVGID_9_" gradientUnits="userSpaceOnUse" x1="43.8291" y1="66.2783" x2="58.4512" y2="66.2783" gradientTransform="matrix(-1 0 0 1 132 0)">
			<stop  offset="0" style="stop-color:#FFFFFF"/>
			<stop  offset="0.074" style="stop-color:#ECECEF"/>
			<stop  offset="0.1757" style="stop-color:#D8D8DF"/>
			<stop  offset="0.2446" style="stop-color:#D1D1D9"/>
			<stop  offset="0.5537" style="stop-color:#E1E1E6"/>
			<stop  offset="1" style="stop-color:#F5F5F5"/>
		</linearGradient>
		<circle fill="url(#SVGID_9_)" cx="80.86" cy="66.278" r="7.311"/>
	</g>
	<g>
		
			<radialGradient id="SVGID_10_" cx="76.5527" cy="122.4297" r="34.4155" gradientTransform="matrix(-0.9039 0 0 1.5169 123.5518 -149.8428)" gradientUnits="userSpaceOnUse">
			<stop  offset="0" style="stop-color:#FFBF00"/>
			<stop  offset="0.4299" style="stop-color:#FFBD00"/>
			<stop  offset="0.6621" style="stop-color:#FFB500"/>
			<stop  offset="0.8469" style="stop-color:#FFA700"/>
			<stop  offset="0.8587" style="stop-color:#FFA600"/>
			<stop  offset="0.9837" style="stop-color:#FFA100"/>
		</radialGradient>
		<path fill="url(#SVGID_10_)" d="M12.848,15.827l26.42-2.298c0.031-0.013,0.062-0.02,0.093-0.02h1.873
			c0.234-0.002,0.422,0.286,0.424,0.642l0.003,2.381c0,0.053-0.003,0.102-0.01,0.15l4.973,10.603l48.311,6.407
			c0.746,0,1.35,1.015,1.35,2.267v8.686c0,1.249-0.604,2.263-1.35,2.263L40.205,58.232c-0.746,0-1.351-1.014-1.351-2.264
			l-0.246-37.06l-25.751,0.512c-0.233,0.004-0.421-0.285-0.423-0.642l-0.005-2.298C12.427,16.122,12.614,15.831,12.848,15.827z"/>
		<path fill="#FF7F00" d="M96.283,40.8L38.832,52.69l0.022,3.278c0,1.25,0.605,2.264,1.351,2.264l54.729-11.325
			c0.746,0,1.35-1.014,1.35-2.263V40.8z"/>
		<path fill="#FF7F00" d="M83.27,35.446l-4.95-0.657l3.319,14.87l4.592-0.95L83.27,35.446z M55.384,31.747l-4.95-0.654l5.341,23.917
			l4.592-0.948L55.384,31.747z M69.325,33.597l-4.948-0.655l4.329,19.394l4.59-0.95L69.325,33.597z M39.475,21.101v21.515
			l3.571,15.031l4.593-0.951L39.475,21.101z M95.668,37.092l-3.367-0.447l2.307,10.329l0.326-0.066c0.746,0,1.35-1.014,1.35-2.263
			v-7.292C96.099,37.19,95.893,37.092,95.668,37.092z"/>
	</g>
</g>
</svg>
