<?xml version="1.0" encoding="utf-8"?>
<!-- Generator: Adobe Illustrator 16.0.0, SVG Export Plug-In . SVG Version: 6.00 Build 0)  -->
<!DOCTYPE svg PUBLIC "-//W3C//DTD SVG 1.1//EN" "http://www.w3.org/Graphics/SVG/1.1/DTD/svg11.dtd">
<svg version="1.1" id="Capa_1" xmlns="http://www.w3.org/2000/svg" xmlns:xlink="http://www.w3.org/1999/xlink" x="0px" y="0px"
	 width="100px" height="100px" viewBox="0 0 100 100" enable-background="new 0 0 100 100" xml:space="preserve">
<g>
	<path fill="#E06600" d="M94.082,57.99H33.388V32.602h-0.063l0.063-0.276v-0.436h0.099l0.646-2.859l-8.22-2.351l-0.036-0.885
		l10.083,1.062l0.739,0.078l0.282,1.246l0.838,3.708h51.14l8.382,26.1v2.832c0.427,0.581,0.689,1.293,0.689,2.078v0.308
		c0,1.583-1.034,2.918-2.446,3.335c-1.147-3.052-4.034-5.225-7.41-5.225c-3.427,0-6.35,2.237-7.46,5.362h-0.73
		c-1.11-3.125-4.034-5.362-7.461-5.362s-6.353,2.237-7.462,5.362H32.339v-7.25h61.743V57.99z"/>
	<radialGradient id="SVGID_1_" cx="44.1201" cy="47.1504" r="6.2061" gradientUnits="userSpaceOnUse">
		<stop  offset="0" style="stop-color:#FFBF00"/>
		<stop  offset="0.4299" style="stop-color:#FFBD00"/>
		<stop  offset="0.6621" style="stop-color:#FFB500"/>
		<stop  offset="0.8469" style="stop-color:#FFA700"/>
		<stop  offset="0.8587" style="stop-color:#FFA600"/>
		<stop  offset="0.9837" style="stop-color:#FFA100"/>
	</radialGradient>
	<polygon fill="url(#SVGID_1_)" points="41.67,38.722 41.67,55.578 46.57,55.578 	"/>
	<radialGradient id="SVGID_2_" cx="55.6719" cy="44.9092" r="8.5178" gradientUnits="userSpaceOnUse">
		<stop  offset="0" style="stop-color:#FFBF00"/>
		<stop  offset="0.4299" style="stop-color:#FFBD00"/>
		<stop  offset="0.6621" style="stop-color:#FFB500"/>
		<stop  offset="0.8469" style="stop-color:#FFA700"/>
		<stop  offset="0.8587" style="stop-color:#FFA600"/>
		<stop  offset="0.9837" style="stop-color:#FFA100"/>
	</radialGradient>
	<polygon fill="url(#SVGID_2_)" points="55.063,34.24 50.078,34.24 56.281,55.578 61.265,55.578 	"/>
	<radialGradient id="SVGID_3_" cx="69.3359" cy="44.9092" r="8.5181" gradientUnits="userSpaceOnUse">
		<stop  offset="0" style="stop-color:#FFBF00"/>
		<stop  offset="0.4299" style="stop-color:#FFBD00"/>
		<stop  offset="0.6621" style="stop-color:#FFB500"/>
		<stop  offset="0.8469" style="stop-color:#FFA700"/>
		<stop  offset="0.8587" style="stop-color:#FFA600"/>
		<stop  offset="0.9837" style="stop-color:#FFA100"/>
	</radialGradient>
	<polygon fill="url(#SVGID_3_)" points="68.728,34.24 63.743,34.24 69.945,55.578 74.93,55.578 	"/>
	<radialGradient id="SVGID_4_" cx="82.8711" cy="44.9092" r="8.5181" gradientUnits="userSpaceOnUse">
		<stop  offset="0" style="stop-color:#FFBF00"/>
		<stop  offset="0.4299" style="stop-color:#FFBD00"/>
		<stop  offset="0.6621" style="stop-color:#FFB500"/>
		<stop  offset="0.8469" style="stop-color:#FFA700"/>
		<stop  offset="0.8587" style="stop-color:#FFA600"/>
		<stop  offset="0.9837" style="stop-color:#FFA100"/>
	</radialGradient>
	<polygon fill="url(#SVGID_4_)" points="82.263,34.24 77.278,34.24 83.481,55.578 88.465,55.578 	"/>
	<path d="M88.438,62.592c3.256,0,5.906,2.716,5.906,6.056c0,3.339-2.65,6.057-5.906,6.057c-3.258,0-5.907-2.718-5.907-6.057
		C82.529,65.308,85.18,62.592,88.438,62.592z"/>
	<linearGradient id="SVGID_5_" gradientUnits="userSpaceOnUse" x1="84.3359" y1="68.6465" x2="92.5381" y2="68.6465">
		<stop  offset="0" style="stop-color:#FFFFFF"/>
		<stop  offset="0.074" style="stop-color:#ECECEF"/>
		<stop  offset="0.1757" style="stop-color:#D8D8DF"/>
		<stop  offset="0.2446" style="stop-color:#D1D1D9"/>
		<stop  offset="0.5537" style="stop-color:#E1E1E6"/>
		<stop  offset="1" style="stop-color:#F5F5F5"/>
	</linearGradient>
	<path fill="url(#SVGID_5_)" d="M88.438,72.851c2.262,0,4.101-1.884,4.101-4.203c0-2.317-1.839-4.204-4.101-4.204
		c-2.263,0-4.102,1.886-4.102,4.204S86.175,72.851,88.438,72.851z"/>
	<path d="M72.786,62.592c3.257,0,5.906,2.716,5.906,6.056c0,3.339-2.648,6.057-5.906,6.057s-5.907-2.718-5.907-6.057
		C66.879,65.308,69.528,62.592,72.786,62.592z"/>
	<linearGradient id="SVGID_6_" gradientUnits="userSpaceOnUse" x1="68.6846" y1="68.6465" x2="76.8877" y2="68.6465">
		<stop  offset="0" style="stop-color:#FFFFFF"/>
		<stop  offset="0.074" style="stop-color:#ECECEF"/>
		<stop  offset="0.1757" style="stop-color:#D8D8DF"/>
		<stop  offset="0.2446" style="stop-color:#D1D1D9"/>
		<stop  offset="0.5537" style="stop-color:#E1E1E6"/>
		<stop  offset="1" style="stop-color:#F5F5F5"/>
	</linearGradient>
	<path fill="url(#SVGID_6_)" d="M72.786,72.851c2.26,0,4.102-1.884,4.102-4.203c0-2.317-1.841-4.204-4.102-4.204
		c-2.262,0-4.102,1.886-4.102,4.204S70.524,72.851,72.786,72.851z"/>
	<path d="M17.553,62.592c3.258,0,5.907,2.716,5.907,6.056c0,3.339-2.649,6.057-5.907,6.057c-3.257,0-5.907-2.718-5.907-6.057
		C11.646,65.308,14.296,62.592,17.553,62.592z"/>
	<linearGradient id="SVGID_7_" gradientUnits="userSpaceOnUse" x1="13.4512" y1="68.6465" x2="21.6528" y2="68.6465">
		<stop  offset="0" style="stop-color:#FFFFFF"/>
		<stop  offset="0.074" style="stop-color:#ECECEF"/>
		<stop  offset="0.1757" style="stop-color:#D8D8DF"/>
		<stop  offset="0.2446" style="stop-color:#D1D1D9"/>
		<stop  offset="0.5537" style="stop-color:#E1E1E6"/>
		<stop  offset="1" style="stop-color:#F5F5F5"/>
	</linearGradient>
	<path fill="url(#SVGID_7_)" d="M17.553,72.851c2.262,0,4.1-1.884,4.1-4.203c0-2.317-1.838-4.204-4.1-4.204
		c-2.261,0-4.102,1.886-4.102,4.204S15.292,72.851,17.553,72.851z"/>
	<radialGradient id="SVGID_8_" cx="16.3311" cy="48.5674" r="15.5616" gradientUnits="userSpaceOnUse">
		<stop  offset="0" style="stop-color:#FFBF00"/>
		<stop  offset="0.4299" style="stop-color:#FFBD00"/>
		<stop  offset="0.6621" style="stop-color:#FFB500"/>
		<stop  offset="0.8469" style="stop-color:#FFA700"/>
		<stop  offset="0.8587" style="stop-color:#FFA600"/>
		<stop  offset="0.9837" style="stop-color:#FFA100"/>
	</radialGradient>
	<path fill="url(#SVGID_8_)" d="M3.03,52.66v-3.796L6.726,32.19c0-1.157,1.634-1.157,2.256-1.157h19.52
		c0.623,0,1.13,0.123,1.13,1.157v30.367c0,3.025-0.507,3.543-1.13,3.543h-3.981c-1.25-2.817-4.02-4.782-7.231-4.782
		c-3.211,0-5.98,1.965-7.229,4.782H4.159c-0.623,0-1.129-0.518-1.129-1.156v-5.838h1.061V52.66H3.03z"/>
	<rect x="20.935" y="47.954" width="4.268" height="0.888"/>
	<linearGradient id="SVGID_9_" gradientUnits="userSpaceOnUse" x1="7.8945" y1="40.3267" x2="26.0557" y2="40.3267">
		<stop  offset="0" style="stop-color:#FFFFFF"/>
		<stop  offset="0.0865" style="stop-color:#FBFBFC"/>
		<stop  offset="0.6312" style="stop-color:#E7E7EA"/>
		<stop  offset="1" style="stop-color:#E0E0E3"/>
	</linearGradient>
	<polygon fill="url(#SVGID_9_)" points="26.056,46.534 26.056,34.12 9.758,34.12 7.895,46.534 	"/>
	<path d="M7.119,63.402h3.027c0.854-1.67,2.716-2.865,2.716-2.865H7.119V63.402z"/>
</g>
</svg>
