<?xml version="1.0" encoding="utf-8"?>
<!-- Generator: Adobe Illustrator 16.0.0, SVG Export Plug-In . SVG Version: 6.00 Build 0)  -->
<!DOCTYPE svg PUBLIC "-//W3C//DTD SVG 1.1//EN" "http://www.w3.org/Graphics/SVG/1.1/DTD/svg11.dtd">
<svg version="1.1" id="Capa_1" xmlns="http://www.w3.org/2000/svg" xmlns:xlink="http://www.w3.org/1999/xlink" x="0px" y="0px"
	 width="100px" height="100px" viewBox="0 0 100 100" enable-background="new 0 0 100 100" xml:space="preserve">
<linearGradient id="SVGID_1_" gradientUnits="userSpaceOnUse" x1="50.5957" y1="18.5161" x2="48.3151" y2="76.2925">
	<stop  offset="0.0909" style="stop-color:#B00B0B"/>
	<stop  offset="0.4569" style="stop-color:#EA0F0F"/>
	<stop  offset="0.7309" style="stop-color:#B00B0B"/>
</linearGradient>
<path fill="url(#SVGID_1_)" d="M90.541,46.379l-0.072-12.747c0-6.248-6.426-10.461-12.19-10.461H41.369l-5.596,16.272
	c0,0-20.487,0.076-25.362,0.076c-4.878,0-4.781,2.758-4.781,2.758v12.273c0,0.043,0.005,0.098,0.005,0.144H1.557v10.317h11.775
	c-0.142-0.732-0.222-1.48-0.222-2.251c0-6.681,5.419-12.098,12.094-12.098c6.683,0,12.105,5.417,12.105,12.098
	c0,0.771-0.084,1.519-0.218,2.251h28.106c-0.131-0.732-0.211-1.484-0.211-2.251c0-6.681,5.421-12.098,12.098-12.098
	c6.683,0,12.094,5.417,12.094,12.098c0,0.789-0.079,1.565-0.218,2.312l7.197,0.091C98.391,48.31,90.541,46.379,90.541,46.379z"/>
<linearGradient id="SVGID_2_" gradientUnits="userSpaceOnUse" x1="49.417" y1="25.2036" x2="48.7262" y2="42.7034">
	<stop  offset="0.0054" style="stop-color:#8C8C8C"/>
	<stop  offset="0.0809" style="stop-color:#707070"/>
	<stop  offset="0.1893" style="stop-color:#4F4F4F"/>
	<stop  offset="0.3064" style="stop-color:#343434"/>
	<stop  offset="0.4331" style="stop-color:#1F1F1F"/>
	<stop  offset="0.5743" style="stop-color:#101010"/>
	<stop  offset="0.7414" style="stop-color:#080808"/>
	<stop  offset="1" style="stop-color:#050505"/>
</linearGradient>
<polygon fill="url(#SVGID_2_)" points="55.387,39.592 42.312,39.592 45.8,26.515 55.387,26.515 "/>
<linearGradient id="SVGID_3_" gradientUnits="userSpaceOnUse" x1="67.4766" y1="25.0801" x2="66.763" y2="43.158">
	<stop  offset="0.0054" style="stop-color:#8C8C8C"/>
	<stop  offset="0.0809" style="stop-color:#707070"/>
	<stop  offset="0.1893" style="stop-color:#4F4F4F"/>
	<stop  offset="0.3064" style="stop-color:#343434"/>
	<stop  offset="0.4331" style="stop-color:#1F1F1F"/>
	<stop  offset="0.5743" style="stop-color:#101010"/>
	<stop  offset="0.7414" style="stop-color:#080808"/>
	<stop  offset="1" style="stop-color:#050505"/>
</linearGradient>
<rect x="58.588" y="26.517" fill="url(#SVGID_3_)" width="17.138" height="13.366"/>
<linearGradient id="SVGID_4_" gradientUnits="userSpaceOnUse" x1="15.9341" y1="63.3623" x2="35.022" y2="63.3623">
	<stop  offset="0.0054" style="stop-color:#8C8C8C"/>
	<stop  offset="0.0809" style="stop-color:#707070"/>
	<stop  offset="0.1893" style="stop-color:#4F4F4F"/>
	<stop  offset="0.3064" style="stop-color:#343434"/>
	<stop  offset="0.4331" style="stop-color:#1F1F1F"/>
	<stop  offset="0.5743" style="stop-color:#101010"/>
	<stop  offset="0.7414" style="stop-color:#080808"/>
	<stop  offset="1" style="stop-color:#050505"/>
</linearGradient>
<path fill="url(#SVGID_4_)" d="M25.477,53.817c-5.271,0-9.542,4.274-9.542,9.547s4.272,9.543,9.542,9.543
	c5.273,0,9.545-4.271,9.545-9.543C35.024,58.092,30.75,53.817,25.477,53.817z"/>
<linearGradient id="SVGID_5_" gradientUnits="userSpaceOnUse" x1="25.6787" y1="58.3662" x2="25.2396" y2="69.4913">
	<stop  offset="0" style="stop-color:#FFFFFF"/>
	<stop  offset="0.074" style="stop-color:#ECECEF"/>
	<stop  offset="0.1757" style="stop-color:#D8D8DF"/>
	<stop  offset="0.2446" style="stop-color:#D1D1D9"/>
	<stop  offset="0.5537" style="stop-color:#E1E1E6"/>
	<stop  offset="1" style="stop-color:#F5F5F5"/>
</linearGradient>
<path fill="url(#SVGID_5_)" d="M25.477,67.681c-2.383,0-4.31-1.933-4.31-4.316c0-2.382,1.923-4.318,4.31-4.318
	c2.379,0,4.318,1.937,4.318,4.318C29.793,65.748,27.853,67.681,25.477,67.681z"/>
<linearGradient id="SVGID_6_" gradientUnits="userSpaceOnUse" x1="67.3633" y1="63.3623" x2="86.4531" y2="63.3623">
	<stop  offset="0.0054" style="stop-color:#8C8C8C"/>
	<stop  offset="0.0809" style="stop-color:#707070"/>
	<stop  offset="0.1893" style="stop-color:#4F4F4F"/>
	<stop  offset="0.3064" style="stop-color:#343434"/>
	<stop  offset="0.4331" style="stop-color:#1F1F1F"/>
	<stop  offset="0.5743" style="stop-color:#101010"/>
	<stop  offset="0.7414" style="stop-color:#080808"/>
	<stop  offset="1" style="stop-color:#050505"/>
</linearGradient>
<path fill="url(#SVGID_6_)" d="M76.91,53.817c-5.273,0-9.547,4.274-9.547,9.547s4.273,9.543,9.547,9.543
	c5.269,0,9.543-4.271,9.543-9.543S82.179,53.817,76.91,53.817z"/>
<linearGradient id="SVGID_7_" gradientUnits="userSpaceOnUse" x1="77.1055" y1="58.3662" x2="76.6663" y2="69.4913">
	<stop  offset="0" style="stop-color:#FFFFFF"/>
	<stop  offset="0.074" style="stop-color:#ECECEF"/>
	<stop  offset="0.1757" style="stop-color:#D8D8DF"/>
	<stop  offset="0.2446" style="stop-color:#D1D1D9"/>
	<stop  offset="0.5537" style="stop-color:#E1E1E6"/>
	<stop  offset="1" style="stop-color:#F5F5F5"/>
</linearGradient>
<path fill="url(#SVGID_7_)" d="M76.91,67.681c-2.376,0-4.316-1.933-4.316-4.316c0-2.382,1.934-4.318,4.316-4.318
	c2.38,0,4.312,1.937,4.312,4.318C81.222,65.748,79.29,67.681,76.91,67.681z"/>
<radialGradient id="SVGID_8_" cx="7.7515" cy="45.2334" r="2.1678" gradientUnits="userSpaceOnUse">
	<stop  offset="0" style="stop-color:#FFBF00"/>
	<stop  offset="0.4299" style="stop-color:#FFBD00"/>
	<stop  offset="0.6621" style="stop-color:#FFB500"/>
	<stop  offset="0.8469" style="stop-color:#FFA700"/>
	<stop  offset="0.8587" style="stop-color:#FFA600"/>
	<stop  offset="0.9837" style="stop-color:#FFA100"/>
</radialGradient>
<rect x="5.96" y="42.746" fill="url(#SVGID_8_)" width="3.583" height="4.976"/>
<linearGradient id="SVGID_9_" gradientUnits="userSpaceOnUse" x1="94.417" y1="60.8154" x2="96.5566" y2="60.8154">
	<stop  offset="0.3096" style="stop-color:#3F3F3F"/>
	<stop  offset="0.8274" style="stop-color:#3F3F3F"/>
</linearGradient>
<rect x="94.417" y="58.327" fill="url(#SVGID_9_)" width="2.14" height="4.977"/>
</svg>
