<?xml version="1.0" encoding="utf-8"?>
<!-- Generator: Adobe Illustrator 16.0.0, SVG Export Plug-In . SVG Version: 6.00 Build 0)  -->
<!DOCTYPE svg PUBLIC "-//W3C//DTD SVG 1.1//EN" "http://www.w3.org/Graphics/SVG/1.1/DTD/svg11.dtd">
<svg version="1.1" id="Capa_1" xmlns="http://www.w3.org/2000/svg" xmlns:xlink="http://www.w3.org/1999/xlink" x="0px" y="0px"
	 width="100px" height="100px" viewBox="0 0 100 100" enable-background="new 0 0 100 100" xml:space="preserve">
<g>
	<g>
		<linearGradient id="SVGID_1_" gradientUnits="userSpaceOnUse" x1="3.521" y1="47.7275" x2="98.5205" y2="47.7275">
			<stop  offset="0.0863" style="stop-color:#3A3A3B"/>
			<stop  offset="0.3299" style="stop-color:#757576"/>
			<stop  offset="0.8477" style="stop-color:#757576"/>
			<stop  offset="0.9645" style="stop-color:#3A3A3B"/>
		</linearGradient>
		<path fill="url(#SVGID_1_)" d="M3.521,50.323c0,0,3.408-7.749,25.386-7.439c0,0,21.896-22.593,66.197,2.83
			c0,0-0.971,4.95,2.681,4.95c0.754,3.721,1.525,8.604-0.961,11.159c-5.427,0-5.949,0-5.99,0c0.129-0.599,0.208-1.217,0.208-1.853
			c0-4.628-3.647-8.375-8.15-8.375c-4.501,0-8.152,3.747-8.152,8.375c0,0.636,0.073,1.254,0.212,1.853h-1.271H34.126h-5.297
			c0.125-0.599,0.204-1.217,0.204-1.853c0-4.628-3.651-8.375-8.149-8.375c-6.139,0-9.637,6.408-9.018,10.175l-8.344-0.889
			C4.792,53.168,3.521,50.323,3.521,50.323z M65.688,44.161H85.13c0,0-8.062-3.882-19.442-6.134V44.161z M61.473,44.161v-6.851
			c-16.29-2.422-29.075,6.851-29.075,6.851H61.473z"/>
		<linearGradient id="SVGID_2_" gradientUnits="userSpaceOnUse" x1="13.7188" y1="59.9043" x2="27.1787" y2="59.9043">
			<stop  offset="0.0054" style="stop-color:#8C8C8C"/>
			<stop  offset="0.062" style="stop-color:#707070"/>
			<stop  offset="0.1433" style="stop-color:#4F4F4F"/>
			<stop  offset="0.2311" style="stop-color:#343434"/>
			<stop  offset="0.3262" style="stop-color:#1F1F1F"/>
			<stop  offset="0.4321" style="stop-color:#101010"/>
			<stop  offset="0.5573" style="stop-color:#080808"/>
			<stop  offset="0.7513" style="stop-color:#050505"/>
		</linearGradient>
		<path fill="url(#SVGID_2_)" d="M20.883,53.438c3.476,0,6.295,2.894,6.295,6.47c0,3.563-2.82,6.461-6.295,6.461
			c-3.472,0-7.165-2.897-7.165-6.461C13.719,56.326,17.403,53.438,20.883,53.438z"/>
		<linearGradient id="SVGID_3_" gradientUnits="userSpaceOnUse" x1="18.4609" y1="59.8984" x2="23.3096" y2="59.8984">
			<stop  offset="0" style="stop-color:#FFFFFF"/>
			<stop  offset="0.074" style="stop-color:#ECECEF"/>
			<stop  offset="0.1757" style="stop-color:#D8D8DF"/>
			<stop  offset="0.2446" style="stop-color:#D1D1D9"/>
			<stop  offset="0.5537" style="stop-color:#E1E1E6"/>
			<stop  offset="1" style="stop-color:#F5F5F5"/>
		</linearGradient>
		<path fill="url(#SVGID_3_)" d="M20.883,62.388c1.34,0,2.426-1.116,2.426-2.489c0-1.367-1.086-2.488-2.426-2.488
			c-1.326,0-2.422,1.111-2.422,2.488C18.461,61.271,19.557,62.388,20.883,62.388z"/>
		<linearGradient id="SVGID_4_" gradientUnits="userSpaceOnUse" x1="76.7539" y1="59.9043" x2="89.3447" y2="59.9043">
			<stop  offset="0.0054" style="stop-color:#8C8C8C"/>
			<stop  offset="0.062" style="stop-color:#707070"/>
			<stop  offset="0.1433" style="stop-color:#4F4F4F"/>
			<stop  offset="0.2311" style="stop-color:#343434"/>
			<stop  offset="0.3262" style="stop-color:#1F1F1F"/>
			<stop  offset="0.4321" style="stop-color:#101010"/>
			<stop  offset="0.5573" style="stop-color:#080808"/>
			<stop  offset="0.7513" style="stop-color:#050505"/>
		</linearGradient>
		<path fill="url(#SVGID_4_)" d="M83.05,53.438c3.476,0,6.295,2.894,6.295,6.47c0,3.563-2.819,6.461-6.295,6.461
			c-3.477,0-6.296-2.897-6.296-6.461C76.764,56.326,79.573,53.438,83.05,53.438z"/>
		<linearGradient id="SVGID_5_" gradientUnits="userSpaceOnUse" x1="80.627" y1="59.8984" x2="85.4717" y2="59.8984">
			<stop  offset="0" style="stop-color:#FFFFFF"/>
			<stop  offset="0.074" style="stop-color:#ECECEF"/>
			<stop  offset="0.1757" style="stop-color:#D8D8DF"/>
			<stop  offset="0.2446" style="stop-color:#D1D1D9"/>
			<stop  offset="0.5537" style="stop-color:#E1E1E6"/>
			<stop  offset="1" style="stop-color:#F5F5F5"/>
		</linearGradient>
		<path fill="url(#SVGID_5_)" d="M83.05,62.388c1.336,0,2.422-1.116,2.422-2.489c0-1.367-1.086-2.488-2.422-2.488
			c-1.332,0-2.423,1.111-2.423,2.488C80.627,61.271,81.718,62.388,83.05,62.388z"/>
	</g>
	<linearGradient id="SVGID_6_" gradientUnits="userSpaceOnUse" x1="4.771" y1="51.1543" x2="8.4805" y2="51.1543">
		<stop  offset="0" style="stop-color:#FFFFFF"/>
		<stop  offset="0.074" style="stop-color:#ECECEF"/>
		<stop  offset="0.1757" style="stop-color:#D8D8DF"/>
		<stop  offset="0.2446" style="stop-color:#D1D1D9"/>
		<stop  offset="0.5537" style="stop-color:#E1E1E6"/>
		<stop  offset="1" style="stop-color:#F5F5F5"/>
	</linearGradient>
	<polygon fill="url(#SVGID_6_)" points="8.48,52.33 4.771,52.33 4.771,49.979 8.479,49.979 8.48,52.33 	"/>
</g>
</svg>
