<?xml version="1.0" encoding="utf-8"?>
<!-- Generator: Adobe Illustrator 16.0.0, SVG Export Plug-In . SVG Version: 6.00 Build 0)  -->
<!DOCTYPE svg PUBLIC "-//W3C//DTD SVG 1.1//EN" "http://www.w3.org/Graphics/SVG/1.1/DTD/svg11.dtd">
<svg version="1.1" id="Capa_1" xmlns="http://www.w3.org/2000/svg" xmlns:xlink="http://www.w3.org/1999/xlink" x="0px" y="0px"
	 width="100px" height="100px" viewBox="0 0 100 100" enable-background="new 0 0 100 100" xml:space="preserve">
<g>
	<linearGradient id="SVGID_1_" gradientUnits="userSpaceOnUse" x1="2.3394" y1="45.8809" x2="98.3398" y2="45.8809">
		<stop  offset="0.0508" style="stop-color:#2E5575"/>
		<stop  offset="0.4721" style="stop-color:#457FB0"/>
		<stop  offset="0.9543" style="stop-color:#2E5575"/>
	</linearGradient>
	<path fill="url(#SVGID_1_)" d="M92.162,27.119c-4.113,0-45.223,0-52.421,0c-7.195,0-20.917,17.705-20.917,17.705
		s-7.86,1.317-12.999,4.398c-5.138,3.086-3.079,15.421-3.079,15.421h7.966c0-5.113,4.142-9.257,9.245-9.257
		c5.113,0,9.253,4.144,9.253,9.257h38.163c0-5.113,4.141-9.257,9.245-9.257c5.121,0,9.258,4.144,9.258,9.257H98.34V42.029
		C98.33,42.027,96.273,27.119,92.162,27.119z"/>
	<linearGradient id="SVGID_2_" gradientUnits="userSpaceOnUse" x1="26.6445" y1="36.4326" x2="49.7671" y2="36.4326">
		<stop  offset="0" style="stop-color:#FFFFFF"/>
		<stop  offset="0.074" style="stop-color:#ECECEF"/>
		<stop  offset="0.1757" style="stop-color:#D8D8DF"/>
		<stop  offset="0.2446" style="stop-color:#D1D1D9"/>
		<stop  offset="0.5537" style="stop-color:#E1E1E6"/>
		<stop  offset="1" style="stop-color:#F5F5F5"/>
	</linearGradient>
	<path fill="none" stroke="url(#SVGID_2_)" stroke-width="0.2469" stroke-miterlimit="10" d="M49.642,41.57H26.899
		c0,0,8.103-10.275,11.951-10.275c3.854,0,10.793,0,10.793,0V41.57H49.642z"/>
	<linearGradient id="SVGID_3_" gradientUnits="userSpaceOnUse" x1="54.1504" y1="36.4326" x2="72.249" y2="36.4326">
		<stop  offset="0" style="stop-color:#FFFFFF"/>
		<stop  offset="0.074" style="stop-color:#ECECEF"/>
		<stop  offset="0.1757" style="stop-color:#D8D8DF"/>
		<stop  offset="0.2446" style="stop-color:#D1D1D9"/>
		<stop  offset="0.5537" style="stop-color:#E1E1E6"/>
		<stop  offset="1" style="stop-color:#F5F5F5"/>
	</linearGradient>
	
		<rect x="54.273" y="31.295" fill="none" stroke="url(#SVGID_3_)" stroke-width="0.2469" stroke-miterlimit="10" width="17.853" height="10.275"/>
	<linearGradient id="SVGID_4_" gradientUnits="userSpaceOnUse" x1="76.8896" y1="36.4326" x2="93.3555" y2="36.4326">
		<stop  offset="0" style="stop-color:#FFFFFF"/>
		<stop  offset="0.074" style="stop-color:#ECECEF"/>
		<stop  offset="0.1757" style="stop-color:#D8D8DF"/>
		<stop  offset="0.2446" style="stop-color:#D1D1D9"/>
		<stop  offset="0.5537" style="stop-color:#E1E1E6"/>
		<stop  offset="1" style="stop-color:#F5F5F5"/>
	</linearGradient>
	<polygon fill="none" stroke="url(#SVGID_4_)" stroke-width="0.2469" stroke-miterlimit="10" points="77.017,41.57 77.013,31.295 
		90.887,31.295 93.201,41.57 	"/>
	<linearGradient id="SVGID_5_" gradientUnits="userSpaceOnUse" x1="11.5029" y1="64.6406" x2="27.981" y2="64.6406">
		<stop  offset="0.0054" style="stop-color:#8C8C8C"/>
		<stop  offset="0.0809" style="stop-color:#707070"/>
		<stop  offset="0.1893" style="stop-color:#4F4F4F"/>
		<stop  offset="0.3064" style="stop-color:#343434"/>
		<stop  offset="0.4331" style="stop-color:#1F1F1F"/>
		<stop  offset="0.5743" style="stop-color:#101010"/>
		<stop  offset="0.7414" style="stop-color:#080808"/>
		<stop  offset="1" style="stop-color:#050505"/>
	</linearGradient>
	<path fill="url(#SVGID_5_)" d="M19.743,56.4c-4.546,0-8.24,3.685-8.24,8.237c0,4.556,3.691,8.243,8.24,8.243
		c4.556,0,8.238-3.688,8.238-8.243C27.979,60.089,24.293,56.4,19.743,56.4z"/>
	<linearGradient id="SVGID_6_" gradientUnits="userSpaceOnUse" x1="16.1299" y1="64.6387" x2="23.3574" y2="64.6387">
		<stop  offset="0" style="stop-color:#FFFFFF"/>
		<stop  offset="0.074" style="stop-color:#ECECEF"/>
		<stop  offset="0.1757" style="stop-color:#D8D8DF"/>
		<stop  offset="0.2446" style="stop-color:#D1D1D9"/>
		<stop  offset="0.5537" style="stop-color:#E1E1E6"/>
		<stop  offset="1" style="stop-color:#F5F5F5"/>
	</linearGradient>
	<path fill="url(#SVGID_6_)" d="M19.743,68.251c-1.993,0-3.613-1.619-3.613-3.613c0-1.995,1.622-3.611,3.613-3.611
		c2,0,3.615,1.616,3.615,3.611C23.357,66.634,21.737,68.251,19.743,68.251z"/>
	<linearGradient id="SVGID_7_" gradientUnits="userSpaceOnUse" x1="68.124" y1="64.6406" x2="84.6006" y2="64.6406">
		<stop  offset="0.0054" style="stop-color:#8C8C8C"/>
		<stop  offset="0.0809" style="stop-color:#707070"/>
		<stop  offset="0.1893" style="stop-color:#4F4F4F"/>
		<stop  offset="0.3064" style="stop-color:#343434"/>
		<stop  offset="0.4331" style="stop-color:#1F1F1F"/>
		<stop  offset="0.5743" style="stop-color:#101010"/>
		<stop  offset="0.7414" style="stop-color:#080808"/>
		<stop  offset="1" style="stop-color:#050505"/>
	</linearGradient>
	<path fill="url(#SVGID_7_)" d="M76.362,56.4c-4.549,0-8.238,3.685-8.238,8.237c0,4.556,3.689,8.243,8.238,8.243
		c4.554,0,8.238-3.688,8.238-8.243C84.599,60.089,80.911,56.4,76.362,56.4z"/>
	<linearGradient id="SVGID_8_" gradientUnits="userSpaceOnUse" x1="72.751" y1="64.6387" x2="79.9766" y2="64.6387">
		<stop  offset="0" style="stop-color:#FFFFFF"/>
		<stop  offset="0.074" style="stop-color:#ECECEF"/>
		<stop  offset="0.1757" style="stop-color:#D8D8DF"/>
		<stop  offset="0.2446" style="stop-color:#D1D1D9"/>
		<stop  offset="0.5537" style="stop-color:#E1E1E6"/>
		<stop  offset="1" style="stop-color:#F5F5F5"/>
	</linearGradient>
	<path fill="url(#SVGID_8_)" d="M76.364,68.251c-1.994,0-3.613-1.619-3.613-3.613c0-1.995,1.619-3.611,3.613-3.611
		c1.99,0,3.612,1.616,3.612,3.611C79.975,66.632,78.354,68.251,76.364,68.251z"/>
	<linearGradient id="SVGID_9_" gradientUnits="userSpaceOnUse" x1="29.792" y1="66.752" x2="67.877" y2="66.752">
		<stop  offset="0.0054" style="stop-color:#8C8C8C"/>
		<stop  offset="0.0809" style="stop-color:#707070"/>
		<stop  offset="0.1893" style="stop-color:#4F4F4F"/>
		<stop  offset="0.3064" style="stop-color:#343434"/>
		<stop  offset="0.4331" style="stop-color:#1F1F1F"/>
		<stop  offset="0.5743" style="stop-color:#101010"/>
		<stop  offset="0.7414" style="stop-color:#080808"/>
		<stop  offset="1" style="stop-color:#050505"/>
	</linearGradient>
	<rect x="29.792" y="65.405" fill="url(#SVGID_9_)" width="38.085" height="2.693"/>
</g>
</svg>
