<?xml version="1.0" encoding="utf-8"?>
<!-- Generator: Adobe Illustrator 16.0.0, SVG Export Plug-In . SVG Version: 6.00 Build 0)  -->
<!DOCTYPE svg PUBLIC "-//W3C//DTD SVG 1.1//EN" "http://www.w3.org/Graphics/SVG/1.1/DTD/svg11.dtd">
<svg version="1.1" id="Capa_1" xmlns="http://www.w3.org/2000/svg" xmlns:xlink="http://www.w3.org/1999/xlink" x="0px" y="0px"
	 width="100px" height="100px" viewBox="0 0 100 100" enable-background="new 0 0 100 100" xml:space="preserve">
<g>
	<linearGradient id="SVGID_1_" gradientUnits="userSpaceOnUse" x1="1" y1="44.0508" x2="97.748" y2="44.0508">
		<stop  offset="0.0406" style="stop-color:#9C210A"/>
		<stop  offset="0.599" style="stop-color:#B04D3B"/>
		<stop  offset="0.9543" style="stop-color:#9C210A"/>
	</linearGradient>
	<path fill="url(#SVGID_1_)" d="M91.521,25.143c-4.145,0-45.574,0-52.828,0c-7.251,0-21.08,17.843-21.08,17.843
		s-7.921,1.327-13.1,4.432c-5.178,3.11-3.102,15.541-3.102,15.541h8.028c0-5.153,4.174-9.328,9.317-9.328
		c5.153,0,9.325,4.175,9.325,9.328h38.46c0-5.153,4.174-9.328,9.316-9.328c5.162,0,9.332,4.175,9.332,9.328h12.559v-22.79
		C97.738,40.167,95.666,25.143,91.521,25.143z"/>
	<linearGradient id="SVGID_2_" gradientUnits="userSpaceOnUse" x1="4.3892" y1="50.5205" x2="8.6816" y2="50.5205">
		<stop  offset="0" style="stop-color:#FFFFFF"/>
		<stop  offset="0.074" style="stop-color:#ECECEF"/>
		<stop  offset="0.1757" style="stop-color:#D8D8DF"/>
		<stop  offset="0.2446" style="stop-color:#D1D1D9"/>
		<stop  offset="0.5537" style="stop-color:#E1E1E6"/>
		<stop  offset="1" style="stop-color:#F5F5F5"/>
	</linearGradient>
	<polygon fill="url(#SVGID_2_)" points="8.682,51.881 4.389,51.881 4.389,49.16 8.68,49.16 8.682,51.881 	"/>
	<linearGradient id="SVGID_3_" gradientUnits="userSpaceOnUse" x1="25.7505" y1="34.5288" x2="48.6724" y2="34.5288">
		<stop  offset="0" style="stop-color:#FFFFFF"/>
		<stop  offset="0.074" style="stop-color:#ECECEF"/>
		<stop  offset="0.1757" style="stop-color:#D8D8DF"/>
		<stop  offset="0.2446" style="stop-color:#D1D1D9"/>
		<stop  offset="0.5537" style="stop-color:#E1E1E6"/>
		<stop  offset="1" style="stop-color:#F5F5F5"/>
	</linearGradient>
	<path fill="url(#SVGID_3_)" d="M48.67,39.707H25.75c0,0,8.166-10.355,12.045-10.355c3.883,0,10.877,0,10.877,0v10.355H48.67z"/>
	<linearGradient id="SVGID_4_" gradientUnits="userSpaceOnUse" x1="53.3379" y1="34.5288" x2="71.3301" y2="34.5288">
		<stop  offset="0" style="stop-color:#FFFFFF"/>
		<stop  offset="0.074" style="stop-color:#ECECEF"/>
		<stop  offset="0.1757" style="stop-color:#D8D8DF"/>
		<stop  offset="0.2446" style="stop-color:#D1D1D9"/>
		<stop  offset="0.5537" style="stop-color:#E1E1E6"/>
		<stop  offset="1" style="stop-color:#F5F5F5"/>
	</linearGradient>
	<rect x="53.338" y="29.351" fill="url(#SVGID_4_)" width="17.992" height="10.355"/>
	<linearGradient id="SVGID_5_" gradientUnits="userSpaceOnUse" x1="76.2539" y1="34.5288" x2="92.5703" y2="34.5288">
		<stop  offset="0" style="stop-color:#FFFFFF"/>
		<stop  offset="0.074" style="stop-color:#ECECEF"/>
		<stop  offset="0.1757" style="stop-color:#D8D8DF"/>
		<stop  offset="0.2446" style="stop-color:#D1D1D9"/>
		<stop  offset="0.5537" style="stop-color:#E1E1E6"/>
		<stop  offset="1" style="stop-color:#F5F5F5"/>
	</linearGradient>
	<polygon fill="url(#SVGID_5_)" points="76.258,39.707 76.254,29.351 90.236,29.351 92.57,39.707 	"/>
	<radialGradient id="SVGID_6_" cx="94.4111" cy="48.7393" r="6.0832" gradientUnits="userSpaceOnUse">
		<stop  offset="0" style="stop-color:#FFBF00"/>
		<stop  offset="0.4299" style="stop-color:#FFBD00"/>
		<stop  offset="0.6621" style="stop-color:#FFB500"/>
		<stop  offset="0.8469" style="stop-color:#FFA700"/>
		<stop  offset="0.8587" style="stop-color:#FFA600"/>
		<stop  offset="0.9837" style="stop-color:#FFA100"/>
	</radialGradient>
	<rect x="93.686" y="40.167" fill="url(#SVGID_6_)" width="1.451" height="17.144"/>
	<linearGradient id="SVGID_7_" gradientUnits="userSpaceOnUse" x1="10.2344" y1="62.957" x2="26.8408" y2="62.957">
		<stop  offset="0.0054" style="stop-color:#8C8C8C"/>
		<stop  offset="0.0809" style="stop-color:#707070"/>
		<stop  offset="0.1893" style="stop-color:#4F4F4F"/>
		<stop  offset="0.3064" style="stop-color:#343434"/>
		<stop  offset="0.4331" style="stop-color:#1F1F1F"/>
		<stop  offset="0.5743" style="stop-color:#101010"/>
		<stop  offset="0.7414" style="stop-color:#080808"/>
		<stop  offset="1" style="stop-color:#050505"/>
	</linearGradient>
	<path fill="url(#SVGID_7_)" d="M18.539,54.653c-4.581,0-8.304,3.712-8.304,8.3c0,4.591,3.721,8.309,8.304,8.309
		c4.592,0,8.302-3.718,8.302-8.309C26.839,58.369,23.125,54.653,18.539,54.653z"/>
	<linearGradient id="SVGID_8_" gradientUnits="userSpaceOnUse" x1="14.8979" y1="62.9551" x2="22.1821" y2="62.9551">
		<stop  offset="0" style="stop-color:#FFFFFF"/>
		<stop  offset="0.074" style="stop-color:#ECECEF"/>
		<stop  offset="0.1757" style="stop-color:#D8D8DF"/>
		<stop  offset="0.2446" style="stop-color:#D1D1D9"/>
		<stop  offset="0.5537" style="stop-color:#E1E1E6"/>
		<stop  offset="1" style="stop-color:#F5F5F5"/>
	</linearGradient>
	<path fill="url(#SVGID_8_)" d="M18.539,66.596c-2.008,0-3.641-1.633-3.641-3.643s1.635-3.64,3.641-3.64
		c2.016,0,3.644,1.63,3.644,3.64C22.182,64.965,20.548,66.596,18.539,66.596z"/>
	<linearGradient id="SVGID_9_" gradientUnits="userSpaceOnUse" x1="67.2969" y1="62.957" x2="83.9023" y2="62.957">
		<stop  offset="0.0054" style="stop-color:#8C8C8C"/>
		<stop  offset="0.0809" style="stop-color:#707070"/>
		<stop  offset="0.1893" style="stop-color:#4F4F4F"/>
		<stop  offset="0.3064" style="stop-color:#343434"/>
		<stop  offset="0.4331" style="stop-color:#1F1F1F"/>
		<stop  offset="0.5743" style="stop-color:#101010"/>
		<stop  offset="0.7414" style="stop-color:#080808"/>
		<stop  offset="1" style="stop-color:#050505"/>
	</linearGradient>
	<path fill="url(#SVGID_9_)" d="M75.6,54.653c-4.584,0-8.303,3.712-8.303,8.3c0,4.591,3.719,8.309,8.303,8.309
		c4.59,0,8.303-3.718,8.303-8.309C83.9,58.369,80.184,54.653,75.6,54.653z"/>
	<linearGradient id="SVGID_10_" gradientUnits="userSpaceOnUse" x1="71.9609" y1="62.9551" x2="79.2422" y2="62.9551">
		<stop  offset="0" style="stop-color:#FFFFFF"/>
		<stop  offset="0.074" style="stop-color:#ECECEF"/>
		<stop  offset="0.1757" style="stop-color:#D8D8DF"/>
		<stop  offset="0.2446" style="stop-color:#D1D1D9"/>
		<stop  offset="0.5537" style="stop-color:#E1E1E6"/>
		<stop  offset="1" style="stop-color:#F5F5F5"/>
	</linearGradient>
	<path fill="url(#SVGID_10_)" d="M75.602,66.596c-2.01,0-3.641-1.633-3.641-3.643s1.631-3.64,3.641-3.64
		c2.006,0,3.641,1.63,3.641,3.64C79.24,64.963,77.607,66.596,75.602,66.596z"/>
</g>
</svg>
