<?xml version="1.0" encoding="utf-8"?>
<!-- Generator: Adobe Illustrator 16.0.0, SVG Export Plug-In . SVG Version: 6.00 Build 0)  -->
<!DOCTYPE svg PUBLIC "-//W3C//DTD SVG 1.1//EN" "http://www.w3.org/Graphics/SVG/1.1/DTD/svg11.dtd">
<svg version="1.1" id="Capa_1" xmlns="http://www.w3.org/2000/svg" xmlns:xlink="http://www.w3.org/1999/xlink" x="0px" y="0px"
	 width="100px" height="100px" viewBox="0 0 100 100" enable-background="new 0 0 100 100" xml:space="preserve">
<g>
	<linearGradient id="SVGID_1_" gradientUnits="userSpaceOnUse" x1="10.3989" y1="69.21" x2="25.2847" y2="69.21">
		<stop  offset="0.0054" style="stop-color:#8C8C8C"/>
		<stop  offset="0.0809" style="stop-color:#707070"/>
		<stop  offset="0.1893" style="stop-color:#4F4F4F"/>
		<stop  offset="0.3064" style="stop-color:#343434"/>
		<stop  offset="0.4331" style="stop-color:#1F1F1F"/>
		<stop  offset="0.5743" style="stop-color:#101010"/>
		<stop  offset="0.7414" style="stop-color:#080808"/>
		<stop  offset="1" style="stop-color:#050505"/>
	</linearGradient>
	<path fill="url(#SVGID_1_)" d="M17.84,61.763c-4.109,0-7.441,3.338-7.441,7.446c0,4.112,3.332,7.448,7.441,7.448
		c4.108,0,7.444-3.336,7.444-7.448C25.285,65.103,21.949,61.763,17.84,61.763z"/>
	<linearGradient id="SVGID_2_" gradientUnits="userSpaceOnUse" x1="14.5771" y1="69.2188" x2="21.104" y2="69.2188">
		<stop  offset="0" style="stop-color:#FFFFFF"/>
		<stop  offset="0.074" style="stop-color:#ECECEF"/>
		<stop  offset="0.1757" style="stop-color:#D8D8DF"/>
		<stop  offset="0.2446" style="stop-color:#D1D1D9"/>
		<stop  offset="0.5537" style="stop-color:#E1E1E6"/>
		<stop  offset="1" style="stop-color:#F5F5F5"/>
	</linearGradient>
	<path fill="url(#SVGID_2_)" d="M17.84,72.478c-1.799,0-3.263-1.462-3.263-3.264c0-1.796,1.464-3.253,3.263-3.253
		c1.798,0,3.264,1.457,3.264,3.253C21.104,71.011,19.638,72.478,17.84,72.478z"/>
	<linearGradient id="SVGID_3_" gradientUnits="userSpaceOnUse" x1="67.1289" y1="69.21" x2="82.0215" y2="69.21">
		<stop  offset="0.0054" style="stop-color:#8C8C8C"/>
		<stop  offset="0.0809" style="stop-color:#707070"/>
		<stop  offset="0.1893" style="stop-color:#4F4F4F"/>
		<stop  offset="0.3064" style="stop-color:#343434"/>
		<stop  offset="0.4331" style="stop-color:#1F1F1F"/>
		<stop  offset="0.5743" style="stop-color:#101010"/>
		<stop  offset="0.7414" style="stop-color:#080808"/>
		<stop  offset="1" style="stop-color:#050505"/>
	</linearGradient>
	<path fill="url(#SVGID_3_)" d="M74.578,61.763c-4.114,0-7.449,3.338-7.449,7.446c0,4.112,3.335,7.448,7.449,7.448
		c4.108,0,7.443-3.336,7.443-7.448C82.024,65.103,78.687,61.763,74.578,61.763z"/>
	<linearGradient id="SVGID_4_" gradientUnits="userSpaceOnUse" x1="71.3135" y1="69.2188" x2="77.8438" y2="69.2188">
		<stop  offset="0" style="stop-color:#FFFFFF"/>
		<stop  offset="0.074" style="stop-color:#ECECEF"/>
		<stop  offset="0.1757" style="stop-color:#D8D8DF"/>
		<stop  offset="0.2446" style="stop-color:#D1D1D9"/>
		<stop  offset="0.5537" style="stop-color:#E1E1E6"/>
		<stop  offset="1" style="stop-color:#F5F5F5"/>
	</linearGradient>
	<path fill="url(#SVGID_4_)" d="M74.578,72.478c-1.807,0-3.265-1.462-3.265-3.264c0-1.796,1.462-3.253,3.265-3.253
		c1.802,0,3.266,1.457,3.266,3.253C77.844,71.011,76.382,72.478,74.578,72.478z"/>
	<linearGradient id="SVGID_5_" gradientUnits="userSpaceOnUse" x1="32.9614" y1="29.1533" x2="46.895" y2="29.1533">
		<stop  offset="0.0054" style="stop-color:#8C8C8C"/>
		<stop  offset="0.0809" style="stop-color:#707070"/>
		<stop  offset="0.1893" style="stop-color:#4F4F4F"/>
		<stop  offset="0.3064" style="stop-color:#343434"/>
		<stop  offset="0.4331" style="stop-color:#1F1F1F"/>
		<stop  offset="0.5743" style="stop-color:#101010"/>
		<stop  offset="0.7414" style="stop-color:#080808"/>
		<stop  offset="1" style="stop-color:#050505"/>
	</linearGradient>
	<path fill="url(#SVGID_5_)" d="M32.961,33.423c0,0,4.945-4.496,13.934-8.541v8.541H32.961z"/>
	<radialGradient id="SVGID_6_" cx="24.1836" cy="52.2568" r="19.6783" gradientUnits="userSpaceOnUse">
		<stop  offset="0" style="stop-color:#FFBF00"/>
		<stop  offset="0.4299" style="stop-color:#FFBD00"/>
		<stop  offset="0.6621" style="stop-color:#FFB500"/>
		<stop  offset="0.8469" style="stop-color:#FFA700"/>
		<stop  offset="0.8587" style="stop-color:#FFA600"/>
		<stop  offset="0.9837" style="stop-color:#FFA100"/>
	</radialGradient>
	<path fill="url(#SVGID_6_)" d="M46.225,35.307c-5.676,0-10.061,0-11.697,0c-6.499,0-17.509,15.998-17.509,15.998
		s-7.102,1.19-11.748,3.972c-4.65,2.788-2.79,13.931-2.79,13.931h7.198c0-4.619,3.748-8.353,8.364-8.353s8.357,3.733,8.357,8.353
		h19.857v-2.266h-0.031V35.307L46.225,35.307z"/>
	<rect x="5.152" y="56.844" width="3.849" height="2.436"/>
	<linearGradient id="SVGID_7_" gradientUnits="userSpaceOnUse" x1="20.9702" y1="43.7246" x2="44.021" y2="43.7246">
		<stop  offset="0" style="stop-color:#FFFFFF"/>
		<stop  offset="0.0865" style="stop-color:#FBFBFC"/>
		<stop  offset="0.6312" style="stop-color:#E7E7EA"/>
		<stop  offset="1" style="stop-color:#E0E0E3"/>
	</linearGradient>
	<path fill="url(#SVGID_7_)" d="M44.019,49.879H20.97c0,0,8.299-12.309,12.915-12.309c4.614,0,10.136,0,10.136,0L44.019,49.879
		L44.019,49.879z"/>
	<linearGradient id="SVGID_8_" gradientUnits="userSpaceOnUse" x1="47.186" y1="46.772" x2="97.1123" y2="46.772">
		<stop  offset="0" style="stop-color:#FFFFFF"/>
		<stop  offset="0.0865" style="stop-color:#FBFBFC"/>
		<stop  offset="0.6312" style="stop-color:#E7E7EA"/>
		<stop  offset="1" style="stop-color:#E0E0E3"/>
	</linearGradient>
	<path fill="url(#SVGID_8_)" d="M47.887,24.33v10.975c-0.242,0-0.467,0-0.695,0v31.637h-0.006l0,0v2.272h19.268
		c0-4.618,3.745-8.362,8.364-8.362c4.618,0,8.35,3.744,8.35,8.362h11.265V58.986h2.68V24.33H47.887z"/>
	<rect x="90.8" y="58.984" width="1.297" height="5.174"/>
	<rect x="26.922" y="69.906" width="19.333" height="2.439"/>
	<rect x="47.184" y="69.906" width="19.725" height="2.439"/>
</g>
</svg>
