<?xml version="1.0" encoding="utf-8"?>
<!-- Generator: Adobe Illustrator 16.0.0, SVG Export Plug-In . SVG Version: 6.00 Build 0)  -->
<!DOCTYPE svg PUBLIC "-//W3C//DTD SVG 1.1//EN" "http://www.w3.org/Graphics/SVG/1.1/DTD/svg11.dtd">
<svg version="1.1" id="Capa_1" xmlns="http://www.w3.org/2000/svg" xmlns:xlink="http://www.w3.org/1999/xlink" x="0px" y="0px"
	 width="100px" height="100px" viewBox="0 0 100 100" enable-background="new 0 0 100 100" xml:space="preserve">
<g>
	<path fill="#D1D3D4" d="M48.568,59c5.017,8,15.927,1.332,22.891,3.825c-2.885-0.039-5.672,0.778-8.378,1.788
		c-5.38,2.008-10.437,5.221-15.275,5.876c0.039-0.524,0.097-1.237,0.167-1.796C48.298,66.051,48.837,63,48.548,59H48.568z"/>
	<path fill="#F1F2F2" d="M14.85,21.416c-0.738,0.679-1.838,2.193-1.826,3.195c0.012,1,0.819,3.234,2.209,3.367
		c2.061,0.198,4.744-1.769,4.982-2.313c0.485-1.118-0.057-2.382-0.315-3.029C19.554,21.779,17.766,18.739,14.85,21.416z
		 M71.459,62.825C64.495,60.332,53.585,67,48.568,59h-0.02c0.289,4-0.25,7.076-0.576,9.719l-0.065,0.092
		c-1.837,5.302-0.935,21.956-1.912,22.672s-2.54-0.438-2.54-0.438l-0.113-0.029c0.452-0.642,0.951-1.021,0.951-1.021
		S43,72.355,42,70.858v-0.054c0-1.419-0.56-2.762-0.906-3.951l-0.035,0.018c-2.302,1.301-4.939,2.585-8.088,2.288l-0.047,0.155
		c-0.365-0.131-0.934-0.27-1.288-0.418C29.581,68.057,28,66.981,26,65.737v-0.003c0-0.8-1.535-1.669-2.098-2.588
		c-3.519-5.745-1.705-13.344-1.97-15.222c-0.486-3.441-2.858-5.306-5.087-5.615C16.098,42.206,15,42.397,14,42.68v-0.05
		c-1-0.69,0.013-2.321,0.013-2.321l-0.096-0.347c3.31-1.774,6.629-4.218,8.594-6.934c1.136-1.574-0.856-2.6-1.575-1
		c-1.18,2.616-2.978,4.592-4.934,6.094l-0.008-0.017c-6.073,3.182-8.365-1.925-11.097-4.055c0,0,3.462-11.528,16.98-16.427
		l-0.025-0.284c0.945-0.093,1.627-0.082,1.982-0.061c0.186,0.009,0.285,0.022,0.285,0.022s0.014-0.022,0.044-0.068
		c0.008-0.012,0.011-0.017,0.011-0.017c0.324-0.517,2.194-3.315,5.884-5.773c1.557-0.019,0.498,13.792,4.657,17.302
		c0.956,0.808,1.949,1.649,2.984,2.479c2.397,4.038,5.614,6.015,9.428,7.079c-0.992,2.955-2.317,9.183,3.567,10.509
		c5.93,1.337,5.312,8.526,13.735,6.454c5.259-1.294,2.899-4.822,3.973-9.2c0.31-1.257,2.699-3.246,3.901-4.181
		c1.24,0.357,2.496,0.775,3.758,1.275c1.088,0.804,2.036,1.648,2.869,2.52c0.732,0.766,1.376,1.552,1.945,2.348l-0.218,0.152
		c2.773,3.917,6.39,21.396,11.183,26.751c0.91,2.903,1.601,5.497,2.016,7.486c0.406,1.952,0.547,3.325,0.373,3.842
		c-0.362,1.083-2.003,1.339-2.003,1.339l-0.094-0.044c0.129-0.271,0.238-0.523,0.253-0.746c0.048-0.724-0.825-3.772-1.629-5.99
		c-0.807-2.215-6.44-7.935-9.693-10.343c-0.656-0.484-1.3-1.185-1.938-1.83C76.674,66.154,74.292,62.864,71.459,62.825z
		 M30.769,22.137c-0.548-1.576-0.623-8.075-1.147-9.015c-2.375,1.769-3.961,4.333-3.551,5.897
		C26.762,21.645,29.529,22.064,30.769,22.137z"/>
	<path fill="#D1D3D4" d="M81.448,74.811c-0.131,2.029-0.154,3.863-0.129,5.462l-0.77,0.015c-0.062-2.142-0.182-4.143-0.249-4.795
		c-0.159-1.547-2.521-4.828-4.718-5.998c-2.077-1.107-7.084-0.102-7.626,0.012c-2.666-2.271-4.422-4.264-4.876-4.793
		c2.706-1.01,5.493-1.728,8.378-1.688c2.833,0.039,5.215,3.229,7.666,5.72l-0.086,0.086C79.039,68.83,80.265,73.6,81.448,74.811z"/>
	<path fill="#FFFFFF" d="M21.878,17.623C8.36,22.521,4.899,34.049,4.899,34.049c-0.83-0.646-1.699-1.019-2.727-0.798
		c-0.034,0.003-0.067,0.012-0.101,0.021l-0.042-0.008c0.501-3.098,2.435-6.959,7.797-10.896c3.414-2.508,6.522-3.798,8.961-4.453
		l0.003-0.003c1.196-0.318,2.23-0.488,3.063-0.574L21.878,17.623z"/>
	<path fill="#FFFFFF" d="M23.834,17.278c-0.355-0.021-1.037-0.033-1.982,0.061c-0.833,0.086-1.867,0.256-3.063,0.574
		c0.233-0.532,2.016-8.3,2.913-7.205C22.568,11.765,23.742,16.874,23.834,17.278z"/>
	<path fill="#EFD1D1" d="M2.172,33.251c1.028-0.221,1.897,0.152,2.727,0.798c2.732,2.13,5.026,7.236,11.099,4.055l0.014,0.017
		c-3.784,2.906-8.118,4.048-9.505,4.65c-1.621-0.862-3.314-2.117-3.941-3.847c0,0,2.306-2.644,2.24-3.42
		c-0.017-0.197-0.073-0.424-0.168-0.651c-0.278-0.675-0.889-1.377-1.792-1.471c-0.223-0.022-0.439-0.017-0.642,0.022L2.172,33.251z"
		/>
	<path fill="#4F4741" d="M2.847,33.381c0.902,0.094,1.513,0.796,1.792,1.471c-1.926-1.436-3.509,0.49-3.509,0.49
		c-0.029-0.326-0.016-0.65,0.054-0.958c0.128-0.576,0.524-0.882,1.021-0.981C2.408,33.364,2.624,33.358,2.847,33.381z"/>
	<path fill="#26221F" d="M4.807,35.503c0.065,0.776-2.24,3.42-2.24,3.42S1.28,37.072,1.13,35.342c0,0,1.583-1.925,3.509-0.49
		C4.734,35.079,4.791,35.307,4.807,35.503z"/>
	<path fill="#4F4741" d="M73.018,41.313l-0.024,0.051c0,0-0.273,0.198-0.689,0.521c-9.475-2.708-18.296-1.662-25.177-3.582
		c0.215-0.636,0.415-1.123,0.521-1.372c0.746,0.222,1.515,0.404,2.305,0.536C54.659,38.249,64.952,37.306,73.018,41.313z"/>
	<path fill="#26221F" d="M50.694,48.812c-5.885-1.326-4.56-7.555-3.567-10.509c6.881,1.92,15.702,0.874,25.177,3.582
		c-1.202,0.935-3.592,2.924-3.901,4.181c-1.073,4.378,1.286,7.906-3.973,9.2C56.006,57.338,56.624,50.149,50.694,48.812z"/>
	<path fill="#FFFFFF" d="M73.018,41.313c1.06,0.525,2.081,1.135,3.044,1.847c-1.262-0.5-2.518-0.918-3.758-1.275
		c0.416-0.323,0.689-0.521,0.689-0.521L73.018,41.313z"/>
	<path fill="#FFFFFF" d="M47.127,38.303c-3.814-1.064-7.031-3.042-9.428-7.079c2.903,2.328,6.154,4.567,9.95,5.707
		C47.542,37.18,47.342,37.667,47.127,38.303z"/>
	<path fill="#D1D3D4" d="M93.856,82.418c-0.415-1.989-1.105-4.583-2.016-7.486c-4.793-5.355-8.409-22.834-11.183-26.751l0.218-0.152
		c3.314,4.641,4.132,9.635,5.637,13.035c2.061,4.647,4.481,11.854,6.393,13.388c0.743,2.857,1.218,5.564,1.704,7.812L93.856,82.418z
		"/>
	<path fill="#D1D3D4" d="M96.115,86.931c-0.094,1.561-0.475,2.232-0.914,2.627c-0.44,0.394-3.22,0.706-3.564-0.124
		c-0.237-0.577,0.193-1.27,0.496-1.879l0.094,0.044c0,0,1.641-0.256,2.003-1.339c0.174-0.517,0.033-1.89-0.373-3.842l0.753-0.155
		C95.038,84.242,95.478,85.868,96.115,86.931z"/>
	<path fill="#FFFFFF" d="M83.83,40.246c0.108-0.114,0.287,0.011,0.228,0.152c-0.605,1.407-1.376,2.458-2.13,3.233
		c-2.149,0.854-3.845-0.545-3.845-0.545l-0.016-0.101C79.751,42.711,82.142,42.015,83.83,40.246z"/>
	<path fill="#D1D3D4" d="M81.928,43.631c-1.499,1.544-2.944,2.001-2.944,2.001l-0.053,0.048c-0.833-0.872-1.781-1.716-2.869-2.52
		c0,0,0.828,0.016,2.006-0.176l0.016,0.101C78.083,43.085,79.778,44.484,81.928,43.631z"/>
	<path fill="#D1D3D4" d="M81.364,82.15c0.083,2.517,0.217,4.238,0.008,4.956c-0.232,0.803-1.483,1.466-2.319,1.476
		c-1.008,0.012-2.394-0.25-2.294-1.085c0.044-0.363,0.47-0.785,0.923-1.23c0.332,0.193,1.795,0.998,2.473,0.491
		c0.35-0.26,0.446-2.306,0.427-4.601L81.364,82.15z"/>
	<path fill="#D1D3D4" d="M81.364,82.15l-0.783,0.007c-0.002-0.617-0.015-1.25-0.031-1.87l0.77-0.015
		C81.329,80.94,81.346,81.567,81.364,82.15z"/>
	<path fill="#F1F2F2" d="M80.55,80.287c0.017,0.62,0.029,1.253,0.031,1.87c0.02,2.295-0.077,4.341-0.427,4.601
		c-0.678,0.507-2.141-0.298-2.473-0.491c0.588-0.57,1.226-1.178,1.156-1.743c-0.124-1.001-0.687-6.333-2.954-9.646
		c-3.088-1.567-5.796-3.558-7.927-5.371c0.542-0.113,5.549-1.119,7.626-0.012c2.196,1.17,4.559,4.451,4.718,5.998
		C80.368,76.145,80.488,78.146,80.55,80.287z"/>
	<path fill="#D1D3D4" d="M47.908,68.91l0.065,0.008c-0.069,0.559-0.128,1.097-0.167,1.621c-0.006,0.003-0.008,0.003-0.014,0.003
		c-0.703,6.406-0.348,15.822-0.518,21.87c-0.04,1.392-3.665,1.757-4.444,0.665c-0.162-0.807,0.14-1.515,0.513-2.048l0.113,0.04
		c0,0,1.563,1.179,2.54,0.463S46.07,74.212,47.908,68.91z"/>
	<path fill="#D1D3D4" d="M42,70.804v0.054c-3,0.133-6.094-0.447-9.129-1.543l0.084-0.155c3.149,0.297,5.816-0.987,8.118-2.288
		l0.013-0.018C41.433,68.043,42,69.386,42,70.804z"/>
	<path fill="#F1F2F2" d="M31.85,68.896c-0.201,1.83-0.337,21.021-1.288,21.771c-0.938,0.731-3.05,0.926-4.18-0.564
		c0.09-1.891,1.917-2.692,1.917-2.692c-0.302-6.896-0.708-17.992-1.876-21.673C27.91,66.981,29.795,68.057,31.85,68.896z"/>
	<path fill="#EFD1D1" d="M29.622,13.123c0.524,0.94,0.599,7.438,1.147,9.015c-1.24-0.073-4.007-0.493-4.698-3.118
		C25.661,17.456,27.247,14.891,29.622,13.123z"/>
	<path fill="#8C4F4F" d="M20.958,32.026c0.719-1.6,2.733-0.573,1.598,1c-1.964,2.716-5.238,5.16-8.548,6.934
		c-2.711,1.46-5.445,2.467-7.5,2.81c1.387-0.602,5.721-1.744,9.505-4.65C17.969,36.619,19.778,34.643,20.958,32.026z"/>
	<path fill="#4F4741" d="M19.899,22.636c0.258,0.647,0.8,1.911,0.315,3.029c-0.238,0.543-2.921,2.51-4.982,2.313
		c-1.39-0.133-2.197-2.368-2.209-3.367c-0.012-1.002,1.088-2.517,1.826-3.195C17.766,18.739,19.554,21.779,19.899,22.636z"/>
	<path fill="#EFD1D1" d="M14.363,42.629l0.015,0.05c-2.105,0.591-4.456,1.58-5.743,1.066c-0.611-0.244-1.361-0.564-2.126-0.975
		c2.054-0.343,4.788-1.35,7.5-2.81l0.187,0.347C14.194,40.308,13.158,41.939,14.363,42.629z"/>
	<path fill="none" stroke="#000000" stroke-width="0.5" stroke-miterlimit="10" d="M26.422,65.737
		c1.167,3.681,1.574,14.777,1.876,21.673c0,0-1.827,0.802-1.917,2.692c1.13,1.49,3.243,1.296,4.18,0.564
		c0.951-0.75,1.087-19.94,1.288-21.771"/>
	<path fill="none" stroke="#000000" stroke-width="0.5" stroke-linecap="round" stroke-linejoin="round" stroke-miterlimit="10" d="
		M63.081,64.713c0.454,0.529,2.21,2.521,4.876,4.793c2.131,1.813,4.839,3.804,7.927,5.371c2.268,3.313,2.83,8.646,2.954,9.646
		c0.069,0.565-0.568,1.173-1.156,1.743c-0.453,0.445-0.879,0.867-0.923,1.23c-0.1,0.835,1.286,1.097,2.294,1.085
		c0.836-0.01,2.087-0.673,2.319-1.476c0.209-0.718,0.075-2.439-0.008-4.956c-0.019-0.583-0.035-1.21-0.045-1.878
		c-0.025-1.599-0.002-3.433,0.129-5.462c-1.184-1.211-2.409-5.98-2.409-5.98"/>
	<path fill="none" stroke="#000000" stroke-width="0.5" stroke-linecap="round" stroke-linejoin="round" stroke-miterlimit="10" d="
		M18.787,17.916c-2.439,0.654-5.547,1.945-8.961,4.453c-5.362,3.937-7.296,7.798-7.797,10.896"/>
	<path fill="none" stroke="#000000" stroke-width="0.5" stroke-linecap="round" stroke-linejoin="round" stroke-miterlimit="10" d="
		M24.163,17.232c-0.03,0.045-0.044,0.068-0.044,0.068s-0.099-0.013-0.285-0.022c-0.355-0.021-1.037-0.033-1.982,0.061
		c-0.833,0.086-1.867,0.256-3.063,0.574"/>
	<path fill="none" stroke="#000000" stroke-linecap="round" stroke-linejoin="round" stroke-miterlimit="10" d="M2.567,38.924
		c0.626,1.73,2.32,2.985,3.941,3.847c0.765,0.411,1.515,0.731,2.126,0.975c1.288,0.514,3.638-0.475,5.743-1.066
		c1.002-0.282,1.949-0.474,2.696-0.37c2.229,0.309,4.479,2.174,4.964,5.615c0.265,1.878-1.904,9.477,1.614,15.222
		c0.563,0.919,1.848,1.788,1.848,2.588v0.003c2,1.244,3.834,2.319,5.889,3.159c0.354,0.148,0.947,0.287,1.312,0.418
		c3.035,1.096,6.446,1.676,9.303,1.543C42.494,72.355,44.295,90,44.295,90s-0.53,0.387-0.981,1.029
		c-0.374,0.533-0.661,1.241-0.499,2.048c0.779,1.092,4.412,0.727,4.451-0.665c0.17-6.048-0.181-15.464,0.522-21.87
		c0.006,0,0.01,0,0.016-0.003c4.838-0.655,9.897-3.819,15.276-5.826c2.707-1.01,5.494-1.728,8.379-1.688
		c2.833,0.039,5.215,3.229,7.666,5.72c0.639,0.646,1.282,1.247,1.938,1.731c3.253,2.408,8.887,8.128,9.693,10.343
		c0.804,2.218,1.677,5.267,1.629,5.99c-0.015,0.223-0.124,0.475-0.253,0.746c-0.303,0.609-0.733,1.302-0.496,1.879
		c0.345,0.83,3.124,0.518,3.564,0.124c0.439-0.395,0.82-1.066,0.914-2.627c-0.638-1.063-1.077-2.688-1.506-4.668
		c-0.486-2.247-0.961-4.954-1.704-7.812c-1.911-1.534-4.332-8.74-6.393-13.388c-1.505-3.4-2.322-8.395-5.637-13.035
		c-0.569-0.796-1.213-1.583-1.945-2.348c-0.833-0.872-1.781-1.716-2.869-2.52c-0.963-0.712-1.984-1.322-3.044-1.847
		c-8.065-4.007-18.358-3.064-23.064-3.847c-0.79-0.131-1.559-0.313-2.305-0.536c-3.795-1.14-7.047-3.379-9.95-5.707
		c-1.035-0.83-2.028-1.671-2.984-2.479c-4.159-3.51-3.1-17.321-4.657-17.302c-3.69,2.458-5.561,5.256-5.884,5.773"/>
	<path fill="none" stroke="#000000" stroke-width="0.5" stroke-linecap="round" stroke-miterlimit="10" d="M42.118,70.804
		c-0.276-1.418-0.619-2.761-0.965-3.95c-0.837-2.882-1.697-4.865-1.697-4.865"/>
	<path fill="none" stroke="#000000" stroke-width="0.5" stroke-linecap="round" stroke-miterlimit="10" d="M47.794,70.68
		c0.002-0.048,0.007-0.093,0.012-0.141c0.039-0.524,0.097-1.063,0.167-1.621c0.326-2.643,0.864-5.671,0.576-9.52
		c-0.03-0.431-0.075-0.875-0.128-1.328"/>
	<path fill="none" stroke="#000000" stroke-width="0.5" stroke-linecap="round" stroke-linejoin="round" stroke-miterlimit="10" d="
		M76.062,43.16c0,0,0.828,0.016,2.006-0.176c1.684-0.273,4.074-0.97,5.763-2.739c0.108-0.114,0.287,0.011,0.228,0.152
		c-0.605,1.407-1.376,2.458-2.13,3.233c-1.499,1.544-2.944,2.001-2.944,2.001"/>
	<path fill="none" stroke="#000000" stroke-width="0.5" stroke-linejoin="round" stroke-miterlimit="10" d="M6.508,42.771
		c1.387-0.602,5.721-1.744,9.505-4.65c1.956-1.502,3.766-3.478,4.945-6.094c0.719-1.6,2.733-0.573,1.598,1
		c-1.964,2.716-5.238,5.16-8.548,6.934C11.296,41.421,8.562,42.428,6.508,42.771z"/>
	<path fill="none" stroke="#000000" stroke-width="0.5" stroke-linecap="round" stroke-linejoin="round" stroke-miterlimit="10" d="
		M23.84,17.303c0,0-0.003-0.008-0.006-0.025c-0.092-0.404-1.266-5.513-2.131-6.57c-0.897-1.096-2.68,6.673-2.913,7.205l-0.003,0.003
		c0,0.003-0.002,0.003-0.002,0.006"/>
	<path fill="none" stroke="#000000" stroke-width="0.5" stroke-linecap="round" stroke-linejoin="round" stroke-miterlimit="10" d="
		M23.041,20.177c0.244-1.461,1.025-2.786,1.122-2.945c0.008-0.012,0.011-0.017,0.011-0.017"/>
	<path fill="none" stroke="#000000" stroke-width="0.5" stroke-linejoin="round" stroke-miterlimit="10" d="M26.071,19.02
		c-0.41-1.563,1.175-4.128,3.551-5.897c0.524,0.94,0.599,7.438,1.147,9.015C29.529,22.064,26.762,21.645,26.071,19.02z"/>
	<path fill="none" stroke="#000000" stroke-width="0.5" stroke-linecap="round" stroke-linejoin="round" stroke-miterlimit="10" d="
		M2.567,38.924c0,0,2.306-2.644,2.24-3.42c-0.017-0.197-0.073-0.424-0.168-0.651c-0.278-0.675-0.889-1.377-1.792-1.471
		c-0.223-0.022-0.439-0.017-0.642,0.022c-0.497,0.099-0.894,0.405-1.021,0.981c-0.07,0.308-0.083,0.632-0.054,0.958
		C1.28,37.072,2.567,38.924,2.567,38.924z"/>
	<circle stroke="#000000" stroke-width="0.5" stroke-miterlimit="10" cx="15.91" cy="24.075" r="0.668"/>
	<circle stroke="#000000" stroke-width="0.5" stroke-miterlimit="10" cx="12.212" cy="21.949" r="0.556"/>
	<path d="M29.639,13.087c0,0-0.156,0.143-0.414,0.403c-0.257,0.261-0.619,0.638-1.019,1.115c-0.396,0.478-0.835,1.055-1.202,1.722
		c-0.185,0.332-0.343,0.689-0.466,1.06c-0.125,0.37-0.201,0.758-0.206,1.145c-0.002,0.192,0.002,0.388,0.035,0.573l0.025,0.154
		l0.034,0.129c0.017,0.086,0.054,0.175,0.083,0.263c0.13,0.349,0.339,0.659,0.59,0.921c0.509,0.523,1.162,0.844,1.73,1.066
		c0.576,0.217,1.084,0.339,1.441,0.415c0.358,0.075,0.567,0.103,0.567,0.103s-0.21,0.021-0.581,0.01
		c-0.37-0.014-0.902-0.054-1.527-0.217c-0.312-0.081-0.647-0.191-0.986-0.356c-0.338-0.163-0.688-0.372-0.994-0.666
		c-0.305-0.291-0.587-0.651-0.748-1.077c-0.039-0.107-0.083-0.21-0.109-0.328l-0.045-0.172l-0.027-0.155
		c-0.041-0.226-0.055-0.451-0.049-0.678c0.013-0.453,0.109-0.896,0.253-1.305c0.144-0.411,0.344-0.787,0.555-1.133
		c0.211-0.348,0.451-0.657,0.686-0.939c0.235-0.283,0.478-0.531,0.708-0.752c0.459-0.443,0.88-0.765,1.181-0.98
		C29.456,13.192,29.639,13.087,29.639,13.087z"/>
	<circle fill="#26221F" cx="7.099" cy="41.589" r="0.141"/>
	<circle fill="#26221F" cx="5.613" cy="40.903" r="0.141"/>
	<circle fill="#26221F" cx="7.505" cy="40.176" r="0.141"/>
	<circle fill="#26221F" cx="11.647" cy="39.211" r="0.141"/>
	<circle fill="#26221F" cx="10.11" cy="40.215" r="0.141"/>
	<circle fill="#26221F" cx="8.638" cy="40.796" r="0.141"/>
	<circle fill="#26221F" cx="4.406" cy="40.073" r="0.141"/>
	<circle fill="#26221F" cx="6.019" cy="39.56" r="0.141"/>
	<circle fill="#26221F" cx="11.066" cy="37.74" r="0.141"/>
	<circle fill="#26221F" cx="9.551" cy="38.954" r="0.141"/>
	<circle fill="#26221F" cx="9.372" cy="37.338" r="0.141"/>
	<circle fill="#26221F" cx="7.557" cy="38.626" r="0.141"/>
	<circle fill="#26221F" cx="13.604" cy="38.061" r="0.141"/>
	<path fill="#D1D3D4" d="M26.899,66.503c0.295,0.946,0.337,1.721,0.587,3.425c1.237,0.736,2.562,1.764,2.749,2.744
		c0.334,1.746,0.754,15.885-0.931,16.395c-0.957,0.29-1.519-0.066-2-0.497c-0.261,0.215-0.618,0.798-0.642,1.396
		c1.007,1.481,2.886,1.293,3.719,0.564c0.857-0.751,1.033-20.003,1.213-21.443C29.509,68.355,26.899,66.503,26.899,66.503z"/>
	<path d="M27.668,89.604c0,0-0.061,0.056-0.135,0.15s-0.161,0.228-0.214,0.368c-0.056,0.139-0.077,0.278-0.076,0.377
		c-0.001,0.099,0.018,0.16,0.014,0.159l-0.57-0.042c-0.004,0-0.022-0.004-0.022-0.008c0-0.001,0-0.001,0-0.002
		c0,0,0.023-0.024,0.038-0.066c0.013-0.042,0.042-0.101,0.075-0.167c0.063-0.134,0.177-0.292,0.308-0.414
		C27.347,89.707,27.668,89.604,27.668,89.604z"/>
	<path d="M28.643,90.077c0,0-0.043,0.07-0.087,0.182c-0.045,0.111-0.09,0.265-0.103,0.413c-0.015,0.149,0.004,0.289,0.033,0.384
		c0.026,0.095,0.062,0.148,0.058,0.149l-0.201,0.114c-0.004,0.001,0.333-0.001,0.333-0.005c0-0.001,0-0.002,0-0.002
		s-0.341-0.025-0.34-0.07c0-0.044-0.167-0.106-0.154-0.179c0.022-0.146-0.001-0.329,0.09-0.482
		C28.453,90.266,28.643,90.077,28.643,90.077z"/>
	<path d="M78.046,87.029c0,0-0.062,0.055-0.135,0.15c-0.075,0.094-0.161,0.228-0.215,0.367c-0.056,0.139-0.077,0.278-0.075,0.377
		c-0.002,0.099,0.018,0.16,0.014,0.16l-0.555-0.042c-0.004-0.001-0.007-0.004-0.007-0.009v-0.001c0,0,0.009-0.024,0.022-0.066
		c0.013-0.043,0.034-0.102,0.066-0.168c0.063-0.134,0.173-0.291,0.305-0.413C77.728,87.132,78.046,87.029,78.046,87.029z"/>
	<path d="M79.018,87.221c0,0-0.044,0.07-0.088,0.183c-0.045,0.111-0.09,0.264-0.103,0.412c-0.015,0.149,0.005,0.289,0.033,0.384
		c0.026,0.096,0.062,0.148,0.059,0.149l-0.499,0.115c-0.004,0.001,0.036-0.002,0.036-0.006c0-0.001,0-0.001,0-0.002
		c0,0-0.044-0.025-0.043-0.069c0.001-0.045-0.019-0.106-0.005-0.18c0.022-0.146,0.072-0.328,0.164-0.482
		C78.752,87.409,79.018,87.221,79.018,87.221z"/>
	<path d="M93.101,88.686c0,0-0.044,0.073-0.087,0.19c-0.044,0.117-0.086,0.275-0.095,0.431c-0.012,0.155,0.011,0.301,0.042,0.399
		c0.028,0.1,0.064,0.157,0.062,0.158l-0.586,0.115c-0.002,0-0.026-0.001-0.026-0.003v-0.001c0,0,0.022-0.025,0.024-0.071
		c0-0.045,0.015-0.108,0.027-0.184c0.021-0.149,0.085-0.339,0.175-0.501c0.088-0.163,0.206-0.301,0.299-0.393
		C93.027,88.734,93.101,88.686,93.101,88.686z"/>
	<path d="M94.565,88.59c0,0-0.043,0.062-0.091,0.16s-0.102,0.233-0.124,0.367c-0.025,0.134-0.017,0.26,0.006,0.342
		c0.02,0.083,0.052,0.127,0.048,0.128l-0.483,0.115c-0.013,0.003-0.026-0.005-0.029-0.019c-0.001-0.002-0.001-0.004-0.001-0.007
		c0,0,0.001-0.023,0.004-0.065c0-0.042,0.007-0.102,0.022-0.169c0.028-0.137,0.1-0.3,0.195-0.432
		C94.304,88.741,94.565,88.59,94.565,88.59z"/>
	<path fill="none" stroke="#000000" stroke-width="0.5" stroke-linecap="round" stroke-miterlimit="10" d="M21.878,29.353
		c0,0,3.629-0.375,2.744,2.982"/>
</g>
</svg>
