<?xml version="1.0" encoding="utf-8"?>
<!-- Generator: Adobe Illustrator 16.0.0, SVG Export Plug-In . SVG Version: 6.00 Build 0)  -->
<!DOCTYPE svg PUBLIC "-//W3C//DTD SVG 1.1//EN" "http://www.w3.org/Graphics/SVG/1.1/DTD/svg11.dtd">
<svg version="1.1" id="Capa_1" xmlns="http://www.w3.org/2000/svg" xmlns:xlink="http://www.w3.org/1999/xlink" x="0px" y="0px"
	 width="100px" height="100px" viewBox="0 0 100 100" enable-background="new 0 0 100 100" xml:space="preserve">
<g>
	<path fill="#855F42" stroke="#855F42" stroke-width="0.5" stroke-miterlimit="10" d="M93.083,92.022
		c0.163,0.349,0.063,0.843,0.063,0.843s-0.475-0.391-0.803-0.267c-0.084,0.185-0.063,0.834,0.286,1.543
		c-0.452,0.514-3.477,1.833-3.827,1.833c-0.349,0-1.996-0.063-2.633-1.976c-0.803,0.101-0.988,2.304-0.988,2.304
		c-1.894,0.227-3.148-0.166-4.013-1.153c-0.474,0-1.257,0.825-1.257,0.825s-0.761-1.463-0.328-2.307
		c-0.475-0.144-1.316,0.494-1.316,0.494s-0.413-1.893,0.163-3.127c0,0,7.023,2.242,9.715,0.286
		c2.716-1.976-6.729-16.143-7.162-22.643c-0.409-6.174,1.336-14.162,0.344-16.926c0.358,0.815,0.609,1.622,0.726,2.402
		c0.741,5.023,0.576,8.48,0.66,10.703c0.081,2.223,2.385,10.619,3.951,14.158C88.226,82.555,92.898,91.321,93.083,92.022z"/>
	<path fill="#AA7A54" d="M91.456,43.456c0.165,1.007-0.887,1.588-0.887,1.588s0.01,0.553,0.205,1.166
		c-0.669,0.141-1.304,0.259-1.904,0.36c-8.712,1.433-10.44-1.311-10.44-1.311c1.701-0.116,4.339-0.301,6.111-0.464
		C87.443,44.525,90.804,43.655,91.456,43.456z"/>
	<path fill="#855F42" stroke="#855F42" stroke-miterlimit="10" d="M90.774,46.209c-0.669,0.141-1.304,0.259-1.904,0.36
		c-8.712,1.433-10.44-1.311-10.44-1.311c-0.941,0.064-1.598,0.333-1.662,0.337c1.104,1.137,2.158,2.904,3.032,3.904h0.003
		c0.163,0,1.662-1.024,3.176-0.713c0.388,0.078-0.02,0.79,0.844,1.492c0.349-0.926,1.111-1.292,1.111-1.292s0.557,1.041,1.46,1.307
		c-0.124-0.842,0.393-1.639,0.393-1.639s0.719,0.692,1.995,0.858c-0.123-0.741,0.205-2.269,0.205-2.269s1.173,0.184,2.245-0.125
		C91.017,46.845,90.871,46.518,90.774,46.209z"/>
	<path fill="#AA7A54" d="M16.571,13.713c0.155-0.114,0.296-0.225,0.424-0.331c0.05-0.04,0.097-0.079,0.141-0.119
		c0.047-0.037,0.089-0.074,0.131-0.113c0.042-0.037,0.084-0.072,0.121-0.109c0.795-0.724,0.926-1.126,0.926-1.126
		c-0.205-0.489-0.689-0.83-1.252-0.83c-0.751,0-1.358,0.607-1.358,1.358c0,0.067,0.005,0.131,0.015,0.193
		c0.069,0.489,0.4,0.894,0.847,1.072L16.571,13.713z M28.149,23.411l-0.113,0.002c-2.808,3.623-6.155,4.571-9.089,4.405
		c-0.002-0.002-0.027-0.002-0.027-0.002c0.083-2.514,2.663-3.694,2.314-7.431c-0.408-4.336-8.201-4.383-8.366-4.383
		c1.025-0.548,1.953-1.054,2.351-1.375c0.118-0.094,0.188-0.173,0.201-0.229c0.123-0.576-0.125-1.81-0.001-2.551
		c0.074-0.447,1.326-2.175,3.018-3.786c0,0,0,0,0.002-0.002c0.163-0.074,7.601-3.464,14.721-0.536l0.002,0.002
		c2.521,1.901,4.467,3.941,5.964,6.067l0.002,0.002c2.739,5.51,3.867,17.523,3.218,24.524c-1.139,2.232-2.351,3.033-3.591,3.033
		c-1.894,0-7.574-3.005-8.562-5.598c0,0.956,1.18,6.159,3.771,9.907c0.659,0.958,1.413,1.82,2.259,2.492
		c0.161,0.128,0.966-0.34,0.966-0.34c0.36,0.494,0.331,1.267,0.331,1.267s0.679-0.371,0.938-1.267
		c0.791,0.773,0.791,1.936,0.791,1.936s0.002,0,0.005-0.002c0.183-0.06,5.045-1.749,7.813-7.818
		c2.635-5.776,2.139-6.619,2.062-6.705c0.331,0.242,0.669,0.467,1.005,0.669L49.949,35.8c3.422,3.329,21.139,5.136,25.777,8.857
		C76.076,44.985,76.424,45,76.768,46c-0.003,0-0.005,0-0.005,0c0.007,0,0.269,1.557,0.269,1.557l2.756,1.632
		c0,0,0.006-0.188,0.013-0.188h0.003c0.521,1,0.978,1.566,1.346,2.34c0,0,0,0.014,0.002,0.014c0.058,0.119,0.111,0.246,0.163,0.364
		c0.005,0.01,0.01,0.022,0.013,0.032c0.992,2.763-0.753,10.754-0.344,16.928c0.433,6.5,9.878,20.667,7.162,22.643
		c-2.691,1.956-9.715-0.285-9.715-0.285c0.577-1.235,5.27-2.47,5.27-2.47s-0.331-3.376-1.153-5.27
		c-0.822-1.892-7.574-6.749-10.206-7.737c-1.647-0.617-3.23-1.427-4.986-2.472c-0.795-0.469-1.625-0.988-2.512-1.556
		c-0.047-0.029-0.094-0.06-0.141-0.092c-1.472-0.973-3.447-2.874-3.447-2.874c-10.083-0.289-13.446-1.074-13.446-1.074
		s-0.864,2.141-0.494,4.61c0,0,0.289,1.771,0.825,2.963c-0.578,0.247-1.647-1.152-1.647-1.152c-1.047,0.726-0.082,5.124-0.082,5.124
		l-0.988-0.556c-0.309,1.42-1.237,15.9-1.237,15.9c-2.729,2.112-9.774,0.979-9.774,0.979c0.783-0.848,1.872-1.61,3.356-1.938
		c1.563-0.575,2.951-5.226,3.168-9.918c0.247-5.352-2.181-10.826-2.181-10.826l-0.002-0.002
		c-3.092-7.728-5.801-12.469-10.123-15.966c-0.232-0.188-0.755,0.129-1.072,0.351c-0.136,0.097-0.328,0.037-0.385-0.118
		c-0.338-0.936-0.262-1.633-0.212-1.895c0.012-0.068-0.035-0.131-0.104-0.136c-0.178-0.01-0.531,0.032-0.998,0.4
		c-0.128,0.102-0.321,0.064-0.39-0.086c-0.408-0.909,0.815-12.758-5.319-14.074c0,0-0.012-0.01-0.035-0.025
		c0.397-2.044,0.758-3.919,0.963-5.349l0.364,0.022C22.801,33.002,26,33.303,28,25.087c0-0.002,0-0.002,0-0.005
		C28,24.502,28.1,23.934,28.149,23.411z"/>
	<path fill="#AA7A54" d="M79.8,49.361c-0.007,0.005-0.013-0.15-0.013-0.15l-2.756-1.576c0,0-0.262-1.635-0.269-1.635
		c0,0,0.002,0,0.005,0C77.871,46,78.926,48.072,79.8,49.361z"/>
	<path fill="#B88862" d="M71.352,40.986c1.23,0.687,2.809,1.879,4.374,3.356c-4.638-3.721-22.354-5.213-25.777-8.542l0.185-0.108
		c0.66,0.393,1.319,0.694,1.956,0.85C55.794,37.447,67.811,39.01,71.352,40.986z"/>
	<path fill="#855F42" stroke="#855F42" stroke-width="0.5" stroke-miterlimit="10" d="M67.316,73.171c0,0,0.371,3.045,1.4,6.174
		c0,0-6.174,7.077-6.996,7.818c-0.824,0.741-7.902,1.521-8.067,1.397c-0.166-0.123-0.166-1.484-0.166-1.484
		s-0.494,0.665-0.514,1.428c-1.42,0.39-3.23,0.039-3.23,0.039s-0.146-0.75,0.267-1.378c-0.844,0.299-0.987,1.297-0.987,1.297
		l-0.783-0.104c0.062-1.481,1.257-4.413,2.939-4.972c0,0,6.877,2.297,9.224,0.815c2.346-1.481,4.035-4.156,4.035-5.927
		c0-1.743-4.586-3.389-4.729-3.438c-0.002-0.003-0.002-0.003-0.002-0.003c-0.798-1.726-1.927-3.351-2.641-3.853
		c2.796-0.22,5.466-0.311,6.878-0.034c0.257,0.168,0.512,0.331,0.758,0.491c0.047,0.032,0.094,0.063,0.141,0.092
		c0.887,0.567,1.717,1.086,2.512,1.556L67.316,73.171z"/>
	<path fill="#855F42" d="M57.065,70.982c-4.699,0.373-9.751,1.119-9.751,1.119c-0.371-2.47,0.494-4.61,0.494-4.61
		s3.363,0.785,13.446,1.074c0,0,1.976,1.901,3.447,2.874c-0.246-0.16-0.501-0.323-0.758-0.491
		C62.531,70.672,59.861,70.763,57.065,70.982z"/>
	<path fill="#AA7A54" d="M64.438,78.275c0,1.771-1.689,4.445-4.035,5.927c-2.347,1.481-9.224-0.815-9.224-0.815
		c1.682-0.558,5.016-0.178,5.016-0.178s4.146-2.889,4.415-4.563c0.158-0.99-0.267-2.43-0.901-3.808
		C59.852,74.887,64.438,76.532,64.438,78.275z"/>
	<path fill="#855F42" d="M49.129,35.022c0.077,0.086,0.573,0.929-2.062,6.705c-2.769,6.07-7.631,7.759-7.813,7.818
		c5.159-3.534,5.132-11.007,4.818-16.242c-0.082-1.355-0.18-2.563-0.215-3.512c0,0,2.475,3.193,5.263,5.223
		C49.119,35.015,49.122,35.017,49.129,35.022z"/>
	<path fill="#855F42" stroke="#855F42" stroke-width="0.5" stroke-miterlimit="10" d="M48.467,81.32
		c-0.946,0.207-1.647-0.822-1.647-0.822s-0.78,7.944,0.825,17.614c-0.331,0.289-3.17,1.566-3.788,1.319
		c-0.617-0.247-0.822-3.129-0.822-3.129s-1.193,1.729-1.153,2.963c0,0-2.593,0.699-3.458,0.494
		c-0.328-0.247-0.163-2.304-0.163-2.304s-0.825,1.316-0.988,2.139c-0.208,0.084-2.141-0.082-2.47-0.329
		c-0.331-0.247,0.205-2.141,0.205-2.141c-0.329,0.247-1.153,1.605-1.316,1.689c-0.166,0.081-1.111-0.208-1.111-0.208
		s0.437-1.748,1.83-3.247c0,0,7.045,1.134,9.774-0.979c0,0,0.928-14.48,1.237-15.9l0.988,0.556c0,0-0.966-4.398,0.082-5.124
		C46.492,73.912,47.398,79.962,48.467,81.32z"/>
	<path fill="#B38D63" d="M44.071,33.303c0.314,5.235,0.341,12.708-4.818,16.242c-0.002,0.002-0.005,0.002-0.005,0.002
		s0-1.163-0.791-1.936c-0.259,0.896-0.938,1.267-0.938,1.267s0.029-0.773-0.331-1.267c0,0-0.805,0.469-0.966,0.34
		c-0.847-0.671-1.6-1.533-2.259-2.492c2.346,1.312,6.682,1.4,8.001-4.721c0.163-0.753,0.289-1.638,0.38-2.621
		C42.943,36.941,43.521,35.368,44.071,33.303z"/>
	<path fill="#855F42" d="M43.856,29.792c0.035,0.949,0.133,2.156,0.215,3.512c-0.551,2.064-1.128,3.638-1.726,4.815
		c0.649-7.001-0.479-19.015-3.218-24.524C42.77,18.773,43.745,24.453,43.856,29.792z"/>
	<path fill="#C39A6C" d="M42.345,38.119c-0.091,0.983-0.217,1.867-0.38,2.621c-1.319,6.122-5.655,6.033-8.001,4.721
		c-2.591-3.749-3.771-8.952-3.771-9.907c0.988,2.593,6.667,5.598,8.562,5.598C39.994,41.151,41.207,40.351,42.345,38.119z"/>
	<path fill="#C39A6C" stroke="#C39A6C" stroke-width="0.5" stroke-miterlimit="10" d="M28.629,56.709
		c4.322,3.497,7.031,8.238,10.123,15.966c-0.104-0.04-3.47-1.339-7.067-2.899c-3.638-1.578-7.512-3.421-8.478-4.495
		c-0.002-0.005-0.007-0.007-0.01-0.012c-1.894-2.139-4.712-4.86-4.939-10.866c-0.121-3.171,0.96-8.655,1.857-13.276
		c0.022,0.015,0.035,0.025,0.035,0.025c6.134,1.316,4.912,13.165,5.319,14.074c0.069,0.15,0.262,0.188,0.39,0.086
		c0.467-0.368,0.82-0.41,0.998-0.4c0.069,0.005,0.116,0.067,0.104,0.136c-0.05,0.262-0.126,0.959,0.212,1.895
		c0.057,0.155,0.249,0.215,0.385,0.118C27.874,56.838,28.397,56.521,28.629,56.709z"/>
	<path fill="#855F42" stroke="#855F42" stroke-width="0.5" stroke-miterlimit="10" d="M32.662,83.133l-1.81-0.659
		c0,0-0.578,8.314-0.494,9.712c0.082,1.4,1.084,3.221,0.617,3.705c-1.153,1.194-4.899,2.882-6.381,2.388
		c-0.37-0.452-0.494-1.647-0.494-1.647s-0.617,0.906-0.657,1.853c-0.825,0.165-1.976,0-1.976,0
		c-0.124-0.452,0.163-2.655,0.163-2.655s-1.274,1.628-1.316,2.45c-1.605,0.081-2.963-0.659-2.963-0.659s-0.247-0.822,0.328-1.645
		c-0.286-0.084-1.81,1.15-1.81,1.15s0.124-1.481,1.316-2.633c-0.575-0.205-2.181,1.44-2.181,1.44s0.247-2.841,2.512-3.579
		c0,0,4.568,2.961,9.137,1.727c0,0,2.613-0.561,2.788-1.517c0.176-0.953,0.133-12.147,0.422-11.9
		c0.287,0.247,0.988,0.657,0.988,0.657s-1.42-3.21-1.41-4.773s0.462-2.181,0.669-2.798c0.205-0.618,0.02-2.554-0.669-3.211
		c-0.689-0.659-5.435-1.81-6.028-3.045l-0.002-0.002c-0.128-1.366-0.215-2.2-0.215-2.2l0.01-0.011
		c0.966,1.074,4.84,2.917,8.478,4.495l-0.01,0.186c0,0-0.247,5.598,0.329,7.739l-1.481-0.825
		C30.521,76.875,31.262,81.238,32.662,83.133z"/>
	<path fill="#B88862" stroke="#B88862" stroke-width="0.5" stroke-miterlimit="10" d="M31.84,6.579
		c0.457,0.311,0.896,0.625,1.319,0.943c-7.12-2.929-14.558,0.461-14.721,0.536c1.116-1.064,2.425-2.077,3.709-2.632
		C25.377,4.025,29.837,5.215,31.84,6.579z"/>
	<path fill="#AA7A54" d="M30.852,81.32c0,0-0.701-0.41-0.988-0.657c-0.289-0.247-0.247,10.947-0.422,11.9
		c-0.175,0.956-2.788,1.517-2.788,1.517c-4.568,1.234-9.137-1.727-9.137-1.727c1.119-0.365,3.751-0.299,4.403-0.454
		c1.03-0.247,1.82-0.772,2.099-1.729c1.05-3.613-0.099-17.286-0.605-22.678c0.593,1.235,5.339,2.386,6.028,3.045
		c0.689,0.657,0.875,2.593,0.669,3.211c-0.208,0.617-0.66,1.234-0.669,2.798S30.852,81.32,30.852,81.32z"/>
	<path fill="#614141" d="M19.097,29.258c0.682-0.022,1.386-0.114,2.04-0.292c1.672-0.449,4.652-1.358,6.789-5.554l0.224-0.002
		C28.1,23.934,28,24.502,28,25.083c0,0.002,0,0.002,0,0.005c-2,1.741-2.002,3.593-3.637,4.704c-2.029,1.378-4.02,1.645-4.02,1.645
		c-0.627,0-1.357-0.007-2.068-0.057c-1.074-0.076-2.257-0.251-3.478-0.652c0.741-0.938,1.458-1.645,1.564-1.746
		C17.074,29.184,18.055,29.3,19.097,29.258z"/>
	<path fill="#855F42" d="M24.143,29.792c1.635-1.111,2.83-2.963,3.415-4.704c-1.237,8.216-4.978,7.915-6.336,10.712l-0.143-0.022
		c0.155-1.086,0.22-1.914,0.143-2.366c-0.143-0.827-0.988-1.976-0.988-1.976S22.113,31.17,24.143,29.792z"/>
	<path fill="#855F42" d="M27.926,23.413c-2.136,4.196-5.117,5.104-6.789,5.554c-0.654,0.178-1.358,0.27-2.04,0.292
		c-0.163-0.533-0.225-1.007-0.205-1.44C21.826,27.984,25.118,27.036,27.926,23.413z"/>
	<path fill="#C39A6C" d="M21.221,20.385c0.348,3.736-2.245,4.917-2.329,7.431c-1.391-0.076-2.699-0.402-3.838-0.812l-0.007-0.013
		l-0.032-0.002c-2.373-0.862-4.005-2.077-4.082-2.133c-0.002-0.003-0.002-0.232-0.002-0.232C8.461,25.156,8.14,22,8.14,22H8.138
		c-0.114-1-0.168-1.926-0.17-1.985c0.173,0.176,0.459,0.31,0.627,0.564c0.237,0.361,0.289,0.759,0.494,1.016
		s0.998,0.399,1.205,0.276c0.205-0.124,0.852-0.717,1.141-0.789s1.25,0.146,1.852,0.037c0.561-0.099,0.892-1.115,0.605-2.031
		c-0.072-0.232-0.183-0.455-0.343-0.658c-0.178-0.232-0.415-0.431-0.724-0.577c-0.881-0.417-1.738-0.528-2.467-0.481
		c0.733-0.43,1.652-0.913,2.504-1.37C13.027,16.002,20.813,16.049,21.221,20.385z"/>
	<path fill="#C39A6C" d="M21.221,33.412c0.077,0.452,0.012,1.279-0.143,2.366c-0.205,1.43-0.566,3.304-0.963,5.349
		c-0.254-0.195-1.835-1.444-2.022-2.938c-0.205-1.627,0.309-4.877,0.124-6.751l0.005-0.057c0.711,0.05,1.385,0.057,2.013,0.057
		C20.233,31.437,21.078,32.585,21.221,33.412z"/>
	<path fill="#A87854" d="M19.097,29.258c-1.042,0.042-2.037-0.074-2.749-0.276c0.01-0.01,0.015-0.015,0.015-0.015l-1.309-1.963
		c1.139,0.41,2.447,0.736,3.838,0.812c0,0-0.002,0,0,0.002C18.873,28.251,18.935,28.725,19.097,29.258z"/>
	<path fill="#FFFFFF" d="M17.332,12.681c-0.153-0.101-0.36-0.084-0.494,0.049c-0.02,0.02-0.037,0.042-0.055,0.064
		c-0.531,0.035-0.894-0.178-0.894-0.178l-0.17,0.02c-0.01-0.062-0.015-0.126-0.015-0.193c0-0.75,0.607-1.358,1.358-1.358
		c0.563,0,1.047,0.341,1.252,0.83c0,0-0.131,0.402-0.926,1.126c0.04-0.035,0.077-0.069,0.111-0.104
		c-0.012-0.074-0.049-0.148-0.106-0.208C17.374,12.71,17.354,12.693,17.332,12.681z"/>
	<path d="M17.5,12.938c-0.035,0.035-0.071,0.069-0.111,0.104c-0.037,0.037-0.079,0.072-0.121,0.109s-0.084,0.077-0.131,0.113
		c-0.044,0.04-0.091,0.079-0.141,0.119c-0.059-0.02-0.113-0.049-0.158-0.096c-0.136-0.133-0.153-0.341-0.055-0.492
		c0.168-0.007,0.351-0.042,0.548-0.113c0.022,0.012,0.042,0.03,0.062,0.049C17.45,12.789,17.487,12.863,17.5,12.938z"/>
	<path fill="#FFFFFF" d="M17.137,13.263c0.047-0.037,0.089-0.076,0.131-0.113C17.226,13.189,17.184,13.227,17.137,13.263z"/>
	<path d="M16.838,12.73c0.133-0.133,0.341-0.15,0.494-0.049c-0.197,0.071-0.38,0.106-0.548,0.113
		C16.801,12.772,16.818,12.75,16.838,12.73z"/>
	<path fill="#D1D3D4" d="M16.838,13.286c0.044,0.047,0.099,0.077,0.158,0.096c-0.128,0.106-0.269,0.217-0.424,0.331l-0.005-0.005
		c-0.447-0.178-0.778-0.583-0.847-1.072l0.17-0.02c0,0,0.363,0.212,0.894,0.178C16.685,12.945,16.702,13.152,16.838,13.286z"/>
	<path fill="#A87854" d="M15.055,27.004l1.309,1.963c0,0-0.005,0.005-0.015,0.015c-0.343-0.097-0.622-0.215-0.807-0.343
		c-0.43-0.299-1.371-1.022-2.327-1.798l1.8,0.148C15.028,26.994,15.04,26.999,15.055,27.004z"/>
	<path fill="#A87854" d="M15.047,26.991l0.007,0.013c-0.015-0.005-0.027-0.01-0.04-0.015L15.047,26.991z"/>
	<path fill="#A87854" d="M15.015,26.989l-1.8-0.148c-0.879-0.714-1.771-1.475-2.282-1.985C11.01,24.912,12.642,26.127,15.015,26.989
		z"/>
	<path fill="#DEB6B6" d="M15.542,28.639c-0.43-0.299-1.371-1.022-2.327-1.798l-0.143-0.013c0,0-0.208,0.099-0.533,0.279
		c0.545,0.736,1.719,1.561,2.215,1.894c0.119,0.079,0.133,0.245,0.032,0.346c-0.215,0.215-0.575,0.59-0.956,1.03
		c-0.282,0.331-0.573,0.694-0.82,1.06c-1.235,1.822-0.958,2.84-1.914,4.198c-0.17,0.242-0.533,0.66-0.815,0.561
		c-0.259-0.091-1.054-2.072,0.815-5.169c-1.822,1.578-1.63,4.47-1.588,5.146c-0.783,0.121-1.707-0.539-1.707-0.539
		c0.247,0.741,0.783,1.895,2.06,2.307c0.674,0.217,2.099,0.163,2.798-0.536c0.373-0.373-0.082-2.551,0.741-4.487
		c0.321-0.76,0.85-1.533,1.371-2.19c0.741-0.938,1.472-1.645,1.578-1.746C16.005,28.885,15.727,28.767,15.542,28.639z"/>
	<path fill="#614141" d="M13.215,26.841l-0.143-0.013c0,0-0.208,0.099-0.533,0.279c-0.487,0.271-1.24,0.726-1.973,1.319
		c-0.015-0.01-0.032-0.022-0.047-0.035c0.454-1.482,0.37-3.376,0.37-3.376l-0.178-0.012c0.136-0.089,0.22-0.151,0.22-0.151
		s0,0,0.002,0.003C11.444,25.366,12.336,26.127,13.215,26.841z"/>
	<path fill="#EFD1D1" d="M14.753,29.001c-0.496-0.333-1.669-1.158-2.215-1.894c-0.487,0.271-1.24,0.726-1.973,1.319
		c-0.763,0.615-1.504,1.378-1.899,2.23c-0.996,2.151-1.111,4.237-0.865,4.978c0,0,0.924,0.66,1.707,0.539
		c-0.042-0.677-0.234-3.568,1.588-5.146c-1.869,3.097-1.074,5.078-0.815,5.169c0.282,0.099,0.645-0.319,0.815-0.561
		c0.956-1.358,0.679-2.375,1.914-4.198c0.247-0.366,0.538-0.729,0.82-1.06c0.38-0.439,0.741-0.815,0.956-1.03
		C14.887,29.246,14.872,29.081,14.753,29.001z"/>
	<path fill="#A87854" d="M10.931,24.623c0,0-0.084,0.177-0.22,0.266c-0.452,0.294-1.477,0.714-1.921,0.333
		C8.483,24.96,8.271,24,8.138,22H8.14C8.14,22,8.461,25.156,10.931,24.623z"/>
	<path fill="#59402D" d="M12.825,17.854c-0.881-0.417-1.738-0.528-2.467-0.481c-0.635,0.042-1.173,0.203-1.546,0.39
		c-0.222,0.111-0.405,0.304-0.551,0.531c0,0,0.375-0.106,0.988-0.19c1.008-0.141,2.655-0.225,4.299,0.329
		C13.371,18.2,13.134,18,12.825,17.854z"/>
	<path fill="#422F21" stroke="#422F21" stroke-width="0.5" stroke-miterlimit="10" d="M13.548,18.432
		c-1.645-0.553-3.292-0.469-4.299-0.329c-0.612,0.084-0.988,0.19-0.988,0.19c-0.126,0.195-0.222,0.417-0.294,0.637
		c0,0,0.24,0.106,0.64,0.237c1.114,0.368,3.467,0.931,5.285-0.077C13.82,18.859,13.709,18.635,13.548,18.432z"/>
	<path fill="#291D14" d="M13.892,19.091c-1.817,1.008-4.171,0.445-5.285,0.077c-0.4-0.131-0.64-0.237-0.64-0.237
		c-0.124,0.383-0.17,0.761-0.143,0.993c0.017,0.153,0.069,0.252,0.143,0.321c0.173,0.175,0.459,0.195,0.627,0.449
		c0.237,0.361,0.289,0.702,0.494,0.958s0.998,0.371,1.205,0.247c0.205-0.124,0.852-0.731,1.141-0.803s1.25,0.138,1.852,0.03
		C13.847,21.027,14.178,20.008,13.892,19.091z"/>
	<path fill="none" stroke="#000000" stroke-width="0.5" stroke-linecap="round" stroke-linejoin="round" stroke-miterlimit="10" d="
		M23.414,67.493c0.506,5.392,1.655,19.064,0.605,22.678c-0.279,0.956-1.069,1.481-2.099,1.729c-0.652,0.155-3.284,0.089-4.403,0.454
		c-2.265,0.738-2.512,3.579-2.512,3.579s1.605-1.646,2.181-1.44c-1.193,1.151-1.316,2.633-1.316,2.633s1.524-1.234,1.81-1.15
		c-0.575,0.822-0.328,1.645-0.328,1.645s1.358,0.74,2.963,0.659c0.042-0.822,1.316-2.45,1.316-2.45s-0.286,2.203-0.163,2.655
		c0,0,1.151,0.165,1.976,0c0.04-0.946,0.657-1.853,0.657-1.853s0.124,1.195,0.494,1.647c1.482,0.494,5.228-1.193,6.381-2.388
		c0.467-0.484-0.536-2.305-0.617-3.705c-0.084-1.397,0.494-9.712,0.494-9.712l1.81,0.659c-1.4-1.895-2.141-6.258-2.141-6.258
		l1.481,0.825c-0.575-2.142-0.329-7.739-0.329-7.739"/>
	<path fill="none" stroke="#000000" stroke-width="0.5" stroke-linecap="round" stroke-linejoin="round" stroke-miterlimit="10" d="
		M23.197,65.291c0,0,0.086,0.834,0.215,2.2"/>
	<path fill="none" stroke="#000000" stroke-width="0.5" stroke-linecap="round" stroke-linejoin="round" stroke-miterlimit="10" d="
		M59.708,74.838c0.635,1.378,1.06,2.817,0.901,3.808c-0.27,1.675-4.415,4.563-4.415,4.563s-3.334-0.38-5.016,0.178
		c-1.682,0.559-2.877,3.49-2.939,4.972l0.783,0.104c0,0,0.143-0.998,0.987-1.297c-0.412,0.628-0.267,1.378-0.267,1.378
		s1.81,0.351,3.23-0.039c0.02-0.763,0.514-1.428,0.514-1.428s0,1.361,0.166,1.484c0.165,0.124,7.243-0.656,8.067-1.397
		c0.822-0.741,6.996-7.818,6.996-7.818c-1.029-3.129-1.4-6.174-1.4-6.174"/>
	<path fill="none" stroke="#000000" stroke-width="0.5" stroke-linecap="round" stroke-linejoin="round" stroke-miterlimit="10" d="
		M57.065,70.982c0.714,0.502,1.843,2.127,2.641,3.853"/>
	<path fill="none" stroke="#000000" stroke-width="0.5" stroke-linecap="round" stroke-linejoin="round" stroke-miterlimit="10" d="
		M76.768,45.369c0.064-0.005,0.721-0.047,1.662-0.111c1.701-0.116,4.339-0.301,6.111-0.464c2.902-0.269,6.263-1.139,6.915-1.338
		c0.165,1.007-0.887,1.588-0.887,1.588s0.01,0.553,0.205,1.166c0.097,0.309,0.242,0.635,0.457,0.909
		c-1.072,0.309-2.245,0.124-2.245,0.124s-0.328,1.523-0.205,2.265c-1.276-0.166-1.995-0.864-1.995-0.864s-0.517,0.783-0.393,1.625
		c-0.903-0.267-1.46-1.336-1.46-1.336s-0.763,0.309-1.111,1.235c-0.864-0.701-0.456-1.526-0.844-1.605
		c-1.514-0.312-3.013,0.405-3.176,0.486"/>
	<path fill="none" stroke="#000000" stroke-width="0.5" stroke-linecap="round" stroke-linejoin="round" stroke-miterlimit="10" d="
		M14.771,30.728c1.22,0.4,2.375,0.576,3.45,0.652c0.711,0.05,1.385,0.057,2.013,0.057"/>
	<path fill="none" stroke="#000000" stroke-width="0.5" stroke-linecap="round" stroke-linejoin="round" stroke-miterlimit="10" d="
		M10.889,25.016c0,0,0.084,1.894-0.37,3.376c0.015,0.012,0.032,0.025,0.047,0.035"/>
	<path fill="none" stroke="#000000" stroke-width="0.5" stroke-linecap="round" stroke-linejoin="round" stroke-miterlimit="10" d="
		M13.215,26.841l-0.143-0.013c0,0-0.208,0.099-0.533,0.279c-0.487,0.271-1.24,0.726-1.973,1.319
		c-0.763,0.615-1.504,1.378-1.899,2.23c-0.996,2.151-1.111,4.237-0.865,4.978c0.247,0.741,0.783,1.895,2.06,2.307
		c0.674,0.217,2.099,0.163,2.798-0.536c0.373-0.373-0.082-2.551,0.741-4.487c0.321-0.76,0.85-1.533,1.371-2.19
		c0.741-0.938,1.472-1.645,1.578-1.746"/>
	<path fill="none" stroke="#000000" stroke-width="0.5" stroke-linecap="round" stroke-linejoin="round" stroke-miterlimit="10" d="
		M27.558,25.087c-0.585,1.741-1.78,3.593-3.415,4.704c-2.03,1.378-3.909,1.645-3.909,1.645s0.845,1.148,0.988,1.976
		c0.077,0.452,0.012,1.279-0.143,2.366c-0.205,1.43-0.566,3.304-0.963,5.349c-0.896,4.621-1.978,10.105-1.857,13.276
		c0.227,6.006,3.045,8.728,4.939,10.866c0.002,0.005,0.007,0.007,0.01,0.012c0.966,1.074,4.84,2.917,8.478,4.495
		c3.598,1.561,6.964,2.859,7.067,2.899"/>
	<path fill="none" stroke="#000000" stroke-width="0.5" stroke-linecap="round" stroke-linejoin="round" stroke-miterlimit="10" d="
		M27.928,23.411c-0.049,0.523-0.175,1.091-0.371,1.672"/>
	<path fill="none" stroke="#000000" stroke-width="0.5" stroke-linecap="round" stroke-linejoin="round" stroke-miterlimit="10" d="
		M10.933,24.855c0.511,0.511,1.403,1.271,2.282,1.985c0.956,0.775,1.897,1.499,2.327,1.798c0.185,0.128,0.464,0.247,0.807,0.343
		c0.711,0.202,1.707,0.318,2.749,0.276c0.682-0.022,1.386-0.114,2.04-0.292c1.672-0.449,4.652-1.358,6.789-5.554"/>
	<path fill="none" stroke="#000000" stroke-width="0.5" stroke-linecap="round" stroke-linejoin="round" stroke-miterlimit="10" d="
		M7.967,20.245c0.002,0.06,0.057,1.084,0.17,2.215c0.133,1.321,0.346,2.788,0.652,3.05c0.445,0.38,1.47-0.212,1.921-0.506
		c0.136-0.089,0.22-0.151,0.22-0.151"/>
	<path fill="none" stroke="#000000" stroke-width="0.5" stroke-linecap="round" stroke-linejoin="round" stroke-miterlimit="10" d="
		M18.436,8.06c-1.691,1.61-2.943,3.339-3.018,3.786c-0.124,0.741,0.124,1.976,0,2.551c-0.013,0.057-0.084,0.136-0.203,0.229
		c-0.397,0.321-1.329,0.828-2.354,1.375c-0.852,0.457-1.771,0.941-2.504,1.371"/>
	<path fill="none" stroke="#000000" stroke-width="0.5" stroke-linecap="round" stroke-linejoin="round" stroke-miterlimit="10" d="
		M33.159,7.522c-0.422-0.319-0.862-0.632-1.319-0.943c-2.002-1.363-6.462-2.554-9.693-1.153c-1.284,0.556-2.593,1.568-3.709,2.632"
		/>
	<path fill="none" stroke="#000000" stroke-width="0.5" stroke-linecap="round" stroke-linejoin="round" stroke-miterlimit="10" d="
		M39.125,13.592c-1.497-2.126-3.442-4.166-5.964-6.067"/>
	<path fill="none" stroke="#000000" stroke-width="0.5" stroke-linecap="round" stroke-linejoin="round" stroke-miterlimit="10" d="
		M49.119,35.015c-2.788-2.03-5.263-5.223-5.263-5.223c-0.111-5.339-1.086-11.019-4.729-16.197"/>
	<path fill="none" stroke="#000000" stroke-linecap="round" stroke-linejoin="round" stroke-miterlimit="10" d="M81.148,51.589
		c-0.368-0.772-0.825-1.089-1.346-2.089H79.8c-0.874-1-1.929-2.768-3.032-3.904c-0.344-0.355-0.691-0.812-1.042-1.141
		c-1.565-1.477-3.144-2.726-4.374-3.413c-3.541-1.976-15.558-3.567-19.262-4.473c-0.637-0.156-1.296-0.471-1.956-0.864
		c-0.335-0.202-0.674-0.321-1.005-0.563"/>
	<path fill="none" stroke="#000000" stroke-width="0.5" stroke-linecap="round" stroke-linejoin="round" stroke-miterlimit="10" d="
		M81.313,51.724c-0.052-0.119-0.105-0.24-0.163-0.358"/>
	<path fill="none" stroke="#000000" stroke-width="0.5" stroke-linecap="round" stroke-linejoin="round" stroke-miterlimit="10" d="
		M64.842,71.531c0.887,0.567,1.717,1.086,2.512,1.556c1.756,1.045,3.339,1.854,4.986,2.472c2.632,0.988,9.384,5.846,10.206,7.737
		c0.822,1.894,1.153,5.27,1.153,5.27s-4.692,1.235-5.27,2.47c-0.576,1.234-0.163,3.127-0.163,3.127s0.842-0.638,1.316-0.494
		c-0.433,0.844,0.328,2.307,0.328,2.307s0.783-0.825,1.257-0.825c0.864,0.987,2.119,1.38,4.013,1.153c0,0,0.186-2.203,0.988-2.304
		c0.637,1.913,2.284,1.976,2.633,1.976c0.351,0,3.375-1.319,3.827-1.833c-0.349-0.709-0.37-1.358-0.286-1.543
		c0.328-0.124,0.803,0.267,0.803,0.267s0.101-0.494-0.063-0.843c-0.185-0.701-4.857-9.468-6.42-13.006
		c-1.566-3.539-3.87-11.936-3.951-14.158c-0.084-2.223,0.081-5.68-0.66-10.703c-0.116-0.78-0.367-1.587-0.726-2.402"/>
	<path fill="none" stroke="#000000" stroke-width="0.5" stroke-linecap="round" stroke-linejoin="round" stroke-miterlimit="10" d="
		M38.754,72.677c0,0,2.428,5.475,2.181,10.826c-0.217,4.692-1.605,9.343-3.168,9.918c-1.484,0.328-2.573,1.091-3.356,1.938
		c-1.393,1.499-1.83,3.247-1.83,3.247s0.945,0.289,1.111,0.208c0.163-0.084,0.988-1.442,1.316-1.689c0,0-0.536,1.894-0.205,2.141
		c0.329,0.247,2.262,0.413,2.47,0.329c0.163-0.822,0.988-2.139,0.988-2.139s-0.166,2.057,0.163,2.304
		c0.865,0.205,3.458-0.494,3.458-0.494c-0.04-1.234,1.153-2.963,1.153-2.963s0.205,2.882,0.822,3.129
		c0.618,0.247,3.458-1.03,3.788-1.319c-1.605-9.67-0.825-17.614-0.825-17.614s0.701,1.029,1.647,0.822
		c-1.069-1.358-1.976-7.408-1.976-7.408s1.069,1.399,1.647,1.152c-0.536-1.192-0.825-2.963-0.825-2.963s5.052-0.746,9.751-1.119
		c2.796-0.22,5.466-0.311,6.878-0.034c0.257,0.168,0.512,0.331,0.758,0.491"/>
	<path fill="none" stroke="#000000" stroke-width="0.5" stroke-linecap="round" stroke-linejoin="round" stroke-miterlimit="10" d="
		M39.253,49.545c5.159-3.534,5.132-11.007,4.818-16.242c-0.082-1.355-0.18-2.563-0.215-3.512"/>
	<path fill="none" stroke="#000000" stroke-width="0.5" stroke-linecap="round" stroke-linejoin="round" stroke-miterlimit="10" d="
		M35.132,14.15c0,0,0.659,2.8,0.659,4.445c0,1.647-5.598,15.476-5.598,16.958c0,0.956,1.18,6.159,3.771,9.907
		c0.659,0.958,1.413,1.82,2.259,2.492c0.161,0.128,0.966-0.34,0.966-0.34c0.36,0.494,0.331,1.267,0.331,1.267
		s0.679-0.371,0.938-1.267c0.791,0.773,0.791,1.936,0.791,1.936"/>
	<path fill="none" stroke="#000000" stroke-width="0.5" stroke-linecap="round" stroke-linejoin="round" stroke-miterlimit="10" d="
		M47.808,67.491c0,0-0.864,2.141-0.494,4.61"/>
	<path fill="none" stroke="#000000" stroke-width="0.5" stroke-linecap="round" stroke-linejoin="round" stroke-miterlimit="10" d="
		M27.928,23.411c0,0,0.413-1.027,0.331-3.539"/>
	<path fill="none" stroke="#000000" stroke-width="0.5" stroke-linecap="round" stroke-linejoin="round" stroke-miterlimit="10" d="
		M7.967,20.245c0.173,0.175,0.459,0.195,0.627,0.449c0.237,0.361,0.289,0.702,0.494,0.958s0.998,0.371,1.205,0.247
		c0.205-0.124,0.852-0.731,1.141-0.803s1.25,0.138,1.852,0.03c0.561-0.099,0.892-1.119,0.605-2.035
		c-0.072-0.232-0.183-0.457-0.343-0.659C13.371,18.2,13.134,18,12.825,17.854c-0.881-0.417-1.738-0.528-2.467-0.481
		c-0.635,0.042-1.173,0.203-1.546,0.39c-0.222,0.111-0.405,0.304-0.551,0.531c-0.126,0.195-0.222,0.417-0.294,0.637
		c-0.124,0.383-0.17,0.761-0.143,0.993C7.841,20.077,7.894,20.176,7.967,20.245z"/>
	<path fill="none" stroke="#000000" stroke-width="0.5" stroke-linecap="round" stroke-linejoin="round" stroke-miterlimit="10" d="
		M16.996,13.382c-0.128,0.106-0.269,0.217-0.424,0.331c-0.368,0.276-0.815,0.583-1.356,0.914c-0.074,0.047-0.15,0.094-0.229,0.141"
		/>
	<path fill="none" stroke="#000000" stroke-width="0.5" stroke-linecap="round" stroke-linejoin="round" stroke-miterlimit="10" d="
		M17.268,13.15c-0.042,0.04-0.084,0.077-0.131,0.113"/>
	<path fill="none" stroke="#000000" stroke-width="0.5" stroke-linecap="round" stroke-linejoin="round" stroke-miterlimit="10" d="
		M16.566,13.708c-0.447-0.178-0.778-0.583-0.847-1.072c-0.01-0.062-0.015-0.126-0.015-0.193c0-0.75,0.607-1.358,1.358-1.358
		c0.563,0,1.047,0.341,1.252,0.83c0,0-0.131,0.402-0.926,1.126"/>
	<path fill="none" stroke="#000000" stroke-width="0.5" stroke-miterlimit="10" d="M17.332,12.681
		c-0.153-0.101-0.36-0.084-0.494,0.049c-0.02,0.02-0.037,0.042-0.055,0.064c-0.099,0.151-0.081,0.358,0.055,0.492
		c0.044,0.047,0.099,0.077,0.158,0.096c0.05-0.04,0.097-0.079,0.141-0.119c0.047-0.037,0.089-0.076,0.131-0.113
		s0.084-0.072,0.121-0.109c0.04-0.035,0.077-0.069,0.111-0.104c-0.012-0.074-0.049-0.148-0.106-0.208
		C17.374,12.71,17.354,12.693,17.332,12.681z"/>
	<path fill="none" stroke="#000000" stroke-width="0.5" stroke-linecap="round" stroke-linejoin="round" stroke-miterlimit="10" d="
		M18.216,31.437c0.185,1.874-0.329,5.124-0.124,6.751c0.188,1.494,1.768,2.744,2.022,2.938c0.022,0.015,0.035,0.025,0.035,0.025"/>
	
		<line fill="none" stroke="#000000" stroke-width="0.5" stroke-linecap="round" stroke-linejoin="round" stroke-miterlimit="10" x1="10.931" y1="24.853" x2="10.933" y2="24.855"/>
	
		<line fill="none" stroke="#000000" stroke-width="0.5" stroke-linecap="round" stroke-linejoin="round" stroke-miterlimit="10" x1="23.414" y1="67.493" x2="23.412" y2="67.491"/>
	
		<line fill="none" stroke="#000000" stroke-width="0.5" stroke-linecap="round" stroke-linejoin="round" stroke-miterlimit="10" x1="59.708" y1="74.838" x2="59.706" y2="74.835"/>
	
		<line fill="none" stroke="#000000" stroke-width="0.5" stroke-linecap="round" stroke-linejoin="round" stroke-miterlimit="10" x1="81.15" y1="51.365" x2="81.148" y2="51.362"/>
	<path fill="none" stroke="#000000" stroke-width="0.5" stroke-linecap="round" stroke-linejoin="round" stroke-miterlimit="10" d="
		M81.326,51.753c-0.003-0.01-0.008-0.02-0.013-0.029"/>
	<path fill="none" stroke="#000000" stroke-width="0.5" stroke-linecap="round" stroke-linejoin="round" stroke-miterlimit="10" d="
		M64.701,71.439c0.047,0.032,0.094,0.063,0.141,0.092"/>
	<path d="M26.17,92.659c-0.022,0-0.045-0.004-0.067-0.011c-0.02-0.006-2.003-0.613-3.928-0.538
		c-0.144,0.004-0.251-0.101-0.256-0.237s0.101-0.251,0.237-0.257c2.011-0.079,4.01,0.534,4.094,0.561
		c0.13,0.04,0.203,0.179,0.163,0.309C26.378,92.594,26.278,92.662,26.17,92.659z"/>
	<path d="M9.86,38.058c-0.051,0-0.098-0.033-0.113-0.084c-1.363-4.649,1.244-7.013,1.27-7.037c0.049-0.043,0.124-0.039,0.167,0.011
		c0.043,0.049,0.038,0.123-0.01,0.166c-0.026,0.022-2.519,2.295-1.2,6.793c0.018,0.063-0.018,0.128-0.08,0.146
		C9.883,38.056,9.871,38.058,9.86,38.058z"/>
	<path d="M38.722,72.99c-0.1,0-0.194-0.061-0.231-0.159c-1.387-3.671-4.268-8.789-4.296-8.84c-0.067-0.119-0.025-0.27,0.093-0.337
		c0.119-0.067,0.27-0.024,0.337,0.094c0.029,0.052,2.928,5.202,4.328,8.908c0.048,0.128-0.016,0.271-0.144,0.318
		C38.781,72.985,38.751,72.99,38.722,72.99z"/>
	<path d="M42.952,93.998c-0.03,0-0.06-0.006-0.089-0.017c-1.734-0.671-5.037-0.318-5.07-0.314c-0.136,0.015-0.257-0.083-0.272-0.219
		c-0.015-0.136,0.083-0.257,0.219-0.272c0.141-0.015,3.457-0.368,5.302,0.345c0.127,0.049,0.19,0.191,0.141,0.319
		C43.144,93.938,43.051,93.998,42.952,93.998z"/>
	<path d="M58.427,83.976c-0.03,0-0.062-0.006-0.091-0.018c-0.982-0.393-2.152-0.502-2.164-0.503
		c-0.136-0.013-0.235-0.133-0.224-0.269c0.013-0.136,0.129-0.237,0.269-0.224c0.05,0.005,1.252,0.116,2.302,0.536
		c0.127,0.051,0.188,0.194,0.138,0.321C58.618,83.917,58.525,83.976,58.427,83.976z"/>
	<path d="M29.534,19.75c-0.102,0-0.197-0.063-0.233-0.165c-0.354-0.999-1.608-0.578-1.662-0.559
		c-0.129,0.044-0.27-0.023-0.314-0.152c-0.045-0.129,0.023-0.27,0.152-0.314c0.612-0.212,1.877-0.305,2.29,0.861
		c0.045,0.128-0.022,0.27-0.151,0.315C29.589,19.746,29.562,19.75,29.534,19.75z"/>
	<path fill="#D1D3D4" d="M23.854,13.192c0.054,0.146,0.084,0.301,0.084,0.464c0,0.75-0.61,1.358-1.358,1.358
		c-0.576,0-1.067-0.355-1.265-0.862C21.396,14.18,23.041,14.728,23.854,13.192z"/>
	<path fill="#FFFFFF" d="M22.58,12.298c0.585,0,1.086,0.373,1.274,0.894c-0.813,1.536-2.457,0.988-2.539,0.96
		c-0.062-0.153-0.094-0.321-0.094-0.496C21.221,12.908,21.829,12.298,22.58,12.298z"/>
	<path fill="none" stroke="#000000" stroke-width="0.5" stroke-linecap="round" stroke-linejoin="round" stroke-miterlimit="10" d="
		M23.854,13.192c0.054,0.146,0.084,0.301,0.084,0.464c0,0.75-0.61,1.358-1.358,1.358c-0.576,0-1.067-0.355-1.265-0.862
		c-0.062-0.153-0.094-0.321-0.094-0.496c0-0.749,0.607-1.358,1.358-1.358C23.165,12.298,23.666,12.671,23.854,13.192z"/>
	<path d="M22.281,13.995c-0.199-0.199-0.522-0.199-0.722,0c-0.199,0.199-0.199,0.523,0,0.722c0.097,0.097,0.225,0.149,0.361,0.149
		s0.265-0.053,0.361-0.149c0.097-0.097,0.149-0.225,0.149-0.361C22.43,14.22,22.377,14.092,22.281,13.995z"/>
	<path d="M15.169,7.771c-0.028,0-0.058-0.005-0.086-0.016c-0.127-0.048-0.192-0.189-0.145-0.317
		c0.212-0.573,0.963-1.555,2.275-1.181c0.131,0.038,0.207,0.174,0.169,0.305c-0.038,0.131-0.175,0.206-0.305,0.17
		c-1.202-0.344-1.658,0.828-1.677,0.878C15.364,7.71,15.27,7.771,15.169,7.771z"/>
	<path d="M27.806,9.829c-0.012,0-0.025-0.001-0.038-0.003c-0.135-0.021-0.228-0.147-0.207-0.282
		c0.057-0.369,0.003-0.657-0.161-0.854c-0.29-0.351-0.871-0.373-1.061-0.38c-0.054-0.002-0.091-0.005-0.106-0.009
		c-0.134-0.027-0.221-0.157-0.193-0.291c0.026-0.129,0.148-0.215,0.276-0.196l0.041,0.001c0.246,0.009,0.993,0.037,1.424,0.559
		c0.257,0.311,0.347,0.729,0.268,1.244C28.031,9.742,27.926,9.829,27.806,9.829z"/>
	<path d="M64.1,71.249c-0.049,0-0.099-0.015-0.142-0.045c-2.237-1.574-4.906-4.556-5.019-4.682c-0.091-0.102-0.082-0.258,0.02-0.349
		c0.103-0.091,0.258-0.082,0.35,0.02c0.026,0.03,2.743,3.066,4.934,4.607c0.111,0.078,0.138,0.232,0.06,0.344
		C64.254,71.213,64.177,71.249,64.1,71.249z"/>
	<path fill="none" stroke="#000000" stroke-width="0.5" stroke-linecap="round" stroke-linejoin="round" stroke-miterlimit="10" d="
		M83.699,88.565c0,0,1.432-0.324,2.857,0.123"/>
</g>
</svg>
