<?xml version="1.0" encoding="utf-8"?>
<!-- Generator: Adobe Illustrator 16.0.0, SVG Export Plug-In . SVG Version: 6.00 Build 0)  -->
<!DOCTYPE svg PUBLIC "-//W3C//DTD SVG 1.1//EN" "http://www.w3.org/Graphics/SVG/1.1/DTD/svg11.dtd">
<svg version="1.1" id="Capa_1" xmlns="http://www.w3.org/2000/svg" xmlns:xlink="http://www.w3.org/1999/xlink" x="0px" y="0px"
	 width="100px" height="100px" viewBox="0 0 100 100" enable-background="new 0 0 100 100" xml:space="preserve">
<g>
	<path fill="#FFFFFF" d="M14.409,9.752c1.949-0.727,3.349,0.255,1.791,1.508c-1.932,1.556-3.96,2.735-4.902,7.875
		c-0.382,2.073,1.041,3.791,1.536,4.314c-5.768,2.181-8.401,0.928-8.512,0.871c0.127-0.306,0.229-0.622,0.266-0.88
		c0.02-0.133,0.023-0.249,0.006-0.339c-0.034-0.178-0.379-0.388-0.803-0.506c1.609-1.428,4.376-3.991,5.609-5.762l0.06,0.04
		C13.795,15.221,10.353,11.26,14.409,9.752z"/>
	<path fill="#5D5C5E" d="M4.593,23.102c-0.034-0.178-0.379-0.388-0.803-0.506c-0.608-0.167-1.383-0.144-1.658,0.444
		c-0.104,0.221-0.136,0.469-0.11,0.721c0,0,0.319-0.226,0.846-0.356c0.419-0.104,0.967-0.153,1.593,0.02l0.127,0.017
		C4.607,23.308,4.61,23.192,4.593,23.102z"/>
	<path fill="#414042" stroke="#414042" stroke-miterlimit="10" d="M4.46,23.424c-0.625-0.173-1.174-0.125-1.593-0.02
		c-0.526,0.13-0.846,0.356-0.846,0.356c0.017,0.195,0.071,0.396,0.15,0.585c0.144,0.113,0.385,0.344,0.707,0.401
		C3.252,24.81,3.736,24.5,4.319,24.5c0,0,0,0,0.003,0c0.127,0,0.229-0.712,0.266-0.97L4.46,23.424z"/>
	<path fill="#CDCFD1" d="M26.007,6.027c0.385,0.257,0.651,1.109,0.908,1.963c-1.409-2.535-5.581-0.908-5.731-0.851
		c0.639-0.558,1.4-1.121,1.994-1.299C24.451,5.461,25.3,5.558,26.007,6.027z"/>
	<path fill="#BCBEC0" d="M13.165,7.337c0.308,0.314,0.467,0.577,0.467,0.577c-0.973,0.634-3.183,3.007-3.327,3.442
		c-0.362-0.687-2.577-0.707-3.564-0.54c-0.218,0.037-0.379-0.192-0.271-0.385c0.212-0.382,0.538-0.97,0.97-1.59
		C7.439,8.842,10.248,6.454,13.165,7.337z"/>
	<path fill="#CDCFD1" stroke="#CDCFD1" stroke-width="0.5" stroke-miterlimit="10" d="M13.165,7.337
		c-2.917-0.883-5.726,1.505-5.726,1.505c0.724-1.041,1.748-2.169,3.032-2.554C11.747,6.154,12.661,6.819,13.165,7.337z"/>
	<path fill="#CDCFD1" d="M15.541,8.104c-1.932,0.611-5.001,3.083-5.228,3.267c-0.003-0.002-0.005-0.008-0.008-0.014
		c0.144-0.436,2.354-2.809,3.327-3.442c1.154-0.755,5.114-1.791,6.812-0.566c0.088,0.063,0.181,0.13,0.277,0.204
		c-0.164,0.156-0.312,0.297-0.436,0.419C20.285,7.971,17.331,7.538,15.541,8.104z"/>
	<path fill="#BCBEC0" d="M10.313,11.371c-0.008,0.009-0.014,0.011-0.014,0.011c0-0.008,0.003-0.017,0.006-0.025
		C10.308,11.362,10.31,11.368,10.313,11.371z"/>
	<path fill="#CDCFD1" d="M67.429,39.896c-8.738-3.112-27.431-3.686-33.813-5.442c8.334,0.67,23.437,1.505,30.014,3.821
		C65.016,38.765,66.28,39.308,67.429,39.896z"/>
	<path fill="#939598" d="M78.167,53.166c-0.558-0.981-3.904-6.945-2.854-6.834c0.934,1.25,1.606,2.489,2.082,3.638
		C77.723,50.761,77.969,51.867,78.167,53.166z"/>
	<path fill="#FFFFFF" d="M18.816,54.481c-1.081-1.649-1.952-3.223-2.356-4.866c-0.772-3.143,0.334-18.175,0.065-24.299l0.17-0.005
		c0.523-1.96,2.75-2.328,3.824-3.983l0.11,0.073c-0.09,0.221-4.871,11.782,1.417,22.155c5.606,9.256,5.264,12.712,2.345,18.816
		c0.008-0.398,0.011-0.619,0.011-0.619c-1.25-6.637-3.995-9.253-6.153-8.792C18.454,53.344,18.644,53.858,18.816,54.481z"/>
	<path fill="#939598" d="M75.405,46.351c1.604,0.549,3.288,2.503,4.886,4.699l-0.067,0.051c0,0,1.595,8.902,10.106,10.95
		c-1.431-0.042-2.922-0.421-4.358-1.019c-4.501-1.881-7.729-7.73-7.729-7.73s-0.028-0.048-0.076-0.136
		c-0.198-1.299-0.444-2.405-0.772-3.197c-0.476-1.148-1.148-2.387-2.082-3.638C75.341,46.332,75.372,46.34,75.405,46.351z"/>
	<path fill="#BCBEC0" d="M97.009,56.192c0.065,1.338-0.588,3.165-1.875,4.277c-1.361,1.18-3.035,1.635-4.804,1.581
		c-8.512-2.048-10.106-10.95-10.106-10.95l0.067-0.051c2.076,2.852,4.009,6.107,5.432,7.208c3.553,2.743,8.078,2.271,9.725-0.529
		c1.2-2.048-0.079-4.441,0.063-4.583C95.696,52.959,96.916,54.261,97.009,56.192z"/>
	<path fill="#939598" d="M91.162,92.211c-0.399,1.205-0.993,1.986-1.508,2.073c-0.518,0.091-2.814-0.087-3.019-0.941
		c-0.082-0.348,0.179-0.772,0.532-1.186l0.127,0.006c0,0,1.414,1.038,2.359,0.425c0.546-0.354,0.269-4.416-0.133-7.989l0.809-0.09
		C90.682,87.73,91.055,91.195,91.162,92.211z"/>
	<path fill="#939598" d="M89.654,78.257c0,0,0.325,3.001,0.676,6.252l-0.809,0.09c-0.294-2.591-0.653-4.925-0.813-5.399
		c-0.376-1.132-6.506-1.746-9.145-7.827c-2.64-6.082-2.923-22.772-9.242-29.513l0.119-0.173c2.11,1.462,3.697,3.063,4.871,4.645
		c-1.05-0.11,2.297,5.853,2.854,6.834c0.77,5.026,0.823,12.93,2.246,16.604C82.203,74.39,89.654,78.257,89.654,78.257z"/>
	<path fill="#BCBEC0" d="M74.755,78.491c-0.99,2.688-1.484,7.214-1.556,8.063c-0.07,0.849,0.142,2.688,0,3.111
		c-0.142,0.425-0.777,1.202-1.697,1.556c-0.919,0.354-3.095-0.364-2.97-0.989c0.282-1.415,1.979-1.769,2.121-2.264
		s0.778-4.597,0.565-7.92c-0.777-1.98-12.375-10.042-13.719-12.306c-1.344-2.263-0.566-4.455-0.99-7.496
		c-0.425-3.041-3.111-7.496-3.111-7.496s0.064-0.06,0.189-0.161c0.146-0.063,0.288-0.119,0.424-0.17
		c3.299-1.225,9.805-1.414,10.937,1.321c1.131,2.735,1.604,7.071,2.452,9.428c0,0-0.778,3.703-0.283,5.471
		C67.612,70.407,69.946,73.399,74.755,78.491z"/>
	<path fill="#BCBEC0" d="M89.521,84.599c-0.294-2.591-0.653-4.925-0.813-5.399c-0.376-1.132-6.506-1.746-9.145-7.827
		c-2.64-6.082-2.923-22.772-9.242-29.513l0.119-0.173c-0.905-0.628-1.906-1.23-3.013-1.791c-8.738-3.112-27.431-3.686-33.813-5.442
		c-2.181-0.176-3.898-0.34-4.876-0.515c-3.677-8.486-2.829-22.064-2.829-22.064c1.587-0.212,2.453,0.848,4.102-0.283
		c0.359-0.246-1.318-0.283-2.405-1.791c-0.269-0.374-0.478-1.095-0.693-1.811c-1.409-2.535-5.581-0.908-5.731-0.851
		c-0.003,0-0.003,0.002-0.003,0.002c-0.164,0.142-0.32,0.28-0.461,0.41c-0.164,0.156-0.312,0.297-0.436,0.419
		c0,0-2.954-0.433-4.744,0.133c-1.932,0.611-5.001,3.083-5.228,3.267c-0.008,0.009-0.014,0.011-0.014,0.011
		c-0.057,0.356,0.311,3.055-0.438,4.676c-0.107,0.232-0.263,0.495-0.461,0.775l0.06,0.04c4.336-1.652,0.894-5.612,4.95-7.12
		c1.949-0.727,3.349,0.255,1.791,1.508c-1.932,1.556-3.96,2.735-4.902,7.875c-0.382,2.073,1.041,3.791,1.536,4.314
		c0.048,0.051,0.087,0.093,0.116,0.119c1.121-0.461,2.063-0.82,2.67-0.871c1.177-0.306,3.256-0.227,4.815-1.432l0.116,0.014
		c-0.011,0.017-0.02,0.034-0.031,0.048l0.11,0.073c-0.09,0.221-4.871,11.782,1.417,22.155c5.606,9.256,5.264,12.712,2.345,18.816
		c-0.003,0.297-0.009,0.696-0.017,1.177c2.365,6.849,3.428,26.138,3.298,26.876c-0.113,0.643-1.443,1.03-2.292,1.766l0.06,0.068
		c0,0,1.838,1.055,3.488,0.02C30.578,91.24,29.401,72,31.099,65h0.077c0.011,0,0.017-0.822,0.017-0.822s0.184-3.02,0.902-5.992
		l0.087,0.05c5.287,5.222,11.403-4.196,22.28-6.329c-0.396,0.276-0.696,0.524-0.874,0.675c0.146-0.063,0.288-0.115,0.424-0.166
		c3.299-1.225,9.805-1.412,10.937,1.323c1.131,2.735,1.604,7.072,2.452,9.429c0.849,2.36,2.735,6.789,5.281,9.432
		c2.546,2.64,10.936,6.317,12.634,8.863c1.696,2.546,3.64,7.092,3.207,9.241c-0.133,0.277-0.843,0.854-1.354,1.454l0.127,0.006
		c0,0,1.414,1.038,2.359,0.425C90.2,92.233,89.923,88.172,89.521,84.599z"/>
	<path fill="#939598" d="M54.462,51.921c-0.396,0.277-0.696,0.518-0.874,0.668c-3.403,1.397-9.457,5.349-13.344,8.695
		c-3.83,3.296-9.052,3.016-9.052,3.016s0.184-3.08,0.902-6.054l0.087,0.02C37.469,63.488,43.585,54.054,54.462,51.921z"/>
	<path fill="#939598" d="M31.099,65h0.077c-0.077,5-0.453,27.264-0.738,27.561c-0.597,0.623-1.211,1.697-1.875,2.025
		c-0.665,0.328-3.117,0.166-3.488-0.094c-0.371-0.261-0.637-0.938-0.187-1.73c0.125-0.221,0.297-0.405,0.495-0.578l0.06,0.072
		c0,0,1.838,1.056,3.488,0.021C30.578,91.238,29.401,72,31.099,65z"/>
	<path fill="#FFFFFF" d="M24.403,61.754c0,0-0.003,0.221-0.011,0.619c-0.085,0.176-0.17,0.352-0.258,0.532
		c-0.099-0.246-0.204-0.47-0.308-0.668c-1.598-3.013-3.505-5.459-5.01-7.756c-0.173-0.623-0.362-1.138-0.566-1.52
		C20.409,52.501,23.153,55.117,24.403,61.754z"/>
	<path fill="#FFFFFF" d="M24.134,62.905c0.088-0.181,0.173-0.356,0.258-0.532c-0.003,0.297-0.009,0.696-0.017,1.177
		C24.298,63.321,24.216,63.106,24.134,62.905z"/>
	<path fill="#939598" d="M24.134,62.905c0.082,0.201,0.164,0.416,0.241,0.645c-0.054,3.33-0.181,10.679-0.328,16.852l-0.702-0.012
		c0.158-6.249-0.133-13.45-0.263-14.91c-0.215-2.422-2.812-4.727-3.239-5.089c-0.277-2.391-0.614-4.45-1.027-5.909
		c1.505,2.297,3.412,4.743,5.01,7.756C23.931,62.436,24.036,62.659,24.134,62.905z"/>
	<path fill="#939598" d="M23.345,80.39l0.702,0.012c-0.127,5.392-0.271,9.887-0.399,10.02c-0.597,0.622-1.211,1.635-1.875,1.963
		c-0.665,0.328-3.117,0.136-3.488-0.124c-0.371-0.261-0.637-0.954-0.187-1.746c0.184-0.325,0.484-0.594,0.823-0.831l0.014,0.031
		c0,0,0.518,1.035,2.829,0.424C22.796,89.863,23.215,85.439,23.345,80.39z"/>
	<path fill="#BCBEC0" d="M23.082,65.479c0.13,1.46,0.421,8.661,0.263,14.91c-0.13,5.05-0.549,9.474-1.582,9.748
		c-2.311,0.611-2.829-0.424-2.829-0.424l-0.014-0.031c0.866-0.605,1.989-1.005,2.088-1.573c0.104-0.597,0.045-17.301-1.166-27.719
		C20.271,60.753,22.867,63.058,23.082,65.479z"/>
	<path fill="#E6E7E8" d="M20.55,21.28c-0.011,0.017-0.02,0.034-0.031,0.048c-1.075,1.655-3.301,2.022-3.824,3.983l-0.17,0.005
		c-0.065-1.544-0.221-2.523-0.515-2.6c-0.107-0.028-0.238-0.034-0.391-0.02c1.177-0.306,3.256-0.227,4.815-1.432L20.55,21.28z"/>
	<path fill="#BCBEC0" d="M12.833,23.45c0.048,0.051,0.087,0.093,0.116,0.119c-2.381,0.976-5.569,2.416-8.064,2.356
		c-0.566-0.014-0.996-0.187-1.321-0.43c0.189-0.065,0.521-0.603,0.758-1.174C4.432,24.377,7.065,25.63,12.833,23.45z"/>
	<path fill="#231F20" d="M4.319,24c-0.583,0-1.066,0.559-1.44,0.497c-0.322-0.057-0.563-0.118-0.707-0.231
		c0.266,0.65,0.837,1.231,1.363,1.194c0.009,0,0.02-0.143,0.028-0.146C3.753,25.249,4.084,25,4.322,24C4.319,24,4.319,24,4.319,24z"
		/>
	<path fill="none" stroke="#000000" stroke-width="0.5" stroke-linecap="round" stroke-linejoin="round" stroke-miterlimit="10" d="
		M75.313,46.332c0.028,0,0.06,0.008,0.093,0.02c1.604,0.549,3.288,2.503,4.886,4.699c2.076,2.852,4.009,6.107,5.432,7.208
		c3.553,2.743,8.078,2.271,9.725-0.529c1.2-2.048-0.079-4.441,0.063-4.583c0.187-0.187,1.406,1.115,1.499,3.047
		c0.065,1.338-0.588,3.165-1.875,4.277c-1.361,1.18-3.035,1.635-4.804,1.581c-1.431-0.042-2.922-0.421-4.358-1.019
		c-4.501-1.881-7.729-7.73-7.729-7.73s-0.028-0.048-0.076-0.136"/>
	<path fill="none" stroke="#000000" stroke-width="0.5" stroke-linecap="round" stroke-linejoin="round" stroke-miterlimit="10" d="
		M53.588,52.589c-0.125,0.102-0.189,0.161-0.189,0.161s2.687,4.455,3.111,7.496c0.424,3.041-0.354,5.233,0.99,7.496
		c1.344,2.264,12.941,10.325,13.719,12.306c0.213,3.323-0.424,7.425-0.565,7.92s-1.839,0.849-2.121,2.264
		c-0.125,0.625,2.051,1.344,2.97,0.989c0.92-0.354,1.556-1.131,1.697-1.556c0.142-0.424-0.07-2.263,0-3.111
		c0.071-0.849,0.565-5.375,1.556-8.063c-4.809-5.092-7.143-8.084-7.638-9.853c-0.495-1.768,0.283-5.471,0.283-5.471"/>
	<path fill="none" stroke="#000000" stroke-width="0.5" stroke-linecap="round" stroke-linejoin="round" stroke-miterlimit="10" d="
		M18.816,54.481c0.413,1.459,0.75,3.519,1.027,5.909c1.21,10.418,1.27,27.122,1.166,27.719c-0.099,0.568-1.222,0.968-2.088,1.573
		c-0.339,0.237-0.639,0.506-0.823,0.831c-0.45,0.792-0.184,1.485,0.187,1.746c0.371,0.26,2.823,0.452,3.488,0.124
		c0.665-0.328,1.278-1.341,1.875-1.963c0.127-0.133,0.271-4.628,0.399-10.02c0.147-6.173,0.274-13.521,0.328-16.852"/>
	<path fill="none" stroke="#000000" stroke-width="0.5" stroke-linecap="round" stroke-linejoin="round" stroke-miterlimit="10" d="
		M3.563,25.495c0.325,0.244,0.755,0.416,1.321,0.43c2.495,0.06,5.683-1.38,8.064-2.356c1.121-0.461,2.063-0.82,2.67-0.871
		c0.153-0.014,0.283-0.009,0.391,0.02c0.294,0.077,0.45,1.055,0.515,2.6c0.269,6.125-0.837,21.157-0.065,24.299
		c0.404,1.643,1.276,3.216,2.356,4.866c1.505,2.297,3.412,4.743,5.01,7.756c0.104,0.198,0.209,0.422,0.308,0.668
		c0.082,0.201,0.164,0.416,0.241,0.645c2.365,6.849,3.428,26.138,3.298,26.876c-0.113,0.643-1.443,1.03-2.292,1.766
		c-0.198,0.173-0.371,0.365-0.495,0.586c-0.45,0.792-0.184,1.484,0.187,1.745c0.371,0.26,2.823,0.452,3.488,0.124
		c0.665-0.328,1.278-1.341,1.875-1.963c0.286-0.297,0.662-22.545,0.738-27.439c0.011-0.604,0.017-0.944,0.017-0.944
		s5.222,0.28,9.052-3.016c3.887-3.347,9.94-7.298,13.344-8.695c0.146-0.063,0.288-0.119,0.424-0.17
		c3.299-1.225,9.805-1.414,10.937,1.321c1.131,2.735,1.604,7.071,2.452,9.428c0.849,2.359,2.735,6.789,5.281,9.432
		c2.546,2.639,10.936,6.316,12.634,8.862c1.696,2.546,3.64,7.092,3.207,9.241c-0.133,0.277-0.843,0.854-1.354,1.454
		c-0.354,0.413-0.614,0.838-0.532,1.186c0.204,0.854,2.501,1.032,3.019,0.941c0.515-0.087,1.108-0.868,1.508-2.073
		c-0.107-1.016-0.48-4.48-0.832-7.702c-0.351-3.251-0.676-6.252-0.676-6.252s-7.451-3.867-9.241-8.486
		c-1.423-3.675-1.477-11.578-2.246-16.604c-0.198-1.299-0.444-2.405-0.772-3.197c-0.476-1.148-1.148-2.387-2.082-3.638
		c-1.174-1.582-2.761-3.183-4.871-4.645c-0.905-0.628-1.906-1.23-3.013-1.791c-1.148-0.588-2.413-1.131-3.799-1.621
		c-6.577-2.316-21.68-3.151-30.014-3.821c-2.181-0.176-3.898-0.34-4.876-0.515c-3.677-8.486-2.829-22.064-2.829-22.064"/>
	<path fill="none" stroke="#000000" stroke-width="0.5" stroke-linecap="round" stroke-linejoin="round" stroke-miterlimit="10" d="
		M20.72,7.552c-0.096-0.073-0.189-0.141-0.277-0.204c-1.697-1.225-5.658-0.189-6.812,0.566c-0.973,0.634-3.183,3.007-3.327,3.442
		c-0.003,0.009-0.006,0.017-0.006,0.025c-0.057,0.356,0.311,3.055-0.438,4.676c-0.107,0.232-0.263,0.495-0.461,0.775
		c-1.233,1.771-4,4.334-5.609,5.762"/>
	<path fill="none" stroke="#000000" stroke-width="0.5" stroke-linecap="round" stroke-linejoin="round" stroke-miterlimit="10" d="
		M22.047,18.853c-0.365,1.135-0.939,1.893-1.612,2.413c-1.559,1.205-3.638,1.126-4.815,1.432c-0.028,0.005-0.054,0.011-0.079,0.02"
		/>
	<path fill="none" stroke="#000000" stroke-width="0.5" stroke-linecap="round" stroke-linejoin="round" stroke-miterlimit="10" d="
		M21.181,7.142c-0.164,0.142-0.32,0.28-0.461,0.41c-0.164,0.156-0.312,0.297-0.436,0.419c-0.252,0.249-0.408,0.416-0.408,0.416"/>
	<path fill="none" stroke="#000000" stroke-width="0.5" stroke-linecap="round" stroke-linejoin="round" stroke-miterlimit="10" d="
		M23.837,14.327c-0.071-0.011,1.146-2.328,2.073-2.452c1.587-0.212,2.453,0.848,4.102-0.283c0.359-0.246-1.318-0.283-2.405-1.791
		c-0.269-0.374-0.478-1.095-0.693-1.811c-0.257-0.854-0.523-1.706-0.908-1.963c-0.707-0.47-1.556-0.566-2.829-0.187
		c-0.594,0.178-1.355,0.741-1.994,1.299"/>
	<path fill="none" stroke="#000000" stroke-width="0.5" stroke-linecap="round" stroke-linejoin="round" stroke-miterlimit="10" d="
		M13.631,7.914c0,0-0.159-0.263-0.467-0.577c-0.503-0.518-1.417-1.183-2.693-1.049C9.187,6.672,8.163,7.801,7.439,8.842
		c-0.433,0.62-0.758,1.208-0.97,1.59c-0.107,0.192,0.054,0.421,0.271,0.385c0.987-0.167,3.202-0.147,3.564,0.54
		c0.003,0.006,0.005,0.012,0.008,0.014c0.006,0.014,0.011,0.028,0.017,0.042"/>
	<path fill="none" stroke="#000000" stroke-width="0.5" stroke-linecap="round" stroke-linejoin="round" stroke-miterlimit="10" d="
		M3.563,25.495C3.555,25.498,3.544,25.5,3.535,25.5c-0.526,0.037-1.097-0.503-1.363-1.154c-0.079-0.189-0.133-0.39-0.15-0.585
		c-0.025-0.252,0.006-0.5,0.11-0.721c0.274-0.588,1.049-0.611,1.658-0.444c0.424,0.119,0.77,0.328,0.803,0.506
		c0.017,0.091,0.014,0.207-0.006,0.339c-0.037,0.258-0.138,0.574-0.266,0.88C4.084,24.892,3.753,25.43,3.563,25.495z"/>
	<path fill="none" stroke="#000000" stroke-width="0.5" stroke-linecap="round" stroke-linejoin="round" stroke-miterlimit="10" d="
		M28.74,33.938c0,0,0.86,1.615,2.169,3.112"/>
	<path fill="none" stroke="#000000" stroke-width="0.5" stroke-linecap="round" stroke-linejoin="round" stroke-miterlimit="10" d="
		M32.7,56.192c-0.234,0.65-0.436,1.35-0.605,2.054c-0.719,2.974-0.902,6.054-0.902,6.054"/>
	<circle cx="13.789" cy="14.717" r="0.765"/>
	<circle cx="11.887" cy="14.686" r="0.547"/>
	<path fill="#939598" d="M72.98,86.534c0.063-0.835,0.585-5.292,1.475-7.937c-4.321-5.012-7.01-7.933-7.526-9.653
		c-0.571-1.874-0.023-4.685,0.165-5.775c-0.383-1.173-1.727-8.669-2.734-9.854c-2.935-2.881-10.248-0.837-10.561-0.472
		c0,0,2.404,4.103,3.018,7.567c2.651-0.177,6.902,1.037,7.734,2.366c1.017,1.624,0.466,4.269,1.271,6.867s7.251,7.78,7.032,9.744
		c-0.291,2.604-0.424,10.069-1.694,10.301c-0.639,0.117-1.106-0.117-1.584-0.52c-0.229,0.15-0.743,0.558-0.788,0.984
		c-0.067,0.62,1.842,1.322,2.668,0.974c0.826-0.348,1.398-1.113,1.525-1.531C73.107,89.18,72.917,87.37,72.98,86.534z"/>
	<path d="M19.339,91.055c0,0-0.077,0.051-0.162,0.151c-0.086,0.098-0.174,0.247-0.225,0.402c-0.051,0.155-0.067,0.315-0.064,0.435
		c0,0.118,0.011,0.196,0.011,0.196c0.021,0.159-0.091,0.305-0.25,0.326c-0.159,0.021-0.305-0.092-0.326-0.251
		c-0.005-0.039-0.002-0.077,0.007-0.112l0.007-0.024c0,0,0.027-0.1,0.086-0.241c0.056-0.141,0.156-0.322,0.286-0.473
		c0.131-0.15,0.288-0.267,0.414-0.328C19.25,91.072,19.339,91.055,19.339,91.055z"/>
	<path d="M20.753,91.338c0,0-0.083,0.048-0.183,0.145c-0.101,0.095-0.209,0.242-0.276,0.398c-0.07,0.157-0.094,0.321-0.096,0.443
		c-0.005,0.06,0.001,0.111,0.003,0.146c0.002,0.035,0.003,0.055,0.003,0.055l-0.563-0.062c0,0,0.008-0.025,0.023-0.072
		c0.016-0.045,0.034-0.11,0.07-0.186c0.063-0.15,0.177-0.34,0.327-0.487c0.148-0.148,0.323-0.255,0.459-0.31
		C20.659,91.352,20.753,91.338,20.753,91.338z"/>
	<path d="M26.411,93.317c0,0-0.076,0.051-0.162,0.151c-0.086,0.099-0.174,0.247-0.225,0.402c-0.051,0.156-0.067,0.315-0.064,0.435
		c0,0.118,0.011,0.196,0.011,0.196c0.021,0.159-0.091,0.306-0.25,0.326s-0.305-0.091-0.326-0.25
		c-0.005-0.039-0.002-0.077,0.007-0.113l0.006-0.024c0,0,0.027-0.1,0.086-0.241c0.056-0.141,0.156-0.322,0.286-0.472
		c0.131-0.151,0.289-0.267,0.415-0.329C26.321,93.335,26.411,93.317,26.411,93.317z"/>
	<path d="M27.826,93.601c0,0-0.083,0.048-0.183,0.145c-0.101,0.095-0.21,0.242-0.277,0.399c-0.069,0.156-0.094,0.321-0.096,0.442
		c-0.005,0.06,0.002,0.111,0.003,0.146c0.002,0.034,0.003,0.055,0.003,0.055l-0.563-0.062c0,0,0.009-0.026,0.023-0.072
		c0.016-0.046,0.034-0.111,0.07-0.186c0.063-0.15,0.177-0.341,0.327-0.487c0.148-0.149,0.323-0.256,0.459-0.31
		C27.73,93.614,27.826,93.601,27.826,93.601z"/>
	<path d="M69.974,89.923c0,0-0.076,0.051-0.161,0.151c-0.086,0.099-0.174,0.247-0.225,0.402c-0.051,0.156-0.067,0.315-0.064,0.435
		c0.001,0.118,0.011,0.196,0.011,0.196l-0.563-0.062c0,0,0.027-0.1,0.087-0.241c0.056-0.141,0.155-0.322,0.286-0.472
		c0.13-0.151,0.288-0.267,0.414-0.329C69.885,89.94,69.974,89.923,69.974,89.923z"/>
	<path d="M71.105,90.206c0,0-0.083,0.048-0.183,0.145c-0.101,0.095-0.209,0.242-0.276,0.399c-0.069,0.156-0.094,0.321-0.096,0.442
		c-0.005,0.06,0.002,0.111,0.003,0.146c0.003,0.034,0.004,0.055,0.004,0.055l-0.563-0.062c0,0,0.009-0.026,0.023-0.072
		c0.016-0.046,0.034-0.111,0.069-0.186c0.063-0.15,0.177-0.341,0.327-0.487c0.148-0.149,0.323-0.256,0.46-0.31
		C71.011,90.22,71.105,90.206,71.105,90.206z"/>
	<path d="M88.078,92.752c0,0-0.076,0.051-0.161,0.151c-0.087,0.099-0.174,0.247-0.225,0.402c-0.052,0.155-0.067,0.315-0.064,0.435
		c0,0.118,0.011,0.196,0.011,0.196l-0.563-0.062c0,0,0.027-0.1,0.086-0.241c0.057-0.142,0.156-0.322,0.286-0.473
		c0.131-0.15,0.288-0.266,0.414-0.328C87.988,92.769,88.078,92.752,88.078,92.752z"/>
	<path d="M89.492,93.035c0,0-0.083,0.048-0.183,0.145c-0.101,0.095-0.209,0.242-0.276,0.398c-0.069,0.157-0.094,0.321-0.096,0.443
		c-0.005,0.06,0.002,0.111,0.004,0.146c0.002,0.034,0.003,0.054,0.003,0.054l-0.563-0.061c0,0,0.009-0.026,0.023-0.073
		c0.016-0.045,0.034-0.11,0.07-0.186c0.063-0.15,0.177-0.34,0.327-0.487c0.148-0.149,0.322-0.255,0.459-0.31
		C89.397,93.049,89.492,93.035,89.492,93.035z"/>
	<path fill="#939598" d="M27.656,12.016c-1.909-0.636-1.556-2.027-2.688-2.546c-1.131-0.519-2.581,0.071-3.489,1.461
		c0,0,3.188,1.244,2.357,3.395c0,0,1.145-2.328,2.074-2.451c1.587-0.211,2.452,0.848,4.102-0.283"/>
	<path d="M23.838,14.609c-0.014,0-0.027-0.001-0.042-0.003c-0.14-0.021-0.246-0.147-0.245-0.288
		c0.001-0.263,1.258-2.583,2.323-2.724c0.645-0.086,1.183,0.023,1.658,0.12c0.777,0.158,1.391,0.282,2.321-0.356
		c0.129-0.088,0.305-0.056,0.394,0.073c0.088,0.129,0.055,0.305-0.074,0.394c-1.128,0.773-1.954,0.606-2.753,0.444
		c-0.453-0.092-0.921-0.187-1.471-0.114c-0.647,0.086-1.685,1.816-1.83,2.199c0,0.004,0,0.009-0.001,0.013
		C24.097,14.507,23.976,14.609,23.838,14.609z"/>
	<path d="M27.656,12.298c-0.03,0-0.06-0.004-0.089-0.015c-1.204-0.401-1.601-1.104-1.921-1.669
		c-0.223-0.395-0.398-0.707-0.795-0.888c-1.018-0.467-2.308,0.092-3.134,1.359c-0.086,0.131-0.261,0.167-0.392,0.083
		c-0.13-0.085-0.167-0.261-0.082-0.392c0.984-1.507,2.564-2.15,3.844-1.564c0.563,0.258,0.811,0.698,1.052,1.124
		c0.3,0.531,0.61,1.079,1.607,1.412c0.148,0.049,0.229,0.209,0.179,0.357C27.885,12.224,27.775,12.298,27.656,12.298z"/>
</g>
</svg>
