<?xml version="1.0" encoding="utf-8"?>
<!-- Generator: Adobe Illustrator 16.0.0, SVG Export Plug-In . SVG Version: 6.00 Build 0)  -->
<!DOCTYPE svg PUBLIC "-//W3C//DTD SVG 1.1//EN" "http://www.w3.org/Graphics/SVG/1.1/DTD/svg11.dtd">
<svg version="1.1" id="Capa_1" xmlns="http://www.w3.org/2000/svg" xmlns:xlink="http://www.w3.org/1999/xlink" x="0px" y="0px"
	 width="100px" height="100px" viewBox="0 0 100 100" enable-background="new 0 0 100 100" xml:space="preserve">
<g>
	<path fill="none" stroke="#000000" stroke-width="0.5" stroke-linecap="round" stroke-linejoin="round" stroke-miterlimit="10" d="
		M15.807,83.033c0,0,2.778-0.485,4.24,1.071"/>
	<path fill="none" stroke="#000000" stroke-width="0.5" stroke-linecap="round" stroke-linejoin="round" stroke-miterlimit="10" d="
		M46.484,88.136c0,0,2.656-0.636,4.778,0.685"/>
	<path fill="none" stroke="#000000" stroke-width="0.5" stroke-linecap="round" stroke-linejoin="round" stroke-miterlimit="10" d="
		M62.779,75.239c0,0,1.687-0.235,3.007,0.566"/>
	<path fill="none" stroke="#000000" stroke-width="0.5" stroke-linecap="round" stroke-linejoin="round" stroke-miterlimit="10" d="
		M90.369,79.641c0,0,2.53-1.101,4.275,0.503"/>
	<path fill="#E8C8BC" d="M7.127,29.784c-0.536,0.551-0.928,1.571-0.947,1.626c0,0,0,0-0.002,0c-0.021,0.005-0.04,0.011-0.059,0.019
		c-0.698-2.477,1.62-4.934,1.62-4.934l-0.026-0.043c0.275-0.166,0.592-0.324,0.943-0.462c-0.196,0.208-0.391,0.447-0.585,0.72
		c-0.045,0.064-0.013,0.155,0.063,0.176c0,0,0.428,0.648,0,1.679c-0.117,0.128-0.187,0.256-0.147,0.394
		c0.2,0.696,1.687,1.015,1.687,1.015s1.332,0,1.854-0.441c0,0-0.215-0.349-0.381-0.762c0.409,0.733,0.716,0.654,0.924,0.062
		c-0.026,0.142-0.057,0.277-0.086,0.398c0,0,1.35,0.277,1.745-0.709c0.208-0.519,0.06-1.27-0.209-1.941
		c-0.117-0.291-0.258-0.566-0.404-0.802c0.017-0.011,0.036-0.022,0.053-0.036c0.281,0.079,0.563,0.179,0.847,0.3l-0.051,0.123
		c0,0,3.253,3.961-0.377,8.205l-0.034-0.007c0.051-0.215,0.081-0.334,0.081-0.334c-0.025-0.04-0.051-0.077-0.08-0.115
		c-0.051-0.079-0.107-0.156-0.166-0.23l0.038-0.028c0.441-0.918,0.228-2.008,0.228-2.008c-0.166,0.643-0.907,1.328-0.907,1.328
		c-1.569-1.456-3.786-1.856-5.379-1.76l-0.005-0.098C7.016,30.695,7.127,29.784,7.127,29.784z"/>
	<path fill="#292B42" d="M13.493,26.588c-0.317,0.739-0.76,1.222-1.252,1.528c-0.047,0.285-0.104,0.526-0.17,0.715
		c0.128-0.692,0.149-1.505-0.7-1.373c-0.586,0.09-0.449,0.756-0.224,1.311c-0.038-0.066-0.076-0.14-0.115-0.221
		c-1.279,0.19-2.49-0.31-2.49-0.31l-0.03-0.032c0.119-0.113,0.225-0.23,0.281-0.356c0.277-0.615-0.351-0.877-0.658-0.966
		c-0.076-0.021-0.108-0.111-0.063-0.176c0.194-0.273,0.389-0.513,0.585-0.72c0.149-0.161,0.3-0.302,0.449-0.428
		c0.042-0.034,0.083-0.068,0.123-0.098l0.021,0.026c0,0,1.747,1.722,3.867,0.289c0.146,0.236,0.287,0.511,0.404,0.802L13.493,26.588
		z"/>
	<path fill="#1B1D32" d="M8.542,28.239c0,0,1.211,0.5,2.49,0.31c0.04,0.081,0.077,0.154,0.115,0.221
		c0.166,0.413,0.381,0.762,0.381,0.762c-0.522,0.441-1.854,0.441-1.854,0.441s-1.486-0.319-1.687-1.015
		c-0.04-0.138,0.03-0.266,0.147-0.394c0.105-0.117,0.249-0.234,0.377-0.356L8.542,28.239z"/>
	<path fill="#1B1D32" d="M13.52,26.579c0.27,0.671,0.417,1.422,0.209,1.941c-0.395,0.986-1.745,0.709-1.745,0.709
		c0.03-0.121,0.06-0.256,0.086-0.398c0.066-0.188,0.123-0.43,0.17-0.715c0.492-0.306,0.936-0.789,1.252-1.528L13.52,26.579z"/>
	<path d="M12.071,28.831c-0.208,0.592-0.515,0.671-0.924-0.062c-0.225-0.555-0.362-1.221,0.224-1.311
		C12.22,27.326,12.199,28.139,12.071,28.831z"/>
	<path fill="#AB7843" d="M11.15,24.072c-0.621,0.006-1.203,0.051-1.728,0.119c-0.047,0.005-0.094,0.011-0.142,0.019
		c-0.107,0.013-0.215,0.03-0.317,0.047c-0.086,0.011-0.169,0.026-0.251,0.042c-0.06,0.009-0.119,0.019-0.175,0.03
		c-0.059,0.011-0.115,0.022-0.169,0.034c-0.072,0.013-0.14,0.026-0.208,0.042c-0.875,0.187-1.411,0.381-1.411,0.381
		c-0.26,0.085-0.59,0.164-0.975-0.007C5.669,24.73,5.484,24.544,5.3,24.274c0.188-0.051,2.691-0.724,5.636-0.683
		C11.022,23.816,11.105,23.987,11.15,24.072z"/>
	<path fill="#D2A06B" d="M8.84,25.294c0.391,0,0.706-0.317,0.706-0.705c0-0.149-0.045-0.285-0.123-0.398
		c0.524-0.068,1.107-0.113,1.728-0.119c0.92-0.007,1.922,0.076,2.94,0.319c0.559,0.132,1.121,0.313,1.677,0.553
		c-0.155,0.13-0.257,0.322-0.257,0.54c0,0.39,0.317,0.705,0.708,0.705c0.372,0,0.673-0.289,0.7-0.652
		c0.926,0.556,1.814,1.311,2.61,2.314l0.066-0.038c-1.292-2.313-3.461-3.431-5.723-3.91c-0.798-1.605-0.232-2.654,0.489-3.288
		c3.41-0.085,7.143-0.545,8.722,2.652c-0.334-1.354-1.057-2.577-2.079-3.073c-1.692-0.822-3.282-0.553-5.198-0.403
		c0.666-4.427,6.882-5.462,7.92-6.594c0.332-0.362,0.413-0.781,0.37-1.185l0.479-0.053l0.017-0.021l0.526-0.583
		c0,0,0.002,0,0.002-0.002c3.227-1.963,4.217,1.832,4.076,4.943c-0.026,0.585-0.081,1.198-0.136,1.8
		c-0.126,1.401-0.262,2.733-0.076,3.463c0,0-0.853,1.133-1.769,5.783c-1.175,5.96-7.06,4.299-8.337,3.861
		c-1.415-2.873-3.148-4.427-4.862-5.163c-0.283-0.121-0.566-0.221-0.847-0.3c-0.017,0.013-0.036,0.024-0.053,0.036
		c-0.154-0.252-0.315-0.458-0.456-0.584c-0.458-0.408-1.888-0.938-3.431,0.27c-0.04,0.03-0.081,0.064-0.123,0.098L8.84,25.294z"/>
	<path fill="#E6B888" d="M6.933,20.198c0.115-0.042,0.245-0.085,0.392-0.126c0.017-0.005,0.032-0.009,0.049-0.013
		c0.059-0.015,0.09-0.021,0.09-0.021s0.002-0.001,0.006-0.005l0.002-0.002c1.019-0.273,2.731-0.517,5.313-0.243
		c0.458,0.049,0.894,0.07,1.315,0.072c0,0.011,0.003,0.022,0.005,0.034c-1.418-0.038-2.292,0.24-2.808,0.669
		C8.083,20.46,5.503,20.507,4.8,22.16c0.353-1.063,1.305-1.628,1.971-1.899c0.019-0.01,0.042-0.017,0.062-0.025
		C6.865,20.223,6.899,20.211,6.933,20.198z"/>
	<path fill="#AB7843" d="M97.159,80.395c0,0-0.188,2.075-0.504,2.768c-0.313,0.689-0.69,0.816-3.395,1.132
		c-2.703,0.313-4.904-0.881-4.904-0.881c-0.188-0.44-0.156-0.896-0.002-1.334c0.292,0.077,6.14,1.586,7.226-1.581
		c0,0-4.547-13.269-4.919-19.763c-0.369-6.496-1.217-21.653-7.805-30.469l0.043-0.038c1.306,1.464,2.545,3.207,3.697,5.276
		c4.589,8.237,4.966,18.107,5.407,24.016C92.443,65.432,97.159,80.395,97.159,80.395z"/>
	<path fill="#D2A06B" d="M57.537,62.599c0.098,1.753-0.113,3.588-0.113,3.588c-0.034,0.15-0.066,0.304-0.099,0.454l-0.152-0.031
		c-8.063-3.396-10.61-19.381-9.761-26.452c0.849-7.073-1.131-12.448-1.131-12.448l-0.083-0.238c0.777-0.271,1.707-0.564,2.746-0.86
		c0.007-0.002,0.013-0.004,0.021-0.006c3.282-0.747,22.998-4.862,31.975,1.869l0.1-0.111c0.634,0.564,1.255,1.185,1.861,1.865
		l-0.043,0.038c6.588,8.816,7.436,23.973,7.805,30.469c0.372,6.494,4.919,19.763,4.919,19.763c-1.086,3.167-6.934,1.658-7.226,1.581
		c0.458-1.307,2.015-2.438,2.015-2.438c-0.063-2.013-0.566-4.023-2.39-10.012c-1.138-3.734-3.742-8.847-6.519-12.439
		c2.678-6.071,0.584-14.64-1.232-15.617c-1.839-0.99-4.81-0.283-5.092,4.525c-0.192,3.267-1.95,6.143-3.058,7.65
		C67.154,55.854,60.617,61.689,57.537,62.599z"/>
	<path fill="#F1F2F2" d="M80.229,41.572c1.816,0.977,3.91,9.546,1.232,15.617c-1.673-2.167-3.408-3.78-4.923-4.206
		c-0.435-0.123-0.998-0.064-1.658,0.136l-0.04-0.125c-0.824,0.048-1.76,0.323-2.761,0.753c1.107-1.507,2.865-4.383,3.058-7.65
		C75.419,41.289,78.39,40.582,80.229,41.572z"/>
	<path fill="#E6B888" d="M78.522,26.443c0.854,0.553,1.695,1.188,2.516,1.92l-0.1,0.111c-8.977-6.731-28.692-2.616-31.975-1.869
		c6.261-1.784,16.487-3.78,21.161-3.172c0.472,0.06,0.943,0.138,1.412,0.23c0.004,0,0.01,0.002,0.016,0.002
		C73.92,24.127,76.273,24.991,78.522,26.443z"/>
	<path fill="#F1F2F2" d="M78.519,22.037c1.021-0.223,1.652,1.243,1.211,2.69l-0.079-0.025c-1.044,0.907-5.746-1.148-6.107-1.311
		l-0.032-0.14C75.578,22.769,78.519,22.037,78.519,22.037z"/>
	<path fill="#D1D3D4" d="M73.543,23.392c0.361,0.162,5.063,2.218,6.107,1.311l0.079,0.025c-0.188,0.62-0.571,1.235-1.207,1.716
		c-2.249-1.453-4.603-2.316-6.97-2.778c0.142,0,0.945-0.176,1.958-0.413L73.543,23.392z"/>
	<path fill="#D1D3D4" d="M74.84,52.994l0.04,0.125c-1.026,0.313-2.284,0.972-3.651,1.833l-0.053-0.084c0,0,0.379-0.408,0.903-1.121
		C73.08,53.317,74.016,53.042,74.84,52.994z"/>
	<path fill="#AB7843" d="M71.176,54.868l0.053,0.084c-0.682,0.431-1.391,0.911-2.111,1.426c-2.57,1.836-5.29,4.096-7.457,5.981
		c-2.479,2.156-4.236,3.827-4.236,3.827s0.211-1.835,0.113-3.588c3.08-0.909,9.617-6.744,14.542-8.852
		C71.555,54.46,71.176,54.868,71.176,54.868z"/>
	<path fill="#D1D3D4" d="M69.393,77.296c0.036,0.452-0.252,0.867-0.689,0.988c-1.427,0.396-3.701,1.199-4.803,1.199
		c-1.462,0-4.666-0.677-4.338-1.886c0,0,6.79,1.332,7.733-0.46c0,0,0.66-9.054,0.942-11.694c0.259-2.405-5.27-1.524-6.262-1.349
		c-0.217-1.032-0.316-1.735-0.316-1.735c2.167-1.886,4.887-4.146,7.457-5.981c-0.252,1.745,1.762,6.696,1.762,6.696
		C68.857,67.935,69.208,74.976,69.393,77.296z"/>
	<path fill="#F1F2F2" d="M61.977,64.095c0.992-0.176,6.521-1.057,6.262,1.349c-0.282,2.641-0.942,11.694-0.942,11.694
		c-0.943,1.792-7.733,0.46-7.733,0.46c0.565-2.092,3.218-2.357,3.218-2.357c1.096-1.65,1.12-5.408,1.12-5.408
		C62.929,68.042,62.313,65.679,61.977,64.095z"/>
	<path fill="#F1F2F2" d="M43.97,28.463c0.366-0.271,1.146-0.613,2.228-0.992l0.083,0.238c0,0,1.98,5.375,1.131,12.448
		c-0.849,7.071,1.698,23.057,9.761,26.452l0.152,0.031c-0.032,0.147-0.063,0.295-0.092,0.441l-0.018-0.004
		c-3.583,5.093-3.072,22.85-3.595,23.263c-3.314,2.615-9.286,0.394-10.168,0.045c0.97-1.415,3.031-2.25,3.031-2.25
		c1.509-7.664,0-18.304,0-18.304c-0.089-0.784-0.291-1.652-0.619-2.523l-0.26,0.021c-8.394,2.169-18.862-3.583-18.862-3.583
		c-0.058,0.004-0.119,0.005-0.179,0.005c-3.097,0.068-6.69-2.289-7.55-2.886c-0.77-1.025-1.555-2.067-2.354-2.959l-0.102,0.181
		c0,0,4.999,7.545,4.715,9.997c-0.283,2.452,0,17.164,0,17.164c-1.935,2.271-7.324,0.19-8.463-0.287
		c1.111-1.43,2.997-1.928,2.997-1.928c1.886-2.074,1.763-5.66,1.763-5.66c-5.028-7.482-4.519-19.619-4.519-19.619
		c-1.405-3.383-1.813-6.312-1.85-8.451c0.426,0.132,1.72,0.406,2.871-0.598c0.254-0.223,0.632-0.234,0.899-0.03
		c0.909,0.688,2.935,2.011,4.823,1.773c2.448-0.306,3.585-1.892,4.398-2.352c2.412,0.317,1.915,1.69,3.21,2.152
		c1.32,0.472,1.936-0.623,1.604-1.32c-0.909-1.907-4.487-0.977-4.91-0.86c-3.518,0.6-6.125-0.628-7.943-2.195
		c7.486-2.201,3.672-12.33,3.612-12.492l0.021-0.007c-0.283-0.796-0.586-1.517-0.909-2.169c1.277,0.438,7.162,2.099,8.337-3.861
		c0.917-4.649,1.769-5.783,1.769-5.783c0.161,0.625,0.825,0.573,1.398,0.208c2.09-1.337,4.101-2.011,4.736-2.203
		c0.185-0.057,0.355-0.144,0.506-0.26c0.447-0.347,1.249-1.132,1.316-2.273C42.336,22.654,43.97,28.463,43.97,28.463z"/>
	<path fill="#D1D3D4" d="M57.216,67.078l0.018,0.004c-1.486,7.175-1.913,14.409-1.723,19.188c0.103,2.566,0.279,4.642,0.36,5.507
		c0.028,0.283-0.122,0.549-0.375,0.678c-2.311,1.187-5.836,1.646-8.509,1.331c-1.782-0.209-3.299-1.218-3.825-1.606
		c-0.134-0.099-0.211-0.255-0.204-0.421c0.021-0.502,0.211-0.962,0.494-1.373c0.883,0.349,6.854,2.57,10.168-0.045
		C54.144,89.928,53.633,72.171,57.216,67.078z"/>
	<path fill="#D1D3D4" d="M45.865,67.309c0.328,0.871,0.53,1.739,0.619,2.523c-14.208,1.259-15.529-1.823-17.226-2.981
		c-1.071-1.142-1.96-2.17-2.694-3.1c0.061,0,0.121-0.001,0.179-0.005c0,0,10.468,5.752,18.862,3.583L45.865,67.309z"/>
	<path fill="#AB7843" d="M36.94,17.031c-0.068,1.141-0.87,1.926-1.316,2.273c-0.151,0.117-0.321,0.204-0.506,0.26
		c-0.635,0.192-2.646,0.866-4.736,2.203c-0.573,0.366-1.237,0.417-1.398-0.208c-0.187-0.73-0.051-2.062,0.076-3.463l0.042,0.003
		c0,0,6.743,2.311,7.45-2.546l0.061-0.029C36.877,16.081,36.964,16.584,36.94,17.031z"/>
	<path fill="#D2A06B" d="M26.111,10.526c0.498-0.33,1.056-0.556,1.575-0.453c1.415,0.283,5.732,1.32,8.265,4.433
		c0.291,0.356,0.505,0.698,0.66,1.02l-0.061,0.029c-0.707,4.856-7.45,2.546-7.45,2.546l-0.042-0.003
		c0.055-0.602,0.109-1.215,0.136-1.8c0.142-3.112-0.849-6.907-4.076-4.943C25.385,11.086,25.73,10.777,26.111,10.526z"/>
	<path fill="#C9A397" d="M24.193,48.096c-0.045-0.005-0.091-0.011-0.138-0.017c0,0,0.013-0.003,0.042-0.011
		c0.422-0.117,4-1.047,4.91,0.86c0.332,0.698-0.283,1.792-1.604,1.32C26.108,49.786,26.605,48.413,24.193,48.096z"/>
	<path fill="#D1D3D4" d="M26.564,63.751c0.734,0.93,1.623,1.958,2.694,3.1c-1.698-1.16-5.406-1.168-5.406-1.168
		c-1.545-0.411-3.156-2.578-4.838-4.817C19.874,61.462,23.467,63.819,26.564,63.751z"/>
	<path fill="#D2A06B" d="M26.111,10.526c-0.381,0.251-0.726,0.561-0.992,0.828c0,0.002-0.002,0.002-0.002,0.002
		c-0.277,0.279-0.47,0.513-0.526,0.583l-0.017,0.021l-0.479,0.053c-0.066-0.628-0.436-1.216-0.628-1.488
		C24.723,10.458,25.68,10.498,26.111,10.526z"/>
	<path fill="#FFFFFF" d="M25.118,11.356l-0.526,0.583C24.648,11.869,24.84,11.635,25.118,11.356z"/>
	<path fill="#D1D3D4" d="M14.636,46.186c1.407,2.011,4.198,4.246,9.419,1.894c0.047,0.006,0.092,0.012,0.138,0.017
		c-0.813,0.46-1.95,2.046-4.398,2.352c-1.888,0.238-3.914-1.084-4.823-1.773c-0.268-0.204-0.645-0.192-0.899,0.03
		c-1.151,1.003-2.444,0.73-2.871,0.598c-0.042-2.286,0.335-3.672,0.356-3.751c-0.006,0.004-0.023,0.019-0.049,0.04l-0.057-0.145
		c0.651-0.255,1.341-0.685,2.063-1.328C13.695,44.524,14.042,45.335,14.636,46.186z"/>
	<path fill="#F1F2F2" d="M24.095,12.012c0.043,0.404-0.038,0.822-0.37,1.185c-1.038,1.132-7.254,2.167-7.92,6.594
		c-0.54,0.041-1.105,0.073-1.705,0.068c-0.419-2.017,3.778-8.171,3.778-8.171l-0.057-0.185c0.221-0.07,0.439-0.136,0.66-0.196
		c0.01-0.001,0.021-0.005,0.03-0.007c1.816-0.498,3.569-0.702,4.955-0.775C23.66,10.796,24.029,11.384,24.095,12.012z"/>
	<path fill="#D1D3D4" d="M24.097,48.068c-0.028,0.008-0.042,0.011-0.042,0.011c-5.221,2.352-8.013,0.117-9.419-1.894
		c0.553-0.072,1.056-0.177,1.518-0.313C17.973,47.44,20.58,48.668,24.097,48.068z"/>
	<path fill="#D1D3D4" d="M19.014,60.865c1.682,2.239,3.293,4.406,4.838,4.817c-1.509,4.904,0,20.748,0,20.748
		c-4.704,3.317-9.65,1.226-11.379,0.399c-0.251-0.118-0.375-0.403-0.294-0.668c0.141-0.458,0.364-0.857,0.632-1.201
		c1.139,0.478,6.528,2.558,8.463,0.287c0,0-0.283-14.712,0-17.164c0.283-2.452-4.715-9.997-4.715-9.997l0.102-0.181
		C17.459,58.798,18.244,59.84,19.014,60.865z"/>
	<path fill="#E6B888" d="M21.004,20.194c1.022,0.496,1.745,1.718,2.079,3.073c-1.579-3.197-5.312-2.737-8.722-2.652
		c0.656-0.581,1.443-0.817,1.443-0.817c0-0.002,0-0.006,0.002-0.007C17.722,19.642,19.312,19.372,21.004,20.194z"/>
	<path fill="#F2D8CE" d="M19.767,33.38c0.06,0.162,3.874,10.291-3.612,12.492c-1.865-1.605-2.901-3.569-3.242-4.289
		c-0.217-2.212,0.134-4.67,0.419-6.164c0.086-0.451,0.166-0.815,0.223-1.058l0.034,0.007c3.631-4.244,0.377-8.205,0.377-8.205
		l0.051-0.123c1.714,0.735,3.448,2.29,4.862,5.163c0.323,0.652,0.626,1.373,0.909,2.169L19.767,33.38z"/>
	<path fill="#AB7843" d="M19.595,27.813l-0.066,0.038c-0.796-1.004-1.684-1.758-2.61-2.314c-0.094-0.059-0.19-0.113-0.285-0.166
		c-0.096-0.055-0.192-0.106-0.289-0.153c-0.096-0.051-0.191-0.098-0.287-0.142c-0.071-0.034-0.143-0.068-0.215-0.098
		c-0.024-0.011-0.051-0.022-0.075-0.034c-0.557-0.24-1.119-0.421-1.677-0.553l0.015-0.066c-0.088-0.146-0.166-0.287-0.234-0.422
		C16.134,24.382,18.303,25.5,19.595,27.813z"/>
	<path fill="#D2A06B" d="M16.536,10.832l0.051-0.187c0.817,0.383,1.27,0.798,1.896,0.662c-0.221,0.061-0.439,0.126-0.66,0.196
		c-0.917,0.287-1.839,0.653-2.731,1.119c-0.594,0.309-1.126,0.719-1.583,1.202l-0.063-0.061c-4.055-1.98-7.262,1.933-7.45,1.867
		c0.225-0.628,0.598-1.373,1.136-2.11C7.886,12.846,11.849,9.583,16.536,10.832z"/>
	<path fill="#D2A06B" d="M17.822,11.503l0.057,0.185c0,0-4.197,6.154-3.778,8.171c-0.421-0.002-0.856-0.023-1.315-0.072
		c-2.582-0.273-4.294-0.03-5.313,0.243c0.138-0.109,2.156-1.735,3.512-3.01c0.704-0.66,1.311-1.509,1.743-2.192
		c0.228-0.36,0.488-0.698,0.781-1.005c0.457-0.483,0.988-0.893,1.583-1.202C15.983,12.156,16.905,11.79,17.822,11.503z"/>
	<path d="M16.634,25.37c0.094,0.055,0.19,0.109,0.285,0.166c-0.026,0.364-0.328,0.652-0.7,0.652c-0.391,0-0.708-0.315-0.708-0.705
		c0-0.217,0.102-0.41,0.257-0.54c0.024,0.011,0.051,0.022,0.075,0.034c0.072,0.03,0.144,0.064,0.215,0.098
		c0.096,0.045,0.192,0.092,0.287,0.142C16.441,25.266,16.538,25.317,16.634,25.37z"/>
	<path fill="#E6B888" d="M16.586,10.645l-0.051,0.187c-4.687-1.249-8.65,2.015-9.404,2.688c1.267-1.745,3.444-3.444,6.692-3.446
		C15.121,10.073,15.96,10.349,16.586,10.645z"/>
	<path fill="#FFFFFF" d="M15.806,19.791c-0.002,0.001-0.002,0.005-0.002,0.007c0,0-0.787,0.236-1.443,0.817
		c-0.492,0.013-0.979,0.017-1.451,0.002c-0.551-0.017-1.09-0.038-1.612-0.055c0.517-0.43,1.39-0.707,2.808-0.669
		c-0.002-0.011-0.005-0.022-0.005-0.034C14.7,19.864,15.266,19.832,15.806,19.791z"/>
	<path fill="#E8C8BC" d="M16.154,45.873c-0.462,0.136-0.965,0.241-1.518,0.313c-0.594-0.851-0.941-1.662-1.121-2.067
		c-0.328-0.747-0.515-1.62-0.604-2.535C13.253,42.304,14.289,44.268,16.154,45.873z"/>
	<path fill="#D1D3D4" d="M14.106,24.325l-0.015,0.066c-1.018-0.243-2.02-0.326-2.94-0.319c-0.045-0.085-0.128-0.256-0.215-0.481
		c0.954,0.013,1.954,0.102,2.937,0.312C13.94,24.039,14.018,24.18,14.106,24.325z"/>
	<path fill="#F1F2F2" d="M12.91,20.617c0.472,0.015,0.958,0.011,1.451-0.002c-0.721,0.634-1.287,1.682-0.489,3.288
		c-0.982-0.209-1.982-0.298-2.937-0.312c-0.3-0.773-0.649-2.192,0.362-3.029C11.82,20.579,12.359,20.6,12.91,20.617z"/>
	<path fill="#FFFFFF" d="M13.655,31.646c0,0,0.213,1.09-0.228,2.008l-0.038,0.028c-0.196-0.26-0.412-0.496-0.642-0.709
		C12.748,32.973,13.489,32.289,13.655,31.646z"/>
	<path fill="#E8C8BC" d="M10.262,33.047l0.004-0.074c-0.462-0.115-3.195-0.75-4.28-0.063c-0.13,0.08-0.238,0.181-0.313,0.306
		c0,0-0.526-0.372-0.542-0.833l0.14-0.01c0,0,4.497-1.948,8.237,1.571l0.047-0.032c0.028,0.038,0.055,0.076,0.08,0.115
		c0,0-0.03,0.119-0.081,0.334c-0.057,0.243-0.136,0.607-0.223,1.058l-0.074-0.013c-5.328-2.546-7.875-1.038-7.875-1.038
		l-0.091-0.036c0.028-0.07,0.055-0.138,0.083-0.204l0.008,0.004C5.383,34.133,6.556,32.818,10.262,33.047z"/>
	<path fill="#FFE4D9" d="M6.12,31.428c0.019-0.007,0.038-0.013,0.059-0.019c0.002,0,0.002,0,0.002,0
		c0.324-0.098,0.73-0.168,1.188-0.196c1.594-0.096,3.81,0.304,5.379,1.76c0.23,0.213,0.445,0.449,0.642,0.709
		c0.058,0.074,0.115,0.151,0.166,0.23l-0.047,0.032c-3.74-3.52-8.237-1.571-8.237-1.571l-0.14,0.01
		c-0.011-0.247,0.125-0.517,0.558-0.771C5.805,31.543,5.95,31.481,6.12,31.428z"/>
	<path fill="#AB7843" d="M13.446,13.763l0.063,0.061c-0.292,0.307-0.553,0.645-0.781,1.005c0,0-1.969-1.171-3.525-0.511
		s-2.169,2.829-2.169,2.829s-1.792,0.6-1.038-1.517C6.184,15.696,9.391,11.782,13.446,13.763z"/>
	<path fill="#F2D8CE" d="M13.257,35.406l0.074,0.013c-0.285,1.494-0.636,3.952-0.419,6.164c-0.085-0.181-0.126-0.283-0.126-0.283
		c-1.633,4.041-6.086,2.282-6.862,1.939c-0.762-1.105-1.224-2.327-1.335-3.112c-0.345-2.445,0.192-4.502,0.704-5.794l0.091,0.036
		C5.383,34.369,7.929,32.86,13.257,35.406z"/>
	<path fill="#E8C8BC" d="M12.912,41.583c0.089,0.915,0.275,1.788,0.604,2.535c-0.722,0.644-1.413,1.073-2.063,1.328
		c-2.431,0.96-4.344-0.481-5.528-2.207c0.775,0.343,5.229,2.102,6.862-1.939C12.786,41.3,12.827,41.402,12.912,41.583z"/>
	<path fill="#55597D" d="M12.66,25.193c0.141,0.126,0.302,0.332,0.456,0.584c-2.12,1.434-3.867-0.289-3.867-0.289l-0.021-0.026
		C10.771,24.255,12.201,24.785,12.66,25.193z"/>
	<path fill="#C9A397" d="M11.452,45.446l0.057,0.145c-0.326,0.275-2.137,1.739-3.691,1.796c-0.949,0.034-4.172-0.417-5.279-5.366
		c0.503,0.903,1.852,2.88,3.269,1.166c0,0,0.042,0.021,0.117,0.053C7.108,44.965,9.021,46.406,11.452,45.446z"/>
	<path fill="#D2A06B" d="M10.936,23.591C7.991,23.55,5.488,24.223,5.3,24.274c-0.368-0.532-0.74-1.388-0.5-2.114
		c0.704-1.652,3.284-1.699,6.498-1.598C10.287,21.399,10.636,22.818,10.936,23.591z"/>
	<path fill="#C9A397" d="M10.266,32.973l-0.004,0.074c-3.707-0.229-4.879,1.086-4.879,1.086l-0.008-0.004
		c0.277-0.666,0.532-1.094,0.611-1.219C7.071,32.223,9.804,32.858,10.266,32.973z"/>
	<path d="M9.423,24.191c0.077,0.113,0.123,0.249,0.123,0.398c0,0.388-0.315,0.705-0.706,0.705c-0.39,0-0.705-0.317-0.705-0.705
		c0-0.064,0.011-0.126,0.026-0.185c0.068-0.015,0.136-0.028,0.208-0.042c0.055-0.011,0.111-0.022,0.169-0.034
		c0.057-0.01,0.117-0.021,0.175-0.03c0.082-0.015,0.165-0.03,0.251-0.042c0.102-0.017,0.209-0.032,0.317-0.047
		C9.329,24.203,9.375,24.197,9.423,24.191z"/>
	<path fill="#D2A06B" d="M8.84,25.294l0.266,0.266c-0.149,0.126-0.3,0.268-0.449,0.428c-0.351,0.138-0.668,0.296-0.943,0.462
		c-0.171,0.102-0.326,0.209-0.462,0.315c0.094-0.503-0.502-1.98-0.502-1.98s0.536-0.194,1.411-0.381
		c-0.015,0.059-0.026,0.121-0.026,0.185C8.135,24.978,8.45,25.294,8.84,25.294z"/>
	<path d="M8.135,26.885c0.307,0.088,0.936,0.351,0.658,0.966c-0.057,0.126-0.163,0.243-0.281,0.356
		c-0.128,0.123-0.271,0.239-0.377,0.356C8.563,27.533,8.135,26.885,8.135,26.885z"/>
	<path fill="#F2D8CE" d="M7.714,26.451l0.026,0.043c0,0-2.318,2.458-1.62,4.934c-0.17,0.053-0.315,0.115-0.43,0.183
		c-0.434,0.255-0.569,0.524-0.558,0.771c0.015,0.462,0.542,0.833,0.542,0.833c0.075-0.125,0.183-0.226,0.313-0.306
		c-0.079,0.125-0.334,0.553-0.611,1.219c-0.028,0.066-0.055,0.134-0.083,0.204c-0.511,1.292-1.049,3.35-0.704,5.794
		c0.111,0.785,0.574,2.007,1.335,3.112c-0.075-0.032-0.117-0.053-0.117-0.053c-1.417,1.715-2.765-0.262-3.269-1.166
		c-0.234-1.039-0.374-2.277-0.379-3.75c-0.03-8.487,5.093-11.505,5.093-11.505C7.388,26.66,7.542,26.553,7.714,26.451z"/>
	<path fill="#FFFFFF" d="M7.363,31.115l0.005,0.098c-0.458,0.028-0.864,0.098-1.188,0.196c0.019-0.055,0.411-1.075,0.947-1.626
		C7.127,29.784,7.016,30.695,7.363,31.115z"/>
	<path fill="none" stroke="#000000" stroke-width="0.5" stroke-linejoin="round" stroke-miterlimit="10" d="M48.943,26.611
		c-1.039,0.296-1.969,0.588-2.746,0.86c-1.081,0.379-1.862,0.721-2.228,0.992c0,0-1.634-5.81-7.03-11.432"/>
	<path fill="none" stroke="#000000" stroke-width="0.5" stroke-linejoin="round" stroke-miterlimit="10" d="M71.537,23.663
		c-0.469-0.092-0.94-0.17-1.412-0.23c-4.674-0.607-14.9,1.388-21.161,3.172"/>
	<path fill="none" stroke="#000000" stroke-width="0.5" stroke-linejoin="round" stroke-miterlimit="10" d="M11.56,45.548
		c0,0,0,0.001-0.002,0.003c-0.021,0.08-0.398,1.466-0.356,3.751c0.038,2.139,0.445,5.068,1.85,8.451c0,0-0.509,12.137,4.519,19.619
		c0,0,0.123,3.586-1.763,5.66c0,0-1.886,0.498-2.997,1.928c-0.268,0.344-0.491,0.743-0.632,1.201
		c-0.082,0.265,0.043,0.55,0.294,0.668c1.729,0.826,6.675,2.918,11.379-0.399c0,0-1.509-15.844,0-20.748
		c0,0,3.708,0.008,5.406,1.168c1.697,1.158,3.018,4.24,17.226,2.981c0,0,1.509,10.64,0,18.304c0,0-2.062,0.835-3.031,2.25
		c-0.283,0.411-0.473,0.871-0.494,1.373c-0.007,0.166,0.07,0.322,0.204,0.421c0.526,0.389,2.043,1.397,3.825,1.606
		c2.673,0.315,6.198-0.145,8.509-1.331c0.253-0.129,0.403-0.395,0.375-0.678c-0.081-0.865-0.258-2.94-0.36-5.507
		c-0.19-4.779,0.236-12.014,1.723-19.188c0.029-0.146,0.06-0.294,0.092-0.441c0.032-0.15,0.064-0.304,0.099-0.454
		c0,0,1.758-1.671,4.236-3.827c2.167-1.886,4.887-4.146,7.457-5.981c0.721-0.515,1.43-0.995,2.111-1.426
		c1.367-0.861,2.625-1.52,3.651-1.833c0.66-0.2,1.224-0.259,1.658-0.136c1.515,0.426,3.25,2.039,4.923,4.206
		c2.776,3.593,5.381,8.705,6.519,12.439c1.823,5.988,2.327,7.999,2.39,10.012c0,0-1.557,1.132-2.015,2.438
		c-0.154,0.438-0.187,0.894,0.002,1.334c0,0,2.201,1.193,4.904,0.881c2.704-0.315,3.082-0.442,3.395-1.132
		c0.315-0.692,0.504-2.768,0.504-2.768s-4.716-14.963-5.155-20.874c-0.441-5.909-0.818-15.779-5.407-24.016
		c-1.152-2.069-2.392-3.812-3.697-5.276c-0.606-0.681-1.228-1.301-1.861-1.865c-0.82-0.732-1.661-1.367-2.516-1.92
		c-2.249-1.453-4.603-2.316-6.97-2.778"/>
	<path fill="none" stroke="#000000" stroke-width="0.5" stroke-linejoin="round" stroke-miterlimit="10" d="M6.771,20.261
		C6.105,20.532,5.152,21.096,4.8,22.16c-0.24,0.727,0.132,1.583,0.5,2.114c0.185,0.27,0.37,0.457,0.475,0.504
		C6.16,24.949,6.49,24.87,6.75,24.785c0,0,0.596,1.477,0.502,1.98c0,0-5.123,3.018-5.093,11.505c0.006,1.473,0.145,2.711,0.379,3.75
		c1.107,4.949,4.331,5.4,5.279,5.366c1.554-0.057,3.365-1.521,3.691-1.796c0.026-0.021,0.043-0.036,0.049-0.04"/>
	<path fill="none" stroke="#000000" stroke-width="0.5" stroke-linejoin="round" stroke-miterlimit="10" d="M7.325,20.072
		c-0.094,0.024-0.23,0.066-0.392,0.126c-0.032,0.011-0.066,0.022-0.1,0.038"/>
	<path fill="none" stroke="#000000" stroke-width="0.5" stroke-linejoin="round" stroke-miterlimit="10" d="M7.471,20.032
		c-0.004,0.004-0.006,0.005-0.006,0.005s-0.032,0.006-0.09,0.021"/>
	<path fill="none" stroke="#000000" stroke-width="0.5" stroke-linejoin="round" stroke-miterlimit="10" d="M18.482,11.307
		c-0.221,0.061-0.439,0.126-0.66,0.196c-0.917,0.287-1.839,0.653-2.731,1.119c-0.594,0.309-1.126,0.719-1.583,1.202
		c-0.292,0.307-0.553,0.645-0.781,1.005c-0.432,0.683-1.04,1.532-1.743,2.192c-1.356,1.275-3.374,2.901-3.512,3.01"/>
	<path fill="none" stroke="#000000" stroke-width="0.5" stroke-linejoin="round" stroke-miterlimit="10" d="M26.111,10.526
		c-0.432-0.028-1.388-0.068-2.644-0.002c-1.386,0.074-3.139,0.277-4.955,0.775"/>
	<path fill="none" stroke="#000000" stroke-width="0.5" stroke-linecap="round" stroke-linejoin="round" stroke-miterlimit="10" d="
		M23.726,50.72c0,0,0.188,1.907,0,3.594c-0.164,1.464-2.011,3.298,2.838,9.437c0.734,0.93,1.623,1.958,2.694,3.1"/>
	<path fill="none" stroke="#000000" stroke-width="0.5" stroke-linecap="round" stroke-linejoin="round" stroke-miterlimit="10" d="
		M15.053,56.378c0.543,0.413,1.079,0.939,1.607,1.528c0.799,0.892,1.584,1.934,2.354,2.959c1.682,2.239,3.293,4.406,4.838,4.817"/>
	<path fill="none" stroke="#000000" stroke-width="0.5" stroke-linejoin="round" stroke-miterlimit="10" d="M12.728,14.828
		c0,0-1.969-1.171-3.525-0.511s-2.169,2.829-2.169,2.829s-1.792,0.6-1.038-1.517c0.225-0.628,0.598-1.373,1.136-2.11
		c1.267-1.745,3.444-3.444,6.692-3.446c1.298,0,2.137,0.275,2.763,0.571c0.817,0.383,1.27,0.798,1.896,0.662
		c0.01-0.001,0.021-0.005,0.03-0.007"/>
	<path fill="none" stroke="#000000" stroke-width="0.5" stroke-linecap="round" stroke-linejoin="round" stroke-miterlimit="10" d="
		M25.12,11.354c0.266-0.268,0.611-0.577,0.992-0.828c0.498-0.33,1.056-0.556,1.575-0.453c1.415,0.283,5.732,1.32,8.265,4.433
		c0.291,0.356,0.505,0.698,0.66,1.02c0.266,0.555,0.353,1.059,0.328,1.505c-0.068,1.141-0.87,1.926-1.316,2.273
		c-0.151,0.117-0.321,0.204-0.506,0.26c-0.635,0.192-2.646,0.866-4.736,2.203c-0.573,0.366-1.237,0.417-1.398-0.208
		c-0.187-0.73-0.051-2.062,0.076-3.463c0.055-0.602,0.109-1.215,0.136-1.8C29.337,13.186,28.347,9.391,25.12,11.354"/>
	
		<line fill="none" stroke="#000000" stroke-width="0.5" stroke-linecap="round" stroke-linejoin="round" stroke-miterlimit="10" x1="25.12" y1="11.354" x2="25.118" y2="11.356"/>
	<path fill="none" stroke="#000000" stroke-width="0.5" stroke-linecap="round" stroke-linejoin="round" stroke-miterlimit="10" d="
		M24.591,11.938c0.057-0.069,0.249-0.303,0.526-0.583"/>
	
		<line fill="none" stroke="#000000" stroke-width="0.5" stroke-linecap="round" stroke-linejoin="round" stroke-miterlimit="10" x1="24.591" y1="11.938" x2="24.574" y2="11.959"/>
	<path fill="none" stroke="#000000" stroke-width="0.5" stroke-linecap="round" stroke-linejoin="round" stroke-miterlimit="10" d="
		M7.473,20.03c1.019-0.273,2.731-0.517,5.313-0.243c0.458,0.049,0.894,0.07,1.315,0.072c0.6,0.005,1.166-0.027,1.705-0.068
		c1.916-0.149,3.506-0.419,5.198,0.403c1.022,0.496,1.745,1.718,2.079,3.073c0.202,0.816,0.262,1.681,0.162,2.461"/>
	
		<line fill="none" stroke="#000000" stroke-width="0.5" stroke-linejoin="round" stroke-miterlimit="10" x1="7.471" y1="20.032" x2="7.473" y2="20.03"/>
	<path fill="none" stroke="#000000" stroke-width="0.5" stroke-linecap="round" stroke-linejoin="round" stroke-miterlimit="10" d="
		M6.771,20.261c0.019-0.01,0.042-0.017,0.062-0.025c0.032-0.013,0.066-0.024,0.1-0.038c0.115-0.042,0.245-0.085,0.392-0.126
		c0.017-0.005,0.032-0.009,0.049-0.013c0.032-0.009,0.064-0.019,0.096-0.026"/>
	<path fill="none" stroke="#000000" stroke-width="0.5" stroke-linejoin="round" stroke-miterlimit="10" d="M6.273,20.498
		c0,0,0.157-0.104,0.498-0.237"/>
	<path fill="none" stroke="#000000" stroke-width="0.5" stroke-linecap="round" stroke-linejoin="round" stroke-miterlimit="10" d="
		M15.843,24.978c0.072,0.03,0.144,0.064,0.215,0.098c0.096,0.043,0.191,0.091,0.287,0.142c0.096,0.047,0.192,0.098,0.289,0.153
		c0.094,0.053,0.19,0.107,0.285,0.166c0.926,0.556,1.814,1.311,2.61,2.314"/>
	<path fill="none" stroke="#000000" stroke-width="0.5" stroke-linecap="round" stroke-linejoin="round" stroke-miterlimit="10" d="
		M9.423,24.191c0.524-0.068,1.107-0.113,1.728-0.119c0.92-0.007,1.922,0.076,2.94,0.319c0.559,0.132,1.121,0.313,1.677,0.553"/>
	<path fill="none" stroke="#000000" stroke-width="0.5" stroke-linejoin="round" stroke-miterlimit="10" d="M8.964,24.257
		c0.102-0.017,0.209-0.032,0.317-0.047"/>
	<path fill="none" stroke="#000000" stroke-width="0.5" stroke-linecap="round" stroke-linejoin="round" stroke-miterlimit="10" d="
		M8.538,24.329c0.057-0.01,0.117-0.021,0.175-0.03"/>
	<path fill="none" stroke="#000000" stroke-width="0.5" stroke-linejoin="round" stroke-miterlimit="10" d="M8.369,24.363
		c0.055-0.011,0.111-0.022,0.169-0.034"/>
	<path fill="none" stroke="#000000" stroke-width="0.5" stroke-linecap="round" stroke-linejoin="round" stroke-miterlimit="10" d="
		M6.75,24.785c0,0,0.536-0.194,1.411-0.381"/>
	<path fill="none" stroke="#000000" stroke-width="0.5" stroke-linecap="round" stroke-linejoin="round" stroke-miterlimit="10" d="
		M6.181,31.41c0.324-0.098,0.73-0.168,1.188-0.196c1.594-0.096,3.81,0.304,5.379,1.76c0.23,0.213,0.445,0.449,0.642,0.709
		c0.058,0.074,0.115,0.151,0.166,0.23c0.028,0.038,0.055,0.076,0.08,0.115c0,0-0.03,0.119-0.081,0.334
		c-0.057,0.243-0.136,0.607-0.223,1.058c-0.285,1.494-0.636,3.952-0.419,6.164c0.089,0.915,0.275,1.788,0.604,2.535
		c0.179,0.406,0.526,1.217,1.121,2.067c1.407,2.011,4.198,4.246,9.419,1.894c0,0,0.013-0.003,0.042-0.011
		c0.422-0.117,4-1.047,4.91,0.86c0.332,0.698-0.283,1.792-1.604,1.32c-1.295-0.462-0.798-1.835-3.21-2.152"/>
	<path fill="none" stroke="#000000" stroke-width="0.5" stroke-linecap="round" stroke-linejoin="round" stroke-miterlimit="10" d="
		M10.334,32.99c0,0-0.023-0.006-0.068-0.017c-0.462-0.115-3.195-0.75-4.28-0.063c-0.13,0.08-0.238,0.181-0.313,0.306
		c0,0-0.526-0.372-0.542-0.833c-0.011-0.247,0.125-0.517,0.558-0.771c0.115-0.068,0.26-0.13,0.43-0.183
		c0.019-0.007,0.038-0.013,0.059-0.019"/>
	<path fill="none" stroke="#000000" stroke-width="0.5" stroke-linejoin="round" stroke-miterlimit="10" d="M6.009,32.873
		c0,0-0.007,0.013-0.022,0.038c-0.079,0.125-0.334,0.553-0.611,1.219c-0.028,0.066-0.055,0.134-0.083,0.204
		c-0.511,1.292-1.049,3.35-0.704,5.794c0.111,0.785,0.574,2.007,1.335,3.112c1.185,1.726,3.097,3.167,5.528,2.207
		c0.651-0.255,1.341-0.685,2.063-1.328"/>
	<path fill="none" stroke="#000000" stroke-width="0.5" stroke-linejoin="round" stroke-miterlimit="10" d="M8.135,26.885
		c0,0,0.428,0.648,0,1.679"/>
	<path fill="none" stroke="#000000" stroke-width="0.5" stroke-linecap="round" stroke-linejoin="round" stroke-miterlimit="10" d="
		M13.095,25.721c0.024,0.008,0.049,0.013,0.074,0.021c0.281,0.079,0.563,0.179,0.847,0.3c1.714,0.735,3.448,2.29,4.862,5.163
		c0.323,0.652,0.626,1.373,0.909,2.169c0.764,2.131,1.379,4.794,1.77,8.104"/>
	<path fill="none" stroke="#000000" stroke-width="0.5" stroke-linejoin="round" stroke-miterlimit="10" d="M8.657,25.989
		c0.04-0.017,0.079-0.032,0.121-0.047"/>
	<path fill="none" stroke="#000000" stroke-width="0.5" stroke-linecap="round" stroke-linejoin="round" stroke-miterlimit="10" d="
		M7.252,26.766c0.136-0.105,0.291-0.213,0.462-0.315c0.275-0.166,0.592-0.324,0.943-0.462"/>
	<path fill="none" stroke="#000000" stroke-width="0.5" stroke-linecap="round" stroke-linejoin="round" stroke-miterlimit="10" d="
		M6.179,31.411c0,0,0,0,0-0.001c0.002,0,0.002,0,0.002,0c0.019-0.055,0.411-1.075,0.947-1.626c0,0-0.111,0.911,0.236,1.332"/>
	<path fill="none" stroke="#000000" stroke-width="0.5" stroke-linecap="round" stroke-linejoin="round" stroke-miterlimit="10" d="
		M13.427,33.654c0.441-0.918,0.228-2.008,0.228-2.008c-0.166,0.643-0.907,1.328-0.907,1.328"/>
	<path fill="none" stroke="#000000" stroke-width="0.5" stroke-linecap="round" stroke-linejoin="round" stroke-miterlimit="10" d="
		M37.966,57.698c0,0,0.754,2.971,3.772,4.621c2.075,1.136,3.404,3.073,4.127,4.989c0.328,0.871,0.53,1.739,0.619,2.523"/>
	<path fill="none" stroke="#000000" stroke-width="0.5" stroke-linecap="round" stroke-linejoin="round" stroke-miterlimit="10" d="
		M57.424,66.187c0,0,0.211-1.835,0.113-3.588c-0.02-0.387-0.057-0.77-0.113-1.128"/>
	<path fill="none" stroke="#000000" stroke-width="0.5" stroke-linecap="round" stroke-linejoin="round" stroke-miterlimit="10" d="
		M61.66,62.359c0,0,0.1,0.703,0.316,1.735c0.336,1.584,0.952,3.947,1.924,5.737c0,0-0.024,3.758-1.12,5.408
		c0,0-2.652,0.266-3.218,2.357c-0.328,1.209,2.876,1.886,4.338,1.886c1.102,0,3.376-0.803,4.803-1.199
		c0.438-0.121,0.726-0.536,0.689-0.988c-0.185-2.32-0.535-9.361,1.486-14.222c0,0-2.014-4.951-1.762-6.696"/>
	<path fill="none" stroke="#000000" stroke-width="0.5" stroke-linecap="round" stroke-linejoin="round" stroke-miterlimit="10" d="
		M71.553,23.665c0.142,0,0.945-0.176,1.958-0.413c2.067-0.483,5.008-1.215,5.008-1.215c1.021-0.223,1.652,1.243,1.211,2.69
		c-0.188,0.62-0.571,1.235-1.207,1.716c-0.002,0-0.002,0-0.004,0.002"/>
	<path fill="none" stroke="#000000" stroke-width="0.5" stroke-linejoin="round" stroke-miterlimit="10" d="M71.537,23.663
		c0.004,0,0.01,0.002,0.016,0.002"/>
	<path fill="none" stroke="#000000" stroke-width="0.5" stroke-linecap="round" stroke-linejoin="round" stroke-miterlimit="10" d="
		M44.724,33.48c0.126-1.835-0.754-5.017-0.754-5.017"/>
	<path fill="none" stroke="#000000" stroke-width="0.5" stroke-linejoin="round" stroke-miterlimit="10" d="M8.135,28.563
		c-0.117,0.128-0.187,0.256-0.147,0.394c0.2,0.696,1.687,1.015,1.687,1.015s1.332,0,1.854-0.441c0,0-0.215-0.349-0.381-0.762
		c-0.225-0.555-0.362-1.221,0.224-1.311c0.849-0.132,0.828,0.681,0.7,1.373c-0.026,0.142-0.057,0.277-0.086,0.398
		c0,0,1.35,0.277,1.745-0.709c0.208-0.519,0.06-1.27-0.209-1.941c-0.117-0.291-0.258-0.566-0.404-0.802
		c-0.154-0.252-0.315-0.458-0.456-0.584c-0.458-0.408-1.888-0.938-3.431,0.27c-0.04,0.03-0.081,0.064-0.123,0.098
		c-0.149,0.126-0.3,0.268-0.449,0.428c-0.196,0.208-0.391,0.447-0.585,0.72c-0.045,0.064-0.013,0.155,0.063,0.176
		c0.307,0.088,0.936,0.351,0.658,0.966c-0.057,0.126-0.163,0.243-0.281,0.356C8.384,28.33,8.24,28.446,8.135,28.563z"/>
	<path fill="none" stroke="#000000" stroke-width="0.5" stroke-linecap="round" stroke-linejoin="round" stroke-miterlimit="10" d="
		M16.918,25.536c-0.094-0.057-0.19-0.111-0.285-0.166c-0.096-0.053-0.192-0.104-0.289-0.153c-0.095-0.049-0.191-0.096-0.287-0.142
		c-0.071-0.034-0.143-0.068-0.215-0.098c-0.024-0.011-0.051-0.022-0.075-0.034"/>
	<path fill="none" stroke="#000000" stroke-width="0.5" stroke-linejoin="round" stroke-miterlimit="10" d="M15.768,24.944
		c-0.155,0.13-0.257,0.322-0.257,0.54c0,0.39,0.317,0.705,0.708,0.705c0.372,0,0.673-0.289,0.7-0.652"/>
	<path fill="none" stroke="#000000" stroke-width="0.5" stroke-linejoin="round" stroke-miterlimit="10" d="M8.713,24.299
		c-0.06,0.009-0.119,0.019-0.175,0.03c-0.059,0.011-0.115,0.022-0.169,0.034c-0.072,0.013-0.14,0.026-0.208,0.042
		c-0.015,0.059-0.026,0.121-0.026,0.185c0,0.388,0.315,0.705,0.705,0.705c0.391,0,0.706-0.317,0.706-0.705
		c0-0.149-0.045-0.285-0.123-0.398c-0.047,0.005-0.094,0.011-0.142,0.019c-0.107,0.013-0.215,0.03-0.317,0.047"/>
	<path fill="none" stroke="#000000" stroke-width="0.5" stroke-linecap="round" stroke-linejoin="round" stroke-miterlimit="10" d="
		M8.964,24.257c-0.086,0.011-0.169,0.026-0.251,0.042"/>
	<path fill="none" stroke="#000000" stroke-width="0.5" stroke-linecap="round" stroke-miterlimit="10" d="M14.923,85.186
		c0,0-0.943,0.943-1.006,2.138"/>
	<path fill="none" stroke="#000000" stroke-width="0.5" stroke-linecap="round" stroke-miterlimit="10" d="M18.003,85.908
		c0,0-0.635,1.007-0.566,2.201"/>
	<path fill="none" stroke="#000000" stroke-width="0.5" stroke-linecap="round" stroke-miterlimit="10" d="M45.479,90.844
		c0,0-0.943,0.943-1.006,2.138"/>
	<path fill="none" stroke="#000000" stroke-width="0.5" stroke-linecap="round" stroke-miterlimit="10" d="M48.559,91.567
		c0,0-0.635,1.006-0.565,2.2"/>
	<path fill="none" stroke="#000000" stroke-width="0.5" stroke-linecap="round" stroke-miterlimit="10" d="M61.338,77.013
		c0,0-0.781,0.78-0.833,1.77"/>
	<path fill="none" stroke="#000000" stroke-width="0.5" stroke-linecap="round" stroke-miterlimit="10" d="M63.7,77.61
		c0,0-0.526,0.834-0.469,1.822"/>
	<path fill="none" stroke="#000000" stroke-width="0.5" stroke-linecap="round" stroke-miterlimit="10" d="M90.181,81.602
		c0,0-0.943,0.943-1.006,2.138"/>
	<path fill="none" stroke="#000000" stroke-width="0.5" stroke-linecap="round" stroke-miterlimit="10" d="M93.072,82.137
		c0,0-0.635,1.006-0.565,2.2"/>
</g>
</svg>
