<?xml version="1.0" encoding="utf-8"?>
<!-- Generator: Adobe Illustrator 16.0.0, SVG Export Plug-In . SVG Version: 6.00 Build 0)  -->
<!DOCTYPE svg PUBLIC "-//W3C//DTD SVG 1.1//EN" "http://www.w3.org/Graphics/SVG/1.1/DTD/svg11.dtd">
<svg version="1.1" id="Capa_1" xmlns="http://www.w3.org/2000/svg" xmlns:xlink="http://www.w3.org/1999/xlink" x="0px" y="0px"
	 width="100px" height="100px" viewBox="0 0 100 100" enable-background="new 0 0 100 100" xml:space="preserve">
<g>
	<path fill="#9C836C" d="M11.569,19.691c1.957,0.841,3.525,3,4.45,5.245c-3.56-5.379-10.747-3.922-10.894-3.89
		c0.188-0.531,0.442-1.071,0.759-1.388c0,0,0.002,0,0.004-0.002c0.091-0.028,1.673-0.501,3.432-0.43
		C10.072,19.255,10.857,19.384,11.569,19.691z"/>
	<path fill="#7D6A57" d="M8.577,31c-0.436,2-2.07,1.898-2.141,1.875l-0.002,0.079c-0.526-0.68-1.055-1.536-1.541-2.628
		c-1.322-2.975-0.198-7.736-0.198-7.736S4.838,22,5.123,21h0.002c0.146,0,7.334-1.466,10.894,3.913
		c0.42,1.018,0.706,2.06,0.836,2.996c0.168,1.198,0.123,2.281-0.018,3.414C13.493,34.844,8.706,31,8.579,31H8.577z"/>
	<path fill="#E9CCAE" d="M16.019,24.936c-0.924-2.245-2.653-4.404-4.61-5.245C10.697,19.384,10,19.255,9,19.226v-0.008
		c0,0,3.86-2.469,4.655-6.698c-0.926,2.179-3.687,4.561-3.687,4.561s-1.017-1.388-0.753-2.776c0.264-1.388,2.796-2.445,3.787-2.974
		c0.264-0.383,0.746-0.863,1.315-1.353c0.667-0.343,4.447-2.102,8.02,0.216c0.252,0.514,0.49,1.053,0.738,1.396
		c0.983,1.36,4.421,3.607,5.148,5.524c0.571,1.505,0.399,5.717,0.859,6.972c0.367,1.001,1.491,2.921,1.834,5.163
		c0.087,0.575,0.125,0.826,0.083,1.433C30.987,30.901,30.967,31,30.945,31h-0.002c-1.013,4-2.687,3.647-2.687,3.647
		c0.097-0.253,0.159-0.3,0.182-0.462c0.1-0.694-0.686-1.108-0.819-1.451c-0.165-0.435,0.343-1.032,0.516-1.232
		c0.902-0.764,0.829-2.388,0.387-3.306c0.297,3.536-3.305,3.282-3.305,3.282l-0.028,0.097c-0.534-0.163-0.994-0.305-1.261-0.255
		c-0.071,0.014-0.155,0.059-0.25,0.13c-4.542,2.282-6.823,0.605-6.908,0.542c0.023-0.165,0.047-0.333,0.067-0.503
		c0.141-1.132,0.186-2.372,0.018-3.569C16.725,26.984,16.439,25.953,16.019,24.936z"/>
	<path fill="#F7DEC3" d="M13.655,12.52C12.86,16.749,9,19.218,9,19.218v0.008c-1-0.071-3.181,0.402-3.271,0.43
		c0.799-0.797,4.16-2.576,4.16-2.576S12.729,14.699,13.655,12.52z"/>
	<path fill="#F7DEC3" d="M19.112,7.426c1.485-0.103,3.431,0.113,5.095-0.458C25.646,6.474,28,6.621,29,6.976v0.002
		c-5-0.442-6.578,3.216-6.578,3.216c-0.194-0.398-0.44-0.779-0.668-1.045C20.917,8.177,20.159,7.43,19.112,7.426z"/>
	<path fill="#F7DEC3" d="M21.713,8.936c0.228,0.266,0.434,0.752,0.628,1.152c-3.573-2.318-7.348-0.506-8.014-0.164
		c0.995-0.86,2.286-1.939,3.256-2.403C18.008,7.317,18.527,7,19.104,7c0.002,0,0.004,0,0.008,0C20.159,7,20.877,7.964,21.713,8.936z
		"/>
	<path fill="#C9A887" d="M94.12,58.323c0.529,6.478,5.155,24.323,4.957,24.983s-2.113,1.487-2.975,1.453
		c-1.719-0.065-3.701-0.726-3.965-1.255c-0.187-0.375-0.109-1.146,0.305-1.963l0.092,0.045c0,0,2.147,1.188,4.163,0.396
		c2.017-0.789-4.384-18.866-5.1-33.854C92.329,50.457,93.733,53.6,94.12,58.323z"/>
	<path fill="#E9CCAE" d="M25.243,8.453c0.087,0.06,0.387,0.255,0.817,0.511C25.655,8.705,25.332,8.508,25.243,8.453z M37.397,38.278
		c0.08-0.111,2.6-3.7,3.415-8.109c0.321-1.729,0.196-4.814,0.178-5.212C41.367,25.19,41.78,25,42.17,26h0.135
		c0.133,0,3.285,4.879,2.722,11.946c-0.299,3.74-1.364,7.087-2.457,9.655c0.101-0.185,3.323-6.097,3.518-10.798
		c0.192-4.572-1.321-10.539-1.45-11.04c1.029,0.365,2.044,1.162,2.489,2.223c0.047-0.02,0.093-0.039,0.139-0.057l0.036,0.097
		c0.23,0.437,2.651,5.279,0.91,14.039c0,0,1.36-3.998,1.36-7.049c0-3.053-0.177-5.51-0.835-7.103l0.01-0.105
		c0.96,0.226,1.838,1.039,2.742,2.161l-0.04,0.014c0,0,0.551,0.958,1.551,2.631v0.002c1,1.855,2.041,4.592,1.885,7.875
		c0,0,0.963-7.271-2.698-11.393c0.288-0.194,0.673-0.297,1.052-0.121l0.199,0.012c0,0,4.156,2.72,4.124,9.224
		c0,0,1.208-6.396-3.16-10.057l-0.01-0.03c0.264-0.113,0.56-0.178,0.864-0.141c0.03-0.02,0.071-0.042,0.125-0.065l-0.007,0.083
		c0.214,0.042,2.442,0.538,2.785,3.764c0,0-0.159-3.236-1.159-4.202v-0.002c1-0.44,5.592-1.057,9.324-1.688
		c1.344,2.359,4.063,3.932,6.264,3.998c3.238,0.095,4.661-1.83,5.016-2.233c0.629-0.712,0.343-1.771-1.012-1.142
		c-0.62,0.288-1.451,0.478-2.271,0.482c-0.668,0.004-1.344-0.119-1.907-0.417c-0.634-0.333-1.004-0.924-1.183-1.566
		c1.521-0.28,2.862-0.543,3.855-0.779c0,0,3.008-0.264,3.701,2.445l4.428,2.562c0-0.016,0.002-0.032,0.002-0.048
		c0.125,0.083,4.088,2.78,5.813,5.683c1.455,2.444,2.779,7.07,2.317,10.971c0,0.68,0.652,1.432,0.652,2.296v0.002
		c0,14.988,6.916,33.065,4.898,33.854c-2.016,0.792-4.264-0.396-4.264-0.396l-0.142-0.045c0.168-0.338,0.371-0.683,0.66-1.012
		c0.462-0.66-0.012-2.643-0.21-3.966c-0.198-1.322-2.387-4.428-2.981-5.354s-1.06-4.495-1.391-5.75s-3.174-6.939-3.174-6.939
		s-3.38-5.852-7.712-8.108c-0.775-0.406-1.581-0.694-2.402-0.814c-0.091-0.014-0.185-0.022-0.281-0.024
		c-0.006-0.002-0.01-0.002-0.017,0c-8.912-0.619-21.767,9.055-26.736,6.938c-0.462,2.669-1.519,7.164-1.519,7.164
		c-6.212,23.198-2.71,26.471-5.948,28.222c-1.662,0.899-5.552-0.859-5.552-0.859c0.595-0.529,1.983-1.124,2.578-1.388
		s0.858-3.437,0.858-4.626c0-0.533-0.462-1.653-0.462-2.379c0-0.729,0.793-7.866,0-12.823s-4.561-7.533-4.561-7.533
		c0,0.002,0,0.002-0.002,0.004c-1.916,4.448-2.909,25.573-6.079,26.828c-1.678,0.664-5.221-1.255-5.221-1.255
		c0.793-0.859,2.975-0.992,2.975-0.992s1.602-2.558,1.784-6.939c0.198-4.759-2.643-11.104-2.974-12.756
		c-0.331-1.653-0.529-3.965-0.793-7.667c-0.172-2.409-2.05-6.914-3.395-9.968c4.13,0.974,7.624-3.504,7.721-3.63
		c-4.691,3.335-8.986,0.525-8.986,0.525l-0.087,0.026c-0.004-0.016-0.008-0.028-0.012-0.04c-0.077-0.286-0.147-0.698-0.172-1.158
		c0.19,0.121,1.412,0.86,3.081,0.86c1.816,0,3.04-1.487,4.626-1.85s4.709-0.678,6.345-1.521c1.636-0.843,3.172-4.594,2.94-6.297
		c-0.722,3.769-2.875,5.585-4.428,6.212c-1.553,0.628-3.668,0.331-5.685,0.595c-2.015,0.266-1.949,1.59-3.601,1.62
		c-1.884,0.034-2.909-1.818-2.909-1.818l-0.065,0.02c-0.178-0.262-0.331-0.593-0.46-0.94c0.797,0.042,6.01,0.266,7.564-0.854
		c1.686-1.213,1.247-2.106,1.814-2.403c0.565-0.297,2.451-1.045,3.391-2.828c0.941-1.782,0.731-4.519,0-6.838l-0.099,0.023
		c-0.343-2.242-1.468-4.162-1.834-5.163c-0.46-1.255-0.288-5.467-0.858-6.972c-0.728-1.917-4.164-4.164-5.147-5.524
		c-0.248-0.343-0.404-0.882-0.656-1.396c0,0,1.578-3.658,6.578-3.216V6.976c1,0.216,1.694,0.51,2.345,0.785
		c0.345,0.147,0.593,0.387,0.829,0.676c0.567,4.077-4.109,1.705-6.082,0.536c0.71,0.456,1.651,1.1,2.044,1.513
		c0.341,0.359,0.59,1.189,0.82,2.017c0.161,0.565,3.104,0.242,4.332-0.902c0.008,0.018,0.019,0.038,0.029,0.06
		c0.042,1.428,1.072,3.545,1.623,6.047c0.484,2.185-0.042,6.319-0.064,6.498c0.065-0.137,1.166-2.522,1.158-5.028
		c-0.004-1.987-0.637-3.72-0.889-4.331c0.682,1.098,1.438,2.199,2.068,2.829c1.586,1.586,2.379,6.742,2.379,6.742
		s0.045,0.004,0.129,0.02C39.781,24.934,40.638,32.627,37.397,38.278z"/>
	<path fill="#E9CCAE" d="M79.876,23.966c-0.017-0.079-0.421-1.784-2.213-1.979c-1.187-0.127-2.055,0.383-2.055,0.383l-0.095,0.034
		c-0.133-0.371-0.421-0.77-0.825-0.928c-1.586-0.628-3.04,0.363-3.371,1.156c-0.233,0.561-0.327,1.511-0.089,2.365
		c-1.392,0.254-2.935,0.518-4.497,0.783c-0.756-0.902-1.245-1.828-1.349-2.372c-0.006-0.091-0.012-0.182-0.014-0.275
		c-0.02-0.732,0.069-1.43,0.248-2.088c0-0.002,0-0.002,0.002-0.004c0.115-0.165,4.703-6.617,13.162-3.607
		c0.393,0.31,0.769,0.654,1.128,1.033c2.403,2.534,3.56,6.61,3.308,10.709c0-0.002-0.002-0.002-0.002-0.002s-3.123-6.146-8.13-4.957
		c0.05-0.43,0.148-0.793,0.5-1.257l0.129,0.016C75.714,22.977,78.256,21.688,79.876,23.966z"/>
	<path fill="#E9CCAE" d="M83.217,29.177c0,0.016-0.002,0.032-0.002,0.048l-4.428-2.562c-0.694-2.708-3.702-2.445-3.702-2.445
		c5.007-1.189,8.13,4.957,8.13,4.957S83.217,29.175,83.217,29.177z"/>
	<path fill="#C9A887" d="M77.663,21.988c1.792,0.194,2.196,1.899,2.213,1.979c-1.62-2.278-4.162-0.989-4.162-0.989l-0.129-0.016
		c0.031-0.145,0.004-0.347-0.071-0.557l0.095-0.034C75.608,22.371,76.477,21.861,77.663,21.988z"/>
	<path fill="#C9A887" d="M77.685,50.413l-0.021,0.044c0,0-2.711,4.628-3.173,8.396c-0.292,2.369,0.065,7.203,1.982,9.716
		c-0.845,1.75-4.045,5.861-5.225,12.581c-0.037,0.21-0.179,0.385-0.375,0.47c-0.735,0.319-2.048,1.301-2.728,1.356
		c-0.794,0.067-3.833-0.065-4.229-0.528c-0.352-0.41-0.236-1.6,0.023-2.371l0.236,0.034c0,0,4.366,1.102,5.423,0
		c1.059-1.101,4.711-11.213,4.711-11.213s-0.349-7.799-1.935-9.022c-1.587-1.221-5.822-0.495-7.206,0.827l-0.187,0.05
		c-0.914-3.351-1.066-6.329-1.066-6.329l-0.048-0.082c4.574-2.679,8.846-4.863,11.117-4.766c0.007-0.002,0.011-0.002,0.017,0
		c0.095,0.008,0.188,0.016,0.281,0.024C76.104,49.719,76.909,50.007,77.685,50.413z"/>
	<path fill="#E9CCAE" d="M76.572,26.499c1.354-0.628,1.62,0.43,0.991,1.142c-0.354,0.403-1.818,2.328-5.056,2.233
		c-2.201-0.066-5.001-1.638-6.346-3.998c0.19-0.032,0.379-0.063,0.569-0.095c1.682,2.007,4.67,3.896,7.578,1.2
		C75.131,26.977,75.951,26.786,76.572,26.499z"/>
	<path fill="#C7996B" d="M75.283,49.599c-0.093-0.008-0.187-0.016-0.281-0.024C75.099,49.577,75.192,49.584,75.283,49.599z"/>
	<path fill="#C9A887" d="M74.985,49.575c-2.271-0.097-6.543,2.087-11.117,4.766c-7.099,4.152-14.925,9.492-17.138,9.336
		c0,0,1.057-4.495,1.519-7.164C53.219,58.63,66.073,48.956,74.985,49.575z"/>
	<path fill="#F7DEC3" d="M78.781,17.435c-8.459-3.01-13.047,3.442-13.162,3.607c0.747-2.766,3.083-4.791,5.698-5.338
		C74.153,15.111,76.701,15.787,78.781,17.435z"/>
	<path fill="#E9CCAE" d="M72.408,26.564c0.563,0.297,1.233,0.42,1.901,0.417c-2.908,2.697-5.896,0.807-7.578-1.2
		c1.563-0.266,3.105-0.529,4.497-0.783C71.407,25.64,71.773,26.231,72.408,26.564z"/>
	<path fill="#E9CCAE" d="M72.375,59.875c1.586,1.224,1.935,9.022,1.935,9.022S70.657,79.01,69.599,80.11
		c-1.057,1.102-5.423,0-5.423,0l-0.236-0.034c0.034-0.099,0.069-0.19,0.107-0.273c0.331-0.726,2.446-0.793,2.908-1.189
		s3.107-6.346,1.587-10.838c-1.777-1.833-2.879-4.531-3.56-7.023l0.187-0.05C66.553,59.38,70.788,58.654,72.375,59.875z"/>
	<path fill="#E8B37D" d="M66.731,25.781c-0.19,0.032-0.379,0.063-0.569,0.095c-0.43-0.75-0.712-1.58-0.779-2.467
		C65.486,23.953,65.976,24.878,66.731,25.781z"/>
	<path fill="#C9A887" d="M57,27.565c1,0.965,1.16,4.202,1.16,4.202c-0.344-3.226-2.491-3.722-2.706-3.764l0.128-0.083
		C55.811,27.821,56,27.702,57,27.563V27.565z"/>
	<path fill="#C9A887" d="M54.406,28.156c4.368,3.66,3.164,10.057,3.164,10.057c0.032-6.503-4.116-9.224-4.116-9.224l-0.18-0.012
		c0,0,0.468-0.571,1.12-0.851L54.406,28.156z"/>
	<path fill="#C9A887" d="M53,32.614c-1-1.674-1.551-2.631-1.551-2.631l-0.029-0.014c0,0,0.338-0.556,0.802-0.871
		c3.66,4.122,2.646,11.393,2.646,11.393C55.023,37.208,54,34.471,53,32.616V32.614z"/>
	<path fill="#C9A887" d="M48.737,27.912c0.658,1.592,0.835,4.049,0.835,7.103c0,3.052-1.36,7.049-1.36,7.049
		c1.741-8.76-0.68-13.603-0.91-14.039l-0.036-0.097c0.521-0.202,1.011-0.23,1.481-0.121L48.737,27.912z"/>
	<path fill="#C9A887" d="M44.639,25.761c0.129,0.502,1.642,6.469,1.45,11.041c-0.194,4.702-3.417,10.615-3.518,10.799
		c1.092-2.567,2.157-5.916,2.457-9.655C45.59,30.879,42.438,26,42.305,26H42.17C42.711,25,43.683,25.424,44.639,25.761z"/>
	<path fill="#C9A887" d="M46.73,63.677c-0.595,7.203-2.445,17.052-2.974,19.432c-0.529,2.379-0.462,8.327-0.595,8.923
		c-0.133,0.595-1.85,2.379-2.974,2.577c-1.125,0.198-4.297,0.331-5.155-0.595c-0.859-0.926-0.396-2.445,0.198-2.975
		c0,0,3.89,1.759,5.552,0.859C44.02,90.147,40.519,86.875,46.73,63.677z"/>
	<path fill="#C9A887" d="M40.99,24.958c0.018,0.398,0.143,3.482-0.178,5.211c-0.815,4.41-3.335,7.999-3.415,8.109
		c3.24-5.651,2.383-13.344,2.324-13.842C39.943,24.48,40.427,24.607,40.99,24.958z"/>
	<path fill="#C9A887" d="M36.033,19.176c0.008,2.506-1.092,4.892-1.158,5.028c0.022-0.179,0.547-4.313,0.063-6.498
		c-0.551-2.502-1.583-4.62-1.624-6.047c0.226,0.422,0.97,1.802,1.83,3.187C35.397,15.456,36.029,17.189,36.033,19.176z"/>
	<path fill="#C9A887" d="M35.395,36.46c0.232,1.703-1.305,5.455-2.94,6.297c-1.636,0.842-4.759,1.158-6.345,1.521
		s-2.81,1.85-4.626,1.85c-1.669,0-2.891-0.74-3.081-0.86c-0.038-0.712,0.023-1.537,0.305-2.179l0.065-0.02
		c0,0,1.025,1.852,2.909,1.818c1.652-0.03,1.586-1.354,3.601-1.62c2.016-0.264,4.132,0.034,5.685-0.595
		C32.52,42.046,34.673,40.229,35.395,36.46z"/>
	<path fill="#C9A887" d="M33.248,11.528c0,0,0.014,0.024,0.038,0.071c-1.228,1.144-4.174,1.467-4.334,0.902
		c-0.23-0.827-0.484-1.658-0.825-2.017c-0.393-0.413-1.344-1.057-2.054-1.513c1.973,1.169,6.628,3.541,6.062-0.536
		C33.079,9.589,33.248,11.528,33.248,11.528z"/>
	<path fill="#C9A887" d="M33.642,62.294c-0.052,0.312-1.973,11.784-1.386,18.435c-1.19,3.04-2.048,8.79-2.578,9.319
		c-0.529,0.529-3.759,1.728-4.892,1.586c-1.586-0.198-2.708-0.728-2.974-1.322c-0.264-0.595,0.018-1.892,0.529-2.444
		c0,0,3.543,1.919,5.221,1.255C30.733,87.867,31.727,66.742,33.642,62.294z"/>
	<path fill="#C9A887" d="M31.017,29.225c0.731,2.32,0.941,5.056,0,6.838c-0.94,1.783-2.826,2.53-3.391,2.828
		c-0.567,0.297-0.128,1.19-1.814,2.403c-1.555,1.12-6.768,0.896-7.564,0.854c-0.377-1.011-0.555-2.159-0.555-2.159
		c0.77-0.028,2.006-0.569,2.667-0.801c0.66-0.232,2.974,0.331,4.296,0c0.702-0.176,2.171-1.808,2.171-1.808
		c2.847-0.046,3.831-2.907,4.118-5.693c0.022-0.222,0.042-0.442,0.056-0.662c0.042-0.607,0.004-1.202-0.083-1.777L31.017,29.225z"/>
	<path fill="#C9A887" d="M30.943,31h0.002c-0.287,3-1.271,5.991-4.118,6.037l-0.002,0.169c0.688-0.818,1.182-1.985,1.432-2.645
		C28.257,34.561,29.93,35,30.943,31z"/>
	<path fill="#C9A887" d="M28.136,31.545c-0.091,0.081-0.194,0.15-0.307,0.208c-0.751,0.387-1.791,0.085-2.639-0.172l0.028-0.091
		c0,0,3.603,0.264,3.305-3.271C28.965,29.136,29.038,30.781,28.136,31.545z"/>
	<path fill="#C9A887" d="M27.62,32.82c0.133,0.343,0.918,0.843,0.819,1.537c-0.696-2.11-3.825-0.974-4.907,0.339
		c-3.202,3.876-9.385,2.56-10.775,2.114c-1.229-0.395-1.885,0.373-2.02,0.557c-0.829-0.771-1.515-1.725-1.878-2.837
		c0,0,0.305-1.342,1.189-1.388c2.28,2.314,4.527,2.643,5.75,2.71c2.314,0.561,4.229-0.099,4.892-0.728
		c0.593-0.563,2.169-3.068,2.988-3.672c0.082-0.042,0.165-0.085,0.25-0.129c0.268-0.05,0.728,0.095,1.261,0.258
		c0.849,0.258,1.888,0.559,2.639,0.172c0.113-0.058,0.216-0.127,0.307-0.208C27.963,31.745,27.456,32.386,27.62,32.82z"/>
	<path fill="#E9CCAE" d="M26.825,37.378l0.002,0.002c0,0-1.469,1.632-2.171,1.808c-1.322,0.331-3.636-0.232-4.296,0
		c-0.661,0.232-1.897,0.773-2.667,0.801c0,0-2.026-0.172-3.216-0.504c-1.193-0.331-2.602-1.055-3.739-2.12
		c0.135-0.184,0.791-0.952,2.02-0.557c1.39,0.446,7.573,1.763,10.775-2.114c1.083-1.313,4.211-2.449,4.907-0.339
		c-0.023,0.163-0.085,0.381-0.182,0.635C28.007,35.651,27.513,36.56,26.825,37.378z"/>
	<path fill="#E9CCAE" d="M25.243,8.453c0.089,0.055,0.413,0.251,0.817,0.511C25.629,8.708,25.33,8.513,25.243,8.453z"/>
	<path fill="#C9A887" d="M23.928,31.323c-0.085,0.043-0.168,0.087-0.25,0.129C23.773,31.38,23.857,31.337,23.928,31.323z"/>
	<path fill="#C9A887" d="M18.674,46.44c0,0,4.295,2.537,8.986-0.798C27.563,45.769,24.069,51,19.939,49h-0.002
		c-0.69-1-1.241-2.481-1.351-2.807L18.674,46.44z"/>
	<path fill="#C9A887" d="M23.678,31.452c-0.819,0.604-2.395,3.109-2.988,3.672c-0.662,0.628-2.578,1.289-4.892,0.728
		c0,0,0.638-1.673,0.972-3.858C16.855,32.056,19.136,33.734,23.678,31.452z"/>
	<path fill="#635445" d="M16.771,31.993c-0.333,2.185-0.972,3.858-0.972,3.858c-1.224-0.067-3.47-0.396-5.75-2.71
		C9.491,32.574,9,31.956,8.579,31.323c0.127,0.097,4.914,3.688,8.259,0.167C16.818,31.66,16.794,31.828,16.771,31.993z"/>
	<path fill="#635445" d="M10.048,32.979c-0.884,0.045-1.189,1.469-1.189,1.469c-0.626,0.21-1.519-0.442-2.423-1.614
		C6.507,32.858,8.141,33,8.577,31h0.002C9,32,9.491,32.413,10.048,32.979z"/>
	<path fill="none" stroke="#000000" stroke-width="0.5" stroke-linecap="round" stroke-linejoin="round" stroke-miterlimit="10" d="
		M63.916,54.423c0,0,0.152,2.979,1.066,6.329c0.681,2.492,1.782,5.19,3.56,7.023c1.521,4.492-1.125,10.441-1.587,10.838
		s-2.577,0.464-2.908,1.189c-0.038,0.083-0.073,0.175-0.107,0.273c-0.26,0.771-0.375,1.961-0.023,2.371
		c0.396,0.463,3.436,0.596,4.229,0.528c0.68-0.056,1.992-1.037,2.728-1.356c0.196-0.085,0.338-0.26,0.375-0.47
		c1.18-6.72,4.38-10.831,5.225-12.581c-1.917-2.513-2.274-7.347-1.982-9.716c0.462-3.768,3.173-8.396,3.173-8.396"/>
	<path fill="none" stroke="#000000" stroke-width="0.5" stroke-linecap="round" stroke-linejoin="round" stroke-miterlimit="10" d="
		M6.436,33.036c0.904,1.172,1.796,1.704,2.423,1.493c0.363,1.112,1.049,2.066,1.878,2.837c1.138,1.065,2.546,1.789,3.739,2.12
		c1.19,0.332,3.216,0.504,3.216,0.504s0.178,1.148,0.555,2.159c0.129,0.347,0.282,0.678,0.46,0.94
		c-0.282,0.643-0.343,1.467-0.305,2.179c0.025,0.46,0.095,0.872,0.172,1.158c0.004,0.012,0.008,0.024,0.012,0.04
		c0.109,0.325,0.66,1.511,1.351,3.079"/>
	<path fill="none" stroke="#000000" stroke-width="0.5" stroke-linecap="round" stroke-linejoin="round" stroke-miterlimit="10" d="
		M5.123,21.046c-0.285,0.801-0.428,1.586-0.428,1.586s-1.124,4.758,0.198,7.733c0.486,1.092,1.015,1.989,1.541,2.669"/>
	<path fill="none" stroke="#000000" stroke-width="0.5" stroke-linecap="round" stroke-linejoin="round" stroke-miterlimit="10" d="
		M5.885,19.658c-0.317,0.317-0.571,0.857-0.759,1.388"/>
	<path fill="none" stroke="#000000" stroke-width="0.5" stroke-linecap="round" stroke-linejoin="round" stroke-miterlimit="10" d="
		M19.104,7.426c-0.577,0.042-1.096,0.131-1.521,0.335c-0.97,0.464-2.261,1.356-3.256,2.217c-0.569,0.49-1.041,0.97-1.305,1.353
		c-0.992,0.529-3.504,1.586-3.768,2.974c-0.264,1.388,0.793,2.776,0.793,2.776s-3.361,1.779-4.16,2.576"/>
	<path fill="none" stroke="#000000" stroke-width="0.5" stroke-linecap="round" stroke-linejoin="round" stroke-miterlimit="10" d="
		M66.162,25.876c-3.731,0.63-7.484,1.247-9.483,1.688c-0.619,0.139-1.069,0.258-1.297,0.357c-0.054,0.023-0.096,0.045-0.125,0.065
		c-0.306-0.038-0.599,0.028-0.862,0.141c-0.652,0.279-1.12,0.851-1.12,0.851c-0.379-0.176-0.73-0.073-1.018,0.121
		c-0.464,0.315-0.768,0.871-0.768,0.871c-0.904-1.123-1.782-1.936-2.742-2.162c-0.47-0.109-0.959-0.081-1.481,0.121
		c-0.045,0.018-0.091,0.038-0.139,0.058c-0.444-1.061-1.459-1.858-2.489-2.223c-0.956-0.337-1.927-0.301-2.468,0.24
		c-0.391-0.476-0.803-0.811-1.18-1.045c-0.563-0.351-1.047-0.478-1.269-0.521c-0.083-0.016-0.128-0.02-0.128-0.02
		s-0.793-5.155-2.379-6.742c-0.631-0.63-1.386-1.731-2.068-2.829c-0.86-1.384-1.604-2.764-1.83-3.187
		c-0.01-0.022-0.022-0.042-0.03-0.06c-0.024-0.047-0.038-0.071-0.038-0.071s-0.168-1.939-1.114-3.091
		c-0.236-0.29-0.523-0.529-0.869-0.676c-0.65-0.275-1.497-0.569-2.425-0.785c-1.529-0.355-3.274-0.501-4.713-0.008
		c-1.664,0.571-3.529,0.355-5.015,0.458"/>
	<path fill="none" stroke="#000000" stroke-width="0.5" stroke-linecap="round" stroke-linejoin="round" stroke-miterlimit="10" d="
		M75.085,24.218c-0.993,0.236-2.336,0.5-3.856,0.779"/>
	<path fill="none" stroke="#000000" stroke-width="0.5" stroke-linecap="round" stroke-linejoin="round" stroke-miterlimit="10" d="
		M91.598,48.127c-0.273-0.864-0.452-1.616-0.452-2.296c0.462-3.9-0.66-8.526-2.115-10.971c-1.726-2.903-5.688-5.6-5.813-5.683"/>
	<path fill="none" stroke="#000000" stroke-width="0.5" stroke-linecap="round" stroke-linejoin="round" stroke-miterlimit="10" d="
		M75.002,49.575c0.097,0.002,0.19,0.01,0.281,0.024c0.821,0.121,1.626,0.408,2.401,0.814c4.332,2.257,7.711,8.108,7.711,8.108
		s2.842,5.685,3.173,6.939s0.793,4.824,1.388,5.75s2.776,4.031,2.975,5.354c0.198,1.323,0.66,3.306,0.198,3.966
		c-0.29,0.329-0.518,0.674-0.687,1.012c-0.414,0.816-0.491,1.588-0.305,1.963c0.264,0.529,2.246,1.189,3.965,1.255
		c0.861,0.034,2.776-0.793,2.975-1.453s-4.428-18.506-4.957-24.983c-0.387-4.724-1.791-7.866-2.522-10.194"/>
	<path fill="none" stroke="#000000" stroke-width="0.5" stroke-linecap="round" stroke-linejoin="round" stroke-miterlimit="10" d="
		M33.644,62.29c0,0,3.768,2.576,4.561,7.533s0,12.095,0,12.823c0,0.726,0.462,1.846,0.462,2.379c0,1.189-0.264,4.362-0.858,4.626
		s-1.983,0.858-2.578,1.388s-1.057,2.049-0.198,2.975c0.858,0.926,4.031,0.793,5.155,0.595c1.124-0.198,2.841-1.982,2.974-2.577
		c0.133-0.596,0.065-6.544,0.595-8.923c0.529-2.38,2.379-12.229,2.974-19.432c2.213,0.156,10.039-5.184,17.138-9.336
		c4.574-2.679,8.846-4.863,11.117-4.766"/>
	<path fill="none" stroke="#000000" stroke-width="0.5" stroke-linecap="round" stroke-linejoin="round" stroke-miterlimit="10" d="
		M19.939,49.545c1.344,3.054,3.222,7.559,3.395,9.968c0.264,3.702,0.462,6.014,0.793,7.667c0.331,1.652,3.172,7.997,2.974,12.756
		c-0.182,4.382-1.784,6.939-1.784,6.939s-2.181,0.133-2.975,0.992c-0.511,0.553-0.793,1.85-0.529,2.444
		c0.266,0.595,1.388,1.124,2.974,1.322c1.132,0.142,4.362-1.057,4.892-1.586c0.53-0.529,1.388-6.279,2.578-9.319
		c-0.587-6.65,1.334-18.123,1.386-18.435"/>
	<path fill="none" stroke="#000000" stroke-width="0.5" stroke-linecap="round" stroke-linejoin="round" stroke-miterlimit="10" d="
		M26.827,37.38c0,0-1.469,1.632-2.171,1.808c-1.322,0.331-3.636-0.232-4.296,0c-0.661,0.232-1.897,0.773-2.667,0.801"/>
	<path fill="none" stroke="#000000" stroke-linecap="round" stroke-linejoin="round" stroke-miterlimit="10" d="M18.971,7.967
		C19.017,7.965,19.061,8.5,19.104,8.5c0.002,0,0.004,0,0.008,0c1.047,0,1.765,0.214,2.602,1.186
		c0.228,0.266,0.434,0.377,0.628,0.777c0.252,0.513,0.488,0.918,0.736,1.261c0.983,1.36,4.42,3.54,5.147,5.457
		c0.571,1.505,0.398,5.684,0.858,6.938c0.367,1.001,1.491,2.904,1.834,5.146c0.087,0.575,0.125,1.161,0.083,1.768
		c-0.014,0.22-0.034,0.705-0.056,0.927"/>
	<path fill="none" stroke="#000000" stroke-width="0.5" stroke-linecap="round" stroke-linejoin="round" stroke-miterlimit="10" d="
		M8.579,31.323c0.42,0.633,0.912,1.251,1.469,1.818c2.28,2.314,4.527,2.643,5.75,2.71c2.314,0.561,4.229-0.099,4.892-0.728
		c0.593-0.563,2.169-3.068,2.988-3.672c0.095-0.071,0.179-0.115,0.25-0.129c0.268-0.05,0.728,0.095,1.261,0.258
		c0.849,0.258,1.888,0.559,2.639,0.172c0.113-0.058,0.216-0.127,0.307-0.208c0.902-0.764,0.829-2.409,0.387-3.327
		c-0.464-0.96-4.033-3.569-4.132-6.974c-0.115-3.998-0.694-5.815-0.694-5.815"/>
	<path fill="none" stroke="#000000" stroke-width="0.5" stroke-linecap="round" stroke-linejoin="round" stroke-miterlimit="10" d="
		M6.612,26.267c0,1.025,0.66,3.103,1.965,5.056"/>
	<path fill="none" stroke="#000000" stroke-width="0.5" stroke-linecap="round" stroke-linejoin="round" stroke-miterlimit="10" d="
		M5.885,19.658c0,0,0.002,0,0.004-0.002c0.091-0.028,1.673-0.501,3.432-0.43c0.751,0.03,1.537,0.159,2.249,0.466
		c1.957,0.841,3.525,3,4.45,5.245c0.42,1.017,0.706,2.048,0.836,2.984c0.168,1.198,0.123,2.437-0.018,3.569
		c-0.02,0.17-0.044,0.339-0.067,0.504c-0.333,2.185-0.972,3.858-0.972,3.858"/>
	<path fill="none" stroke="#000000" stroke-width="0.5" stroke-linecap="round" stroke-linejoin="round" stroke-miterlimit="10" d="
		M28.191,31.481c0,0-0.022,0.022-0.056,0.063c-0.172,0.2-0.68,0.841-0.516,1.275c0.133,0.343,0.918,0.843,0.819,1.537
		c-0.023,0.163-0.085,0.381-0.182,0.635c-0.25,0.66-0.744,1.568-1.432,2.387c-0.008,0.008-0.014,0.018-0.022,0.026"/>
	<path fill="none" stroke="#000000" stroke-width="0.5" stroke-linejoin="round" stroke-miterlimit="10" d="M8.859,34.529
		c0,0,0.305-1.342,1.189-1.388"/>
	<path fill="none" stroke="#000000" stroke-width="0.5" stroke-linecap="round" stroke-linejoin="round" stroke-miterlimit="10" d="
		M65.617,21.046c-0.179,0.658-0.268,1.356-0.248,2.088c0.002,0.093,0.008,0.184,0.014,0.275c0.067,0.887,0.35,1.717,0.779,2.467
		c1.345,2.359,4.145,3.932,6.346,3.998c3.237,0.095,4.701-1.83,5.056-2.233c0.629-0.712,0.363-1.771-0.991-1.142
		c-0.621,0.288-1.441,0.478-2.263,0.482c-0.668,0.004-1.338-0.119-1.901-0.417c-0.635-0.333-1.001-0.924-1.18-1.566
		c-0.238-0.854-0.145-1.804,0.089-2.365c0.331-0.793,1.785-1.785,3.371-1.156c0.404,0.159,0.692,0.557,0.825,0.928
		c0.075,0.21,0.103,0.412,0.071,0.557c-0.352,0.464-0.45,0.827-0.5,1.257c0,0,3.008-0.264,3.702,2.445"/>
	<path fill="none" stroke="#000000" stroke-width="0.5" stroke-linecap="round" stroke-linejoin="round" stroke-miterlimit="10" d="
		M83.215,29.225c0-0.016,0.002-0.032,0.002-0.048c0.252-4.099-0.904-8.175-3.308-10.709c-0.359-0.379-0.735-0.724-1.128-1.033
		c-2.08-1.648-4.628-2.324-7.464-1.731c-2.615,0.547-4.951,2.572-5.698,5.338"/>
	<path d="M33.644,62.487c-0.046,0-0.092-0.017-0.13-0.049c-0.757-0.656-1.688-1.098-2.675-1.564
		c-1.583-0.75-3.219-1.525-4.495-3.294c-0.064-0.09-0.043-0.213,0.045-0.277c0.089-0.064,0.213-0.044,0.277,0.045
		c1.216,1.687,2.805,2.439,4.343,3.168c1.011,0.479,1.967,0.932,2.765,1.623c0.083,0.071,0.092,0.197,0.02,0.279
		C33.755,62.464,33.699,62.487,33.644,62.487z"/>
	<path d="M46.731,64c-0.006,0-0.012,0-0.018,0c-0.109,0-0.189-0.17-0.18-0.277c0.093-1.047,0.375-2.071,0.673-3.123
		c0.545-1.919,1.162-4.11,0.65-7.052c-0.019-0.108,0.054-0.219,0.162-0.237c0.108-0.019,0.21,0.05,0.229,0.157
		c0.527,3.031-0.104,5.251-0.66,7.211c-0.293,1.033-0.57,2.071-0.66,3.079C46.919,63.86,46.833,64,46.731,64z"/>
	<path d="M9.982,17.312c-0.07,0-0.138-0.037-0.174-0.103c-0.053-0.096-0.018-0.216,0.079-0.269c1.019-0.559,2.987-2.79,3.748-4.5
		c0.044-0.1,0.161-0.145,0.262-0.1c0.1,0.044,0.145,0.161,0.101,0.262c-0.803,1.807-2.826,4.087-3.919,4.687
		C10.047,17.304,10.015,17.312,9.982,17.312z"/>
	<path d="M37.279,38.379c-0.025,0-0.05-0.006-0.074-0.02c-0.071-0.041-0.096-0.132-0.055-0.203
		c3.275-5.707,2.305-13.641,2.295-13.721c-0.01-0.082,0.047-0.156,0.129-0.167c0.081-0.01,0.156,0.047,0.167,0.129
		c0.01,0.08,0.992,8.114-2.332,13.906C37.38,38.353,37.331,38.379,37.279,38.379z"/>
	<path d="M39.658,52.854c-0.03,0-0.06-0.009-0.085-0.027c-0.067-0.048-0.083-0.141-0.036-0.207
		c0.045-0.064,4.536-6.478,5.195-14.731c0.324-4.062-0.523-7.925-2.517-11.481c-0.115-0.205-0.167-0.297-0.187-0.357
		c-0.026-0.078,0.016-0.162,0.094-0.188s0.162,0.016,0.188,0.094c0.012,0.036,0.085,0.167,0.164,0.306
		c2.023,3.608,2.882,7.528,2.554,11.65c-0.666,8.337-5.203,14.815-5.249,14.879C39.751,52.832,39.705,52.854,39.658,52.854z"/>
	<path d="M48.053,42.146c-0.01,0-0.02-0.001-0.029-0.003c-0.081-0.016-0.133-0.094-0.117-0.175
		c1.786-8.996-0.882-13.862-0.909-13.91c-0.04-0.072-0.015-0.162,0.057-0.203c0.071-0.041,0.162-0.015,0.203,0.056
		c0.027,0.049,2.749,5.011,0.941,14.114C48.184,42.097,48.122,42.146,48.053,42.146z"/>
	<path d="M54.927,40c-0.003,0-0.005,0-0.008,0c-0.082,0-0.146,0.239-0.142,0.157c0.291-6.109-3.363-10.205-3.399-10.247
		c-0.055-0.062-0.048-0.078,0.014-0.131c0.062-0.055,0.155-0.009,0.21,0.053c0.037,0.043,3.771,4.087,3.473,10.32
		C55.071,40.232,55.005,40,54.927,40z"/>
	<path d="M57.372,38.153C57.371,38.153,57.371,38.153,57.372,38.153c-0.083,0-0.149,0.013-0.149-0.069
		c0.032-6.314-3.99-8.996-4.03-9.022c-0.068-0.045-0.088-0.118-0.043-0.186s0.138-0.078,0.206-0.033
		c0.042,0.028,4.198,2.754,4.165,9.237C57.52,38.162,57.453,38.153,57.372,38.153z"/>
	<path d="M57.9,32c-0.075,0-0.14-0.105-0.147-0.182c-0.348-3.253-2.498-3.658-2.52-3.661c-0.081-0.013-0.137-0.102-0.123-0.183
		c0.013-0.081,0.088-0.143,0.17-0.129c0.023,0.004,2.396,0.468,2.769,3.945c0.008,0.082-0.051,0.21-0.133,0.21
		C57.911,32,57.905,32,57.9,32z"/>
	<path d="M21.531,45c-1.916,0-2.944-1.806-2.987-1.884c-0.04-0.072-0.014-0.157,0.058-0.196c0.071-0.041,0.162,0.126,0.202,0.198
		C18.813,43.135,19.792,45,21.533,45c0.016,0,0.031,0,0.046,0c0.765,0,1.131-0.458,1.557-0.812c0.453-0.377,0.966-0.874,2.029-1.013
		c0.764-0.101,1.541-0.155,2.292-0.175c1.24-0.032,2.411-0.081,3.356-0.462c1.652-0.668,3.638-1.973,4.338-6.108
		c0.014-0.081,0.088-0.14,0.171-0.126c0.081,0.014,0.135,0.088,0.122,0.169c-0.732,4.329-2.93,5.683-4.519,6.325
		c-0.996,0.402-2.192,0.433-3.46,0.466c-0.744,0.02-1.512,0.04-2.26,0.138c-0.978,0.128-1.435,0.498-1.877,0.867
		C22.877,44.642,22.454,45,21.584,45C21.566,45,21.549,45,21.531,45z"/>
	<path d="M22.697,47.67c-2.447,0-4.176-1.102-4.204-1.12c-0.069-0.045-0.088-0.137-0.043-0.206s0.137-0.088,0.206-0.043
		c0.042,0.028,4.27,2.712,8.821-0.525c0.067-0.047,0.16-0.032,0.208,0.035c0.047,0.067,0.032,0.16-0.035,0.208
		C25.882,47.275,24.161,47.67,22.697,47.67z"/>
	<path d="M29.723,12.958c-0.237,0-0.445-0.021-0.61-0.064c-0.252-0.066-0.404-0.185-0.452-0.354
		c-0.214-0.764-0.468-1.606-0.779-1.932c-0.635-0.667-2.845-2.002-2.867-2.016c-0.094-0.057-0.124-0.178-0.067-0.272
		c0.057-0.093,0.179-0.124,0.272-0.067c0.093,0.056,2.278,1.377,2.949,2.083c0.374,0.392,0.626,1.216,0.874,2.099
		c0.01,0.016,0.099,0.078,0.347,0.109c0.907,0.115,2.852-0.288,3.718-1.154c0.077-0.077,0.203-0.078,0.28,0s0.078,0.203,0,0.281
		C32.558,12.499,30.829,12.958,29.723,12.958z"/>
	<path d="M34.768,24.367c-0.006,0-0.013,0-0.019-0.001c-0.082-0.01-0.139-0.085-0.128-0.167c0.005-0.042,0.548-4.254,0.068-6.426
		c-0.242-1.094-0.58-2.128-0.878-3.04c-0.4-1.221-0.745-2.276-0.745-3.106c0-0.082,0.066-0.148,0.149-0.148
		c0.082,0,0.148,0.066,0.148,0.148c0,0.783,0.338,1.816,0.73,3.013c0.301,0.918,0.641,1.96,0.886,3.068
		c0.491,2.223-0.041,6.354-0.064,6.529C34.905,24.313,34.841,24.367,34.768,24.367z"/>
	<circle cx="9.322" cy="27.325" r="0.264"/>
	<circle cx="10.247" cy="30.629" r="0.264"/>
	<circle cx="10.974" cy="28.581" r="0.264"/>
	<circle cx="13.155" cy="31.422" r="0.264"/>
	<circle cx="14.146" cy="29.969" r="0.264"/>
	<circle cx="15.6" cy="31.753" r="0.264"/>
	<circle cx="5.95" cy="28.184" r="0.264"/>
	<circle cx="5.95" cy="30.167" r="0.264"/>
	<path fill="#C9A887" d="M23.764,15.962c0,0.264-0.052,0.52-0.146,0.755l-0.085-0.034c-0.262-0.038-0.531-0.067-0.805-0.087
		l-0.284-0.176C22.245,13.809,20,14.041,19,13.89v-0.002c1-0.19,1.165-0.297,1.658-0.297C22.209,13.59,23.764,14.653,23.764,15.962z
		"/>
	<path fill="#D1D3D4" d="M23.532,16.684l0.085,0.034c-0.095,0.242-0.236,0.464-0.413,0.665l-0.103-0.07
		c-1.693-0.353-4.273-0.002-4.439,0.02c-0.145-0.17-0.26-0.357-0.347-0.555l0.062-0.028c0,0,2.272-0.309,4.35-0.153
		C23,16.616,23.27,16.646,23.532,16.684z"/>
	<path fill="#FFFFFF" d="M23.102,17.312l0.103,0.07c-0.512,0.577-1.331,0.952-2.25,0.952c-0.946,0-1.785-0.397-2.292-1.001
		C18.829,17.31,21.408,16.959,23.102,17.312z"/>
	<path fill="none" stroke="#000000" stroke-width="0.5" stroke-linecap="round" stroke-linejoin="round" stroke-miterlimit="10" d="
		M19.592,13.888c0.402-0.19,0.869-0.297,1.362-0.297c1.55,0,2.81,1.063,2.81,2.372c0,0.264-0.052,0.52-0.146,0.755
		c-0.095,0.242-0.236,0.464-0.413,0.665c-0.512,0.577-1.331,0.952-2.25,0.952c-0.946,0-1.785-0.397-2.292-1.001
		c-0.145-0.17-0.26-0.357-0.347-0.555c-0.111-0.254-0.17-0.529-0.17-0.815C18.145,15.069,18.729,14.292,19.592,13.888z"/>
	<path fill="none" stroke="#000000" stroke-width="0.5" stroke-linecap="round" stroke-linejoin="round" stroke-miterlimit="10" d="
		M18.376,16.749c0,0,2.272-0.309,4.35-0.153c0.274,0.02,0.543,0.05,0.805,0.087"/>
	<path d="M20.095,16.618c0,0.383,0.311,0.694,0.694,0.694s0.694-0.311,0.694-0.694c0-0.022-0.005-0.043-0.007-0.065
		c-0.487,0-0.958,0.017-1.379,0.042C20.097,16.602,20.095,16.609,20.095,16.618z"/>
	<path d="M20.789,17.51c-0.492,0-0.892-0.401-0.892-0.893c0-0.009,0.002-0.032,0.003-0.041c0.002-0.104,0.083-0.175,0.186-0.182
		c0.48-0.027,0.946-0.044,1.391-0.042c0.103,0,0.188,0.078,0.198,0.18c0.005,0.038,0.007,0.06,0.007,0.083
		C21.681,17.109,21.281,17.51,20.789,17.51z M20.32,16.78c0.067,0.194,0.252,0.333,0.468,0.333c0.227,0,0.419-0.153,0.478-0.362
		C20.96,16.755,20.644,16.764,20.32,16.78z"/>
	<path d="M20.894,22.935c-0.338,0-0.718-0.062-1.121-0.232c-1.332-0.563-1.443-2.121-1.629-4.703
		c-0.038-0.531-0.082-1.133-0.139-1.774c-0.007-0.082,0.053-0.154,0.135-0.161c0.086-0.005,0.154,0.053,0.162,0.135
		c0.058,0.644,0.101,1.247,0.139,1.779c0.183,2.553,0.284,3.958,1.448,4.45c1.119,0.473,2.028,0.017,2.28-0.135
		c0.305-0.183,0.418-0.353,0.422-0.402c0.007-0.082,0.081-0.141,0.162-0.135c0.082,0.008,0.142,0.08,0.135,0.162
		c-0.018,0.193-0.229,0.429-0.566,0.631C22.13,22.664,21.602,22.935,20.894,22.935z"/>
	<path fill="#332D27" d="M9.983,22.408c0.044,0.194,0.018,0.493-0.063,0.752c-0.202,0.087-0.402,0.198-0.603,0.265
		c-0.508-0.395-1.36-0.26-1.4,0.281c-0.002,0.026-0.002,0.058,0.002,0.079c-0.884,0.133-1.695,0.119-2.328,0.058
		c0.021-0.045,0.032-0.096,0.024-0.157c-0.058-0.5-0.833-0.697-1.416-0.251l-0.006,0.003C4.147,23.282,4.116,23.007,4.1,22.87
		C4.074,22.644,4.074,23,4.128,22H4.13C4.13,22,6.557,20.61,9.983,22.408z"/>
	<path fill="#4D433B" d="M9.983,22.408C6.557,20.61,4.13,22,4.13,22H4.128c0.139,0,0.654-1.288,2.088-1.29
		C8.528,20.708,9.717,21.252,9.983,22.408z"/>
	<path d="M4.251,23.612c-0.002-0.002-0.002-0.002-0.002-0.002c-0.02-0.057-0.038-0.115-0.056-0.17l0.006-0.002
		c0.583-0.446,1.358-0.248,1.416,0.252c0.008,0.062-0.002,0.113-0.024,0.159C4.806,23.77,4.292,23.624,4.251,23.612z"/>
	<path d="M9.919,23.223c-0.198,0.636-0.726,1.41-1.344,2.026l-0.014-0.014c0,0,0.271-0.496,0-0.868
		c-0.177-0.242-0.601-0.29-0.643-0.573c0.45-0.067,0.922-0.176,1.398-0.337C9.517,23.39,9.717,23.31,9.919,23.223z"/>
	<path d="M7.917,23.723c0.04-0.542,0.892-0.66,1.4-0.266c-0.476,0.161-0.948,0.27-1.398,0.337
		C7.915,23.772,7.915,23.749,7.917,23.723z"/>
	<path fill="#2B2521" d="M8.562,24.367c0.271,0.373,0,0.868,0,0.868l0.014,0.014c-0.632,0.63-1.36,1.098-1.931,1.084
		c-0.547-0.014-1.217-0.656-1.733-1.43c-0.034-0.163-0.036-0.367,0.085-0.545c0.148-0.222,0.5-0.297,0.595-0.511
		c0.632,0.062,1.443,0.079,2.328-0.054C7.96,24.078,8.385,24.125,8.562,24.367z"/>
	<path d="M5.591,23.848c-0.095,0.214-0.446,0.29-0.595,0.511c-0.121,0.179-0.119,0.383-0.085,0.545
		c-0.28-0.418-0.516-0.876-0.66-1.292C4.292,23.624,4.806,23.77,5.591,23.848z"/>
	<path fill="none" stroke="#000000" stroke-width="0.5" stroke-linecap="round" stroke-linejoin="round" stroke-miterlimit="10" d="
		M4.249,23.609c-0.02-0.057-0.038-0.115-0.056-0.17c-0.046-0.157-0.078-0.307-0.093-0.444c-0.026-0.226-0.026-0.488,0.028-0.746
		c0.139-0.682,0.654-1.351,2.088-1.353c2.312-0.002,3.501,0.48,3.767,1.636c0.044,0.194,0.018,0.431-0.063,0.69
		c-0.198,0.636-0.726,1.41-1.344,2.026c-0.632,0.63-1.36,1.098-1.931,1.084c-0.547-0.014-1.217-0.656-1.733-1.43
		c-0.28-0.418-0.516-0.876-0.66-1.292"/>
	<path fill="none" stroke="#000000" stroke-width="0.5" stroke-linecap="round" stroke-linejoin="round" stroke-miterlimit="10" d="
		M8.562,25.235c0,0,0.271-0.496,0-0.868c-0.177-0.242-0.601-0.29-0.643-0.573c-0.004-0.021-0.004-0.045-0.002-0.071
		c0.04-0.542,0.892-0.66,1.4-0.266c0.119,0.093,0.22,0.214,0.286,0.365"/>
	<path fill="none" stroke="#000000" stroke-width="0.5" stroke-miterlimit="10" d="M4.917,24.936
		c-0.002-0.01-0.004-0.02-0.006-0.032c-0.034-0.163-0.036-0.367,0.085-0.545c0.148-0.222,0.5-0.297,0.595-0.511
		c0.021-0.046,0.032-0.097,0.024-0.159c-0.058-0.5-0.833-0.698-1.416-0.252"/>
	<path fill="none" stroke="#000000" stroke-width="0.5" stroke-linecap="round" stroke-linejoin="round" stroke-miterlimit="10" d="
		M4.249,23.609c0,0,0,0,0.002,0.002c0.042,0.012,0.555,0.158,1.34,0.236"/>
	<path d="M51.787,45.385c-0.017,0-0.033-0.003-0.049-0.009c-0.078-0.027-0.119-0.112-0.092-0.189
		c2.193-6.289,1.39-12.559,1.381-12.622c-0.011-0.082,0.046-0.156,0.128-0.167c0.081-0.011,0.156,0.046,0.167,0.127
		c0.009,0.063,0.821,6.404-1.396,12.759C51.906,45.347,51.849,45.385,51.787,45.385z"/>
	<path d="M79.777,24.152c-0.062,0-0.123-0.029-0.162-0.083c-1.498-2.11-3.814-0.978-3.912-0.929
		c-0.098,0.049-0.218,0.01-0.267-0.088s-0.01-0.217,0.088-0.266c0.026-0.013,2.716-1.338,4.415,1.054
		c0.063,0.089,0.042,0.213-0.047,0.276C79.857,24.141,79.817,24.152,79.777,24.152z"/>
	<path d="M27.894,88.065c-0.043,0-0.087-0.015-0.124-0.044c-0.935-0.748-2.463-0.947-2.479-0.949
		c-0.108-0.014-0.186-0.113-0.172-0.222c0.014-0.108,0.113-0.186,0.222-0.172c0.067,0.009,1.653,0.215,2.677,1.033
		c0.085,0.068,0.1,0.193,0.031,0.279C28.009,88.04,27.952,88.065,27.894,88.065z"/>
	<path d="M40.188,90.841c-0.067,0-0.133-0.034-0.17-0.096c-0.531-0.885-2.192-0.896-2.209-0.896c-0.11,0-0.199-0.089-0.199-0.198
		s0.089-0.198,0.199-0.198c0.077,0,1.904,0.013,2.549,1.088c0.056,0.094,0.026,0.216-0.068,0.271
		C40.257,90.832,40.222,90.841,40.188,90.841z"/>
	<path d="M68.938,79.539c-0.039,0-0.08-0.012-0.114-0.037c-0.649-0.464-1.891-0.69-1.903-0.693c-0.107-0.019-0.179-0.122-0.16-0.229
		c0.021-0.108,0.124-0.181,0.23-0.16c0.055,0.01,1.342,0.245,2.063,0.761c0.089,0.063,0.109,0.188,0.046,0.276
		C69.061,79.511,69,79.539,68.938,79.539z"/>
	<path d="M93.129,80.729c-0.078,0-0.151-0.045-0.184-0.121c-0.042-0.101,0.005-0.217,0.106-0.26
		c0.079-0.033,1.975-0.815,3.712-0.202c0.104,0.036,0.157,0.149,0.121,0.253c-0.037,0.104-0.149,0.157-0.253,0.121
		c-1.591-0.562-3.408,0.187-3.427,0.193C93.181,80.724,93.154,80.729,93.129,80.729z"/>
	<path d="M23.32,89.208c0,0-0.09,0.087-0.199,0.236c-0.11,0.146-0.237,0.357-0.327,0.579c-0.046,0.11-0.082,0.224-0.108,0.33
		c-0.016,0.053-0.023,0.106-0.033,0.155c-0.011,0.049-0.016,0.096-0.02,0.139c-0.012,0.086-0.013,0.157-0.013,0.208
		c-0.001,0.05-0.002,0.078-0.002,0.078l-0.395-0.035c0,0,0.007-0.033,0.021-0.091c0.012-0.058,0.03-0.139,0.063-0.233
		c0.015-0.048,0.031-0.099,0.054-0.15c0.022-0.053,0.042-0.108,0.071-0.163c0.053-0.11,0.116-0.225,0.188-0.331
		c0.142-0.215,0.314-0.402,0.455-0.527C23.215,89.275,23.32,89.208,23.32,89.208z"/>
	<path d="M24.907,89.604c0,0-0.09,0.087-0.199,0.236c-0.111,0.146-0.237,0.357-0.327,0.579c-0.046,0.11-0.082,0.224-0.108,0.331
		c-0.016,0.053-0.023,0.105-0.033,0.154c-0.011,0.049-0.017,0.096-0.02,0.139c-0.012,0.086-0.013,0.158-0.014,0.208
		c-0.001,0.05-0.002,0.078-0.002,0.078l-0.395-0.035c0,0,0.007-0.033,0.02-0.091c0.012-0.058,0.031-0.139,0.063-0.233
		c0.014-0.047,0.031-0.099,0.054-0.15c0.022-0.053,0.042-0.108,0.071-0.163c0.053-0.11,0.116-0.225,0.188-0.331
		c0.142-0.215,0.315-0.402,0.456-0.527C24.801,89.672,24.907,89.604,24.907,89.604z"/>
	<path d="M36.803,92.777c0,0-0.089,0.087-0.198,0.235c-0.111,0.147-0.237,0.358-0.327,0.58c-0.046,0.11-0.082,0.224-0.109,0.33
		c-0.016,0.053-0.022,0.105-0.033,0.155c-0.01,0.048-0.016,0.095-0.02,0.139c-0.011,0.086-0.013,0.157-0.013,0.207
		c-0.001,0.05-0.002,0.078-0.002,0.078l-0.395-0.035c0,0,0.008-0.032,0.021-0.09c0.012-0.058,0.031-0.139,0.063-0.233
		c0.014-0.048,0.031-0.099,0.054-0.15c0.022-0.053,0.042-0.108,0.071-0.163c0.053-0.11,0.116-0.225,0.188-0.331
		c0.142-0.215,0.315-0.402,0.456-0.527C36.698,92.845,36.803,92.777,36.803,92.777z"/>
	<path d="M38.984,92.976c0,0-0.089,0.087-0.198,0.235c-0.111,0.147-0.237,0.358-0.327,0.58c-0.046,0.11-0.082,0.224-0.109,0.33
		c-0.016,0.053-0.023,0.105-0.033,0.155c-0.01,0.048-0.016,0.095-0.02,0.139c-0.011,0.086-0.013,0.157-0.013,0.207
		c-0.001,0.05-0.002,0.078-0.002,0.078l-0.395-0.035c0,0,0.008-0.032,0.021-0.09c0.012-0.058,0.031-0.139,0.063-0.233
		c0.014-0.048,0.031-0.099,0.054-0.15c0.022-0.053,0.042-0.108,0.071-0.163c0.053-0.11,0.116-0.225,0.188-0.331
		c0.142-0.215,0.315-0.402,0.456-0.527C38.879,93.043,38.984,92.976,38.984,92.976z"/>
	<path d="M65.753,80.881c0,0-0.09,0.087-0.199,0.235c-0.11,0.147-0.236,0.357-0.326,0.579c-0.046,0.11-0.082,0.225-0.108,0.331
		c-0.017,0.053-0.023,0.105-0.033,0.154c-0.011,0.049-0.016,0.096-0.02,0.139c-0.012,0.086-0.014,0.158-0.014,0.208
		c-0.001,0.05-0.002,0.078-0.002,0.078l-0.395-0.035c0,0,0.007-0.033,0.02-0.091c0.013-0.057,0.031-0.139,0.063-0.232
		c0.015-0.048,0.031-0.099,0.055-0.151c0.021-0.052,0.041-0.108,0.07-0.163c0.053-0.11,0.116-0.225,0.188-0.33
		c0.143-0.216,0.314-0.403,0.455-0.528C65.647,80.947,65.753,80.881,65.753,80.881z"/>
	<path d="M67.934,81.079c0,0-0.09,0.087-0.198,0.235c-0.11,0.147-0.237,0.357-0.327,0.58c-0.046,0.109-0.081,0.224-0.108,0.33
		c-0.016,0.053-0.022,0.105-0.032,0.154c-0.011,0.049-0.017,0.096-0.021,0.14c-0.012,0.085-0.013,0.157-0.013,0.207
		c-0.002,0.05-0.002,0.078-0.002,0.078l-0.396-0.035c0,0,0.008-0.033,0.021-0.091c0.012-0.057,0.03-0.139,0.063-0.232
		c0.014-0.048,0.031-0.099,0.054-0.151c0.021-0.052,0.042-0.108,0.07-0.163c0.054-0.11,0.116-0.224,0.188-0.33
		c0.143-0.216,0.315-0.403,0.456-0.528C67.828,81.146,67.934,81.079,67.934,81.079z"/>
	<path d="M93.784,82.214c0,0-0.077,0.099-0.164,0.261c-0.089,0.162-0.184,0.388-0.241,0.62c-0.03,0.115-0.05,0.233-0.062,0.343
		c-0.008,0.054-0.007,0.107-0.01,0.157c-0.004,0.05-0.003,0.097-0.001,0.141c0.001,0.087,0.01,0.157,0.017,0.207
		c0.006,0.05,0.009,0.078,0.009,0.078l-0.396,0.021c0,0,0.003-0.033,0.007-0.092s0.011-0.143,0.03-0.24
		c0.007-0.049,0.017-0.103,0.032-0.157c0.014-0.055,0.026-0.113,0.047-0.171c0.037-0.117,0.083-0.238,0.14-0.354
		c0.11-0.232,0.255-0.442,0.377-0.586C93.689,82.295,93.784,82.214,93.784,82.214z"/>
	<path d="M95.546,82.758c0,0-0.052,0.113-0.098,0.292c-0.049,0.178-0.089,0.42-0.091,0.659c-0.002,0.12,0.006,0.238,0.021,0.348
		c0.005,0.055,0.018,0.106,0.026,0.155c0.008,0.05,0.021,0.095,0.033,0.137c0.021,0.084,0.046,0.151,0.063,0.198
		s0.027,0.073,0.027,0.073l-0.381,0.112c0,0-0.005-0.033-0.014-0.092c-0.01-0.058-0.022-0.14-0.027-0.24
		c-0.004-0.049-0.007-0.103-0.005-0.159c0.001-0.057-0.001-0.116,0.006-0.178c0.008-0.122,0.024-0.252,0.053-0.377
		c0.054-0.253,0.145-0.49,0.229-0.658C95.473,82.858,95.546,82.758,95.546,82.758z"/>
</g>
</svg>
