<?xml version="1.0" encoding="utf-8"?>
<!-- Generator: Adobe Illustrator 16.0.0, SVG Export Plug-In . SVG Version: 6.00 Build 0)  -->
<!DOCTYPE svg PUBLIC "-//W3C//DTD SVG 1.1//EN" "http://www.w3.org/Graphics/SVG/1.1/DTD/svg11.dtd">
<svg version="1.1" id="Capa_1" xmlns="http://www.w3.org/2000/svg" xmlns:xlink="http://www.w3.org/1999/xlink" x="0px" y="0px"
	 width="100px" height="100px" viewBox="0 0 100 100" enable-background="new 0 0 100 100" xml:space="preserve">
<g>
	<path fill="#8BBC4E" d="M30.002,52.786c5.805,3.48,10,3.74,15.282-0.088c8.458,3.4,14.935,2.362,17.913-6.508
		c9.293-2.164,10.273-8.828,7.037-17.778c6.467-9.504,1.867-14.909-5.779-19.187c-1.213-9.729-7.59-10.535-17.423-5.382
		c-7.13-5.622-13.324-5.508-18.107,3.229c-8.69,2.385-10.526,7.729-7.733,15.073c-6.137,6.687-5.122,12.893,0.489,18.793
		C19.96,47.904,23.727,54.106,30.002,52.786z"/>
	<path fill="#A55325" d="M42.7,54.778C42.536,69.851,42.372,84.927,42.208,100c1.828,0,3.656,0,5.484,0c0-15.157,0-30.313,0-45.466
		c1.203-4.684,4.829-10.328,8.073-15.126c2-3.359,3.096-4.176,1.518-10.374c-2.586-0.424-0.506,10.622-4.16,6.263
		c-0.893-0.771-1.504-3.004-1.213-4.763c0.783-4.76,3.408-9.779,1.508-11.634c-4.264-0.683-3.138,17.485-2.008,21.046
		c1.129,3.562-3.153,6.26-4.134,5.558c-0.763-0.79,1.913-8.264-0.171-9.031c-3.199-0.745-0.432,9.023-3.821,9.103
		c-7.943-3.733,3.92-16.142,3.622-17.325c-1.221-0.374-3.576,4.798-4.404,4.649c-2.699-0.916,5.584-14.248,4.603-14.34
		c-3.371-0.125-6.485,9.791-6.779,11.451c-0.359,1.767-0.611,5.13-2.424,5.874c-2.244,0.599-0.79-21.13-2.057-20.752
		c-3.343,4.611,0.851,12.004-0.488,21.046c-0.413,2.504-3.466-2.057-4.6,0c0.817,3.568,3.31,2.095,7.218,7.145
		C40.162,45.885,41.002,51.092,42.7,54.778z"/>
	<path fill="#803D17" d="M45.296,52.702V100h2.396V54.534c0.073-0.298,0.161-0.596,0.252-0.897
		c1.405-4.492,4.778-9.732,7.821-14.229c2-3.359,3.096-4.176,1.518-10.374c-2.586-0.424-0.506,10.622-4.16,6.263
		c-0.893-0.771-1.504-3.004-1.213-4.763c0.783-4.76,3.408-9.779,1.508-11.634c-4.264-0.683-3.138,17.485-2.008,21.046
		c1.129,3.562-3.153,6.26-4.134,5.558c-0.763-0.79,1.913-8.264-0.171-9.031c-1.489-0.348-1.687,1.584-1.809,3.751V52.702z"/>
</g>
</svg>
