<?xml version="1.0" encoding="utf-8"?>
<!-- Generator: Adobe Illustrator 16.0.0, SVG Export Plug-In . SVG Version: 6.00 Build 0)  -->
<!DOCTYPE svg PUBLIC "-//W3C//DTD SVG 1.1//EN" "http://www.w3.org/Graphics/SVG/1.1/DTD/svg11.dtd">
<svg version="1.1" id="Capa_1" xmlns="http://www.w3.org/2000/svg" xmlns:xlink="http://www.w3.org/1999/xlink" x="0px" y="0px"
	 width="100px" height="100px" viewBox="0 0 100 100" enable-background="new 0 0 100 100" xml:space="preserve">
<g>
	<path fill="#BED573" d="M18.32,46.494c-3.164,29.625,8.521,39.058,30.078,39.829c16.319-0.744,34.924-0.318,30.889-42.268
		c-3.011-19.257-17.203-39.61-31.7-40.441C32.824,3.753,22.341,22.345,18.32,46.494z"/>
	<path fill="#B3744F" d="M49.708,34.09c4.553-1.276,8.887-1.608,13.068-1.263c-3.809,2.892-7.937,5.151-12.437,6.66l1.383,11.785
		c5.191-1.688,10.31-2.446,15.374-2.545c-4.5,3.476-9.173,6.713-14.63,8.88l1.323,11.233c5.889,0.751,11.565,1.416,17.116,2.546
		c-4.58,2.254-10.051,3.962-16.199,5.244l2.586,21.982c-5.896,0-11.792,0-17.682,0l2.214-20.905
		c-6.129-0.897-11.606-2.399-16.538-4.394c5.297-1.928,11.061-3.396,17.455-4.234l0.984-9.279c-4.999-1.116-9.991-2.646-14.989-4.52
		c5.424-1.603,10.722-2.766,15.787-3.058l1.229-11.56c-4.121-0.731-8.043-2.652-11.932-4.739c4.294-0.897,8.528-1.536,12.589-1.489
		l1.582-14.922L49.708,34.09z"/>
	<path fill="#9EB361" d="M53.45,50.741c-0.16-1.529-0.3-3.064-0.253-4.633c0.047-1.875,0.353-3.789,2.307-6.454
		c1.011-1.376,2.459-2.951,4.128-4.626c-2.911,1.854-6.003,3.357-9.293,4.46l1.383,11.785C52.3,51.087,52.878,50.907,53.45,50.741z"
		/>
	<path fill="#9EB361" d="M55.377,64.487c-0.199-1.842-0.1-3.49,1.509-5.923c1.164-1.762,3.104-3.935,5.271-6.229
		c-3.018,2.055-6.195,3.882-9.691,5.271l1.323,11.233c0.837,0.106,1.668,0.213,2.492,0.319
		C55.89,67.538,55.537,65.949,55.377,64.487z"/>
	<path fill="#9EB361" d="M58.063,85.691c-0.226-1.35-0.425-2.666-0.484-3.789c-0.066-1.376,0.086-2.459,1.528-3.742
		c1.436-1.276,4.161-2.752,6.68-4.313c0.38-0.24,0.752-0.479,1.124-0.719c-3.662,1.423-7.75,2.573-12.204,3.503l1.09,9.286
		C56.554,85.857,57.312,85.784,58.063,85.691z"/>
	<path fill="#8F593B" d="M47.992,19.513l0.685,66.796l0.126,12.304h8.488l-1.496-12.696l-1.09-9.286
		c4.454-0.93,8.542-2.08,12.204-3.503c1.396-0.538,2.726-1.123,3.995-1.741c-4.767-0.971-9.618-1.602-14.624-2.227
		c-0.824-0.106-1.655-0.213-2.492-0.319l-1.323-11.233c3.496-1.39,6.674-3.217,9.691-5.271c1.688-1.143,3.324-2.359,4.938-3.609
		c-4.506,0.086-9.046,0.698-13.646,2.014c-0.572,0.166-1.15,0.346-1.729,0.531l-1.383-11.785c3.29-1.103,6.382-2.605,9.293-4.46
		c1.069-0.691,2.12-1.422,3.144-2.2c-4.181-0.346-8.515-0.013-13.068,1.263L47.992,19.513z"/>
</g>
</svg>
