<?xml version="1.0" encoding="utf-8"?>
<!-- Generator: Adobe Illustrator 16.0.0, SVG Export Plug-In . SVG Version: 6.00 Build 0)  -->
<!DOCTYPE svg PUBLIC "-//W3C//DTD SVG 1.1//EN" "http://www.w3.org/Graphics/SVG/1.1/DTD/svg11.dtd">
<svg version="1.1" id="Capa_1" xmlns="http://www.w3.org/2000/svg" xmlns:xlink="http://www.w3.org/1999/xlink" x="0px" y="0px"
	 width="100px" height="100px" viewBox="0 0 100 100" enable-background="new 0 0 100 100" xml:space="preserve">
<g>
	<path fill="#BED573" d="M54.603,72.131c9.698-9.365-0.44-47.365-8.604-68.82C30.71,30.868,27.34,65.404,36.577,71.515
		C42.128,74.628,48.91,76.155,54.603,72.131z"/>
	<path fill="#994517" d="M44.334,23.449l-0.167,8.643c-1.338,0.624-2.681,0.885-4.02,0.983c1.292,0.351,2.613,0.521,3.994,0.342
		l-0.081,4.152c-1.189,0.641-2.668,0.607-4.208,0.432c1.249,0.928,2.591,1.433,4.187,0.859l-0.111,5.761
		c-2.638,0.817-4.182,0.706-5.405,0.316c1.253,1.188,2.822,1.976,5.371,1.514l-0.107,5.551c-2.061,1.077-4.118,0.672-6.175,0.363
		c2.044,0.992,4.092,1.976,6.137,1.484l-0.103,5.495c-2.219,1.043-4.918,0.496-7.53,0.218c2.416,0.868,4.828,1.767,7.492,1.779
		l-0.111,5.786c-2.331,0.518-4.798-0.231-7.253-0.834c2.275,1.402,4.58,2.724,7.206,3.182l-0.552,28.835c1.574,0,3.143,0,4.712,0
		l-1.287-29.37c3.348-0.312,5.812-1.778,7.688-4.016c-2.467,0.902-5.003,1.604-7.791,1.646l-0.235-5.418
		c2.767-0.261,5.23-1.364,7.591-2.758c-2.558,0.509-5.119,0.979-7.681,0.786l-0.227-5.226c2.301,0.253,4.216-0.491,5.961-1.681
		c-1.792,0.334-3.695,0.479-6.038-0.072l-0.273-6.265c1.877,0.009,3.408-0.329,4.34-1.266c-1.471-0.026-2.946-0.163-4.413-0.423
		l-0.235-5.363c2.189,0.355,3.237-0.171,3.828-1.052c-0.843,0.394-1.865,0.599-3.888-0.235l-0.192-4.396
		c1.561,0.235,2.908-0.141,4.195-0.693c-1.467,0.081-2.899,0.017-4.242-0.423L44.334,23.449z"/>
	<path fill="#743712" d="M44.352,23.889l0.475,49.833l0.235,24.589h2.549l-1.078-24.598l-0.209-4.772
		c3.348-0.312,5.812-1.778,7.688-4.016c-2.467,0.902-5.003,1.604-7.791,1.646l-0.235-5.418c2.767-0.261,5.23-1.364,7.591-2.758
		c-2.558,0.509-5.119,0.979-7.681,0.786l-0.227-5.226c2.301,0.253,4.216-0.491,5.961-1.681c-1.792,0.334-3.695,0.479-6.038-0.072
		l-0.273-6.265c1.877,0.009,3.408-0.329,4.34-1.266c-1.471-0.026-2.946-0.163-4.413-0.423l-0.235-5.363
		c2.189,0.355,3.237-0.171,3.828-1.052c-0.843,0.394-1.865,0.599-3.888-0.235l-0.192-4.396c1.561,0.235,2.908-0.141,4.195-0.693
		c-1.467,0.081-2.899,0.017-4.242-0.423L44.352,23.889z"/>
</g>
</svg>
