<?xml version="1.0" encoding="utf-8"?>
<!-- Generator: Adobe Illustrator 16.0.0, SVG Export Plug-In . SVG Version: 6.00 Build 0)  -->
<!DOCTYPE svg PUBLIC "-//W3C//DTD SVG 1.1//EN" "http://www.w3.org/Graphics/SVG/1.1/DTD/svg11.dtd">
<svg version="1.1" id="Capa_1" xmlns="http://www.w3.org/2000/svg" xmlns:xlink="http://www.w3.org/1999/xlink" x="0px" y="0px"
	 width="100px" height="100px" viewBox="0 0 100 100" enable-background="new 0 0 100 100" xml:space="preserve">
<g>
	<path fill="#8BBC4E" d="M31.934,52.908c5.517,3.307,9.499,3.555,14.519-0.081c8.038,3.229,14.188,2.242,17.016-6.184
		c8.828-2.057,9.766-8.385,6.686-16.891c6.146-9.03,1.777-14.163-5.484-18.226c-1.156-9.242-7.217-10.008-16.553-5.115
		c-6.774-5.336-12.66-5.232-17.202,3.071c-8.258,2.264-10.004,7.343-7.347,14.32c-5.832,6.351-4.867,12.245,0.464,17.852
		C22.399,48.271,25.976,54.167,31.934,52.908z"/>
	<path fill="#BED573" d="M46.01,11.752c-4.546,2.048-0.554,11.718,1.57,6.012C48.767,14.566,48.645,13.435,46.01,11.752z"/>
	<path fill="#BED573" d="M35.159,43.775c-4.546,2.052-0.555,11.722,1.565,6.012C37.915,46.594,37.792,45.457,35.159,43.775z"/>
	<path fill="#BED573" d="M39.123,21.156c-2.927-0.082-8.872,8.646-1.299,7.839C38.889,28.882,39.421,22.545,39.123,21.156z"/>
	<path fill="#BED573" d="M46.01,24.205c-3.157,2.887,4.181,22.479,3.996,3.865C49.975,24.719,48.063,25.486,46.01,24.205z"/>
	<path fill="#BED573" d="M52.635,12.546c-5.605,11.474,10.127,15.466,2.008,0.577C53.881,13.064,53.771,12.749,52.635,12.546z"/>
	<path fill="#BED573" d="M34.225,7.513c1.182,3.721,0.163,5.665,1.939,8.281C39.466,20.665,44.82,4.657,34.225,7.513z"/>
	<path fill="#BED573" d="M39.223,31.092c0.176,1.349-0.23,20.955,1.551,8.953c0.46-3.107,0.762-5.917-0.622-8.741
		C39.976,30.948,39.259,31.349,39.223,31.092z"/>
	<path fill="#BED573" d="M58.598,26.853c-0.549,1.209,0.893,10.342,1.625,10.347c5.037,0.004,2.078-14.108-0.889-10.202
		C59.107,27.294,58.58,26.893,58.598,26.853z"/>
	<path fill="#BED573" d="M54.422,40.631c-2.322-0.771-3.1,1.863-1.457,4.668c1.285,2.196-3.125,1.836,0.334,7.464
		c5.133,0.731,2.381-2.448,3.059-7.365C56.844,41.84,55.166,40.875,54.422,40.631z"/>
	<path fill="#BED573" d="M34.82,30.826c-6.77,4.831-1.272,4.925-1.006,10.401c0.09,1.827,4.587-1.074,2.828-5.62
		C36.512,35.269,36.8,31.11,34.82,30.826z"/>
	<path fill="#BED573" d="M59.59,13.939c0.037,0.208-0.49,8.461,2.514,6.811c0.031-0.018,3.111-7.672-1.277-7.672
		C59.256,13.078,59.441,13.114,59.59,13.939z"/>
	<path fill="#BED573" d="M30.116,12.681c-4.177,2.77-4.194,12.584,1.435,8.772C32.971,20.488,32.646,13.489,30.116,12.681z"/>
	<path fill="#BED573" d="M27.681,28.052c-4.176,2.774-4.195,12.588,1.434,8.772C30.536,35.864,30.207,28.86,27.681,28.052z"/>
	<path fill="#BED573" d="M42.488,22.004c-0.397-0.009-1.168,2.061,0.957,1.876c0.158-0.014,1.596-1.511-0.149-1.728
		C42.898,22.104,43.25,22.018,42.488,22.004z"/>
	<path fill="#BED573" d="M61.178,40.631c-3.852,5.94,2.188,6.463,2.188,3.96C63.365,40.627,62.359,43.252,61.178,40.631z"/>
	<path fill="#BED573" d="M68.133,21.553c-2.439-0.09-2.787,6.572,1.688,5.543C71.389,26.735,68.652,19.316,68.133,21.553z"/>
	<path fill="#BED573" d="M55.748,4.865c-1.439,1.782-1.416,6.445,2.715,6.743c1.898,0.14,2.197-5.525-2.129-6.346
		C56.154,5.23,55.721,4.896,55.748,4.865z"/>
	<path fill="#BED573" d="M66.348,30.1c-2.221,6.242,7.482,6.116,2.557-0.609C68.791,29.333,66.695,29.117,66.348,30.1z"/>
	<path fill="#BED573" d="M27.987,40.456c-2.219,6.247,7.482,6.116,2.562-0.609C30.432,39.689,28.335,39.472,27.987,40.456z"/>
	<path fill="#BED573" d="M63,22.582c-0.324,0.14-1.195-0.262-1.1,1.127c0.031,0.474,1.764,1.781,1.633,0.23
		c-0.072-0.83,0.248-0.744-0.43-1.317C63.082,22.604,63.01,22.577,63,22.582z"/>
	<path fill="#BED573" d="M29.981,24.674c-0.325,0.14-1.195-0.262-1.101,1.127c0.032,0.474,1.764,1.782,1.633,0.23
		c-0.072-0.826,0.252-0.744-0.428-1.317C30.062,24.697,29.995,24.669,29.981,24.674z"/>
	<path fill="#BED573" d="M55.865,23.989c-1.16,0.812-0.482,2.183,0.902,1.655c1.516-0.578-0.41-2.54-0.744-1.637
		C55.992,24.097,55.779,24.052,55.865,23.989z"/>
	<path fill="#BED573" d="M21.844,25.941c1.227,2.688,2.174,4.889,1.989-0.997c-0.014-0.456-0.108-0.834-0.266-1.141
		C22.904,24.521,22.332,25.233,21.844,25.941z"/>
	<path fill="#BED573" d="M22.67,38.688c1.565-0.361-1.173-7.785-1.687-5.543c-0.537-0.018-0.97,0.284-1.272,0.757
		c0.257,1.655,0.943,3.289,2.007,4.89C22.007,38.8,22.322,38.764,22.67,38.688z"/>
	<path fill="#BED573" d="M25.696,47.136c1.898,0.14,2.196-5.525-2.129-6.346c-0.181-0.036-0.614-0.366-0.586-0.397
		c-0.013,0.013-0.022,0.027-0.036,0.045c0.338,0.406,0.699,0.816,1.087,1.218c-0.424,1.714-0.496,3.378-0.271,4.88
		C24.271,46.86,24.907,47.077,25.696,47.136z"/>
	<path fill="#BED573" d="M27.311,52.231c0-3.969-1.006-1.344-2.183-3.964c-0.221,0.338-0.406,0.658-0.564,0.961
		c0.631,1.325,1.565,2.395,2.747,3.066C27.311,52.272,27.311,52.255,27.311,52.231z"/>
	<path fill="#BED573" d="M27.987,40.456c-2.219,6.247,7.482,6.116,2.562-0.609C30.432,39.689,28.335,39.472,27.987,40.456z"/>
	<path fill="#BED573" d="M27.681,28.052c-4.176,2.774-4.195,12.588,1.434,8.772C30.536,35.864,30.207,28.86,27.681,28.052z"/>
	<path fill="#BED573" d="M34.82,30.826c-6.77,4.831-1.272,4.925-1.006,10.401c0.09,1.827,4.587-1.074,2.828-5.62
		C36.512,35.269,36.8,31.11,34.82,30.826z"/>
	<path fill="#BED573" d="M46.01,24.205c-3.157,2.887,4.181,22.479,3.996,3.865C49.975,24.719,48.063,25.486,46.01,24.205z"/>
	<path fill="#BED573" d="M40.774,40.045c0.46-3.107,0.762-5.917-0.622-8.741c-0.176-0.356-0.893,0.045-0.929-0.212
		C39.398,32.441,38.993,52.047,40.774,40.045z"/>
	<path fill="#BED573" d="M36.724,49.787c1.191-3.193,1.069-4.33-1.565-6.012C30.612,45.827,34.604,55.497,36.724,49.787z"/>
	<path fill="#BED573" d="M45.33,45.854c-0.307-2.535-4.096-1.863-4.096,4.325c0,0.51-0.09,4.194,0.023,5.115
		c0.067-0.014,0.135-0.027,0.207-0.046C42.47,52.872,45.352,46.035,45.33,45.854z"/>
	<path fill="#BED573" d="M46.741,39.77c-0.077,0.767-0.343,9.683,0.108,13.21c0.807,0.315,1.596,0.587,2.368,0.808
		c1.164-1.213-0.289-4.104-0.289-7.956C48.929,43.739,48.315,41.155,46.741,39.77z"/>
	<path fill="#BED573" d="M52.965,45.3c1.285,2.196-3.125,1.836,0.334,7.464c5.133,0.731,2.381-2.448,3.059-7.365
		c0.486-3.558-1.191-4.523-1.936-4.767C52.1,39.86,51.322,42.494,52.965,45.3z"/>
	<path fill="#BED573" d="M61.178,40.631c-3.852,5.94,2.188,6.463,2.188,3.96C63.365,40.627,62.359,43.252,61.178,40.631z"/>
	<path fill="#BED573" d="M64.76,37.186c-0.406,0.893,0.279,6.116,0.955,8.781c1.363-0.519,2.469-1.177,3.342-1.957
		c0.393-3.888-1.582-9.282-3.557-6.68C65.273,37.623,64.742,37.222,64.76,37.186z"/>
	<path fill="#BED573" d="M66.348,30.1c-2.221,6.242,7.482,6.116,2.557-0.609C68.791,29.333,66.695,29.117,66.348,30.1z"/>
	<path fill="#BED573" d="M60.223,37.199c5.037,0.004,2.078-14.108-0.889-10.202c-0.227,0.297-0.754-0.104-0.736-0.145
		C58.049,28.062,59.49,37.195,60.223,37.199z"/>
	<path fill="#BED573" d="M52.889,37.326c1.416,2.124,4.496-0.185,1.699-5.706c-0.248-0.492-2.074-4.344-2.426-4.691l-0.086-0.05
		C52.23,29.09,52.785,37.167,52.889,37.326z"/>
	<path fill="#BED573" d="M52.635,12.546c-5.605,11.474,10.127,15.466,2.008,0.577C53.881,13.064,53.771,12.749,52.635,12.546z"/>
	<path fill="#BED573" d="M59.59,13.939c0.037,0.208-0.49,8.461,2.514,6.811c0.031-0.018,3.111-7.672-1.277-7.672
		C59.256,13.078,59.441,13.114,59.59,13.939z"/>
	<path fill="#BED573" d="M58.463,11.608c1.898,0.14,2.197-5.525-2.129-6.346c-0.18-0.031-0.613-0.365-0.586-0.397
		C54.309,6.646,54.332,11.31,58.463,11.608z"/>
	<path fill="#BED573" d="M51.842,9.898c0-2.314-0.33-3.834-0.852-4.857c-0.916,0.392-1.876,0.848-2.873,1.371
		c-0.897-0.708-1.782-1.317-2.647-1.827C45.916,8.568,45.866,9.898,51.842,9.898z"/>
	<path fill="#BED573" d="M36.165,15.793c3.302,4.871,8.655-11.136-1.939-8.281C35.407,11.233,34.388,13.177,36.165,15.793z"/>
	<path fill="#BED573" d="M31.551,21.454c1.42-0.965,1.096-7.965-1.435-8.772C25.939,15.451,25.922,25.265,31.551,21.454z"/>
	<path fill="#BED573" d="M39.123,21.156c-2.927-0.082-8.872,8.646-1.299,7.839C38.889,28.882,39.421,22.545,39.123,21.156z"/>
	<path fill="#BED573" d="M30.513,26.032c-0.072-0.826,0.252-0.744-0.428-1.317c-0.023-0.018-0.09-0.045-0.104-0.041
		c-0.325,0.14-1.195-0.262-1.101,1.127C28.912,26.275,30.644,27.583,30.513,26.032z"/>
	<path fill="#BED573" d="M42.488,22.004c-0.397-0.009-1.168,2.061,0.957,1.876c0.158-0.014,1.596-1.511-0.149-1.728
		C42.898,22.104,43.25,22.018,42.488,22.004z"/>
	<path fill="#BED573" d="M46.01,11.752c-4.546,2.048-0.554,11.718,1.57,6.012C48.767,14.566,48.645,13.435,46.01,11.752z"/>
	<path fill="#BED573" d="M55.865,23.989c-1.16,0.812-0.482,2.183,0.902,1.655c1.516-0.578-0.41-2.54-0.744-1.637
		C55.992,24.097,55.779,24.052,55.865,23.989z"/>
	<path fill="#BED573" d="M68.133,21.553c-2.439-0.09-2.787,6.572,1.688,5.543C71.389,26.735,68.652,19.316,68.133,21.553z"/>
	<path fill="#BED573" d="M64.227,11.089c1.846,2.399,3.861,10.319,3.662,2.476c-0.979-0.717-2.064-1.389-3.219-2.039
		c-0.023-0.167-0.047-0.33-0.068-0.487c-0.031,0.004-0.059,0.009-0.09,0.018L64.227,11.089z"/>
	<path fill="#BED573" d="M63.104,22.622c-0.021-0.018-0.094-0.045-0.104-0.041c-0.324,0.14-1.195-0.262-1.1,1.127
		c0.031,0.474,1.764,1.781,1.633,0.23C63.461,23.109,63.781,23.195,63.104,22.622z"/>
	<g>
		<path fill="#A55325" d="M43.999,54.803c-0.158,14.32-0.312,28.641-0.464,42.961c1.736,0,3.468,0,5.205,0
			c0-14.397,0-28.799,0-43.195c1.146-4.447,4.587-9.81,7.671-14.365c1.9-3.193,2.941-3.969,1.443-9.86
			c-2.457-0.401-0.482,10.094-3.955,5.954c-0.844-0.731-1.426-2.855-1.15-4.529c0.744-4.519,3.238-9.291,1.43-11.05
			c-4.049-0.649-2.976,16.611-1.902,19.994c1.072,3.382-3,5.944-3.929,5.276c-0.726-0.748,1.818-7.848-0.167-8.578
			c-3.035-0.708-0.406,8.574-3.626,8.65c-7.545-3.545,3.726-15.334,3.441-16.462c-1.159-0.352-3.396,4.56-4.186,4.42
			c-2.562-0.871,5.304-13.54,4.37-13.625c-3.198-0.118-6.156,9.3-6.436,10.878c-0.343,1.683-0.577,4.871-2.305,5.579
			c-2.129,0.573-0.749-20.07-1.953-19.709c-3.175,4.379,0.808,11.402-0.464,19.989c-0.388,2.377-3.292-1.953-4.371,0
			c0.781,3.392,3.144,1.994,6.86,6.788C41.586,46.355,42.384,51.299,43.999,54.803z"/>
		<path fill="#803D17" d="M46.461,52.832v44.932h2.278V54.568c0.072-0.28,0.153-0.563,0.244-0.848
			c1.335-4.271,4.537-9.251,7.427-13.518c1.9-3.193,2.941-3.969,1.443-9.86c-2.457-0.401-0.482,10.094-3.955,5.954
			c-0.844-0.731-1.426-2.855-1.15-4.529c0.744-4.519,3.238-9.291,1.43-11.05c-4.049-0.649-2.976,16.611-1.902,19.994
			c1.072,3.382-3,5.944-3.929,5.276c-0.726-0.748,1.818-7.848-0.167-8.578c-1.412-0.329-1.596,1.506-1.718,3.568V52.832z"/>
	</g>
</g>
</svg>
