<?xml version="1.0" encoding="utf-8"?>
<!-- Generator: Adobe Illustrator 16.0.0, SVG Export Plug-In . SVG Version: 6.00 Build 0)  -->
<!DOCTYPE svg PUBLIC "-//W3C//DTD SVG 1.1//EN" "http://www.w3.org/Graphics/SVG/1.1/DTD/svg11.dtd">
<svg version="1.1" id="Capa_1" xmlns="http://www.w3.org/2000/svg" xmlns:xlink="http://www.w3.org/1999/xlink" x="0px" y="0px"
	 width="100px" height="100px" viewBox="0 0 100 100" enable-background="new 0 0 100 100" xml:space="preserve">
<path fill="#F6FBFC" d="M44.295,29.269c-7.05,0-13.192,3.592-16.378,8.902c-0.583-0.065-1.174-0.098-1.778-0.098
	c-5.942,0-10.871,3.277-11.775,7.565C7.422,46.97,2.48,50.387,2.48,54.395c0,4.594,6.494,8.41,15.057,9.201
	c0.274,4.777,5.494,8.589,11.901,8.589c4.277,0,8.032-1.703,10.136-4.251c3.442,1.938,8.311,3.147,13.709,3.147
	c6.433,0,12.109-1.717,15.526-4.343c2.881,1.126,6.302,1.778,9.962,1.778c10.332,0,18.708-5.173,18.708-11.554
	c0-6.383-8.376-11.556-18.708-11.556c-1.387,0-2.738,0.094-4.038,0.27c-0.065-5.424-5.455-9.806-12.097-9.806
	c-1.147,0-2.251,0.135-3.304,0.378C55.927,32.013,50.458,29.269,44.295,29.269L44.295,29.269z"/>
<linearGradient id="SVGID_1_" gradientUnits="userSpaceOnUse" x1="3136.9336" y1="-4777.3354" x2="3136.9336" y2="-4396.5542" gradientTransform="matrix(0.095 0 0 -0.095 -246.7553 -381.773)">
	<stop  offset="0" style="stop-color:#E8F6F7"/>
	<stop  offset="1" style="stop-color:#E8F6F7;stop-opacity:0"/>
</linearGradient>
<path fill="url(#SVGID_1_)" d="M46.529,36.001c-5.942,0-11.119,3.029-13.805,7.504c-0.491-0.054-0.991-0.083-1.5-0.083
	c-5.012,0-9.163,2.764-9.923,6.378c-5.855,1.124-10.023,4.006-10.023,7.383c0,3.873,5.477,7.09,12.692,7.759
	c0.235,4.025,4.633,7.241,10.041,7.241c3.608,0,6.768-1.434,8.542-3.586c2.899,1.635,7.002,2.656,11.557,2.656
	c5.425,0,10.215-1.452,13.088-3.66c2.435,0.947,5.316,1.495,8.402,1.495c8.711,0,15.773-4.359,15.773-9.74
	c0-5.377-7.063-9.741-15.773-9.741c-1.165,0-2.309,0.078-3.408,0.226c-0.052-4.573-4.594-8.267-10.197-8.267
	c-0.965,0-1.895,0.115-2.781,0.319C56.335,38.316,51.728,36.001,46.529,36.001L46.529,36.001z"/>
</svg>
