<?xml version="1.0" encoding="utf-8"?>
<!-- Generator: Adobe Illustrator 16.0.0, SVG Export Plug-In . SVG Version: 6.00 Build 0)  -->
<!DOCTYPE svg PUBLIC "-//W3C//DTD SVG 1.1//EN" "http://www.w3.org/Graphics/SVG/1.1/DTD/svg11.dtd">
<svg version="1.1" id="Capa_1" xmlns="http://www.w3.org/2000/svg" xmlns:xlink="http://www.w3.org/1999/xlink" x="0px" y="0px"
	 width="100px" height="100px" viewBox="0 0 100 100" enable-background="new 0 0 100 100" xml:space="preserve">
<path fill="#F6FBFC" d="M38.99,53.982c0.063,8.188-8.559,14.864-19.256,14.913C9.039,68.943,0.315,62.344,0.251,54.156
	c0-0.056,0-0.115,0-0.174c-0.063-8.188,8.558-14.865,19.256-14.914c10.697-0.048,19.419,6.549,19.483,14.74
	C38.99,53.864,38.99,53.927,38.99,53.982z"/>
<path fill="#F6FBFC" d="M70.072,60.203c0,7.396-9.849,13.388-21.998,13.388c-12.15,0-22-5.992-22-13.388s9.85-13.393,22-13.393
	C60.224,46.811,70.072,52.808,70.072,60.203z"/>
<path fill="#F6FBFC" d="M99.249,51.591c0.198,8.717-16.453,15.848-37.188,15.932C41.329,67.605,24.36,60.606,24.164,51.89
	c-0.001-0.097-0.001-0.198,0-0.299C23.967,42.876,40.617,35.743,61.35,35.66c20.734-0.082,37.701,6.916,37.899,15.632
	C99.253,51.39,99.253,51.493,99.249,51.591z"/>
<path fill="#F6FBFC" d="M58.117,38.68c0,5.811-8.352,10.522-18.653,10.522S20.813,44.491,20.813,38.68s8.35-10.522,18.651-10.522
	S58.117,32.869,58.117,38.68L58.117,38.68z"/>
<path fill="#F6FBFC" d="M81.076,42.028c0,5.019-5.46,9.087-12.195,9.087s-12.195-4.068-12.195-9.087s5.46-9.086,12.195-9.086
	S81.076,37.01,81.076,42.028L81.076,42.028z"/>
<linearGradient id="SVGID_1_" gradientUnits="userSpaceOnUse" x1="3450.126" y1="-5371.8213" x2="3558.3877" y2="-5059.7778" gradientTransform="matrix(0.0924 0 0 -0.0837 -277.0479 -377.9211)">
	<stop  offset="0" style="stop-color:#E5F5F6"/>
	<stop  offset="1" style="stop-color:#E5F5F6;stop-opacity:0"/>
</linearGradient>
<path fill="url(#SVGID_1_)" d="M39.716,35.333c-8.859,0-16.041,3.663-16.041,8.189c0,0.134,0.005,0.271,0.018,0.403
	c-0.348-0.016-0.693-0.024-1.044-0.024c-9.201,0-16.661,5.171-16.661,11.547c0,6.382,7.46,11.542,16.661,11.542
	c2.945,0,5.714-0.524,8.115-1.456c3.279,3.101,9.38,5.186,16.361,5.186c6.808,0,12.772-1.981,16.105-4.956
	c15.754-0.813,27.904-5.96,27.904-12.182c0-4.666-6.826-8.727-16.877-10.808c-1.772-2.217-5.251-3.721-9.244-3.721
	c-3.031,0-5.756,0.869-7.674,2.256c-0.716,0.012-1.439,0.035-2.141,0.064c-1.854-3.48-8.081-6.042-15.482-6.042V35.333z"/>
</svg>
