<?xml version="1.0" encoding="utf-8"?>
<!-- Generator: Adobe Illustrator 16.0.0, SVG Export Plug-In . SVG Version: 6.00 Build 0)  -->
<!DOCTYPE svg PUBLIC "-//W3C//DTD SVG 1.1//EN" "http://www.w3.org/Graphics/SVG/1.1/DTD/svg11.dtd">
<svg version="1.1" id="Capa_1" xmlns="http://www.w3.org/2000/svg" xmlns:xlink="http://www.w3.org/1999/xlink" x="0px" y="0px"
	 width="100px" height="100px" viewBox="0 0 100 100" enable-background="new 0 0 100 100" xml:space="preserve">
<g>
	<path fill="#E26212" d="M49.477,54.563c4.534-6.754,9.073-13.508,13.606-20.262c2.001,0.53,5.614-48.465-8.859-26.214
		c-9.021-10.024-8.328-6.534-13.813,3.406C43.436,25.849,46.459,40.2,49.477,54.563z"/>
	<path fill="#F59049" d="M45.955,56.129c2.079-1.559,4.157-3.113,6.236-4.674C50.967,13.376,37.206-8.401,34.907,14.899
		c-6.081-7.72-13.929-4.248-9.778,5.809C11.406,5.697,6.09,45.607,45.955,56.129z"/>
	<path fill="#B3744F" d="M49.225,79.436c-1.056,0.271-2.104,0.545-3.154,0.816c-0.375,4.721-2.609,8.037-5.064,10.588
		c-0.919-0.414-1.561-1.074-2.48-1.49c-0.486,0.797-0.972,1.588-1.451,2.377c0.732,0.447,1.463,0.895,2.195,1.348
		c-0.732,0.893-1.463,1.793-2.195,2.688c0.589,0.414,1.179,0.828,1.768,1.244c0.647-0.914,1.301-1.82,1.949-2.727
		c0.758,0.406,1.509,0.822,2.267,1.236c0.505-0.771,1.017-1.535,1.522-2.299c-0.68-0.414-1.366-0.83-2.053-1.244
		C45.475,89.182,47.787,85.154,49.225,79.436z"/>
	<path fill="#B3744F" d="M56.633,76.949c-0.997,0.434-1.994,0.867-2.985,1.303c0.369,4.721-1.32,8.346-3.341,11.254
		c-0.971-0.266-1.709-0.816-2.681-1.082c-0.356,0.855-0.706,1.717-1.062,2.572c0.79,0.33,1.587,0.652,2.377,0.984
		c-0.577,1.002-1.159,2-1.742,3.004c0.647,0.316,1.295,0.629,1.943,0.945c0.499-0.998,0.997-2,1.496-2.998
		c0.81,0.291,1.619,0.576,2.435,0.867c0.382-0.834,0.758-1.676,1.14-2.512c-0.738-0.305-1.483-0.604-2.222-0.9
		C54.464,87.168,56.108,82.822,56.633,76.949z"/>
	<g>
		<polygon fill="#F7DE00" points="85.294,32.785 83.663,24.36 94.075,24.36 		"/>
		<polygon fill="#DFCD2D" points="94.024,24.412 84.265,27.488 85.294,32.785 		"/>
	</g>
	<path fill="#AB4A91" d="M49.127,51.209C34.35,71.607,18.808,62.664,4.076,57.588C13.53,75.953,26.1,88.709,50.688,79.83
		C104.392,62.463,92.372-28.107,49.127,51.209z"/>
	<path d="M81.222,25c-1.102,1.633-3.186,4.268-4.463,4.307c-1.275,0.039-3.309-1.593-4.383-4.553
		C76.979,29.048,76.792,27.766,81.222,25z"/>
	<path fill="#8B3C77" d="M67.026,71.012c10.031-8.115,15.904-19.221,18.242-29.077c-0.984,0.201-1.955,0.453-2.9,0.777
		c-2.766,0.945-5.363,2.506-7.324,4.63c-1.956,2.124-3.277,4.818-4.294,7.416c-1.017,2.596-1.723,5.102-2.409,8.43
		C67.862,65.514,67.396,68.246,67.026,71.012z"/>
</g>
</svg>
