<?xml version="1.0" encoding="utf-8"?>
<!-- Generator: Adobe Illustrator 16.0.0, SVG Export Plug-In . SVG Version: 6.00 Build 0)  -->
<!DOCTYPE svg PUBLIC "-//W3C//DTD SVG 1.1//EN" "http://www.w3.org/Graphics/SVG/1.1/DTD/svg11.dtd">
<svg version="1.1" id="Capa_1" xmlns="http://www.w3.org/2000/svg" xmlns:xlink="http://www.w3.org/1999/xlink" x="0px" y="0px"
	 width="100px" height="100px" viewBox="0 0 100 100" enable-background="new 0 0 100 100" xml:space="preserve">
<g>
	<path fill="#26A699" d="M49.642,59.238c-4.03-6.003-8.06-12.012-12.09-18.013c-1.787,0.474-4.998-43.081,7.869-23.3
		c8.018-8.911,7.401-5.811,12.281,3.026C55.016,33.713,52.329,46.475,49.642,59.238z"/>
	<path fill="#A3D0B4" d="M52.772,60.63c-1.842-1.386-3.691-2.767-5.54-4.153c1.084-33.85,13.324-53.206,15.362-32.494
		c5.405-6.865,12.381-3.778,8.695,5.164C83.485,15.799,88.212,51.282,52.772,60.63z"/>
	<path fill="#B3744F" d="M49.87,81.349c0.931,0.239,1.867,0.479,2.804,0.727c0.327,4.197,2.317,7.148,4.499,9.409
		c0.819-0.362,1.387-0.954,2.206-1.318c0.432,0.703,0.856,1.404,1.287,2.107c-0.646,0.4-1.3,0.802-1.946,1.195
		c0.646,0.802,1.3,1.598,1.946,2.397c-0.523,0.364-1.047,0.734-1.57,1.097c-0.58-0.807-1.152-1.614-1.732-2.422
		c-0.671,0.37-1.343,0.734-2.015,1.104c-0.45-0.684-0.905-1.367-1.355-2.046c0.61-0.37,1.22-0.739,1.824-1.103
		C53.197,90.018,51.146,86.432,49.87,81.349z"/>
	<path fill="#B3744F" d="M43.283,79.141c0.887,0.383,1.769,0.772,2.656,1.153c-0.332,4.203,1.171,7.425,2.97,10.008
		c0.863-0.234,1.516-0.727,2.378-0.961c0.314,0.758,0.635,1.522,0.949,2.286c-0.708,0.289-1.412,0.586-2.119,0.875
		c0.517,0.888,1.035,1.781,1.553,2.669c-0.573,0.282-1.153,0.56-1.726,0.844c-0.443-0.894-0.888-1.781-1.331-2.669
		c-0.721,0.26-1.442,0.513-2.163,0.771c-0.339-0.745-0.678-1.491-1.018-2.229c0.66-0.272,1.32-0.538,1.979-0.802
		C45.211,88.219,43.751,84.361,43.283,79.141z"/>
	<g>
		<polygon fill="#F7DE00" points="17.808,39.881 19.256,32.388 10,32.388 		"/>
		<polygon fill="#DFCD2D" points="10.049,32.438 18.72,35.174 17.808,39.881 		"/>
	</g>
	<path fill="#D92328" d="M49.95,56.262C63.088,74.391,76.911,66.441,90,61.93c-8.4,16.325-19.578,27.663-41.436,19.77
		C0.83,66.263,11.516-14.249,49.95,56.262z"/>
	<path d="M21.425,32.961c0.979,1.449,2.829,3.79,3.969,3.828c1.134,0.037,2.933-1.412,3.895-4.049
		C25.196,36.561,25.363,35.42,21.425,32.961z"/>
	<path fill="#992B2F" d="M34.039,73.861c-8.911-7.217-14.137-17.089-16.213-25.852c0.875,0.186,1.738,0.407,2.582,0.697
		c2.453,0.837,4.764,2.224,6.508,4.116c1.738,1.886,2.915,4.283,3.82,6.588c0.9,2.311,1.529,4.535,2.139,7.493
		C33.299,68.974,33.719,71.402,34.039,73.861z"/>
</g>
</svg>
