<?xml version="1.0" encoding="utf-8"?>
<!-- Generator: Adobe Illustrator 16.0.0, SVG Export Plug-In . SVG Version: 6.00 Build 0)  -->
<!DOCTYPE svg PUBLIC "-//W3C//DTD SVG 1.1//EN" "http://www.w3.org/Graphics/SVG/1.1/DTD/svg11.dtd">
<svg version="1.1" id="Capa_1" xmlns="http://www.w3.org/2000/svg" xmlns:xlink="http://www.w3.org/1999/xlink" x="0px" y="0px"
	 width="100px" height="100px" viewBox="0 0 100 100" enable-background="new 0 0 100 100" xml:space="preserve">
<g>
	<path fill="#B3744F" d="M42.849,77.378h15.6v19.123c0,1.734-1.423,3.157-3.157,3.157h-9.285c-1.734,0-3.158-1.423-3.158-3.157
		V77.378z"/>
	<path fill="#BED573" d="M50.651,51.058c15.555,12.405,25.294,23.284,29.132,32.929c-24.244,2.591-43.552,2.658-58.264,0
		C30.204,68.99,39.767,58.044,50.651,51.058z"/>
	<path fill="#BED573" d="M50.322,25.241c9.095,8.5,16.924,17.87,22.866,28.519c-14.771,1.419-29.952,1.617-45.736,0
		C33.127,43.836,40.483,34.273,50.322,25.241z"/>
	<path fill="#BED573" d="M50.322,2.659c6.883,6.572,12.519,15.028,16.884,25.402c-10.001,1.892-21.249,1.901-33.768,0
		C36.546,19.592,42.159,11.127,50.322,2.659z"/>
	<path fill="#9EB361" d="M44.272,31.178c2.906,0.329,5.793,0.766,8.6,1.811c3.121,1.167,6.148,3.09,9.563,5.086
		c-2.455-2.986-5.063-5.865-7.812-8.649c-2.779,0.095-5.64,0.072-8.577-0.072C45.443,29.958,44.853,30.565,44.272,31.178z"/>
	<path fill="#9EB361" d="M41.93,57.756c3.045,0.576,6.491,1.41,11.375,3.148c4.392,1.563,9.941,3.861,14.888,6.095
		c-3.59-3.878-7.901-7.928-12.929-12.162c-3.279,0.076-6.582,0.085-9.91,0.018C44.196,55.77,43.056,56.737,41.93,57.756z"/>
	<path fill="#8F593B" d="M54.791,88.127c0.833,0.685,0.797,2.04,0.743,4.445c-0.045,1.884-0.1,4.415-0.158,7.082
		c1.698-0.045,3.072-1.446,3.072-3.153V85.672c-5.527,0.257-10.721,0.342-15.6,0.243v1.266c2.536,0.072,4.964,0.14,6.919,0.185
		C52.245,87.419,53.953,87.438,54.791,88.127z"/>
</g>
</svg>
