<?xml version="1.0" encoding="utf-8"?>
<!-- Generator: Adobe Illustrator 16.0.0, SVG Export Plug-In . SVG Version: 6.00 Build 0)  -->
<!DOCTYPE svg PUBLIC "-//W3C//DTD SVG 1.1//EN" "http://www.w3.org/Graphics/SVG/1.1/DTD/svg11.dtd">
<svg version="1.1" id="Capa_1" xmlns="http://www.w3.org/2000/svg" xmlns:xlink="http://www.w3.org/1999/xlink" x="0px" y="0px"
	 width="100px" height="100px" viewBox="0 0 100 100" enable-background="new 0 0 100 100" xml:space="preserve">
<g>
	<path fill="#A55325" d="M42.687,77.03H58.28v19.128c0,1.735-1.42,3.154-3.154,3.154h-9.285c-1.734,0-3.154-1.419-3.154-3.154V77.03
		z"/>
	<path fill="#599029" d="M50.48,50.709c15.558,12.409,25.3,23.292,29.138,32.934c-24.243,2.59-43.555,2.655-58.269,0
		C30.04,68.648,39.604,57.701,50.48,50.709z"/>
	<path fill="#599029" d="M50.154,24.892c9.1,8.501,16.924,17.869,22.871,28.52c-14.774,1.426-29.958,1.621-45.741,0
		C32.962,43.491,40.316,33.927,50.154,24.892z"/>
	<path fill="#599029" d="M50.154,2.313c6.891,6.57,12.522,15.029,16.888,25.401c-9.997,1.895-21.249,1.901-33.771,0
		C36.378,19.243,41.998,10.778,50.154,2.313z"/>
	<path fill="#406A1C" d="M44.106,30.833c2.905,0.327,5.792,0.766,8.602,1.812c3.125,1.164,6.148,3.089,9.558,5.085
		c-2.453-2.982-5.061-5.863-7.812-8.649c-2.773,0.095-5.637,0.071-8.578-0.071C45.277,29.615,44.688,30.221,44.106,30.833z"/>
	<path fill="#406A1C" d="M41.76,57.409c3.047,0.577,6.493,1.414,11.375,3.148c4.396,1.568,9.944,3.861,14.893,6.095
		c-3.594-3.879-7.907-7.924-12.927-12.159c-3.284,0.077-6.587,0.083-9.914,0.012C44.029,55.426,42.889,56.394,41.76,57.409z"/>
	<path fill="#803D17" d="M54.627,87.782c0.831,0.689,0.796,2.044,0.742,4.444c-0.048,1.889-0.101,4.419-0.16,7.086
		c1.699-0.047,3.071-1.449,3.071-3.154V85.329c-5.524,0.256-10.723,0.339-15.594,0.244v1.265c2.531,0.071,4.96,0.137,6.915,0.185
		C52.078,87.076,53.789,87.094,54.627,87.782z"/>
</g>
</svg>
