<?xml version="1.0" encoding="utf-8"?>
<!-- Generator: Adobe Illustrator 16.0.0, SVG Export Plug-In . SVG Version: 6.00 Build 0)  -->
<!DOCTYPE svg PUBLIC "-//W3C//DTD SVG 1.1//EN" "http://www.w3.org/Graphics/SVG/1.1/DTD/svg11.dtd">
<svg version="1.1" id="Capa_1" xmlns="http://www.w3.org/2000/svg" xmlns:xlink="http://www.w3.org/1999/xlink" x="0px" y="0px"
	 width="100px" height="100px" viewBox="0 0 100 100" enable-background="new 0 0 100 100" xml:space="preserve">
<g>
	<path fill="#3B6620" d="M48.244,5.081c-3.793,4.194-8.355,7.422-13.361,10.106c1.586,1.307,3.239,1.229,4.918,0.417
		c1.169,0.675,2.416,1.043,4.09-0.307c1.18,0.813,3.085,1.861,4.715-0.143c2.811,2.042,3.941,0.703,6.214,0.071
		c2.13,1.438,4.079,1.296,5.901,0.11c1.06,0.505,2.059,0.571,2.915-0.34C58.351,12.053,53.223,8.732,48.244,5.081z"/>
	<path fill="#3B6620" d="M29.849,33.193c6.796-3.832,12.884-8.136,18.099-13.021c6.011,4.425,12.752,8.394,19.999,12.044
		c-1.751,1.466-3.738,1.658-5.929,0.785c-1.998,1.307-4.073,1.899-6.401,0.17c-3.046,1.499-3.606,2.146-8.278,0.571
		c-2.602,1.405-5.122,0.911-6.417-0.061c-1.668,1.389-3.42,1.202-5.22-0.143C33.263,34.494,31.424,34.132,29.849,33.193z"/>
	<path fill="#3B6620" d="M72.453,52.851c-8.509-3.206-16.485-7.383-23.984-12.406c-7.888,5.407-14.767,9.283-21.415,12.785
		c1.619,1.147,3.601,1.581,6.434,0.302c1.998,1.307,4.178,1.367,6.582-0.147c3.393,0.988,5.923,0.769,8.833-0.417
		c3.025,1.389,6.698,1.307,9.475,0.494c2.272,1.739,4.54,1.257,6.813-0.231C67.809,54.509,70.235,54.399,72.453,52.851z"/>
	<path fill="#3B6620" d="M76.812,77.027C66.749,71.861,57.066,66.18,48.217,59.395c-7.147,6.911-15.382,13.12-24.747,18.615
		c1.872,0.763,3.678,1.625,7.191-0.077c2.053,1.241,4.167,2.24,7.038,0.23c5.034,2.312,8.306-0.884,10.941-0.28
		c6.23,1.434,8.289,2.366,11.38-0.252c3.184,1.899,6.241,1.51,9.228-0.225C71.772,78.548,74.292,78.504,76.812,77.027z"/>
	<polygon fill="#B3744F" points="48.239,2.814 42.941,99.814 53.992,99.814 	"/>
	<polygon fill="#8F593B" points="48.305,15.489 48.321,20.446 48.359,34.071 48.376,40.505 48.381,40.89 48.337,53.191 
		48.31,59.472 48.244,77.823 48.167,99.814 53.992,99.814 52.746,78.844 51.752,62.019 51.258,53.746 50.55,41.812 50.122,34.516 
		49.326,21.171 48.985,15.418 48.381,5.18 48.266,3.303 48.271,5.103 	"/>
	<path fill="#294518" d="M55.222,75.66c-0.988-1.922-1.466-4.035-1.834-6.006c-0.362-1.965-0.614-3.782-0.817-5.621
		c-0.056-0.516-0.11-1.026-0.159-1.542c-0.22-0.159-0.439-0.313-0.659-0.473l0.994,16.825c2.02,0.445,3.447,0.615,4.786,0.226
		C56.648,77.977,55.836,76.856,55.222,75.66z"/>
	<path fill="#294518" d="M52.861,51.007c-0.692-1.933-0.972-3.519-1.175-5.287c-0.121-1.076-0.215-2.212-0.303-3.381
		c-0.279-0.176-0.554-0.352-0.834-0.527l0.708,11.935c0.95,0.203,1.922,0.296,2.871,0.302
		C53.641,52.978,53.201,51.951,52.861,51.007z"/>
	<path fill="#294518" d="M50.945,27.726c-0.417-2.163-0.632-4.101-0.802-5.978c-0.274-0.192-0.543-0.384-0.818-0.577l0.796,13.345
		c1.01,0.192,1.746,0.176,2.449,0C51.934,32.145,51.346,29.828,50.945,27.726z"/>
	<path fill="#294518" d="M49.133,9.769c-0.109-1.323-0.23-2.805-0.356-4.298c-0.132-0.094-0.264-0.192-0.396-0.291l0.604,10.238
		c0.417,0.269,0.796,0.466,1.147,0.598c-0.214-0.741-0.406-1.482-0.549-2.24C49.353,12.53,49.254,11.246,49.133,9.769z"/>
</g>
</svg>
