<?xml version="1.0" encoding="utf-8"?>
<!-- Generator: Adobe Illustrator 16.0.0, SVG Export Plug-In . SVG Version: 6.00 Build 0)  -->
<!DOCTYPE svg PUBLIC "-//W3C//DTD SVG 1.1//EN" "http://www.w3.org/Graphics/SVG/1.1/DTD/svg11.dtd">
<svg version="1.1" id="Capa_1" xmlns="http://www.w3.org/2000/svg" xmlns:xlink="http://www.w3.org/1999/xlink" x="0px" y="0px"
	 width="100px" height="100px" viewBox="0 0 100 100" enable-background="new 0 0 100 100" xml:space="preserve">
<g>
	<path fill="#8BBC4E" d="M48.168,3.287c-3.829,4.239-8.441,7.503-13.493,10.209c1.6,1.32,3.268,1.244,4.968,0.423
		c1.177,0.683,2.438,1.056,4.126-0.306c1.198,0.817,3.121,1.877,4.767-0.146c2.84,2.061,3.98,0.708,6.28,0.067
		c2.153,1.458,4.117,1.312,5.965,0.117c1.068,0.507,2.074,0.578,2.94-0.343C58.381,10.333,53.203,6.978,48.168,3.287z"/>
	<path fill="#8BBC4E" d="M29.581,31.689c6.87-3.871,13.024-8.219,18.29-13.154c6.074,4.47,12.885,8.479,20.204,12.169
		c-1.763,1.479-3.774,1.671-5.986,0.796c-2.022,1.319-4.117,1.918-6.468,0.167c-3.079,1.512-3.645,2.166-8.361,0.578
		c-2.63,1.416-5.178,0.917-6.484-0.063c-1.692,1.403-3.456,1.215-5.274-0.142C33.037,33.009,31.177,32.64,29.581,31.689z"/>
	<path fill="#8BBC4E" d="M72.628,51.554c-8.596-3.242-16.651-7.46-24.229-12.538c-7.968,5.462-14.922,9.379-21.637,12.919
		c1.638,1.156,3.636,1.596,6.497,0.306c2.023,1.319,4.223,1.382,6.652-0.155c3.427,1.006,5.986,0.779,8.927-0.415
		c3.054,1.404,6.765,1.32,9.572,0.495c2.296,1.759,4.587,1.27,6.879-0.23C67.94,53.229,70.387,53.112,72.628,51.554z"/>
	<path fill="#8BBC4E" d="M77.035,75.977c-10.167-5.22-19.948-10.959-28.896-17.813c-7.214,6.979-15.538,13.255-24.997,18.806
		c1.889,0.771,3.712,1.642,7.264-0.076c2.074,1.253,4.21,2.259,7.109,0.23c5.09,2.334,8.391-0.892,11.055-0.28
		c6.296,1.445,8.374,2.388,11.495-0.256c3.221,1.919,6.309,1.521,9.324-0.23C71.941,77.514,74.488,77.472,77.035,75.977z"/>
	<polygon fill="#A55325" points="48.168,1 42.814,99 53.975,99 	"/>
	<polygon fill="#803D17" points="48.23,13.802 48.248,18.812 48.285,32.578 48.306,39.079 48.306,39.464 48.264,51.894 
		48.239,58.244 48.172,76.781 48.092,99 53.975,99 52.722,77.815 51.712,60.813 51.218,52.455 50.501,40.395 50.066,33.03 
		49.265,19.545 48.922,13.73 48.306,3.392 48.197,1.49 48.202,3.313 	"/>
	<path fill="#6D9438" d="M55.219,74.595c-0.993-1.936-1.479-4.076-1.848-6.066c-0.369-1.985-0.624-3.82-0.83-5.681
		c-0.054-0.52-0.108-1.034-0.159-1.558c-0.222-0.159-0.447-0.318-0.67-0.478l1.01,17.003c2.04,0.448,3.48,0.62,4.834,0.223
		C56.659,76.936,55.838,75.805,55.219,74.595z"/>
	<path fill="#6D9438" d="M52.835,49.686c-0.7-1.948-0.98-3.553-1.186-5.337c-0.126-1.089-0.218-2.237-0.307-3.418
		c-0.28-0.176-0.561-0.356-0.841-0.536l0.716,12.061c0.955,0.205,1.936,0.302,2.898,0.306C53.622,51.68,53.179,50.641,52.835,49.686
		z"/>
	<path fill="#6D9438" d="M50.895,26.168c-0.415-2.182-0.637-4.143-0.804-6.045c-0.276-0.192-0.553-0.385-0.826-0.578l0.801,13.485
		c1.022,0.188,1.767,0.172,2.475-0.004C51.896,30.629,51.302,28.292,50.895,26.168z"/>
	<path fill="#6D9438" d="M49.069,8.025c-0.109-1.34-0.235-2.832-0.36-4.344c-0.134-0.097-0.269-0.193-0.402-0.289l0.616,10.338
		c0.419,0.277,0.8,0.469,1.156,0.604c-0.213-0.746-0.406-1.496-0.553-2.262C49.291,10.815,49.19,9.517,49.069,8.025z"/>
</g>
</svg>
