<?xml version="1.0" encoding="utf-8"?>
<!-- Generator: Adobe Illustrator 16.0.0, SVG Export Plug-In . SVG Version: 6.00 Build 0)  -->
<!DOCTYPE svg PUBLIC "-//W3C//DTD SVG 1.1//EN" "http://www.w3.org/Graphics/SVG/1.1/DTD/svg11.dtd">
<svg version="1.1" id="Capa_1" xmlns="http://www.w3.org/2000/svg" xmlns:xlink="http://www.w3.org/1999/xlink" x="0px" y="0px"
	 width="100px" height="100px" viewBox="0 0 100 100" enable-background="new 0 0 100 100" xml:space="preserve">
<circle fill="#FFFF00" stroke="#000000" stroke-width="2" stroke-miterlimit="10" cx="50.917" cy="54.583" r="42.083"/>
<g>
	<path stroke="#000000" stroke-width="4" stroke-miterlimit="10" d="M57.901,75.056c-2.156,2.391-4.484,3.586-6.984,3.586
		c-2.484,0-4.621-0.977-6.41-2.93s-2.965-4.438-3.527-7.453c-0.281-1.688-0.422-3.945-0.422-6.773V47.798
		c0-3.078,0.188-5.523,0.563-7.336c0.453-2.516,1.422-4.625,2.906-6.328c2.031-2.406,4.336-3.609,6.914-3.609c3.75,0,6.523,2,8.32,6
		c1.344,3.016,2.016,6.633,2.016,10.852v14.32c0,4.688-0.578,8.18-1.734,10.477C58.854,73.563,58.308,74.524,57.901,75.056z
		 M58.44,46.696c0-3.781-0.656-6.742-1.969-8.883c-1.391-2.188-3.234-3.281-5.531-3.281c-2.828,0-4.875,1.422-6.141,4.266
		c-0.969,2.172-1.453,4.828-1.453,7.969v15.727c0,3.203,0.508,5.891,1.523,8.063c1.266,2.781,3.281,4.172,6.047,4.172
		c1.828,0,3.383-0.695,4.664-2.086c1.125-1.266,1.898-2.93,2.32-4.992c0.172-0.906,0.305-1.793,0.398-2.66s0.141-1.66,0.141-2.379
		V46.696z"/>
</g>
</svg>
