<?xml version="1.0" encoding="utf-8"?>
<!-- Generator: Adobe Illustrator 16.0.0, SVG Export Plug-In . SVG Version: 6.00 Build 0)  -->
<!DOCTYPE svg PUBLIC "-//W3C//DTD SVG 1.1//EN" "http://www.w3.org/Graphics/SVG/1.1/DTD/svg11.dtd">
<svg version="1.1" id="Capa_1" xmlns="http://www.w3.org/2000/svg" xmlns:xlink="http://www.w3.org/1999/xlink" x="0px" y="0px"
	 width="100px" height="100px" viewBox="0 0 100 100" enable-background="new 0 0 100 100" xml:space="preserve">
<circle fill="#FFFF00" stroke="#000000" stroke-width="2" stroke-miterlimit="10" cx="50.917" cy="54.583" r="42.083"/>
<g>
	<path stroke="#000000" stroke-width="4" stroke-miterlimit="10" d="M51.972,77.567c-0.875,0-1.313-0.367-1.313-1.102V36.931
		c0-1.875-0.117-2.828-0.352-2.859c-0.279,0-0.88,0.742-1.799,2.227l-3.271,5.617l-5.087,8.919c-0.44,0.759-0.99,1.139-1.65,1.139
		c-0.234,0-0.471-0.063-0.705-0.188c-0.473-0.266-0.707-0.641-0.707-1.125c0-0.422,0.18-0.906,0.539-1.453l9.516-16.078
		c0.859-1.469,1.641-2.57,2.344-3.305c0.531-0.484,1.148-0.727,1.852-0.727h0.305h0.422c0.781,0.063,1.219,0.477,1.313,1.243v46.076
		c0,0.125-0.063,0.313-0.188,0.563C52.894,77.372,52.487,77.567,51.972,77.567z"/>
</g>
</svg>
