<?xml version="1.0" encoding="utf-8"?>
<!-- Generator: Adobe Illustrator 16.0.0, SVG Export Plug-In . SVG Version: 6.00 Build 0)  -->
<!DOCTYPE svg PUBLIC "-//W3C//DTD SVG 1.1//EN" "http://www.w3.org/Graphics/SVG/1.1/DTD/svg11.dtd">
<svg version="1.1" id="Capa_1" xmlns="http://www.w3.org/2000/svg" xmlns:xlink="http://www.w3.org/1999/xlink" x="0px" y="0px"
	 width="100px" height="100px" viewBox="0 0 100 100" enable-background="new 0 0 100 100" xml:space="preserve">
<circle fill="#FFFF00" stroke="#000000" stroke-width="2" stroke-miterlimit="10" cx="50.917" cy="54.583" r="42.083"/>
<g>
	<path stroke="#000000" stroke-width="4" stroke-miterlimit="10" d="M60.038,77.039H42.952c-1.609,0-2.367-0.457-2.273-1.37
		c0-0.44,0.195-1.038,0.586-1.794l4.195-6.77l4.172-6.816c3.563-5.919,5.898-10.526,7.008-13.821
		c0.797-2.296,1.195-4.42,1.195-6.372c0-1.624-0.297-2.912-0.891-3.865c-1.438-2.28-3.195-3.584-5.273-3.912
		c-0.328-0.063-0.605-0.098-0.832-0.105s-0.402-0.012-0.527-0.012c-2.125,0-3.742,0.793-4.852,2.379s-1.664,3.949-1.664,7.09
		c0,0.109-0.07,0.273-0.211,0.492c-0.281,0.359-0.695,0.539-1.242,0.539c-0.875,0-1.43-0.367-1.664-1.102
		c0-1.891,0.211-3.559,0.633-5.004s1.023-2.637,1.805-3.574c1.25-1.578,2.492-2.711,3.727-3.398c0.688-0.359,1.41-0.621,2.168-0.785
		s1.59-0.246,2.496-0.246c1.547,0,3.094,0.492,4.641,1.477c1.344,0.906,2.375,1.977,3.094,3.211c1.281,2.234,1.922,4.711,1.922,7.43
		c0,1.906-0.32,3.891-0.961,5.953c-0.438,1.391-4.789,9.61-13.055,24.657c-0.094,0.203-0.195,0.445-0.305,0.727
		c-0.047,0.141-0.078,0.227-0.094,0.258l0.023,0.258l0.023,0.398c0,0.609,0.477,0.914,1.43,0.914h11.859
		c0.719,0.234,1.078,0.711,1.078,1.43C61.163,76.039,60.788,76.617,60.038,77.039z"/>
</g>
</svg>
