<?xml version="1.0" encoding="utf-8"?>
<!-- Generator: Adobe Illustrator 16.0.0, SVG Export Plug-In . SVG Version: 6.00 Build 0)  -->
<!DOCTYPE svg PUBLIC "-//W3C//DTD SVG 1.1//EN" "http://www.w3.org/Graphics/SVG/1.1/DTD/svg11.dtd">
<svg version="1.1" id="Capa_1" xmlns="http://www.w3.org/2000/svg" xmlns:xlink="http://www.w3.org/1999/xlink" x="0px" y="0px"
	 width="100px" height="100px" viewBox="0 0 100 100" enable-background="new 0 0 100 100" xml:space="preserve">
<circle fill="#FFFF00" stroke="#000000" stroke-width="2" stroke-miterlimit="10" cx="50.917" cy="54.583" r="42.083"/>
<g>
	<path stroke="#000000" stroke-width="4" stroke-miterlimit="10" d="M51.772,76.331c-2.125,0-3.961-0.43-5.508-1.289
		c-1.625-0.906-3.016-2.328-4.172-4.266c-0.406-0.656-0.735-1.359-0.985-2.109s-0.375-1.539-0.375-2.367l-0.07-1.453v-3.281
		c0-1,0.446-1.5,1.338-1.5c0.554,0,0.983,0.234,1.292,0.703c0.123,0.266,0.199,0.531,0.23,0.797l0.07,2.508l0.094,2.508
		c0.234,1.844,0.93,3.313,2.086,4.406c1.656,1.484,3.492,2.227,5.508,2.227c0.563,0,1.09-0.055,1.582-0.164s1.035-0.305,1.629-0.586
		c2.688-1.266,4.031-4.719,4.031-10.359c0-5.5-3.375-8.25-10.125-8.25c-0.953,0-1.43-0.531-1.43-1.594
		c0-0.875,0.492-1.406,1.477-1.594c6.719,0,10.078-2.68,10.078-8.04c0-5.625-1.344-9.078-4.031-10.359
		c-1.063-0.516-2.148-0.773-3.258-0.773c-2,0-3.82,0.75-5.461,2.25c-1.031,0.938-1.727,2.672-2.086,5.203
		c-0.063,0.547-0.105,1.152-0.129,1.816s-0.035,1.113-0.035,1.348v0.984c-0.186,0.688-0.686,1.031-1.5,1.031
		c-0.813,0-1.268-0.328-1.36-0.984c0-4.531,0.477-7.602,1.427-9.211c1.154-1.906,2.533-3.309,4.139-4.207s3.461-1.348,5.566-1.348
		c1.418,0,2.699,0.359,3.846,1.078s2.18,1.773,3.1,3.164c1.621,2.5,2.432,5.438,2.432,8.813c0,4.797-1.766,8.461-5.297,10.993
		c3.531,2.516,5.297,6.141,5.297,10.875c0,3.406-0.813,6.336-2.438,8.789c-0.906,1.359-1.945,2.406-3.117,3.141
		S53.163,76.331,51.772,76.331z"/>
</g>
</svg>
