<?xml version="1.0" encoding="utf-8"?>
<!-- Generator: Adobe Illustrator 16.0.0, SVG Export Plug-In . SVG Version: 6.00 Build 0)  -->
<!DOCTYPE svg PUBLIC "-//W3C//DTD SVG 1.1//EN" "http://www.w3.org/Graphics/SVG/1.1/DTD/svg11.dtd">
<svg version="1.1" id="Capa_1" xmlns="http://www.w3.org/2000/svg" xmlns:xlink="http://www.w3.org/1999/xlink" x="0px" y="0px"
	 width="100px" height="100px" viewBox="0 0 100 100" enable-background="new 0 0 100 100" xml:space="preserve">
<circle fill="#FFFF00" stroke="#000000" stroke-width="2" stroke-miterlimit="10" cx="50.917" cy="54.583" r="42.083"/>
<g>
	<path stroke="#000000" stroke-width="4" stroke-miterlimit="10" d="M57.541,78.043c-0.781,0-1.219-0.188-1.313-0.563V56.105H40.361
		c-1.391,0-2.086-0.727-2.086-2.18V30.582v-0.375c0.047-0.406,0.484-0.609,1.313-0.609c0.594,0,0.945,0.203,1.055,0.609v18.563v1.5
		v0.811c0,0.301,0.043,0.58,0.129,0.834s0.207,0.469,0.364,0.645c0.234,0.316,0.657,0.477,1.268,0.477h0.469h1.268h12.089V30.277
		c0.141-0.453,0.609-0.68,1.406-0.68c0.703,0,1.102,0.211,1.195,0.633v47.086C58.643,77.801,58.213,78.043,57.541,78.043z"/>
</g>
</svg>
