<?xml version="1.0" encoding="utf-8"?>
<!-- Generator: Adobe Illustrator 16.0.0, SVG Export Plug-In . SVG Version: 6.00 Build 0)  -->
<!DOCTYPE svg PUBLIC "-//W3C//DTD SVG 1.1//EN" "http://www.w3.org/Graphics/SVG/1.1/DTD/svg11.dtd">
<svg version="1.1" id="Capa_1" xmlns="http://www.w3.org/2000/svg" xmlns:xlink="http://www.w3.org/1999/xlink" x="0px" y="0px"
	 width="100px" height="100px" viewBox="0 0 100 100" enable-background="new 0 0 100 100" xml:space="preserve">
<circle fill="#FFFF00" stroke="#000000" stroke-width="2" stroke-miterlimit="10" cx="50.917" cy="54.583" r="42.083"/>
<path stroke="#000000" stroke-width="4" stroke-miterlimit="10" d="M47.077,32.493c-1.799,0-2.698,0.844-2.698,2.531v18.469
	c1.188-0.453,2.405-0.805,3.648-1.055c1.244-0.25,2.445-0.375,3.603-0.375c2.33,0,4.342,0.48,6.031,1.441s2.855,1.934,3.496,2.918
	c0.75,1.172,1.291,2.945,1.619,5.32c0.125,0.844,0.188,1.617,0.188,2.32c0,3.469-0.891,6.656-2.672,9.563
	c-0.984,1.609-2.363,2.871-4.137,3.785s-3.559,1.371-5.355,1.371c-2.406,0-4.375-0.734-5.906-2.203
	c-1.766-1.641-2.648-3.977-2.648-7.008c0-0.219,0.039-0.43,0.117-0.633c0.141-0.391,0.531-0.586,1.172-0.586
	c0.797,0,1.195,0.422,1.195,1.266l0.188,0.68c0.047,0.172,0.086,0.285,0.117,0.34s0.066,0.109,0.105,0.164s0.074,0.145,0.105,0.27
	l0.328,1.664c0.094,0.516,0.289,0.969,0.586,1.359c0.922,1.281,2.484,1.922,4.687,1.922h0.609h0.867
	c1.047,0,2.031-0.254,2.953-0.762s1.805-1.293,2.648-2.355c1.781-2.25,2.672-5,2.672-8.25c0-0.531-0.031-1.082-0.094-1.652
	s-0.164-1.152-0.305-1.746c-0.469-2.25-1.563-3.953-3.281-5.109c-1.453-0.938-3.195-1.406-5.227-1.406
	c-0.672,0-1.348,0.055-2.027,0.164s-1.363,0.281-2.05,0.516c-1.328,0.453-2.289,1-2.883,1.641c-0.25,0.25-0.531,0.375-0.844,0.375
	c-0.406,0-0.781-0.152-1.125-0.457s-0.516-0.66-0.516-1.066V33.22c0-1.891,0.945-2.836,2.836-2.836h17.132
	c0.422,0.078,0.633,0.383,0.633,0.914c0,0.719-0.211,1.117-0.633,1.195H47.077z"/>
</svg>
