<?xml version="1.0" encoding="utf-8"?>
<!-- Generator: Adobe Illustrator 16.0.0, SVG Export Plug-In . SVG Version: 6.00 Build 0)  -->
<!DOCTYPE svg PUBLIC "-//W3C//DTD SVG 1.1//EN" "http://www.w3.org/Graphics/SVG/1.1/DTD/svg11.dtd">
<svg version="1.1" id="Capa_1" xmlns="http://www.w3.org/2000/svg" xmlns:xlink="http://www.w3.org/1999/xlink" x="0px" y="0px"
	 width="100px" height="100px" viewBox="0 0 100 100" enable-background="new 0 0 100 100" xml:space="preserve">
<circle fill="#FFFF00" stroke="#000000" stroke-width="2" stroke-miterlimit="10" cx="50.917" cy="54.583" r="42.083"/>
<path stroke="#000000" stroke-width="4" stroke-miterlimit="10" d="M54.62,77.116c-1.141,0.594-2.523,0.891-4.148,0.891
	c-1.313,0-2.57-0.313-3.773-0.938c-0.813-0.422-1.867-1.289-3.164-2.602c-2-1.923-3-4.65-3-8.182c0-2.328,0.521-5.422,1.564-9.282
	c0.514-1.938,1.168-4.009,1.961-6.212l2.615-7.637l2.009-6.33l1.747-5.574c0.374-1.095,1.052-1.643,2.035-1.643
	c0.687,0,1.029,0.227,1.029,0.68c0,0.156-0.055,0.344-0.164,0.563l-7.992,25.5c2.641-1.859,5.055-2.789,7.242-2.789
	c2.25,0,4.227,0.945,5.93,2.836c0.688,0.766,1.195,1.57,1.523,2.414c0.109,0.359,0.25,0.891,0.422,1.594
	c0.109,0.453,0.219,0.906,0.328,1.359c0.156,0.781,0.281,1.551,0.375,2.309s0.141,1.426,0.141,2.004
	c0,3.109-1.078,5.828-3.234,8.156C56.784,75.608,55.636,76.569,54.62,77.116z M51.737,56.562c-2.047,0-3.957,0.914-5.73,2.742
	s-2.66,3.969-2.66,6.422c0,2.438,0.773,4.578,2.32,6.422s3.359,2.766,5.438,2.766c2.047,0,3.777-0.91,5.191-2.73
	s2.121-3.973,2.121-6.457c0-2.531-0.586-4.664-1.758-6.398C55.409,57.483,53.769,56.562,51.737,56.562z"/>
</svg>
