<?xml version="1.0" encoding="utf-8"?>
<!-- Generator: Adobe Illustrator 16.0.0, SVG Export Plug-In . SVG Version: 6.00 Build 0)  -->
<!DOCTYPE svg PUBLIC "-//W3C//DTD SVG 1.1//EN" "http://www.w3.org/Graphics/SVG/1.1/DTD/svg11.dtd">
<svg version="1.1" id="Capa_1" xmlns="http://www.w3.org/2000/svg" xmlns:xlink="http://www.w3.org/1999/xlink" x="0px" y="0px"
	 width="100px" height="100px" viewBox="0 0 100 100" enable-background="new 0 0 100 100" xml:space="preserve">
<circle fill="#FFFF00" stroke="#000000" stroke-width="2" stroke-miterlimit="10" cx="50.917" cy="54.583" r="42.083"/>
<path stroke="#000000" stroke-width="4" stroke-miterlimit="10" d="M53.762,55.97h3.281c0.219,0,0.328,0.18,0.328,0.539
	c0,0.156-0.047,0.344-0.141,0.563c-0.188,0.906-0.438,1.359-0.75,1.359h-3.518l-4.629,21.424c-0.611,0.968-1.254,1.451-1.928,1.451
	c-0.784,0-1.176-0.313-1.176-0.938c0.016-0.109,0.023-0.188,0.023-0.234l5.227-21.703h-4.078c-0.016-0.092-0.031-0.184-0.047-0.276
	c0.016-0.214,0.063-0.536,0.141-0.966c0-0.688,0.306-1.094,0.916-1.219l3.852,0.002l3.414-16.548l0.325-1.571
	c0-0.422-0.035-0.75-0.105-0.984s-0.207-0.438-0.41-0.609c-0.453-0.328-1.305-0.492-2.555-0.492h-12.89
	c-0.609,0.094-0.914-0.438-0.914-1.594c0-0.875,0.336-1.313,1.008-1.313h16.591c1.406,0,2.242,0.074,2.508,0.223
	s0.398,0.465,0.398,0.949l-0.141,1.077L53.762,55.97z"/>
</svg>
