<?xml version="1.0" encoding="utf-8"?>
<!-- Generator: Adobe Illustrator 16.0.0, SVG Export Plug-In . SVG Version: 6.00 Build 0)  -->
<!DOCTYPE svg PUBLIC "-//W3C//DTD SVG 1.1//EN" "http://www.w3.org/Graphics/SVG/1.1/DTD/svg11.dtd">
<svg version="1.1" id="Capa_1" xmlns="http://www.w3.org/2000/svg" xmlns:xlink="http://www.w3.org/1999/xlink" x="0px" y="0px"
	 width="100px" height="100px" viewBox="0 0 100 100" enable-background="new 0 0 100 100" xml:space="preserve">
<circle fill="#FFFF00" stroke="#000000" stroke-width="2" stroke-miterlimit="10" cx="50.917" cy="54.583" r="42.083"/>
<path stroke="#000000" stroke-width="4" stroke-miterlimit="10" d="M59.261,59.351c1.266,2.281,1.898,4.594,1.898,6.938
	c0,3.078-0.961,5.801-2.883,8.168s-4.258,3.551-7.008,3.551c-2.859,0-5.34-1.203-7.441-3.609s-3.152-5.109-3.152-8.109
	c0-2.344,0.57-4.602,1.711-6.773c1.313-2.469,3.211-4.398,5.695-5.789c-2.422-1.344-4.336-3.266-5.742-5.766
	c-0.547-1.063-0.961-2.16-1.242-3.293s-0.422-2.301-0.422-3.504c0-3,1.047-5.703,3.141-8.109s4.578-3.609,7.453-3.609
	c2.766,0,5.105,1.191,7.02,3.574s2.871,5.098,2.871,8.145c0,2.297-0.621,4.605-1.863,6.926s-2.902,4.215-4.98,5.684
	C56.378,55.179,58.026,57.038,59.261,59.351z M45.831,34.999c-1.406,1.859-2.109,4.07-2.109,6.633c0,2.531,0.781,4.891,2.344,7.078
	s3.281,3.281,5.156,3.281c1.766,0,3.395-1.094,4.887-3.281s2.238-4.547,2.238-7.078c0-2.516-0.723-4.711-2.168-6.586
	s-3.16-2.813-5.145-2.813C48.972,32.233,47.237,33.155,45.831,34.999z M46.112,59.28c-1.594,2.25-2.391,4.625-2.391,7.125
	c0,2.516,0.695,4.645,2.086,6.387s3.117,2.613,5.18,2.613c2.047,0,3.785-0.867,5.215-2.602s2.145-3.867,2.145-6.398
	c0-2.484-0.734-4.82-2.203-7.008c-1.516-2.234-3.156-3.352-4.922-3.352C49.394,56.046,47.69,57.124,46.112,59.28z"/>
</svg>
