<?xml version="1.0" encoding="utf-8"?>
<!-- Generator: Adobe Illustrator 16.0.0, SVG Export Plug-In . SVG Version: 6.00 Build 0)  -->
<!DOCTYPE svg PUBLIC "-//W3C//DTD SVG 1.1//EN" "http://www.w3.org/Graphics/SVG/1.1/DTD/svg11.dtd">
<svg version="1.1" id="Capa_1" xmlns="http://www.w3.org/2000/svg" xmlns:xlink="http://www.w3.org/1999/xlink" x="0px" y="0px"
	 width="100px" height="100px" viewBox="0 0 100 100" enable-background="new 0 0 100 100" xml:space="preserve">
<circle fill="#FFFF00" stroke="#000000" stroke-width="2" stroke-miterlimit="10" cx="50.917" cy="54.583" r="42.083"/>
<path stroke="#000000" stroke-width="4" stroke-miterlimit="10" d="M54.417,77.856V49.919c-1.641,1.641-3.109,2.609-4.406,2.906
	c-0.078,0.016-0.445,0.059-1.102,0.129s-1.438,0.105-2.344,0.105c-1.813,0-3.352-0.285-4.617-0.855s-2.297-1.48-3.094-2.73
	c-1.281-2.016-1.922-4.766-1.922-8.25c0-2.844,0.891-5.32,2.672-7.43c2.016-2.297,4.695-3.445,8.039-3.445
	c2.688,0,4.797,0.626,6.328,1.879c1.297,1.018,2.203,2.411,2.719,4.179c0.344,1.331,0.516,2.982,0.516,4.955v1.315v1.805v1.828
	v1.289V77.95c0,0.094-0.063,0.227-0.188,0.398c-0.281,0.313-0.672,0.469-1.172,0.469C54.894,78.817,54.417,78.497,54.417,77.856z
	 M46.612,32.669c-1,0-1.922,0.238-2.766,0.715s-1.594,1.16-2.25,2.051s-1.156,1.797-1.5,2.719s-0.516,1.922-0.516,3
	c0,1.344,0.141,2.559,0.422,3.645s0.781,2.152,1.5,3.199c1.484,2.125,3.266,3.188,5.344,3.188c3.219,0,5.555-1.695,7.008-5.086
	c0.563-1.359,0.844-2.852,0.844-4.477c0-0.641-0.047-1.328-0.141-2.063c-0.297-2.156-1.188-3.883-2.672-5.18
	c-0.703-0.578-1.5-1.008-2.391-1.289S47.644,32.669,46.612,32.669z"/>
</svg>
